<svg width="80" height="81" viewBox="0 0 80 81" fill="none" xmlns="http://www.w3.org/2000/svg">
<g clip-path="url(#clip0_6626_38401)">
<circle cx="40" cy="40.5" r="40" fill="url(#paint0_radial_6626_38401)" fill-opacity="0.12"/>
<circle cx="40" cy="40.5" r="27.6348" fill="url(#paint1_radial_6626_38401)" fill-opacity="0.3"/>
<path d="M30.1972 57.2301H49.803C51.4247 57.2301 52.7439 55.9109 52.7439 54.2892V33.5724H45.8819C44.2602 33.5724 42.941 32.2532 42.941 30.6316V23.7695H30.1972C28.5756 23.7695 27.2563 25.0887 27.2563 26.7104V54.2892C27.2563 55.9109 28.5756 57.2301 30.1972 57.2301ZM34.1184 37.559H45.8819C46.4237 37.559 46.8622 37.9974 46.8622 38.5392C46.8622 39.0811 46.4237 39.5195 45.8819 39.5195H34.1184C33.5765 39.5195 33.1381 39.0811 33.1381 38.5392C33.1381 37.9974 33.5765 37.559 34.1184 37.559ZM34.1184 41.4801H45.8819C46.4237 41.4801 46.8622 41.9186 46.8622 42.4604C46.8622 43.0022 46.4237 43.4407 45.8819 43.4407H34.1184C33.5765 43.4407 33.1381 43.0022 33.1381 42.4604C33.1381 41.9186 33.5765 41.4801 34.1184 41.4801ZM34.1184 45.4013H45.8819C46.4237 45.4013 46.8622 45.8397 46.8622 46.3816C46.8622 46.9234 46.4237 47.3619 45.8819 47.3619H34.1184C33.5765 47.3619 33.1381 46.9234 33.1381 46.3816C33.1381 45.8397 33.5765 45.4013 34.1184 45.4013ZM34.1184 49.3224H41.9607C42.5025 49.3224 42.941 49.7609 42.941 50.3027C42.941 50.8446 42.5025 51.283 41.9607 51.283H34.1184C33.5765 51.283 33.1381 50.8446 33.1381 50.3027C33.1381 49.7609 33.5765 49.3224 34.1184 49.3224Z" fill="url(#paint2_linear_6626_38401)"/>
<path d="M45.8819 31.6117H52.1696L44.9016 24.3438V30.6314C44.9016 31.1723 45.341 31.6117 45.8819 31.6117Z" fill="#9CCEFF"/>
</g>
<defs>
<radialGradient id="paint0_radial_6626_38401" cx="0" cy="0" r="1" gradientUnits="userSpaceOnUse" gradientTransform="translate(40 40.5) rotate(90) scale(40)">
<stop stop-color="#0059FF"/>
<stop offset="1" stop-color="#0059FF" stop-opacity="0.5"/>
</radialGradient>
<radialGradient id="paint1_radial_6626_38401" cx="0" cy="0" r="1" gradientUnits="userSpaceOnUse" gradientTransform="translate(40 40.5) rotate(90) scale(27.6348)">
<stop offset="0.398527" stop-color="#A8C7FF"/>
<stop offset="1" stop-color="#0059FF" stop-opacity="0.5"/>
</radialGradient>
<linearGradient id="paint2_linear_6626_38401" x1="40.0001" y1="23.7695" x2="40.0001" y2="61.2637" gradientUnits="userSpaceOnUse">
<stop stop-color="#B5E0FF"/>
<stop offset="0.720402" stop-color="#337FFF"/>
<stop offset="1" stop-color="#0059FF"/>
</linearGradient>
<clipPath id="clip0_6626_38401">
<rect width="80" height="80" fill="white" transform="translate(0 0.5)"/>
</clipPath>
</defs>
</svg>
