<svg width="17" height="17" viewBox="0 0 17 17" fill="none" xmlns="http://www.w3.org/2000/svg">
<path d="M11.7802 12.7897C12.5269 12.7897 12.9003 12.7897 13.1855 12.6444C13.4364 12.5166 13.6403 12.3126 13.7682 12.0617C13.9135 11.7765 13.9135 11.4031 13.9135 10.6564V4.25638C13.9135 3.50964 13.9135 3.13628 13.7682 2.85106C13.6403 2.60018 13.4364 2.3962 13.1855 2.26837C12.9003 2.12305 12.5269 2.12305 11.7802 2.12305H8.04683C7.30009 2.12305 6.92672 2.12305 6.64151 2.26837C6.39062 2.3962 6.18665 2.60018 6.05882 2.85106C5.91349 3.13628 5.91349 3.50964 5.91349 4.25638M5.38016 15.4564H9.11349C9.86023 15.4564 10.2336 15.4564 10.5188 15.3111C10.7697 15.1832 10.9737 14.9793 11.1015 14.7284C11.2468 14.4432 11.2468 14.0698 11.2468 13.323V6.92305C11.2468 6.17631 11.2468 5.80294 11.1015 5.51773C10.9737 5.26684 10.7697 5.06287 10.5188 4.93504C10.2336 4.78971 9.86023 4.78971 9.11349 4.78971H5.38016C4.63342 4.78971 4.26005 4.78971 3.97484 4.93504C3.72396 5.06287 3.51998 5.26684 3.39215 5.51773C3.24683 5.80294 3.24683 6.17631 3.24683 6.92305V13.323C3.24683 14.0698 3.24683 14.4432 3.39215 14.7284C3.51998 14.9793 3.72396 15.1832 3.97484 15.3111C4.26005 15.4564 4.63342 15.4564 5.38016 15.4564Z" stroke="#989898" stroke-width="1.33333"/>
</svg>
