<svg width="32" height="33" viewBox="0 0 32 33" fill="none" xmlns="http://www.w3.org/2000/svg">
<g clip-path="url(#clip0_5517_26744)">
<path d="M16 32.9395C24.8366 32.9395 32 25.776 32 16.9395C32 8.1029 24.8366 0.939453 16 0.939453C7.16344 0.939453 0 8.1029 0 16.9395C0 25.776 7.16344 32.9395 16 32.9395Z" fill="#F7931A"/>
<path d="M23.032 14.9595C23.346 12.8635 21.749 11.7365 19.567 10.9845L20.275 8.14445L18.547 7.71445L17.857 10.4795C17.403 10.3655 16.937 10.2595 16.472 10.1535L17.167 7.37045L15.439 6.93945L14.731 9.77845C14.355 9.69245 13.985 9.60845 13.627 9.51845L13.629 9.50945L11.245 8.91445L10.785 10.7605C10.785 10.7605 12.068 11.0545 12.041 11.0725C12.741 11.2475 12.867 11.7105 12.846 12.0785L12.04 15.3135C12.088 15.3255 12.15 15.3435 12.22 15.3705L12.037 15.3255L10.907 19.8575C10.821 20.0695 10.604 20.3885 10.114 20.2675C10.132 20.2925 8.858 19.9545 8.858 19.9545L8 21.9325L10.25 22.4935C10.668 22.5985 11.078 22.7085 11.481 22.8115L10.766 25.6835L12.493 26.1135L13.201 23.2735C13.673 23.4005 14.131 23.5185 14.579 23.6305L13.873 26.4585L15.601 26.8885L16.316 24.0225C19.264 24.5805 21.48 24.3555 22.413 21.6895C23.165 19.5435 22.376 18.3045 20.825 17.4975C21.955 17.2375 22.805 16.4945 23.032 14.9595ZM19.082 20.4975C18.549 22.6445 14.934 21.4835 13.762 21.1925L14.712 17.3875C15.884 17.6805 19.641 18.2595 19.082 20.4975ZM19.617 14.9285C19.13 16.8815 16.122 15.8885 15.147 15.6455L16.007 12.1955C16.982 12.4385 20.125 12.8915 19.617 14.9285Z" fill="white"/>
</g>
<defs>
<clipPath id="clip0_5517_26744">
<rect width="32" height="32" fill="white" transform="translate(0 0.939453)"/>
</clipPath>
</defs>
</svg>
