<svg width="32" height="33" viewBox="0 0 32 33" fill="none" xmlns="http://www.w3.org/2000/svg">
<g clip-path="url(#clip0_5517_26752)">
<path fill-rule="evenodd" clip-rule="evenodd" d="M32 16.9395C32 25.7745 24.8351 32.9395 16 32.9395C7.16494 32.9395 0 25.7745 0 16.9395C0 8.10439 7.16494 0.939453 16 0.939453C24.8351 0.939453 32 8.10439 32 16.9395Z" fill="#29296E"/>
<path fill-rule="evenodd" clip-rule="evenodd" d="M23.4966 12.6684L23.0886 11.419C23.0122 11.164 22.8082 10.9728 22.5532 10.8835L21.3038 10.501C21.1253 10.4501 21.1253 10.2078 21.3038 10.1441L22.5532 9.73611C22.8082 9.65961 22.9994 9.45563 23.0886 9.20065L23.4711 7.95125C23.5221 7.77276 23.7643 7.77276 23.8281 7.95125L24.2361 9.20065C24.3126 9.45563 24.5165 9.64687 24.7715 9.73611L26.0209 10.1186C26.1994 10.1696 26.1994 10.4118 26.0209 10.4756L24.7715 10.8835C24.5165 10.96 24.3253 11.164 24.2361 11.419L23.8536 12.6684C23.7898 12.8341 23.5476 12.8341 23.4966 12.6684Z" fill="#FAFAFA"/>
<path fill-rule="evenodd" clip-rule="evenodd" d="M1.40234 16.6843C1.78481 15.9321 2.53701 15.3584 3.32744 15.0014C4.11788 14.6444 4.98481 14.4277 5.839 14.364C7.56011 14.211 9.24298 14.4914 10.7729 15.0014C11.5633 15.2436 12.2645 15.5624 12.9912 15.8938C13.3482 16.0596 13.6796 16.2636 14.0239 16.4548L14.9673 17.003C16.0127 17.6405 17.0199 18.2142 17.9633 18.6604C18.9195 19.0938 19.7737 19.3998 20.5768 19.5528C21.38 19.7058 22.2087 19.7058 23.2159 19.4763C24.2231 19.2468 25.345 18.7496 26.5306 18.1249C27.7163 17.4875 28.9402 16.7098 30.3298 15.9576C30.1896 17.5385 29.7434 19.0301 29.0549 20.4707C28.341 21.8859 27.3466 23.2755 25.9059 24.3974C24.4908 25.5321 22.5402 26.3098 20.5641 26.4373C18.5753 26.5775 16.7011 26.1313 15.0948 25.4683C13.4884 24.7926 12.086 23.913 10.8621 22.944C10.5179 22.6763 10.3394 22.5233 10.0844 22.3066L9.38322 21.6819C8.91151 21.3122 8.45254 20.866 7.98083 20.4962C7.05015 19.6803 6.11948 18.8899 5.09956 18.2142C4.58959 17.8699 4.06689 17.5385 3.46768 17.258C3.17446 17.1177 2.85573 16.9903 2.51151 16.8883C2.16728 16.7735 1.82306 16.7098 1.40234 16.6843Z" fill="#FF4F0A"/>
<path fill-rule="evenodd" clip-rule="evenodd" d="M1.40234 16.7101C1.59358 15.091 2.34577 13.5738 3.55693 12.2862C4.75533 11.0113 6.64218 10.0169 8.72027 9.88937C9.75294 9.82562 10.7984 9.94037 11.7545 10.1953C12.7107 10.4631 13.6031 10.8455 14.4191 11.3045C14.827 11.534 15.1968 11.789 15.5792 12.0312L16.5864 12.7961L18.1545 14.0328C19.1745 14.836 20.1434 15.5882 21.0358 16.2129C21.941 16.8376 22.7059 17.2838 23.4454 17.5515C24.1721 17.8447 25.09 17.9085 26.3139 17.6025C26.9131 17.4623 27.5506 17.2073 28.2262 16.9268C28.8892 16.6463 29.5904 16.3021 30.3553 15.9706C30.2661 16.7866 30.1004 17.5898 29.7816 18.3547C29.4757 19.1196 29.0804 19.8718 28.5322 20.573C28.2517 20.9173 27.9458 21.2615 27.5888 21.5675C27.2318 21.8734 26.8366 22.1667 26.4031 22.4216C25.5362 22.9189 24.5035 23.2886 23.4454 23.4288C22.3872 23.5563 21.329 23.4926 20.3601 23.2886C19.3912 23.0846 18.5115 22.7659 17.6956 22.3961C16.0764 21.644 14.7251 20.7005 13.5266 19.6934C12.9274 19.1961 12.3665 18.6734 11.831 18.138L11.2063 17.5005C11.0151 17.322 10.8239 17.1308 10.6326 16.9651C9.86768 16.2894 9.15374 15.7667 8.37605 15.4479C7.59836 15.1037 6.60394 14.9762 5.38003 15.2057C4.15613 15.4479 2.83023 15.9706 1.40234 16.7101Z" fill="#FAFAFA"/>
<path fill-rule="evenodd" clip-rule="evenodd" d="M7.904 25.035C7.904 25.5322 7.50878 25.9274 7.01157 25.9274C6.51436 25.9274 6.11914 25.5322 6.11914 25.035C6.11914 24.5378 6.51436 24.1426 7.01157 24.1426C7.50878 24.1426 7.904 24.5378 7.904 25.035Z" fill="#FAFAFA"/>
<path fill-rule="evenodd" clip-rule="evenodd" d="M7.904 25.035C7.904 25.5322 7.50878 25.9274 7.01157 25.9274C6.51436 25.9274 6.11914 25.5322 6.11914 25.035C6.11914 24.5378 6.51436 24.1426 7.01157 24.1426C7.50878 24.1426 7.904 24.5378 7.904 25.035Z" fill="#FAFAFA"/>
</g>
<defs>
<clipPath id="clip0_5517_26752">
<rect width="32" height="32" fill="white" transform="translate(0 0.939453)"/>
</clipPath>
</defs>
</svg>
