<svg width="21" height="21" viewBox="0 0 21 21" fill="none" xmlns="http://www.w3.org/2000/svg">
<g clip-path="url(#clip0_5607_3876)">
<path d="M10.6709 20.3813C16.1937 20.3813 20.6709 15.9042 20.6709 10.3813C20.6709 4.8585 16.1937 0.381348 10.6709 0.381348C5.14805 0.381348 0.670898 4.8585 0.670898 10.3813C0.670898 15.9042 5.14805 20.3813 10.6709 20.3813Z" fill="#26A17B"/>
<path fill-rule="evenodd" clip-rule="evenodd" d="M11.6846 11.3588V11.3576C11.6159 11.3626 11.2615 11.3838 10.4709 11.3838C9.83965 11.3838 9.39527 11.3651 9.23902 11.3576V11.3595C6.80902 11.2526 4.99527 10.8295 4.99527 10.3232C4.99527 9.8176 6.80902 9.39447 9.23902 9.28572V10.9382C9.39777 10.9495 9.85277 10.9763 10.4815 10.9763C11.2359 10.9763 11.614 10.9451 11.6846 10.9388V9.28697C14.1096 9.3951 15.919 9.81822 15.919 10.3232C15.919 10.8295 14.1096 11.2513 11.6846 11.3588ZM11.6846 9.1151V7.63635H15.0684V5.38135H5.85527V7.63635H9.23902V9.11447C6.48902 9.24072 4.4209 9.78572 4.4209 10.4382C4.4209 11.0907 6.48902 11.6351 9.23902 11.762V16.5007H11.6846V11.7607C14.4303 11.6345 16.4934 11.0901 16.4934 10.4382C16.4934 9.78635 14.4303 9.24197 11.6846 9.1151Z" fill="white"/>
</g>
<defs>
<clipPath id="clip0_5607_3876">
<rect width="20" height="20" fill="white" transform="translate(0.670898 0.381348)"/>
</clipPath>
</defs>
</svg>
