<svg width="24" height="24" viewBox="0 0 24 24" fill="none" xmlns="http://www.w3.org/2000/svg">
<path d="M9.47122 1.19995C9.30042 1.19995 9.14042 1.28235 9.04122 1.42115L3.31202 9.44195C3.23882 9.54475 3.19922 9.66795 3.19922 9.79395C3.19922 10.1288 3.47042 10.4 3.80522 10.4H6.79922V22.8H9.99922V1.72795C9.99922 1.43635 9.76282 1.19995 9.47122 1.19995Z" fill="#666666"/>
<path d="M14.528 22.8C14.6988 22.8 14.8588 22.7176 14.958 22.5788L20.6872 14.558C20.7604 14.4552 20.8 14.332 20.8 14.206C20.8 13.8712 20.5288 13.6 20.194 13.6H17.2V1.19995H14V22.272C14 22.5636 14.2364 22.8 14.528 22.8Z" fill="#666666"/>
</svg>
