<svg width="22" height="23" viewBox="0 0 22 23" fill="none" xmlns="http://www.w3.org/2000/svg">
<path d="M3.5 5.93945L5.88675 0.939453H0.113249L2.5 5.93945H3.5ZM17 20.438L22 22.8247V17.0512L17 19.438V20.438ZM3 5.43945H2.5V14.2259H3H3.5V5.43945H3ZM8.7121 19.938V20.438H17.5V19.938V19.438H8.7121V19.938ZM6.50182 19.493L6.30835 19.9541C7.06949 20.2735 7.88665 20.438 8.7121 20.438V19.938V19.438C8.01953 19.438 7.33391 19.3 6.6953 19.032L6.50182 19.493ZM3 14.2259H2.5C2.5 16.728 4.00114 18.9859 6.30835 19.9541L6.50182 19.493L6.6953 19.032C4.75949 18.2196 3.5 16.3252 3.5 14.2259H3Z" fill="#0059FF"/>
</svg>
