<svg width="30" height="31" viewBox="0 0 30 31" fill="none" xmlns="http://www.w3.org/2000/svg">
<path d="M15 30.9395C12.0333 30.9395 9.13318 30.0597 6.66645 28.4115C4.19971 26.7633 2.27712 24.4206 1.14181 21.6797C0.00649374 18.9388 -0.290557 15.9228 0.288223 13.0131C0.867 10.1034 2.29561 7.43064 4.3934 5.33285C6.49119 3.23506 9.16393 1.80645 12.0736 1.22767C14.9834 0.648895 17.9994 0.945945 20.7403 2.08126C23.4811 3.21657 25.8238 5.13916 27.472 7.6059C29.1203 10.0726 30 12.9727 30 15.9395L22.8038 15.9395C22.8038 14.396 22.3461 12.8872 21.4886 11.6039C20.6311 10.3206 19.4123 9.32034 17.9864 8.72969C16.5604 8.13904 14.9913 7.9845 13.4776 8.28561C11.9638 8.58672 10.5733 9.32996 9.48189 10.4213C8.39051 11.5127 7.64727 12.9032 7.34616 14.417C7.04505 15.9308 7.19959 17.4999 7.79024 18.9258C8.38089 20.3518 9.38112 21.5706 10.6644 22.4281C11.9478 23.2856 13.4566 23.7432 15 23.7432L15 30.9395Z" fill="#0059FF"/>
<rect x="16.1445" y="17.0845" width="6.92746" height="6.92746" fill="#0059FF"/>
<rect x="23.0723" y="24.0122" width="6.92746" height="6.92746" rx="3.46373" fill="#D56AFF"/>
</svg>
