<svg width="20" height="21" viewBox="0 0 20 21" fill="none" xmlns="http://www.w3.org/2000/svg">
<path d="M14.9827 9.64011V12.9734C14.9827 13.1901 14.9744 13.3984 14.9494 13.5984C14.7577 15.8484 13.4327 16.9651 10.991 16.9651H10.6577C10.4494 16.9651 10.2493 17.0651 10.1243 17.2318L9.12436 18.5651C8.68269 19.1568 7.96601 19.1568 7.52435 18.5651L6.52434 17.2318C6.416 17.0901 6.17435 16.9651 5.99102 16.9651H5.65769C2.99936 16.9651 1.66602 16.3068 1.66602 12.9734V9.64011C1.66602 7.19844 2.79102 5.87344 5.03269 5.68178C5.23269 5.65678 5.44102 5.64844 5.65769 5.64844H10.991C13.6494 5.64844 14.9827 6.98178 14.9827 9.64011Z" stroke="#666666" stroke-width="1.5" stroke-miterlimit="10" stroke-linecap="round" stroke-linejoin="round"/>
<path d="M18.3165 6.30613V9.63946C18.3165 12.0895 17.1915 13.4061 14.9499 13.5978C14.9749 13.3978 14.9832 13.1895 14.9832 12.9728V9.63946C14.9832 6.98113 13.6499 5.64779 10.9915 5.64779H5.6582C5.44154 5.64779 5.2332 5.65613 5.0332 5.68113C5.22487 3.43946 6.54987 2.31445 8.99154 2.31445H14.3249C16.9832 2.31445 18.3165 3.64779 18.3165 6.30613Z" stroke="#666666" stroke-width="1.5" stroke-miterlimit="10" stroke-linecap="round" stroke-linejoin="round"/>
<path d="M11.2469 11.6901H11.2544" stroke="#666666" stroke-width="2" stroke-linecap="round" stroke-linejoin="round"/>
<path d="M8.32893 11.6901H8.33643" stroke="#666666" stroke-width="2" stroke-linecap="round" stroke-linejoin="round"/>
<path d="M5.41292 11.6901H5.42042" stroke="#666666" stroke-width="2" stroke-linecap="round" stroke-linejoin="round"/>
</svg>
