<svg width="20" height="21" viewBox="0 0 20 21" fill="none" xmlns="http://www.w3.org/2000/svg">
<path d="M13.4496 3.11538L5.92461 5.61538C0.866276 7.30705 0.866276 10.0654 5.92461 11.7487L8.15794 12.4904L8.89961 14.7237C10.5829 19.782 13.3496 19.782 15.0329 14.7237L17.5413 7.20705C18.6579 3.83205 16.8246 1.99038 13.4496 3.11538ZM13.7163 7.59872L10.5496 10.7821C10.4246 10.9071 10.2663 10.9654 10.1079 10.9654C9.94961 10.9654 9.79128 10.9071 9.66628 10.7821C9.42461 10.5404 9.42461 10.1404 9.66628 9.89872L12.8329 6.71538C13.0746 6.47372 13.4746 6.47372 13.7163 6.71538C13.9579 6.95705 13.9579 7.35705 13.7163 7.59872Z" fill="black"/>
</svg>
