<svg width="20" height="20" viewBox="0 0 20 20" fill="none" xmlns="http://www.w3.org/2000/svg">
<path d="M8.54102 8.3585C8.54102 8.8085 8.66602 8.87516 8.94935 8.97516L9.37435 9.12516V7.7085H9.12435C8.80768 7.7085 8.54102 8.00016 8.54102 8.3585Z" fill="black"/>
<path d="M10.625 12.2917H10.875C11.2 12.2917 11.4583 12 11.4583 11.6417C11.4583 11.1917 11.3333 11.125 11.05 11.025L10.625 10.875V12.2917Z" fill="black"/>
<path d="M16.316 4.5665L14.6077 6.27484C14.4827 6.39984 14.3243 6.45817 14.166 6.45817C14.0077 6.45817 13.8493 6.39984 13.7243 6.27484C13.4827 6.03317 13.4827 5.63317 13.7243 5.3915L15.4327 3.68317C13.966 2.43317 12.0743 1.6665 9.99935 1.6665C5.39935 1.6665 1.66602 5.39984 1.66602 9.99984C1.66602 14.5998 5.39935 18.3332 9.99935 18.3332C14.5993 18.3332 18.3327 14.5998 18.3327 9.99984C18.3327 7.92484 17.566 6.03317 16.316 4.5665ZM11.4577 9.84984C11.991 10.0415 12.7077 10.4248 12.7077 11.6498C12.7077 12.6915 11.8827 13.5498 10.8743 13.5498H10.6243V13.7582C10.6243 14.0998 10.341 14.3832 9.99935 14.3832C9.65768 14.3832 9.37435 14.0998 9.37435 13.7582V13.5498H9.30768C8.19935 13.5498 7.29102 12.6165 7.29102 11.4665C7.29102 11.1165 7.57435 10.8332 7.91602 10.8332C8.25768 10.8332 8.54102 11.1165 8.54102 11.4582C8.54102 11.9165 8.88268 12.2915 9.30768 12.2915H9.37435V10.4415L8.54102 10.1498C8.00768 9.95817 7.29102 9.57484 7.29102 8.34984C7.29102 7.30817 8.11602 6.44984 9.12435 6.44984H9.37435V6.24984C9.37435 5.90817 9.65768 5.62484 9.99935 5.62484C10.341 5.62484 10.6243 5.90817 10.6243 6.24984V6.45817H10.691C11.7993 6.45817 12.7077 7.3915 12.7077 8.5415C12.7077 8.88317 12.4243 9.1665 12.0827 9.1665C11.741 9.1665 11.4577 8.88317 11.4577 8.5415C11.4577 8.08317 11.116 7.70817 10.691 7.70817H10.6243V9.55817L11.4577 9.84984Z" fill="black"/>
<path d="M18.9083 1.42484C18.8417 1.27484 18.725 1.14984 18.5667 1.08317C18.4917 1.05817 18.4167 1.0415 18.3333 1.0415H15C14.6583 1.0415 14.375 1.32484 14.375 1.6665C14.375 2.00817 14.6583 2.2915 15 2.2915H16.825L15.4333 3.68317C15.75 3.95817 16.0417 4.24984 16.3167 4.5665L17.7083 3.17484V4.99984C17.7083 5.3415 17.9917 5.62484 18.3333 5.62484C18.675 5.62484 18.9583 5.3415 18.9583 4.99984V1.6665C18.9583 1.58317 18.9417 1.50817 18.9083 1.42484Z" fill="black"/>
</svg>
