<svg width="20" height="20" viewBox="0 0 20 20" fill="none" xmlns="http://www.w3.org/2000/svg">
<path d="M16.6673 10.0003V15.0003C16.6673 16.842 15.1757 18.3337 13.334 18.3337H6.66732C4.82565 18.3337 3.33398 16.842 3.33398 15.0003V10.0003C3.33398 9.54199 3.70898 9.16699 4.16732 9.16699H5.80898C6.26732 9.16699 6.64232 9.54199 6.64232 10.0003V12.617C6.64232 13.2337 6.98398 13.8003 7.52565 14.092C7.76732 14.2253 8.03398 14.292 8.30898 14.292C8.62565 14.292 8.94232 14.2003 9.21732 14.017L10.009 13.5003L10.7423 13.992C11.2507 14.3337 11.9007 14.3753 12.4423 14.0837C12.9923 13.792 13.334 13.2337 13.334 12.6087V10.0003C13.334 9.54199 13.709 9.16699 14.1673 9.16699H15.834C16.2923 9.16699 16.6673 9.54199 16.6673 10.0003Z" fill="#111111"/>
<path d="M17.9173 5.83366V6.66699C17.9173 7.58366 17.4757 8.33366 16.2507 8.33366H3.75065C2.47565 8.33366 2.08398 7.58366 2.08398 6.66699V5.83366C2.08398 4.91699 2.47565 4.16699 3.75065 4.16699H16.2507C17.4757 4.16699 17.9173 4.91699 17.9173 5.83366Z" fill="#111111"/>
<path d="M9.70096 4.16686H5.10096C4.81763 3.85853 4.82596 3.38353 5.12596 3.08353L6.30929 1.9002C6.61763 1.59186 7.12596 1.59186 7.43429 1.9002L9.70096 4.16686Z" fill="#111111"/>
<path d="M14.891 4.16686H10.291L12.5577 1.9002C12.866 1.59186 13.3743 1.59186 13.6827 1.9002L14.866 3.08353C15.166 3.38353 15.1743 3.85853 14.891 4.16686Z" fill="#111111"/>
<path d="M11.6409 9.16699C12.0992 9.16699 12.4742 9.54199 12.4742 10.0003V12.6087C12.4742 13.2753 11.7326 13.6753 11.1826 13.3003L10.4326 12.8003C10.1576 12.617 9.79922 12.617 9.51589 12.8003L8.73255 13.317C8.18255 13.6837 7.44922 13.2837 7.44922 12.6253V10.0003C7.44922 9.54199 7.82422 9.16699 8.28255 9.16699H11.6409Z" fill="#111111"/>
</svg>
