<svg width="20" height="20" viewBox="0 0 20 20" fill="none" xmlns="http://www.w3.org/2000/svg">
<path d="M6.75742 9.87513C4.40742 10.0418 4.41576 13.4585 6.75742 13.6251H12.3158C12.9908 13.6335 13.6408 13.3751 14.1408 12.9251C15.7908 11.4835 14.9074 8.59179 12.7408 8.31679C11.9658 3.61679 5.17409 5.40013 6.78242 9.87513" fill="#111111"/>
<path d="M7.49935 18.9583C3.94102 18.9583 1.04102 16.0583 1.04102 12.5C1.04102 12.1583 1.32435 11.875 1.66602 11.875C2.00768 11.875 2.29102 12.1583 2.29102 12.5C2.29102 14.9667 4.00768 17.0333 6.31602 17.575L6.09102 17.2C5.91602 16.9 6.00768 16.5167 6.30768 16.3417C6.59935 16.1667 6.99102 16.2583 7.16602 16.5583L8.04102 18.0167C8.15768 18.2083 8.15768 18.45 8.04935 18.6417C7.93268 18.8333 7.72435 18.9583 7.49935 18.9583Z" fill="#111111"/>
<path d="M18.3327 8.12533C17.991 8.12533 17.7077 7.84199 17.7077 7.50033C17.7077 5.03366 15.991 2.96699 13.6827 2.42533L13.9077 2.80033C14.0827 3.10033 13.991 3.48366 13.691 3.65866C13.3994 3.83366 13.0077 3.74199 12.8327 3.44199L11.9577 1.98366C11.841 1.79199 11.841 1.55033 11.9494 1.35866C12.066 1.16699 12.2744 1.04199 12.4994 1.04199C16.0577 1.04199 18.9577 3.94199 18.9577 7.50033C18.9577 7.84199 18.6744 8.12533 18.3327 8.12533Z" fill="#111111"/>
</svg>
