<svg width="20" height="20" viewBox="0 0 20 20" fill="none" xmlns="http://www.w3.org/2000/svg">
<path d="M14.5158 3.6752H4.49076L6.05742 2.10853C6.29909 1.86686 6.29909 1.46686 6.05742 1.2252C5.81576 0.983529 5.41576 0.983529 5.17409 1.2252L2.54076 3.85853C2.48242 3.91686 2.44076 3.98353 2.40742 4.05853C2.37409 4.13353 2.35742 4.21686 2.35742 4.3002C2.35742 4.38353 2.37409 4.46686 2.40742 4.54186C2.44076 4.61686 2.48242 4.68353 2.54076 4.74186L5.17409 7.3752C5.29909 7.5002 5.45742 7.55853 5.61576 7.55853C5.77409 7.55853 5.93242 7.5002 6.05742 7.3752C6.29909 7.13353 6.29909 6.73353 6.05742 6.49186L4.49076 4.9252H14.5158C15.5491 4.9252 16.3908 5.76686 16.3908 6.8002V9.56686C16.3908 9.90853 16.6741 10.1919 17.0158 10.1919C17.3574 10.1919 17.6408 9.90853 17.6408 9.56686V6.8002C17.6408 5.0752 16.2408 3.6752 14.5158 3.6752Z" fill="#111111"/>
<path d="M17.6408 15.7003C17.6408 15.6169 17.6241 15.5336 17.5908 15.4586C17.5574 15.3836 17.5158 15.3169 17.4574 15.2586L14.8241 12.6253C14.5824 12.3836 14.1824 12.3836 13.9408 12.6253C13.6991 12.8669 13.6991 13.2669 13.9408 13.5086L15.5074 15.0753H5.48242C4.44909 15.0753 3.60742 14.2336 3.60742 13.2003V10.4336C3.60742 10.0919 3.32409 9.80859 2.98242 9.80859C2.64076 9.80859 2.35742 10.0919 2.35742 10.4336V13.2003C2.35742 14.9253 3.75742 16.3253 5.48242 16.3253H15.5074L13.9408 17.8919C13.6991 18.1336 13.6991 18.5336 13.9408 18.7753C14.0658 18.9003 14.2241 18.9586 14.3824 18.9586C14.5408 18.9586 14.6991 18.9003 14.8241 18.7753L17.4574 16.1419C17.5158 16.0836 17.5574 16.0169 17.5908 15.9419C17.6241 15.8669 17.6408 15.7836 17.6408 15.7003Z" fill="#111111"/>
</svg>
