<svg width="20" height="21" viewBox="0 0 20 21" fill="none" xmlns="http://www.w3.org/2000/svg">
<path d="M16.7001 6.33192L11.9001 2.97359C10.5918 2.05692 8.58345 2.10692 7.32511 3.08192L3.15011 6.34026C2.31678 6.99026 1.65845 8.32359 1.65845 9.37359V15.1236C1.65845 17.2486 3.38345 18.9819 5.50845 18.9819H14.4918C16.6168 18.9819 18.3418 17.2569 18.3418 15.1319V9.48192C18.3418 8.35692 17.6168 6.97359 16.7001 6.33192ZM10.6251 15.6486C10.6251 15.9903 10.3418 16.2736 10.0001 16.2736C9.65845 16.2736 9.37511 15.9903 9.37511 15.6486V13.1486C9.37511 12.8069 9.65845 12.5236 10.0001 12.5236C10.3418 12.5236 10.6251 12.8069 10.6251 13.1486V15.6486Z" fill="black"/>
</svg>
