<svg width="20" height="21" viewBox="0 0 20 21" fill="none" xmlns="http://www.w3.org/2000/svg">
<path d="M13.3333 2.31543H6.66667C3.75 2.31543 2.5 3.9821 2.5 6.4821V14.8154C2.5 17.3154 3.75 18.9821 6.66667 18.9821H13.3333C16.25 18.9821 17.5 17.3154 17.5 14.8154V6.4821C17.5 3.9821 16.25 2.31543 13.3333 2.31543ZM6.66667 10.8571H10C10.3417 10.8571 10.625 11.1404 10.625 11.4821C10.625 11.8238 10.3417 12.1071 10 12.1071H6.66667C6.325 12.1071 6.04167 11.8238 6.04167 11.4821C6.04167 11.1404 6.325 10.8571 6.66667 10.8571ZM13.3333 15.4404H6.66667C6.325 15.4404 6.04167 15.1571 6.04167 14.8154C6.04167 14.4738 6.325 14.1904 6.66667 14.1904H13.3333C13.675 14.1904 13.9583 14.4738 13.9583 14.8154C13.9583 15.1571 13.675 15.4404 13.3333 15.4404ZM15.4167 8.3571H13.75C12.4833 8.3571 11.4583 7.3321 11.4583 6.06543V4.39876C11.4583 4.0571 11.7417 3.77376 12.0833 3.77376C12.425 3.77376 12.7083 4.0571 12.7083 4.39876V6.06543C12.7083 6.64043 13.175 7.1071 13.75 7.1071H15.4167C15.7583 7.1071 16.0417 7.39043 16.0417 7.7321C16.0417 8.07376 15.7583 8.3571 15.4167 8.3571Z" fill="black"/>
</svg>
