<svg width="20" height="21" viewBox="0 0 20 21" fill="none" xmlns="http://www.w3.org/2000/svg">
<path d="M10.416 12.9401H8.33268C7.99102 12.9401 7.70768 12.6568 7.70768 12.3151C7.70768 11.9734 7.99102 11.6901 8.33268 11.6901H10.416C12.5993 11.6901 14.3743 9.9151 14.3743 7.73177C14.3743 5.54844 12.5993 3.77344 10.416 3.77344H6.24935C4.06602 3.77344 2.29102 5.54844 2.29102 7.73177C2.29102 8.64844 2.61602 9.5401 3.19935 10.2484C3.41602 10.5151 3.38268 10.9068 3.11602 11.1318C2.84935 11.3484 2.45768 11.3151 2.23268 11.0484C1.46602 10.1151 1.04102 8.9401 1.04102 7.73177C1.04102 4.85677 3.37435 2.52344 6.24935 2.52344H10.416C13.291 2.52344 15.6243 4.85677 15.6243 7.73177C15.6243 10.6068 13.291 12.9401 10.416 12.9401Z" fill="#1B1B1B"/>
<path d="M13.75 18.7741H9.58333C6.70833 18.7741 4.375 16.4408 4.375 13.5658C4.375 10.6908 6.70833 8.35742 9.58333 8.35742H11.6667C12.0083 8.35742 12.2917 8.64076 12.2917 8.98242C12.2917 9.32409 12.0083 9.60742 11.6667 9.60742H9.58333C7.4 9.60742 5.625 11.3824 5.625 13.5658C5.625 15.7491 7.4 17.5241 9.58333 17.5241H13.75C15.9333 17.5241 17.7083 15.7491 17.7083 13.5658C17.7083 12.6491 17.3833 11.7574 16.8 11.0491C16.5833 10.7824 16.6167 10.3908 16.8833 10.1658C17.15 9.94076 17.5417 9.98242 17.7667 10.2491C18.5417 11.1824 18.9667 12.3574 18.9667 13.5658C18.9583 16.4408 16.625 18.7741 13.75 18.7741Z" fill="#1B1B1B"/>
</svg>
