<svg width="21" height="21" viewBox="0 0 21 21" fill="none" xmlns="http://www.w3.org/2000/svg">
<path d="M17.319 13.4821V15.5655C17.319 17.1738 16.0107 18.4821 14.4023 18.4821H6.06901C4.46068 18.4821 3.15234 17.1738 3.15234 15.5655V15.0238C3.15234 13.7155 4.21901 12.6488 5.52734 12.6488H16.4857C16.944 12.6488 17.319 13.0238 17.319 13.4821Z" fill="black"/>
<path d="M13.1523 1.81543H7.31901C3.98568 1.81543 3.15234 2.64876 3.15234 5.9821V12.2988C3.78568 11.7404 4.61901 11.3988 5.52734 11.3988H16.4857C16.944 11.3988 17.319 11.0238 17.319 10.5654V5.9821C17.319 2.64876 16.4857 1.81543 13.1523 1.81543ZM11.069 9.1071H6.90234C6.56068 9.1071 6.27734 8.82376 6.27734 8.4821C6.27734 8.14043 6.56068 7.8571 6.90234 7.8571H11.069C11.4107 7.8571 11.694 8.14043 11.694 8.4821C11.694 8.82376 11.4107 9.1071 11.069 9.1071ZM13.569 6.19043H6.90234C6.56068 6.19043 6.27734 5.9071 6.27734 5.56543C6.27734 5.22376 6.56068 4.94043 6.90234 4.94043H13.569C13.9107 4.94043 14.194 5.22376 14.194 5.56543C14.194 5.9071 13.9107 6.19043 13.569 6.19043Z" fill="black"/>
</svg>
