<svg width="21" height="21" viewBox="0 0 21 21" fill="none" xmlns="http://www.w3.org/2000/svg">
<path d="M16.0188 5.1653L11.7104 2.67363C10.8854 2.19863 9.59375 2.19863 8.76875 2.67363L4.41875 5.18197C2.69375 6.34863 2.59375 6.52363 2.59375 8.38197V12.907C2.59375 14.7653 2.69375 14.9486 4.45208 16.132L8.76042 18.6236C9.17708 18.8653 9.71042 18.982 10.2354 18.982C10.7604 18.982 11.2937 18.8653 11.7021 18.6236L16.0521 16.1153C17.7771 14.9486 17.8771 14.7736 17.8771 12.9153V8.38197C17.8771 6.52363 17.7771 6.34863 16.0188 5.1653ZM10.2354 13.357C8.74375 13.357 7.52708 12.1403 7.52708 10.6486C7.52708 9.15697 8.74375 7.9403 10.2354 7.9403C11.7271 7.9403 12.9437 9.15697 12.9437 10.6486C12.9437 12.1403 11.7271 13.357 10.2354 13.357Z" fill="black"/>
</svg>
