<svg width="20" height="21" viewBox="0 0 20 21" fill="none" xmlns="http://www.w3.org/2000/svg">
<path d="M17.0827 17.8564H2.91602C2.57435 17.8564 2.29102 18.1398 2.29102 18.4814C2.29102 18.8231 2.57435 19.1064 2.91602 19.1064H17.0827C17.4243 19.1064 17.7077 18.8231 17.7077 18.4814C17.7077 18.1398 17.4243 17.8564 17.0827 17.8564Z" fill="#1B1B1B"/>
<path d="M4.16602 12.2488C4.50768 12.2488 4.79102 11.9654 4.79102 11.6238V4.57376L15.391 15.1738C15.516 15.2988 15.6743 15.3571 15.8327 15.3571C15.991 15.3571 16.1494 15.2988 16.2744 15.1738C16.516 14.9321 16.516 14.5321 16.2744 14.2904L5.67435 3.69043H12.7243C13.066 3.69043 13.3493 3.4071 13.3493 3.06543C13.3493 2.72376 13.066 2.44043 12.7243 2.44043H4.16602C4.08268 2.44043 4.00768 2.4571 3.92435 2.49043C3.77435 2.54876 3.64935 2.67376 3.59102 2.82376C3.55768 2.9071 3.54102 2.9821 3.54102 3.06543V11.6238C3.54102 11.9654 3.82435 12.2488 4.16602 12.2488Z" fill="#1B1B1B"/>
</svg>
