<svg width="20" height="20" viewBox="0 0 20 20" fill="none" xmlns="http://www.w3.org/2000/svg">
<path d="M10.993 5H5.65964C5.44297 5 5.23464 5.00833 5.03464 5.03333C2.79297 5.225 1.66797 6.55 1.66797 8.99167V12.325C1.66797 15.6583 3.0013 16.3167 5.65964 16.3167H5.99297C6.1763 16.3167 6.41797 16.4417 6.5263 16.5833L7.5263 17.9167C7.96797 18.5083 8.68464 18.5083 9.1263 17.9167L10.1263 16.5833C10.2513 16.4167 10.4513 16.3167 10.6596 16.3167H10.993C13.4346 16.3167 14.7596 15.2 14.9513 12.95C14.9763 12.75 14.9846 12.5417 14.9846 12.325V8.99167C14.9846 6.33333 13.6513 5 10.993 5ZM5.41797 11.6667C4.9513 11.6667 4.58464 11.2917 4.58464 10.8333C4.58464 10.375 4.95964 10 5.41797 10C5.8763 10 6.2513 10.375 6.2513 10.8333C6.2513 11.2917 5.8763 11.6667 5.41797 11.6667ZM8.3263 11.6667C7.85963 11.6667 7.49297 11.2917 7.49297 10.8333C7.49297 10.375 7.86797 10 8.3263 10C8.78464 10 9.15964 10.375 9.15964 10.8333C9.15964 11.2917 8.79297 11.6667 8.3263 11.6667ZM11.243 11.6667C10.7763 11.6667 10.4096 11.2917 10.4096 10.8333C10.4096 10.375 10.7846 10 11.243 10C11.7013 10 12.0763 10.375 12.0763 10.8333C12.0763 11.2917 11.7013 11.6667 11.243 11.6667Z" fill="#111111"/>
<path d="M18.3162 5.65866V8.99199C18.3162 10.6587 17.7996 11.792 16.7662 12.417C16.5162 12.567 16.2246 12.367 16.2246 12.0753L16.2329 8.99199C16.2329 5.65866 14.3246 3.75033 10.9912 3.75033L5.91622 3.75866C5.62455 3.75866 5.42455 3.46699 5.57455 3.21699C6.19955 2.18366 7.33289 1.66699 8.99122 1.66699H14.3246C16.9829 1.66699 18.3162 3.00033 18.3162 5.65866Z" fill="#111111"/>
</svg>
