<svg width="20" height="20" viewBox="0 0 20 20" fill="none" xmlns="http://www.w3.org/2000/svg">
<path d="M16.6419 8.33337H3.30859V15C3.30859 17.5 4.14193 18.3334 6.64193 18.3334H13.3086C15.8086 18.3334 16.6419 17.5 16.6419 15V8.33337Z" stroke="#666666" stroke-width="1.5" stroke-miterlimit="10" stroke-linecap="round" stroke-linejoin="round"/>
<path d="M17.9173 5.83329V6.66663C17.9173 7.58329 17.4757 8.33329 16.2507 8.33329H3.75065C2.47565 8.33329 2.08398 7.58329 2.08398 6.66663V5.83329C2.08398 4.91663 2.47565 4.16663 3.75065 4.16663H16.2507C17.4757 4.16663 17.9173 4.91663 17.9173 5.83329Z" stroke="#666666" stroke-width="1.5" stroke-miterlimit="10" stroke-linecap="round" stroke-linejoin="round"/>
<path d="M9.70096 4.16662H5.10096C4.81763 3.85828 4.82596 3.38328 5.12596 3.08328L6.30929 1.89995C6.61763 1.59162 7.12596 1.59162 7.43429 1.89995L9.70096 4.16662Z" stroke="#666666" stroke-width="1.5" stroke-miterlimit="10" stroke-linecap="round" stroke-linejoin="round"/>
<path d="M14.891 4.16662H10.291L12.5577 1.89995C12.866 1.59162 13.3743 1.59162 13.6827 1.89995L14.866 3.08328C15.166 3.38328 15.1743 3.85828 14.891 4.16662Z" stroke="#666666" stroke-width="1.5" stroke-miterlimit="10" stroke-linecap="round" stroke-linejoin="round"/>
<path d="M7.44922 8.33337V12.6167C7.44922 13.2834 8.18255 13.675 8.74089 13.3167L9.52422 12.8C9.80755 12.6167 10.1659 12.6167 10.4409 12.8L11.1826 13.3C11.7326 13.6667 12.4742 13.275 12.4742 12.6084V8.33337H7.44922Z" stroke="#666666" stroke-width="1.5" stroke-miterlimit="10" stroke-linecap="round" stroke-linejoin="round"/>
</svg>
