<svg width="20" height="20" viewBox="0 0 20 20" fill="none" xmlns="http://www.w3.org/2000/svg">
<path d="M4.49002 16.6025L4.83052 15.9343H4.83052L4.49002 16.6025ZM3.39748 15.51L2.72923 15.8505L2.72923 15.8505L3.39748 15.51ZM16.6025 15.51L15.9343 15.1695L16.6025 15.51ZM15.51 16.6025L15.1695 15.9343L15.51 16.6025ZM16.6025 4.49002L15.9343 4.83052L15.9343 4.83052L16.6025 4.49002ZM15.51 3.39748L15.8505 2.72923V2.72923L15.51 3.39748ZM3.39748 4.49002L4.06574 4.83052H4.06574L3.39748 4.49002ZM4.49002 3.39748L4.83052 4.06574V4.06574L4.49002 3.39748ZM11.125 16.875V17.625H12.625V16.875H11.875H11.125ZM12.625 3.125V2.375H11.125V3.125H11.875H12.625ZM16.875 7.125H16.125V12.875H16.875H17.625V7.125H16.875ZM12.875 16.875V16.125H7.125V16.875V17.625H12.875V16.875ZM3.125 12.875H3.875V7.125H3.125H2.375V12.875H3.125ZM7.125 3.125V3.875H12.875V3.125V2.375H7.125V3.125ZM7.125 16.875V16.125C6.41256 16.125 5.92333 16.1244 5.54408 16.0934C5.17358 16.0632 4.97456 16.0076 4.83052 15.9343L4.49002 16.6025L4.14953 17.2708C4.54027 17.4699 4.95867 17.5506 5.42193 17.5884C5.87644 17.6256 6.43731 17.625 7.125 17.625V16.875ZM3.125 12.875H2.375C2.375 13.5627 2.37442 14.1236 2.41155 14.5781C2.4494 15.0413 2.53014 15.4597 2.72923 15.8505L3.39748 15.51L4.06574 15.1695C3.99235 15.0254 3.93684 14.8264 3.90657 14.4559C3.87558 14.0767 3.875 13.5874 3.875 12.875H3.125ZM4.49002 16.6025L4.83052 15.9343C4.50123 15.7665 4.23352 15.4988 4.06574 15.1695L3.39748 15.51L2.72923 15.8505C3.04082 16.462 3.538 16.9592 4.14953 17.2708L4.49002 16.6025ZM16.875 12.875H16.125C16.125 13.5874 16.1244 14.0767 16.0934 14.4559C16.0632 14.8264 16.0077 15.0254 15.9343 15.1695L16.6025 15.51L17.2708 15.8505C17.4699 15.4597 17.5506 15.0413 17.5884 14.5781C17.6256 14.1236 17.625 13.5627 17.625 12.875H16.875ZM12.875 16.875V17.625C13.5627 17.625 14.1236 17.6256 14.5781 17.5884C15.0413 17.5506 15.4597 17.4699 15.8505 17.2708L15.51 16.6025L15.1695 15.9343C15.0254 16.0076 14.8264 16.0632 14.4559 16.0934C14.0767 16.1244 13.5874 16.125 12.875 16.125V16.875ZM16.6025 15.51L15.9343 15.1695C15.7665 15.4988 15.4988 15.7665 15.1695 15.9343L15.51 16.6025L15.8505 17.2708C16.462 16.9592 16.9592 16.462 17.2708 15.8505L16.6025 15.51ZM16.875 7.125H17.625C17.625 6.43731 17.6256 5.87644 17.5884 5.42193C17.5506 4.95867 17.4699 4.54027 17.2708 4.14953L16.6025 4.49002L15.9343 4.83052C16.0077 4.97456 16.0632 5.17358 16.0934 5.54408C16.1244 5.92333 16.125 6.41256 16.125 7.125H16.875ZM12.875 3.125V3.875C13.5874 3.875 14.0767 3.87558 14.4559 3.90657C14.8264 3.93684 15.0254 3.99235 15.1695 4.06574L15.51 3.39748L15.8505 2.72923C15.4597 2.53014 15.0413 2.4494 14.5781 2.41155C14.1236 2.37442 13.5627 2.375 12.875 2.375V3.125ZM16.6025 4.49002L17.2708 4.14953C16.9592 3.538 16.462 3.04082 15.8505 2.72923L15.51 3.39748L15.1695 4.06574C15.4988 4.23352 15.7665 4.50123 15.9343 4.83052L16.6025 4.49002ZM3.125 7.125H3.875C3.875 6.41256 3.87558 5.92333 3.90657 5.54408C3.93684 5.17358 3.99235 4.97456 4.06574 4.83052L3.39748 4.49002L2.72923 4.14953C2.53014 4.54027 2.4494 4.95867 2.41155 5.42193C2.37442 5.87644 2.375 6.43731 2.375 7.125H3.125ZM7.125 3.125V2.375C6.43731 2.375 5.87644 2.37442 5.42193 2.41155C4.95867 2.4494 4.54027 2.53014 4.14953 2.72923L4.49002 3.39748L4.83052 4.06574C4.97456 3.99235 5.17358 3.93684 5.54408 3.90657C5.92333 3.87558 6.41256 3.875 7.125 3.875V3.125ZM3.39748 4.49002L4.06574 4.83052C4.23352 4.50123 4.50123 4.23352 4.83052 4.06574L4.49002 3.39748L4.14953 2.72923C3.538 3.04082 3.04082 3.538 2.72923 4.14953L3.39748 4.49002ZM11.875 16.875H12.625V3.125H11.875H11.125V16.875H11.875Z" fill="#7B7B7B"/>
</svg>
