<svg width="20" height="20" viewBox="0 0 20 20" fill="none" xmlns="http://www.w3.org/2000/svg">
<path d="M7.91602 11.4583C7.91602 12.2667 8.54103 12.9167 9.30769 12.9167H10.8743C11.541 12.9167 12.0827 12.35 12.0827 11.6417C12.0827 10.8833 11.7494 10.6083 11.2577 10.4333L8.74935 9.55834C8.25768 9.38334 7.92436 9.11668 7.92436 8.35001C7.92436 7.65001 8.46601 7.07501 9.13268 7.07501H10.6993C11.466 7.07501 12.091 7.72501 12.091 8.53335" stroke="#666666" stroke-width="1.5" stroke-linecap="round" stroke-linejoin="round"/>
<path d="M10 6.25V13.75" stroke="#666666" stroke-width="1.5" stroke-linecap="round" stroke-linejoin="round"/>
<path d="M18.3327 10C18.3327 14.6 14.5993 18.3334 9.99935 18.3334C5.39935 18.3334 1.66602 14.6 1.66602 10C1.66602 5.40002 5.39935 1.66669 9.99935 1.66669" stroke="#666666" stroke-width="1.5" stroke-linecap="round" stroke-linejoin="round"/>
<path d="M18.3333 5.00002V1.66669H15" stroke="#666666" stroke-width="1.5" stroke-linecap="round" stroke-linejoin="round"/>
<path d="M14.166 5.83335L18.3327 1.66669" stroke="#666666" stroke-width="1.5" stroke-linecap="round" stroke-linejoin="round"/>
</svg>
