<svg width="20" height="21" viewBox="0 0 20 21" fill="none" xmlns="http://www.w3.org/2000/svg">
<path d="M2.5 8.23958V13.0479C2.5 14.8146 2.5 14.8146 4.16667 15.9396L8.75 18.5896C9.44167 18.9896 10.5667 18.9896 11.25 18.5896L15.8333 15.9396C17.5 14.8146 17.5 14.8146 17.5 13.0563V8.23958C17.5 6.48125 17.5 6.48125 15.8333 5.35625L11.25 2.70625C10.5667 2.30625 9.44167 2.30625 8.75 2.70625L4.16667 5.35625C2.5 6.48125 2.5 6.48125 2.5 8.23958Z" stroke="#666666" stroke-width="1.5" stroke-linecap="round" stroke-linejoin="round"/>
<path d="M10 13.1484C11.3807 13.1484 12.5 12.0291 12.5 10.6484C12.5 9.26773 11.3807 8.14844 10 8.14844C8.61929 8.14844 7.5 9.26773 7.5 10.6484C7.5 12.0291 8.61929 13.1484 10 13.1484Z" stroke="#666666" stroke-width="1.5" stroke-linecap="round" stroke-linejoin="round"/>
</svg>
