<svg width="829" height="424" viewBox="0 0 829 424" fill="none" xmlns="http://www.w3.org/2000/svg">
<path d="M173.468 423.298L113.128 383.646C106.232 385.514 99.1205 386.448 91.7935 386.448C62.1982 386.448 39.5707 377.684 23.911 360.157C8.395 342.63 0.637 317.057 0.637 283.439V100.049C0.637 67.4362 8.6105 42.6537 24.5575 25.701C40.6482 8.74834 63.8503 0.272005 94.164 0.272005C124.478 0.272005 147.608 8.74834 163.555 25.701C179.646 42.6537 187.691 67.4362 187.691 100.049V283.439C187.691 314.758 180.651 339.397 166.572 357.356L199.112 378.044L173.468 423.298ZM94.164 316.626C99.6233 316.626 103.502 314.615 105.801 310.592C108.243 306.569 109.752 301.613 110.326 295.723C111.045 289.832 111.404 284.157 111.404 278.698V101.342C111.404 93.2962 110.255 86.1128 107.956 79.7915C105.801 73.3265 101.06 70.094 93.733 70.094C86.2623 70.094 81.3777 73.2547 79.079 79.576C76.7803 85.7537 75.631 92.937 75.631 101.126V280.207C75.631 285.235 75.9183 290.622 76.493 296.369C77.2113 301.972 78.8635 306.785 81.4495 310.808C84.0355 314.687 88.2737 316.626 94.164 316.626ZM213.551 383L250.186 3.72001H378.839L414.828 383H343.066L337.679 321.798H291.993L287.252 383H213.551ZM297.38 261.243H331.86L315.267 68.37H311.819L297.38 261.243ZM528.181 386.448C493.557 386.448 468.559 377.828 453.187 360.588C437.958 343.348 430.344 315.908 430.344 278.267V241.201H505.338V288.611C505.338 297.375 506.631 304.271 509.217 309.299C511.947 314.184 516.616 316.626 523.224 316.626C530.12 316.626 534.861 314.615 537.447 310.592C540.177 306.569 541.542 299.961 541.542 290.766C541.542 279.129 540.393 269.432 538.094 261.674C535.795 253.772 531.773 246.301 526.026 239.262C520.423 232.078 512.593 223.746 502.536 214.264L468.487 181.939C443.058 157.946 430.344 130.506 430.344 99.6175C430.344 67.2925 437.815 42.6537 452.756 25.701C467.841 8.74834 489.606 0.272005 518.052 0.272005C552.82 0.272005 577.459 9.5385 591.969 28.0715C606.623 46.6045 613.95 74.7632 613.95 112.548H536.801V86.472C536.801 81.3 535.292 77.2773 532.275 74.404C529.402 71.5307 525.451 70.094 520.423 70.094C514.389 70.094 509.935 71.818 507.062 75.266C504.332 78.5703 502.967 82.8803 502.967 88.196C502.967 93.5117 504.404 99.2583 507.277 105.436C510.151 111.614 515.826 118.725 524.302 126.771L568.048 168.793C576.812 177.126 584.857 185.961 592.184 195.3C599.511 204.494 605.402 215.269 609.855 227.625C614.309 239.836 616.536 254.778 616.536 272.449C616.536 308.078 609.927 336.021 596.71 356.278C583.636 376.391 560.793 386.448 528.181 386.448ZM641.965 383V3.72001H717.39V139.27H753.163V3.72001H828.588V383H753.163V211.031H717.39V383H641.965Z" fill="white"/>
</svg>
