<svg width="22" height="24" viewBox="0 0 22 24" fill="none" xmlns="http://www.w3.org/2000/svg">
<path d="M20.0754 8.33427L17.7228 7.47801C18.5734 6.77516 18.9366 5.66033 18.6762 4.60096C18.1645 2.51957 15.6267 1.72944 14.0234 3.1468L12.3991 4.58268L12.0778 2.42924C11.7601 0.309132 9.30554 -0.710868 7.57881 0.552413C6.71542 1.18405 6.25613 2.27291 6.45981 3.37851L4.24178 2.57123C3.15053 2.17396 1.93932 2.73871 1.54206 3.8301L0.581589 6.46902C0.448979 6.83338 0.636854 7.23632 1.00126 7.36888C1.14906 7.42265 11.8173 11.3056 11.9739 11.3626C11.5299 11.3626 1.80662 11.3626 1.37884 11.3626C0.991089 11.3626 0.676745 11.6769 0.676745 12.0647V21.8938C0.676745 23.0552 1.6216 24 2.78298 24H8.39964H11.208H16.8246C17.986 24 18.9309 23.0552 18.9309 21.8938V13.8947L19.474 14.0924C19.8367 14.2245 20.2406 14.0387 20.3739 13.6728L21.3344 11.0339C21.7315 9.94251 21.1668 8.73149 20.0754 8.33427ZM7.69749 22.5959H2.78293C2.39579 22.5959 2.08084 22.2809 2.08084 21.8938V12.7668H7.69749V22.5959ZM10.5058 22.5959H9.10168V12.7668H10.5058V22.5959ZM14.9534 4.19887C15.7678 3.47882 17.0536 3.88274 17.3126 4.93626C17.5889 6.05952 16.5032 7.03349 15.4165 6.63862C14.4922 6.30219 14.0591 6.14455 13.1335 5.80766L14.9534 4.19887ZM8.40784 1.68576C9.28534 1.04385 10.5283 1.56473 10.6892 2.63746L11.0492 5.04894C10.79 4.95463 9.02125 4.3108 8.76639 4.21808C7.67964 3.82232 7.47437 2.36854 8.40784 1.68576ZM8.73859 8.69076L2.14121 6.28949L2.86159 4.31034C2.99401 3.94654 3.39774 3.75838 3.76149 3.89071C4.49978 4.1594 9.47139 5.96891 9.69906 6.05179L8.73859 8.69076ZM11.3776 9.65132L10.0581 9.17104L11.0186 6.53212L12.3381 7.0124L11.3776 9.65132ZM17.5266 21.8938C17.5266 22.2809 17.2117 22.5959 16.8245 22.5959H11.91V12.7668H15.8319L17.5267 13.3836V21.8938H17.5266ZM20.0147 10.5536L19.2944 12.5328L12.697 10.1315L13.6576 7.49259L19.5952 9.65366C19.959 9.78609 20.1472 10.1898 20.0147 10.5536Z" fill="#5299FB"/>
</svg>
