<svg width="111" height="47" viewBox="0 0 111 47" fill="none" xmlns="http://www.w3.org/2000/svg">
<g filter="url(#filter0_d_1218_116676)">
<path d="M4 19C4 8.50659 12.5066 0 23 0H88C98.4934 0 107 8.50659 107 19C107 29.4934 98.4934 38 88 38H23C12.5066 38 4 29.4934 4 19Z" fill="white" shape-rendering="crispEdges"/>
<path d="M23 2.5H88C97.1127 2.5 104.5 9.8873 104.5 19C104.5 28.1127 97.1127 35.5 88 35.5H23C13.8873 35.5 6.5 28.1127 6.5 19C6.5 9.8873 13.8873 2.5 23 2.5Z" stroke="black"/>
<path d="M24.2801 15.216C24.3441 15.296 24.3761 15.4 24.3761 15.528C24.3921 15.64 24.3761 15.736 24.3281 15.816C24.2481 15.992 24.1121 16.056 23.9201 16.008C23.5841 15.928 23.2321 15.896 22.8641 15.912C22.4961 15.928 22.1281 16.072 21.7601 16.344C21.3921 16.616 21.1041 17.016 20.8961 17.544C20.6881 18.056 20.5841 18.592 20.5841 19.152C20.5841 19.696 20.7121 20.168 20.9681 20.568C21.2401 20.952 21.5841 21.232 22.0001 21.408C22.2561 21.52 22.5441 21.584 22.8641 21.6C23.1841 21.616 23.5041 21.608 23.8241 21.576C24.1601 21.528 24.4881 21.464 24.8081 21.384C25.1281 21.288 25.4321 21.184 25.7201 21.072C25.8161 21.04 25.9041 21.048 25.9841 21.096C26.0801 21.144 26.1441 21.208 26.1761 21.288C26.2561 21.496 26.2161 21.704 26.0561 21.912C25.8641 22.12 25.6081 22.304 25.2881 22.464C24.9681 22.624 24.6161 22.752 24.2321 22.848C23.8481 22.944 23.4561 23 23.0561 23.016C22.6561 23.016 22.2801 22.968 21.9281 22.872C21.4321 22.744 21.0081 22.56 20.6561 22.32C20.3201 22.064 20.0401 21.776 19.8161 21.456C19.5921 21.12 19.4241 20.768 19.3121 20.4C19.2001 20.016 19.1361 19.624 19.1201 19.224C19.0881 18.264 19.2721 17.4 19.6721 16.632C20.0881 15.864 20.6641 15.296 21.4001 14.928C21.9441 14.656 22.4881 14.552 23.0321 14.616C23.5921 14.664 24.0081 14.864 24.2801 15.216ZM33.0821 15.624C33.5621 15.8 33.9621 16.064 34.2821 16.416C34.6181 16.768 34.8741 17.168 35.0501 17.616C35.2261 18.048 35.3221 18.496 35.3381 18.96C35.3701 19.424 35.3221 19.856 35.1941 20.256C35.0181 20.704 34.7941 21.144 34.5221 21.576C34.2501 22.008 33.9381 22.392 33.5861 22.728C33.2341 23.064 32.8341 23.336 32.3861 23.544C31.9381 23.752 31.4421 23.856 30.8981 23.856C30.2421 23.856 29.6901 23.704 29.2421 23.4C28.7941 23.096 28.4421 22.704 28.1861 22.224C27.9301 21.744 27.7621 21.2 27.6821 20.592C27.6181 19.984 27.6341 19.376 27.7301 18.768C27.7941 18.32 27.8981 17.888 28.0421 17.472C28.2021 17.04 28.4021 16.664 28.6421 16.344C28.8821 16.008 29.1541 15.736 29.4581 15.528C29.7781 15.32 30.1381 15.216 30.5381 15.216C30.7621 15.216 31.0421 15.264 31.3781 15.36C31.7141 15.44 32.0261 15.56 32.3141 15.72C32.5221 15.528 32.7781 15.496 33.0821 15.624ZM32.1701 17.376C31.9941 17.264 31.7861 17.12 31.5461 16.944C31.3221 16.752 31.1221 16.656 30.9461 16.656C30.7541 16.656 30.5621 16.744 30.3701 16.92C30.1941 17.096 30.0341 17.304 29.8901 17.544C29.7621 17.768 29.6501 18 29.5541 18.24C29.4581 18.48 29.3941 18.672 29.3621 18.816C29.3141 19.056 29.2821 19.344 29.2661 19.68C29.2501 20.016 29.2741 20.352 29.3381 20.688C29.4021 21.008 29.5221 21.304 29.6981 21.576C29.8901 21.832 30.1701 22.016 30.5381 22.128C30.7621 22.192 31.0261 22.192 31.3301 22.128C31.6341 22.048 31.9301 21.912 32.2181 21.72C32.5221 21.528 32.8021 21.272 33.0581 20.952C33.3301 20.632 33.5381 20.264 33.6821 19.848C33.8421 19.384 33.8421 18.904 33.6821 18.408C33.5381 17.896 33.2341 17.528 32.7701 17.304C32.6581 17.384 32.5461 17.424 32.4341 17.424C32.3221 17.424 32.2341 17.408 32.1701 17.376ZM41.3453 26.616C41.3293 26.792 41.2493 26.952 41.1053 27.096C40.9613 27.256 40.8013 27.328 40.6253 27.312C40.3533 27.296 40.1453 27.192 40.0013 27C39.8573 26.808 39.7853 26.648 39.7853 26.52C39.7853 25.912 39.7693 25.28 39.7373 24.624C39.7053 23.952 39.6653 23.264 39.6173 22.56C39.4093 22.592 39.2173 22.576 39.0413 22.512C38.8813 22.432 38.7693 22.312 38.7053 22.152C38.5933 21.88 38.6093 21.64 38.7533 21.432C38.8973 21.224 39.1293 21.024 39.4492 20.832C39.3693 20.24 39.2893 19.656 39.2093 19.08C39.1453 18.504 39.0733 17.944 38.9933 17.4C38.9773 17.304 38.9853 17.216 39.0173 17.136C39.0493 17.056 39.0893 16.984 39.1373 16.92C39.1853 16.84 39.2733 16.768 39.4013 16.704C39.6093 16.624 39.8413 16.688 40.0973 16.896C40.3693 17.104 40.5533 17.368 40.6493 17.688C40.6973 17.992 40.7453 18.344 40.7933 18.744C40.8573 19.128 40.9133 19.552 40.9613 20.016C41.2973 19.808 41.6093 19.584 41.8973 19.344C42.2013 19.104 42.4573 18.848 42.6653 18.576C42.8893 18.304 43.0573 18.024 43.1693 17.736C43.2812 17.432 43.3133 17.12 43.2653 16.8C43.2333 16.528 43.1133 16.288 42.9053 16.08C42.6973 15.856 42.3693 15.736 41.9213 15.72C41.5213 15.704 41.1213 15.736 40.7213 15.816C40.3373 15.896 39.9533 16 39.5693 16.128C39.2013 16.256 38.8333 16.408 38.4653 16.584C38.1133 16.76 37.7693 16.936 37.4333 17.112C37.2093 17.24 36.9853 17.296 36.7613 17.28C36.5533 17.248 36.4173 17.168 36.3533 17.04C36.2092 16.72 36.2173 16.432 36.3773 16.176C36.5533 15.92 36.8173 15.68 37.1693 15.456C37.4733 15.28 37.8333 15.104 38.2493 14.928C38.6813 14.736 39.1293 14.576 39.5933 14.448C40.0733 14.304 40.5533 14.208 41.0333 14.16C41.5293 14.096 42.0013 14.104 42.4492 14.184C42.8973 14.248 43.2973 14.4 43.6493 14.64C44.0173 14.864 44.3133 15.2 44.5373 15.648C44.8093 16.384 44.8813 17.064 44.7533 17.688C44.6413 18.296 44.4013 18.856 44.0333 19.368C43.6813 19.864 43.2413 20.32 42.7133 20.736C42.2013 21.136 41.6813 21.496 41.1533 21.816C41.2333 22.68 41.2893 23.536 41.3213 24.384C41.3533 25.232 41.3613 25.976 41.3453 26.616ZM53.8693 16.44C53.9173 17.304 53.9653 18.176 54.0133 19.056C54.0773 19.936 54.0933 20.808 54.0613 21.672C54.0293 22.52 53.9413 23.352 53.7973 24.168C53.6693 24.984 53.4453 25.768 53.1253 26.52C52.8053 27.256 52.3733 27.944 51.8293 28.584C51.3013 29.224 50.6293 29.8 49.8133 30.312C49.6853 30.392 49.5413 30.44 49.3813 30.456C49.2373 30.472 49.0933 30.464 48.9493 30.432C48.8053 30.416 48.6773 30.376 48.5653 30.312C48.4533 30.264 48.3813 30.192 48.3493 30.096C48.3013 29.952 48.3253 29.792 48.4213 29.616C48.5173 29.44 48.6773 29.256 48.9013 29.064C49.6053 28.536 50.1973 27.976 50.6773 27.384C51.1573 26.792 51.5413 26.152 51.8293 25.464C52.1173 24.776 52.3013 24.032 52.3813 23.232C52.4773 22.416 52.4773 21.528 52.3813 20.568C52.1893 20.808 51.9653 21.056 51.7093 21.312C51.4533 21.568 51.1813 21.8 50.8933 22.008C50.6053 22.2 50.3093 22.368 50.0053 22.512C49.7013 22.64 49.4133 22.704 49.1413 22.704C48.9173 22.704 48.6933 22.656 48.4693 22.56C48.2453 22.464 48.0213 22.28 47.7973 22.008C47.5413 21.672 47.3093 21.296 47.1013 20.88C46.9093 20.448 46.7413 20.032 46.5973 19.632C46.4533 19.232 46.3333 18.872 46.2373 18.552C46.1573 18.232 46.1093 18.008 46.0933 17.88C46.0613 17.72 46.0613 17.568 46.0933 17.424C46.1253 17.28 46.2293 17.192 46.4053 17.16C46.6453 17.112 46.8693 17.128 47.0773 17.208C47.2853 17.288 47.4293 17.416 47.5093 17.592C47.5733 17.768 47.6613 18.04 47.7733 18.408C47.8853 18.776 48.0213 19.144 48.1813 19.512C48.3413 19.864 48.5093 20.176 48.6853 20.448C48.8773 20.72 49.0773 20.856 49.2853 20.856C49.5253 20.856 49.8053 20.736 50.1253 20.496C50.4613 20.256 50.7813 19.944 51.0853 19.56C51.3893 19.176 51.6453 18.752 51.8533 18.288C52.0773 17.808 52.1893 17.344 52.1893 16.896C52.1893 16.8 52.2053 16.688 52.2373 16.56C52.2693 16.432 52.3173 16.312 52.3813 16.2C52.4453 16.072 52.5173 15.968 52.5973 15.888C52.6933 15.792 52.7893 15.736 52.8853 15.72C53.1413 15.688 53.3653 15.76 53.5573 15.936C53.7653 16.096 53.8693 16.264 53.8693 16.44ZM64.9219 12.768C65.0019 14.512 65.1379 16.32 65.3299 18.192C65.5219 20.048 65.7299 21.824 65.9539 23.52C66.0019 24.224 65.8099 24.584 65.3779 24.6C65.2819 24.6 65.1859 24.568 65.0899 24.504C64.9939 24.424 64.9059 24.328 64.8259 24.216C64.7459 24.104 64.6659 23.984 64.5859 23.856C64.5219 23.728 64.4819 23.616 64.4659 23.52C64.3379 22.704 64.2179 21.84 64.1059 20.928C63.9939 20.016 63.8899 19.104 63.7939 18.192C63.7139 17.264 63.6419 16.36 63.5779 15.48C63.5139 14.6 63.4739 13.792 63.4579 13.056C63.4899 12.672 63.5459 12.352 63.6259 12.096C63.7059 11.824 63.8739 11.696 64.1299 11.712C64.4019 11.728 64.5939 11.84 64.7059 12.048C64.8339 12.24 64.9059 12.48 64.9219 12.768ZM71.9535 14.208C71.9215 14.368 71.8095 14.456 71.6175 14.472C71.4255 14.488 71.2655 14.496 71.1375 14.496C70.7375 14.512 70.3215 14.552 69.8895 14.616C69.4735 14.68 69.0335 14.776 68.5695 14.904C68.3775 14.968 68.1695 14.944 67.9455 14.832C67.7215 14.72 67.5855 14.496 67.5375 14.16C67.5375 14.032 67.5855 13.928 67.6815 13.848C67.7775 13.768 67.8895 13.696 68.0175 13.632C68.2255 13.536 68.4735 13.456 68.7615 13.392C69.0495 13.312 69.3375 13.256 69.6255 13.224C69.9295 13.192 70.2175 13.184 70.4895 13.2C70.7615 13.2 70.9855 13.224 71.1615 13.272C71.4175 13.352 71.6175 13.472 71.7615 13.632C71.9215 13.792 71.9855 13.984 71.9535 14.208ZM71.4015 22.2C71.5135 22.456 71.5695 22.736 71.5695 23.04C71.5855 23.328 71.5055 23.528 71.3295 23.64C71.1055 23.784 70.8655 23.776 70.6095 23.616C70.3535 23.456 70.1615 23.24 70.0335 22.968C69.8575 22.632 69.7215 22.224 69.6255 21.744C69.5295 21.248 69.4575 20.76 69.4095 20.28C69.3615 19.8 69.3295 19.352 69.3135 18.936C69.3135 18.52 69.3135 18.208 69.3135 18C69.3295 17.776 69.3935 17.568 69.5055 17.376C69.6175 17.184 69.7615 17.072 69.9375 17.04C70.2255 17.056 70.4575 17.192 70.6335 17.448C70.8095 17.688 70.8895 17.992 70.8735 18.36C70.8735 18.648 70.8815 18.968 70.8975 19.32C70.9135 19.672 70.9455 20.024 70.9935 20.376C71.0415 20.728 71.0975 21.072 71.1615 21.408C71.2255 21.728 71.3055 21.992 71.4015 22.2ZM75.27 16.08C75.318 16.32 75.366 16.592 75.414 16.896C75.478 17.184 75.542 17.488 75.606 17.808C75.67 18.112 75.726 18.424 75.774 18.744C75.822 19.064 75.862 19.368 75.894 19.656C76.086 19.24 76.294 18.8 76.518 18.336C76.742 17.872 76.982 17.448 77.238 17.064C77.51 16.664 77.79 16.336 78.078 16.08C78.382 15.824 78.71 15.696 79.062 15.696C79.59 15.696 80.03 15.888 80.382 16.272C80.75 16.656 81.054 17.136 81.294 17.712C81.55 18.272 81.75 18.864 81.894 19.488C82.038 20.112 82.158 20.664 82.254 21.144C82.35 21.576 82.158 21.896 81.678 22.104C81.454 22.216 81.286 22.232 81.174 22.152C81.062 22.072 80.998 21.992 80.982 21.912C80.902 21.72 80.798 21.384 80.67 20.904C80.558 20.424 80.422 19.936 80.262 19.44C80.118 18.944 79.95 18.512 79.758 18.144C79.566 17.776 79.35 17.608 79.11 17.64C78.822 17.656 78.566 17.872 78.342 18.288C78.15 18.624 77.95 19 77.742 19.416C77.55 19.816 77.358 20.232 77.166 20.664C76.974 21.08 76.782 21.504 76.59 21.936C76.414 22.352 76.246 22.736 76.086 23.088C75.974 23.2 75.83 23.28 75.654 23.328C75.494 23.36 75.326 23.344 75.15 23.28C74.99 23.232 74.862 23.152 74.766 23.04C74.67 22.928 74.622 22.816 74.622 22.704C74.478 21.456 74.326 20.32 74.166 19.296C74.022 18.272 73.83 17.224 73.59 16.152C73.478 15.784 73.454 15.496 73.518 15.288C73.598 15.064 73.838 14.976 74.238 15.024C74.798 15.12 75.142 15.472 75.27 16.08ZM90.5059 16.152C90.5699 16.136 90.6659 16.128 90.7939 16.128C90.9219 16.112 91.0419 16.12 91.1539 16.152C91.2819 16.168 91.3859 16.208 91.4659 16.272C91.5619 16.32 91.6179 16.384 91.6339 16.464C91.6659 16.656 91.6339 16.832 91.5379 16.992C91.4579 17.136 91.3059 17.264 91.0819 17.376C90.4739 17.664 89.8419 17.992 89.1859 18.36C88.5299 18.712 87.9699 19.032 87.5059 19.32C87.7939 19.512 88.1219 19.728 88.4899 19.968C88.8739 20.208 89.2659 20.464 89.6659 20.736C90.0659 20.992 90.4659 21.272 90.8659 21.576C91.2659 21.864 91.6419 22.152 91.9939 22.44C92.3139 22.712 92.3699 22.96 92.1619 23.184C92.0659 23.296 91.9059 23.376 91.6819 23.424C91.4739 23.472 91.2739 23.448 91.0819 23.352C90.7299 23.176 90.3459 22.968 89.9299 22.728C89.5139 22.472 89.0899 22.216 88.6579 21.96C88.2259 21.688 87.8019 21.424 87.3859 21.168C86.9859 20.896 86.6179 20.648 86.2819 20.424C86.3459 20.984 86.4019 21.544 86.4499 22.104C86.5139 22.664 86.5699 23.224 86.6179 23.784C86.7139 24.088 86.7059 24.336 86.5939 24.528C86.4819 24.72 86.2979 24.808 86.0419 24.792C85.7699 24.744 85.5699 24.64 85.4419 24.48C85.3139 24.304 85.2179 24.08 85.1539 23.808C85.0579 23.152 84.9459 22.376 84.8179 21.48C84.7059 20.584 84.5859 19.656 84.4579 18.696C84.3299 17.736 84.2019 16.8 84.0739 15.888C83.9619 14.976 83.8579 14.168 83.7619 13.464C83.7299 13.24 83.7059 13 83.6899 12.744C83.6899 12.472 83.7779 12.296 83.9539 12.216C84.1939 12.12 84.4419 12.176 84.6979 12.384C84.9539 12.576 85.1459 12.872 85.2739 13.272C85.4019 14.008 85.5299 14.808 85.6579 15.672C85.7859 16.536 85.9139 17.448 86.0419 18.408C86.3619 18.216 86.7299 18.008 87.1459 17.784C87.5779 17.544 88.0019 17.32 88.4179 17.112C88.8499 16.888 89.2499 16.688 89.6179 16.512C89.9859 16.336 90.2819 16.216 90.5059 16.152Z" fill="#1B1B1B"/>
</g>
<defs>
<filter id="filter0_d_1218_116676" x="0" y="0" width="111" height="47" filterUnits="userSpaceOnUse" color-interpolation-filters="sRGB">
<feFlood flood-opacity="0" result="BackgroundImageFix"/>
<feColorMatrix in="SourceAlpha" type="matrix" values="0 0 0 0 0 0 0 0 0 0 0 0 0 0 0 0 0 0 127 0" result="hardAlpha"/>
<feOffset dy="5"/>
<feGaussianBlur stdDeviation="2"/>
<feComposite in2="hardAlpha" operator="out"/>
<feColorMatrix type="matrix" values="0 0 0 0 0 0 0 0 0 0 0 0 0 0 0 0 0 0 0.25 0"/>
<feBlend mode="normal" in2="BackgroundImageFix" result="effect1_dropShadow_1218_116676"/>
<feBlend mode="normal" in="SourceGraphic" in2="effect1_dropShadow_1218_116676" result="shape"/>
</filter>
</defs>
</svg>
