<svg width="600" height="255" viewBox="0 0 600 255" fill="none" xmlns="http://www.w3.org/2000/svg">
<path d="M600 255H0V12.2822C1.71233 12.2822 6.37025 11.2621 11.3018 7.17969C17.4661 2.07676 27.7398 -4.04657 42.123 7.17969C56.5066 18.4063 68.8357 10.2386 72.9453 6.15625C77.055 2.07388 88.1465 -2.32666 104.795 8.19727C127.398 22.4848 132.534 -0.987392 150 0.0332031C167.466 -0.987392 172.602 22.4848 195.205 8.19727C211.854 -2.32666 222.945 2.07388 227.055 6.15625C231.164 10.2386 243.493 18.4063 257.877 7.17969C272.26 -4.04657 282.534 2.07676 288.698 7.17969C293.63 11.2621 298.288 12.2822 300 12.2822C301.712 12.2822 306.37 11.2621 311.302 7.17969C317.466 2.07676 327.74 -4.04657 342.123 7.17969C356.507 18.4063 368.836 10.2386 372.945 6.15625C377.055 2.07388 388.146 -2.32666 404.795 8.19727C427.398 22.4848 432.534 -0.987392 450 0.0332031C467.466 -0.987392 472.602 22.4848 495.205 8.19727C511.854 -2.32666 522.945 2.07388 527.055 6.15625C531.164 10.2386 543.493 18.4063 557.877 7.17969C572.26 -4.04657 582.534 2.07676 588.698 7.17969C593.63 11.2621 598.288 12.2822 600 12.2822V255Z" fill="white"/>
</svg>
