<svg width="65" height="65" viewBox="0 0 65 65" fill="none" xmlns="http://www.w3.org/2000/svg">
<path d="M52.0795 18.315H48.8015C49.2339 17.6307 49.5192 16.8626 49.6006 16.0503C49.8605 13.4541 48.4932 11.1268 46.1655 10.095C44.0259 9.14658 41.6215 9.53429 39.8901 11.1046L35.7509 14.8559C34.9448 13.9743 33.786 13.4201 32.4999 13.4201C31.2115 13.4201 30.0509 13.976 29.2446 14.8604L25.1001 11.1042C23.3659 9.53385 20.9625 9.14764 18.8238 10.0955C16.4967 11.1274 15.1292 13.4555 15.3899 16.0516C15.4714 16.8633 15.7566 17.6311 16.1889 18.315H12.9203C11.2982 18.315 9.9834 19.6299 9.9834 21.2519V25.6573C9.9834 26.4683 10.6409 27.1258 11.4519 27.1258H53.548C54.3589 27.1258 55.0165 26.4684 55.0165 25.6573V21.2519C55.0164 19.6299 53.7016 18.315 52.0795 18.315ZM28.0945 17.8255V18.315H21.1862C19.361 18.315 17.9245 16.6134 18.3804 14.7131C18.5812 13.8762 19.1853 13.1628 19.9666 12.8016C21.0394 12.3058 22.2279 12.4649 23.129 13.2806L28.0957 17.7823C28.0955 17.7968 28.0945 17.811 28.0945 17.8255ZM46.6865 15.6604C46.5771 17.1866 45.1984 18.3152 43.6683 18.3152H36.9053V17.8257C36.9053 17.8084 36.9042 17.7912 36.9041 17.7739C38.0292 16.754 40.47 14.5417 41.7938 13.3418C42.5462 12.6599 43.5989 12.3415 44.5721 12.6318C45.9685 13.0484 46.7886 14.2359 46.6865 15.6604Z" fill="#343535"/>
<path d="M12.9199 30.0625V51.6001C12.9199 53.2221 14.2348 54.537 15.8568 54.537H29.5625V30.0625H12.9199Z" fill="#343535"/>
<path d="M35.4365 30.0625V54.537H49.1422C50.7643 54.537 52.0791 53.2221 52.0791 51.6001V30.0625H35.4365Z" fill="#343535"/>
</svg>
