<svg width="20" height="21" viewBox="0 0 20 21" fill="none" xmlns="http://www.w3.org/2000/svg">
<path d="M3.4375 17.374C3.4375 17.6226 3.53619 17.8613 3.71191 18.0371C3.88773 18.2129 4.12636 18.3115 4.375 18.3115H9.6875V9.56152H3.4375V17.374ZM10.3125 18.3115H15.625C15.8736 18.3115 16.1123 18.2129 16.2881 18.0371C16.4638 17.8613 16.5625 17.6226 16.5625 17.374V9.56152H10.3125V18.3115ZM3.125 5.18652C2.87643 5.18652 2.63771 5.28522 2.46191 5.46094C2.28617 5.63668 2.18758 5.87549 2.1875 6.12402V7.99902C2.1875 8.24759 2.28619 8.48631 2.46191 8.66211C2.63773 8.83793 2.87636 8.93652 3.125 8.93652H9.6875V5.18652H3.125ZM10.3125 8.93652H16.875C17.1236 8.93652 17.3623 8.83793 17.5381 8.66211C17.7138 8.48631 17.8125 8.24759 17.8125 7.99902V6.12402C17.8124 5.87549 17.7138 5.63668 17.5381 5.46094C17.3623 5.28522 17.1236 5.18652 16.875 5.18652H10.3125V8.93652ZM7.49902 2.68652C7.04824 2.68839 6.60875 2.82981 6.24121 3.09082C5.87366 3.35186 5.59558 3.72047 5.44531 4.14551L5.29785 4.56152H9.70215L9.55469 4.14551C9.40442 3.72047 9.12634 3.35186 8.75879 3.09082C8.39125 2.82981 7.95176 2.68839 7.50098 2.68652H7.49902ZM12.499 2.68652C12.0482 2.68839 11.6087 2.82981 11.2412 3.09082C10.8737 3.35186 10.5956 3.72047 10.4453 4.14551L10.2979 4.56152H14.7021L14.5547 4.14551C14.4044 3.72047 14.1263 3.35186 13.7588 3.09082C13.3913 2.82981 12.9518 2.68839 12.501 2.68652H12.499ZM2.8125 9.53809L2.60449 9.46484C2.30103 9.35756 2.03801 9.15885 1.85156 8.89648C1.68838 8.66672 1.59009 8.39759 1.56738 8.11816L1.5625 7.99805V6.12402C1.56258 5.70973 1.72755 5.31249 2.02051 5.01953C2.31352 4.7266 2.71067 4.56152 3.125 4.56152H4.69336L4.74414 4.31055C4.85123 3.7785 5.11022 3.28884 5.49023 2.90137C5.87044 2.51377 6.35562 2.24521 6.88574 2.12793C7.41574 2.01071 7.96846 2.04928 8.47656 2.24023C8.98479 2.43128 9.42645 2.76665 9.74805 3.2041L10 3.5459L10.252 3.2041C10.5735 2.76665 11.0152 2.43128 11.5234 2.24023C12.0315 2.04928 12.5843 2.01071 13.1143 2.12793C13.6444 2.24521 14.1296 2.51377 14.5098 2.90137C14.8898 3.28884 15.1488 3.7785 15.2559 4.31055L15.3066 4.56152H16.875C17.2893 4.56152 17.6865 4.7266 17.9795 5.01953C18.2724 5.31249 18.4374 5.70973 18.4375 6.12402V7.99902C18.436 8.32069 18.3347 8.63422 18.1484 8.89648C17.962 9.15885 17.699 9.35755 17.3955 9.46484L17.1875 9.53809V17.374C17.1875 17.7884 17.0225 18.1865 16.7295 18.4795C16.4365 18.7723 16.0392 18.9365 15.625 18.9365H4.375C3.96076 18.9365 3.5635 18.7723 3.27051 18.4795C2.97748 18.1865 2.8125 17.7884 2.8125 17.374V9.53809Z" fill="black" stroke="#1B1B1B" stroke-width="0.625"/>
</svg>
