<svg width="64" height="61" viewBox="0 0 64 61" fill="none" xmlns="http://www.w3.org/2000/svg">
<path d="M13.6967 13.2582C13.0706 4.8315 21.0709 -1.6158 29.172 0.787008L36.577 2.98335C45.8381 5.73022 55.4241 7.23004 65.0816 7.44317L72.0392 7.59672C80.6918 7.78767 86.3398 16.7518 82.7771 24.6392L75.5413 40.6587C74.6443 42.6445 74.3014 44.8361 74.549 47.0011L76.512 64.1678C77.5041 72.8435 69.2432 79.6712 60.9094 77.0635L56.0511 75.5433C45.7956 72.3343 35.1209 70.6641 24.3753 70.5873L18.503 70.5453C9.97662 70.4843 4.1976 61.8445 7.3965 53.9407L14.2159 37.0914C14.9116 35.3723 15.2021 33.516 15.0646 31.6665L13.6967 13.2582Z" fill="#E8C2FF"/>
<path d="M13.7124 13.469C13.2007 6.58271 21.0361 2.29803 26.5576 6.44476L27.0185 6.79089C40.2012 16.6912 57.4436 19.389 73.0203 13.9883C79.545 11.7261 85.6103 18.3668 82.7676 24.6603L75.4072 40.9555C74.598 42.7471 74.2886 44.7243 74.512 46.6775L76.512 64.1678C77.5041 72.8435 69.2432 79.6712 60.9094 77.0635L56.0511 75.5433C45.7956 72.3343 35.1209 70.6641 24.3753 70.5873L18.503 70.5453C9.97662 70.4843 4.1976 61.8445 7.3965 53.9407L14.2686 36.961C14.9297 35.3277 15.2056 33.564 15.0751 31.8068L13.7124 13.469Z" fill="#E093FF"/>
</svg>
