<svg width="71" height="71" viewBox="0 0 71 71" fill="none" xmlns="http://www.w3.org/2000/svg">
<path d="M53.6353 17.6311C53.0683 15.3241 51.3752 13.5226 49.1071 12.8145C46.8277 12.1017 44.4186 12.6217 42.643 14.1965L39.8193 16.6922L53.3512 21.6172C53.8286 20.3625 53.9684 18.9868 53.6353 17.6311Z" fill="#343535"/>
<path d="M38.0446 12.5221C37.6915 10.173 36.1717 8.20193 33.9797 7.28649C31.7878 6.36949 29.3333 6.66266 27.4118 8.06574C26.286 8.8891 25.5094 10.0548 25.0693 11.323L38.6028 16.2489L38.0446 12.5221Z" fill="#343535"/>
<path d="M31.0137 34.6699V63.3609H34.3317V35.8775L31.0137 34.6699Z" fill="#343535"/>
<path d="M12.7645 33.6094C11.8475 33.6094 11.1055 34.3514 11.1055 35.2684V58.3835C11.1055 61.1279 13.338 63.3605 16.0824 63.3605H27.6953V33.6094H12.7645Z" fill="#343535"/>
<path d="M37.6484 37.085V63.3606H49.2613C52.0056 63.3606 54.2383 61.128 54.2383 58.3836V43.1231L37.6484 37.085Z" fill="#343535"/>
<path d="M36.6743 19.0764L32.1357 31.5469L35.2547 32.682L39.7933 20.2115L36.6743 19.0764Z" fill="#343535"/>
<path d="M56.9411 26.453L42.9112 21.3467L38.3721 33.8173L55.5204 40.0587C55.7068 40.1267 55.8996 40.1591 56.0874 40.1591C56.7646 40.1591 57.4012 39.7411 57.6459 39.0671L59.9156 32.8313C60.8596 30.2411 59.5208 27.3931 56.9411 26.453Z" fill="#343535"/>
<path d="M19.5284 12.8378C16.9541 11.8962 14.0948 13.2158 13.1484 15.8123L10.8803 22.0481C10.566 22.9084 11.0099 23.8611 11.8718 24.1737L29.0195 30.4149L33.5589 17.9443L19.5284 12.8378Z" fill="#343535"/>
</svg>
