<svg width="21" height="20" viewBox="0 0 21 20" fill="none" xmlns="http://www.w3.org/2000/svg">
<g clip-path="url(#clip0_1218_115544)">
<path d="M7.84863 0.296387C8.34596 2.96765 8.80724 4.52433 9.81836 5.53564C10.8294 6.54672 12.3862 7.00713 15.0566 7.50439C12.386 8.00168 10.8295 8.46301 9.81836 9.47412C8.80725 10.4852 8.34592 12.0418 7.84863 14.7124C7.35136 12.042 6.89097 10.4852 5.87988 9.47412C4.86857 8.46302 3.31189 8.00174 0.640625 7.50439C3.31196 7.00702 4.8686 6.54692 5.87988 5.53564C6.89116 4.52437 7.35126 2.96773 7.84863 0.296387Z" fill="white" stroke="white" stroke-width="0.054082"/>
<path d="M15.8262 10.6377C16.1389 12.3055 16.4322 13.2856 17.0713 13.9248C17.7103 14.5638 18.6903 14.8573 20.3574 15.1699C18.6903 15.4825 17.7103 15.776 17.0713 16.415C16.4323 17.0541 16.1388 18.034 15.8262 19.7012C15.5136 18.034 15.2201 17.0541 14.5811 16.415C13.9419 15.7759 12.9617 15.4826 11.2939 15.1699C12.9618 14.8572 13.9419 14.564 14.5811 13.9248C15.2202 13.2856 15.5135 12.3055 15.8262 10.6377Z" fill="white" stroke="white" stroke-width="0.054082"/>
</g>
<defs>
<clipPath id="clip0_1218_115544">
<rect width="20" height="20" fill="white" transform="translate(0.5)"/>
</clipPath>
</defs>
</svg>
