<svg width="16" height="20" viewBox="0 0 16 20" fill="none" xmlns="http://www.w3.org/2000/svg">
<path d="M3.11789 9.99996C3.11789 10.3966 2.79654 10.7179 2.39994 10.7179H0.964042C0.567439 10.7179 0.246094 10.3966 0.246094 9.99996C0.246094 9.60336 0.567439 9.28201 0.964042 9.28201H2.39994C2.79659 9.28201 3.11789 9.60336 3.11789 9.99996ZM3.11789 5.40509C3.11789 5.00848 2.79654 4.68714 2.39994 4.68714H0.964042C0.567439 4.68714 0.246094 5.00848 0.246094 5.40509C0.246094 5.80169 0.567439 6.12304 0.964042 6.12304H2.39994C2.79659 6.12304 3.11789 5.80169 3.11789 5.40509ZM3.11789 14.5949C3.11789 14.1982 2.79654 13.8769 2.39994 13.8769H0.964042C0.567439 13.8769 0.246094 14.1982 0.246094 14.5949C0.246094 14.9915 0.567439 15.3128 0.964042 15.3128H2.39994C2.79659 15.3128 3.11789 14.9914 3.11789 14.5949ZM15.7538 2.96406V17.0359C15.7538 18.3046 14.7251 19.3333 13.4564 19.3333H3.40515C2.13641 19.3333 1.10772 18.3046 1.10772 17.0359V15.8871H2.40002C3.11252 15.8871 3.69233 15.3073 3.69233 14.5948C3.69233 13.8823 3.11252 13.3024 2.40002 13.3024H1.10763V11.2922H2.39994C3.11244 11.2922 3.69225 10.7124 3.69225 9.99988C3.69225 9.28737 3.11244 8.70757 2.39994 8.70757H1.10763V6.69731H2.39994C3.11244 6.69731 3.69225 6.1175 3.69225 5.405C3.69225 4.6925 3.11244 4.1127 2.39994 4.1127H1.10763V2.96406C1.10763 1.69532 2.13633 0.666626 3.40507 0.666626H13.4564C14.7251 0.666626 15.7538 1.69528 15.7538 2.96406ZM6.64618 7.47679C6.64618 8.70018 7.63809 9.69209 8.86148 9.69209C10.0849 9.69209 11.0768 8.70018 11.0768 7.47679C11.0768 6.25341 10.0849 5.26146 8.86148 5.26146C7.63814 5.2615 6.64618 6.25341 6.64618 7.47679ZM12.3076 12.8921C12.3076 11.5329 11.2055 10.4307 9.84621 10.4307H7.87704C6.51754 10.4307 5.41532 11.5329 5.41532 12.8921V13.8769H12.3076V12.8921Z" fill="#666666"/>
</svg>
