<svg width="21" height="21" viewBox="0 0 21 21" fill="none" xmlns="http://www.w3.org/2000/svg">
<path d="M13.8581 7.68164C13.5164 7.68164 13.2331 7.39831 13.2331 7.05664V4.13997C13.2331 3.23997 12.6747 2.68164 11.7747 2.68164H9.27474C8.37474 2.68164 7.81641 3.23997 7.81641 4.13997V7.05664C7.81641 7.39831 7.53307 7.68164 7.19141 7.68164C6.84974 7.68164 6.56641 7.39831 6.56641 7.05664V4.13997C6.56641 2.54831 7.68307 1.43164 9.27474 1.43164H11.7747C13.3664 1.43164 14.4831 2.54831 14.4831 4.13997V7.05664C14.4831 7.39831 14.1997 7.68164 13.8581 7.68164Z" fill="#066EFF"/>
<path d="M7.19176 15.2066C6.8501 15.2066 6.56676 14.9233 6.56676 14.5816C6.56676 14.2316 6.8501 13.9566 7.19176 13.9566H16.9918C17.2418 13.9566 17.4334 13.74 17.4084 13.49L16.8418 8.74831C16.6418 7.13164 16.3584 5.80664 13.5251 5.80664H7.5251C4.69176 5.80664 4.40843 7.13164 4.21676 8.74831L3.46676 14.9983C3.2251 17.0483 3.85843 18.7233 6.78343 18.7233H14.2668C16.9001 18.7233 17.6751 17.365 17.6334 15.5983C17.6251 15.3733 17.4418 15.2066 17.2168 15.2066H7.19176Z" fill="#066EFF"/>
</svg>
