<svg width="25" height="25" viewBox="0 0 25 25" fill="none" xmlns="http://www.w3.org/2000/svg">
<path d="M21.5489 9.08003V15.92C21.5489 17.04 20.9489 18.08 19.9789 18.65L14.0389 22.08C13.0689 22.64 11.8689 22.64 10.8889 22.08L4.94891 18.65C3.97891 18.09 3.37891 17.05 3.37891 15.92V9.08003C3.37891 7.96003 3.97891 6.91999 4.94891 6.34999L10.8889 2.92C11.8589 2.36 13.0589 2.36 14.0389 2.92L19.9789 6.34999C20.9489 6.91999 21.5489 7.95003 21.5489 9.08003Z" stroke="#066EFF" stroke-width="1.5" stroke-linecap="round" stroke-linejoin="round"/>
<path d="M12.4706 11.4998C13.7574 11.4998 14.8006 10.4566 14.8006 9.1698C14.8006 7.88298 13.7574 6.83984 12.4706 6.83984C11.1838 6.83984 10.1406 7.88298 10.1406 9.1698C10.1406 10.4566 11.1838 11.4998 12.4706 11.4998Z" stroke="#066EFF" stroke-width="1.5" stroke-linecap="round" stroke-linejoin="round"/>
<path d="M16.4688 17.1599C16.4688 15.3599 14.6788 13.8999 12.4688 13.8999C10.2587 13.8999 8.46875 15.3599 8.46875 17.1599" stroke="#066EFF" stroke-width="1.5" stroke-linecap="round" stroke-linejoin="round"/>
</svg>
