<svg width="25" height="24" viewBox="0 0 25 24" fill="none" xmlns="http://www.w3.org/2000/svg">
<path d="M21.5 7.75H3.5C3.09 7.75 2.75 7.41 2.75 7C2.75 6.59 3.09 6.25 3.5 6.25H21.5C21.91 6.25 22.25 6.59 22.25 7C22.25 7.41 21.91 7.75 21.5 7.75Z" fill="#066EFF"/>
<path d="M18.5 12.75H6.5C6.09 12.75 5.75 12.41 5.75 12C5.75 11.59 6.09 11.25 6.5 11.25H18.5C18.91 11.25 19.25 11.59 19.25 12C19.25 12.41 18.91 12.75 18.5 12.75Z" fill="#066EFF"/>
<path d="M14.5 17.75H10.5C10.09 17.75 9.75 17.41 9.75 17C9.75 16.59 10.09 16.25 10.5 16.25H14.5C14.91 16.25 15.25 16.59 15.25 17C15.25 17.41 14.91 17.75 14.5 17.75Z" fill="#066EFF"/>
</svg>
