<svg width="20" height="21" viewBox="0 0 20 21" fill="none" xmlns="http://www.w3.org/2000/svg">
<path d="M12.9823 10.4999C12.9823 12.1499 11.649 13.4833 9.99896 13.4833C8.34896 13.4833 7.01562 12.1499 7.01562 10.4999C7.01562 8.84993 8.34896 7.5166 9.99896 7.5166C11.649 7.5166 12.9823 8.84993 12.9823 10.4999Z" stroke="#1E8FFF" stroke-width="1.5" stroke-linecap="round" stroke-linejoin="round"/>
<path d="M10.0018 17.3913C12.9435 17.3913 15.6852 15.6579 17.5935 12.6579C18.3435 11.4829 18.3435 9.50794 17.5935 8.33294C15.6852 5.33294 12.9435 3.59961 10.0018 3.59961C7.06016 3.59961 4.31849 5.33294 2.41016 8.33294C1.66016 9.50794 1.66016 11.4829 2.41016 12.6579C4.31849 15.6579 7.06016 17.3913 10.0018 17.3913Z" stroke="#1E8FFF" stroke-width="1.5" stroke-linecap="round" stroke-linejoin="round"/>
</svg>
