<svg width="17" height="17" viewBox="0 0 17 17" fill="none" xmlns="http://www.w3.org/2000/svg">
<path d="M2.6875 6.82585L2.6875 10.6725C2.6875 12.0858 2.6875 12.0858 4.02083 12.9858L7.6875 15.1058C8.24083 15.4258 9.14083 15.4258 9.6875 15.1058L13.3542 12.9858C14.6875 12.0858 14.6875 12.0858 14.6875 10.6792L14.6875 6.82585C14.6875 5.41918 14.6875 5.41918 13.3542 4.51918L9.6875 2.39918C9.14083 2.07918 8.24083 2.07918 7.6875 2.39918L4.02083 4.51918C2.6875 5.41918 2.6875 5.41918 2.6875 6.82585Z" stroke="#1E8FFF" stroke-width="1.5" stroke-linecap="round" stroke-linejoin="round"/>
<path d="M8.6875 10.7529C9.79207 10.7529 10.6875 9.8575 10.6875 8.75293C10.6875 7.64836 9.79207 6.75293 8.6875 6.75293C7.58293 6.75293 6.6875 7.64836 6.6875 8.75293C6.6875 9.8575 7.58293 10.7529 8.6875 10.7529Z" stroke="#1E8FFF" stroke-width="1.5" stroke-linecap="round" stroke-linejoin="round"/>
</svg>
