<svg width="25" height="25" viewBox="0 0 25 25" fill="none" xmlns="http://www.w3.org/2000/svg">
<path d="M3.23438 6.49976V17.2998C3.23438 18.4199 3.23438 18.9795 3.45236 19.4074C3.64411 19.7837 3.94985 20.0902 4.32617 20.282C4.75358 20.4998 5.31337 20.4998 6.43128 20.4998H18.0375C19.1554 20.4998 19.7144 20.4998 20.1418 20.282C20.5181 20.0902 20.8249 19.7839 21.0166 19.4075C21.2346 18.9797 21.2346 18.4197 21.2346 17.2996L21.2346 9.69953C21.2346 8.57943 21.2346 8.01938 21.0166 7.59155C20.8249 7.21523 20.5183 6.90949 20.142 6.71774C19.7141 6.49976 19.1545 6.49976 18.0344 6.49976H12.2344M3.23438 6.49976H12.2344M3.23438 6.49976C3.23438 5.39519 4.12981 4.49976 5.23438 4.49976H8.90889C9.39807 4.49976 9.64324 4.49976 9.87341 4.55502C10.0775 4.60401 10.2722 4.68502 10.4512 4.79468C10.6529 4.91832 10.8262 5.09157 11.1719 5.43726L12.2344 6.49976" stroke="#066EFF" stroke-width="1.5" stroke-linecap="round" stroke-linejoin="round"/>
</svg>
