<svg width="20" height="20" viewBox="0 0 20 20" fill="none" xmlns="http://www.w3.org/2000/svg">
<path d="M9.99984 1.66663C5.40817 1.66663 1.6665 5.40829 1.6665 9.99996C1.6665 14.5916 5.40817 18.3333 9.99984 18.3333C14.5915 18.3333 18.3332 14.5916 18.3332 9.99996C18.3332 5.40829 14.5915 1.66663 9.99984 1.66663ZM12.7998 11.9166C13.0415 12.1583 13.0415 12.5583 12.7998 12.8C12.6748 12.925 12.5165 12.9833 12.3582 12.9833C12.1998 12.9833 12.0415 12.925 11.9165 12.8L9.99984 10.8833L8.08317 12.8C7.95817 12.925 7.79984 12.9833 7.6415 12.9833C7.48317 12.9833 7.32484 12.925 7.19984 12.8C6.95817 12.5583 6.95817 12.1583 7.19984 11.9166L9.1165 9.99996L7.19984 8.08329C6.95817 7.84163 6.95817 7.44163 7.19984 7.19996C7.4415 6.95829 7.8415 6.95829 8.08317 7.19996L9.99984 9.11663L11.9165 7.19996C12.1582 6.95829 12.5582 6.95829 12.7998 7.19996C13.0415 7.44163 13.0415 7.84163 12.7998 8.08329L10.8832 9.99996L12.7998 11.9166Z" fill="#AEAEAE"/>
</svg>
