<svg width="21" height="21" viewBox="0 0 21 21" fill="none" xmlns="http://www.w3.org/2000/svg">
<path d="M7.37891 10.1917C7.37891 10.8333 7.87891 11.3583 8.48724 11.3583L9.73724 11.3583C10.2706 11.3583 10.7039 10.9 10.7039 10.3417C10.7039 9.73332 10.4372 9.51665 10.0456 9.37498L8.04557 8.67498C7.64557 8.53332 7.37891 8.31665 7.37891 7.70832C7.37891 7.14998 7.81224 6.69165 8.34557 6.69165L9.59557 6.69165C10.2122 6.69998 10.7122 7.21665 10.7122 7.85832" stroke="#AEAEAE" stroke-width="1.5" stroke-linecap="round" stroke-linejoin="round"/>
<path d="M9.04297 11.4L9.04297 12.0167" stroke="#AEAEAE" stroke-width="1.5" stroke-linecap="round" stroke-linejoin="round"/>
<path d="M9.04297 6.03333L9.04297 6.68333" stroke="#AEAEAE" stroke-width="1.5" stroke-linecap="round" stroke-linejoin="round"/>
<path d="M9.03724 15.6749C12.7145 15.6749 15.6956 12.6939 15.6956 9.01661C15.6956 5.33931 12.7145 2.35828 9.03724 2.35828C5.35994 2.35828 2.37891 5.33931 2.37891 9.01661C2.37891 12.6939 5.35994 15.6749 9.03724 15.6749Z" stroke="#AEAEAE" stroke-width="1.5" stroke-linecap="round" stroke-linejoin="round"/>
<path d="M11.5273 17.2584C12.2773 18.3167 13.5023 19.0084 14.9023 19.0084C17.1773 19.0084 19.0273 17.1584 19.0273 14.8834C19.0273 13.5 18.344 12.275 17.3023 11.525" stroke="#AEAEAE" stroke-width="1.5" stroke-linecap="round" stroke-linejoin="round"/>
</svg>
