<svg width="17" height="17" viewBox="0 0 17 17" fill="none" xmlns="http://www.w3.org/2000/svg">
<path d="M10.8651 9.11676L10.8651 11.9168C10.8651 14.2501 9.93174 15.1834 7.59841 15.1834L4.79841 15.1834C2.46507 15.1834 1.53174 14.2501 1.53174 11.9168L1.53174 9.11676C1.53174 6.78343 2.46507 5.8501 4.79841 5.8501L7.59841 5.8501C9.93174 5.8501 10.8651 6.78343 10.8651 9.11676Z" fill="#D7D7D7"/>
<path d="M11.5981 1.8501L8.79809 1.8501C6.87739 1.8501 5.90976 2.48703 5.62732 4.00937C5.52572 4.55693 5.99308 5.01676 6.54999 5.01676L7.59809 5.01676C10.3981 5.01676 11.6981 6.31676 11.6981 9.11676L11.6981 10.1649C11.6981 10.7218 12.1579 11.1891 12.7055 11.0875C14.2278 10.8051 14.8648 9.83746 14.8648 7.91676L14.8648 5.11676C14.8648 2.78343 13.9314 1.8501 11.5981 1.8501Z" fill="#D7D7D7"/>
</svg>
