<svg width="11" height="11" viewBox="0 0 11 11" fill="none" xmlns="http://www.w3.org/2000/svg">
<path d="M10.0037 5.43362L10.0037 6.30738C10.0037 6.5449 9.80856 6.74002 9.56679 6.74002L8.74817 6.74002C8.29008 6.74002 7.87017 6.40493 7.83199 5.94684C7.80655 5.67963 7.90834 5.42937 8.08649 5.25547C8.24343 5.09429 8.45975 5.00098 8.69727 5.00098L9.56679 5.00098C9.80856 5.00098 10.0037 5.19609 10.0037 5.43362Z" fill="#1B1B1B"/>
<path d="M7.19474 6.00211C7.15656 5.55675 7.31774 5.11987 7.6401 4.80175C7.91156 4.52605 8.28906 4.36487 8.69625 4.36487L8.93802 4.36487C9.05678 4.36487 9.15433 4.26731 9.13737 4.14855C9.02285 3.32569 8.31027 2.68945 7.45771 2.68945L3.21615 2.68945C2.27877 2.68945 1.51953 3.44869 1.51953 4.38608L1.51953 7.35517C1.51953 8.29255 2.27877 9.05179 3.21615 9.05179L7.45771 9.05179C8.31451 9.05179 9.02285 8.41556 9.13737 7.59269C9.15433 7.47393 9.05678 7.37638 8.93802 7.37638L8.74715 7.37638C7.94125 7.37638 7.2626 6.77407 7.19474 6.00211ZM6.18524 5.12835L3.64031 5.12835C3.46641 5.12835 3.32219 4.98838 3.32219 4.81023C3.32219 4.63209 3.46641 4.49212 3.64031 4.49212L6.18524 4.49212C6.35915 4.49212 6.50336 4.63633 6.50336 4.81023C6.50336 4.98414 6.35915 5.12835 6.18524 5.12835Z" fill="#1B1B1B"/>
<path d="M6.70007 1.76934C6.81035 1.88386 6.7128 2.05352 6.55162 2.05352L3.23048 2.05352C2.76815 2.05352 2.33551 2.18925 1.97498 2.42254C1.80956 2.52857 1.58475 2.41405 1.66534 2.23167C1.90287 1.67602 2.45852 1.29004 3.09899 1.29004L5.48275 1.29004C5.97477 1.29004 6.41165 1.46394 6.70007 1.76934Z" fill="#1B1B1B"/>
</svg>
