<svg width="20" height="20" viewBox="0 0 20 20" fill="none" xmlns="http://www.w3.org/2000/svg">
<path d="M13.3332 7.29102C12.9915 7.29102 12.7082 7.00768 12.7082 6.66602V3.74935C12.7082 2.84935 12.1498 2.29102 11.2498 2.29102H8.74984C7.84984 2.29102 7.2915 2.84935 7.2915 3.74935V6.66602C7.2915 7.00768 7.00817 7.29102 6.6665 7.29102C6.32484 7.29102 6.0415 7.00768 6.0415 6.66602V3.74935C6.0415 2.15768 7.15817 1.04102 8.74984 1.04102H11.2498C12.8415 1.04102 13.9582 2.15768 13.9582 3.74935V6.66602C13.9582 7.00768 13.6748 7.29102 13.3332 7.29102Z" fill="#1B1B1B"/>
<path d="M6.66686 14.816C6.3252 14.816 6.04186 14.5327 6.04186 14.191C6.04186 13.841 6.3252 13.566 6.66686 13.566H16.4669C16.7169 13.566 16.9085 13.3493 16.8835 13.0993L16.3169 8.35768C16.1169 6.74102 15.8335 5.41602 13.0002 5.41602H7.0002C4.16686 5.41602 3.88353 6.74102 3.69186 8.35768L2.94186 14.6077C2.7002 16.6577 3.33353 18.3327 6.25853 18.3327H13.7419C16.3752 18.3327 17.1502 16.9743 17.1085 15.2077C17.1002 14.9827 16.9169 14.816 16.6919 14.816H6.66686Z" fill="#1B1B1B"/>
</svg>
