<svg width="21" height="21" viewBox="0 0 21 21" fill="none" xmlns="http://www.w3.org/2000/svg">
<g clip-path="url(#clip0_790_72807)">
<path d="M14.2446 5.78774C13.8566 5.39542 13.2244 5.39047 12.8304 5.77671L5.4387 13.0822L2.22547 9.75568C1.84223 9.35625 1.20776 9.34314 0.80837 9.72638C0.408936 10.1096 0.395826 10.7441 0.779067 11.1435C0.780804 11.1453 0.782497 11.147 0.784233 11.1488L4.70208 15.209C4.88958 15.4002 5.14584 15.5086 5.41369 15.5096H5.42472C5.68749 15.5088 5.93945 15.4048 6.1263 15.22L14.2355 7.20192C14.6273 6.81339 14.6313 6.18126 14.2446 5.78774Z" fill="#066EFF"/>
<path d="M10.7162 15.209C10.9033 15.3998 11.1587 15.5081 11.4258 15.5097H11.4369C11.6996 15.5089 11.9516 15.4049 12.1385 15.2201L20.2477 7.20199C20.6153 6.7881 20.5777 6.15463 20.1639 5.78706C19.7887 5.45383 19.2249 5.44945 18.8446 5.77677L11.4559 13.0822L11.1923 12.8086C10.8091 12.4092 10.1746 12.396 9.77519 12.7793C9.37576 13.1625 9.3626 13.7969 9.74584 14.1964C9.74758 14.1982 9.74932 14.2 9.75105 14.2017L10.7162 15.209Z" fill="#066EFF"/>
</g>
<defs>
<clipPath id="clip0_790_72807">
<rect width="20" height="20" fill="white" transform="translate(0.5 0.5)"/>
</clipPath>
</defs>
</svg>
