<svg width="17" height="17" viewBox="0 0 17 17" fill="none" xmlns="http://www.w3.org/2000/svg">
<path d="M13.8333 6.27279C13.8333 6.64098 14.1318 6.93945 14.5 6.93945C14.8682 6.93945 15.1667 6.64098 15.1667 6.27279H13.8333ZM11.1667 2.27279C10.7985 2.27279 10.5 2.57126 10.5 2.93945C10.5 3.30764 10.7985 3.60612 11.1667 3.60612V2.27279ZM8.0286 8.46805C7.76825 8.7284 7.76825 9.15051 8.0286 9.41086C8.28895 9.67121 8.71106 9.67121 8.9714 9.41086L8.0286 8.46805ZM14.4637 3.12146L13.8697 3.42411L13.8697 3.42412L14.4637 3.12146ZM14.318 2.97578L14.0153 3.56979L14.0153 3.56979L14.318 2.97578ZM8.5 4.93945C8.86819 4.93945 9.16667 4.64098 9.16667 4.27279C9.16667 3.9046 8.86819 3.60612 8.5 3.60612V4.93945ZM13.8333 8.93945C13.8333 8.57126 13.5349 8.27279 13.1667 8.27279C12.7985 8.27279 12.5 8.57126 12.5 8.93945H13.8333ZM3.95603 14.6488L4.25869 14.0548L3.95603 14.6488ZM2.79065 13.4834L2.19664 13.7861L2.79065 13.4834ZM11.7106 14.6488L11.408 14.0548L11.7106 14.6488ZM12.876 13.4834L12.282 13.1808L12.876 13.4834ZM2.79065 5.72881L2.19664 5.42615L2.19664 5.42615L2.79065 5.72881ZM3.95603 4.56344L3.65337 3.96943H3.65336L3.95603 4.56344ZM14.5 6.27279H15.1667V3.47279H14.5H13.8333V6.27279H14.5ZM13.9667 2.93945V2.27279H11.1667V2.93945V3.60612H13.9667V2.93945ZM14.4024 3.03708L13.931 2.56568L8.0286 8.46805L8.5 8.93945L8.9714 9.41086L14.8738 3.50849L14.4024 3.03708ZM14.5 3.47279H15.1667C15.1667 3.39045 15.1672 3.28859 15.1599 3.19957C15.152 3.10275 15.1317 2.96409 15.0577 2.8188L14.4637 3.12146L13.8697 3.42412C13.8512 3.3879 13.8411 3.35568 13.8358 3.333C13.8309 3.31243 13.8305 3.30162 13.831 3.30814C13.8316 3.31492 13.8324 3.32981 13.8328 3.35964C13.8333 3.38945 13.8333 3.42459 13.8333 3.47279H14.5ZM13.9667 2.93945V3.60612C14.0149 3.60612 14.05 3.60614 14.0798 3.60661C14.1096 3.60707 14.1245 3.60789 14.1313 3.60845C14.1378 3.60898 14.127 3.60854 14.1065 3.6037C14.0838 3.59835 14.0516 3.58824 14.0153 3.56979L14.318 2.97578L14.6207 2.38178C14.4754 2.30775 14.3367 2.28745 14.2399 2.27954C14.1509 2.27227 14.049 2.27279 13.9667 2.27279V2.93945ZM14.4637 3.12146L15.0577 2.8188C15.0097 2.72472 14.9475 2.63942 14.8738 2.56568L14.4024 3.03708L13.931 3.50849C13.9064 3.48391 13.8856 3.45547 13.8697 3.42411L14.4637 3.12146ZM14.4024 3.03708L14.8738 2.56568C14.8 2.49194 14.7147 2.42972 14.6207 2.38178L14.318 2.97578L14.0153 3.56979C13.984 3.55381 13.9555 3.53306 13.931 3.50849L14.4024 3.03708ZM8.9 14.9395V14.2728H6.76667V14.9395V15.6061H8.9V14.9395ZM2.5 10.6728H3.16667V8.53945H2.5H1.83333V10.6728H2.5ZM6.76667 4.27279V4.93945H8.5V4.27279V3.60612H6.76667V4.27279ZM13.1667 8.93945H12.5V10.6728H13.1667H13.8333V8.93945H13.1667ZM6.76667 14.9395V14.2728C6.00893 14.2728 5.48072 14.2723 5.06949 14.2387C4.66605 14.2057 4.43426 14.1443 4.25869 14.0548L3.95603 14.6488L3.65336 15.2428C4.04823 15.444 4.47502 15.5279 4.96092 15.5676C5.43903 15.6066 6.03093 15.6061 6.76667 15.6061V14.9395ZM2.5 10.6728H1.83333C1.83333 11.4085 1.83281 12.0004 1.87188 12.4785C1.91158 12.9644 1.99545 13.3912 2.19664 13.7861L2.79065 13.4834L3.38465 13.1808C3.2952 13.0052 3.23375 12.7734 3.20078 12.37C3.16719 11.9587 3.16667 11.4305 3.16667 10.6728H2.5ZM3.95603 14.6488L4.25869 14.0548C3.88236 13.8631 3.5764 13.5571 3.38465 13.1808L2.79065 13.4834L2.19664 13.7861C2.51622 14.4133 3.02616 14.9232 3.65337 15.2428L3.95603 14.6488ZM8.9 14.9395V15.6061C9.63574 15.6061 10.2276 15.6066 10.7057 15.5676C11.1916 15.5279 11.6184 15.444 12.0133 15.2428L11.7106 14.6488L11.408 14.0548C11.2324 14.1443 11.0006 14.2057 10.5972 14.2387C10.1859 14.2723 9.65774 14.2728 8.9 14.2728V14.9395ZM13.1667 10.6728H12.5C12.5 11.4305 12.4995 11.9587 12.4659 12.37C12.4329 12.7734 12.3715 13.0052 12.282 13.1808L12.876 13.4834L13.47 13.7861C13.6712 13.3912 13.7551 12.9644 13.7948 12.4785C13.8339 12.0004 13.8333 11.4085 13.8333 10.6728H13.1667ZM11.7106 14.6488L12.0133 15.2428C12.6405 14.9232 13.1504 14.4133 13.47 13.7861L12.876 13.4834L12.282 13.1808C12.0903 13.5571 11.7843 13.8631 11.408 14.0548L11.7106 14.6488ZM2.5 8.53945H3.16667C3.16667 7.78172 3.16719 7.25351 3.20078 6.84228C3.23375 6.43883 3.2952 6.20704 3.38465 6.03147L2.79065 5.72881L2.19664 5.42615C1.99545 5.82101 1.91158 6.2478 1.87188 6.7337C1.83281 7.21182 1.83333 7.80372 1.83333 8.53945H2.5ZM6.76667 4.27279V3.60612C6.03093 3.60612 5.43903 3.6056 4.96092 3.64467C4.47502 3.68436 4.04823 3.76824 3.65337 3.96943L3.95603 4.56344L4.25869 5.15744C4.43426 5.06798 4.66605 5.00653 5.06949 4.97357C5.48072 4.93997 6.00893 4.93945 6.76667 4.93945V4.27279ZM2.79065 5.72881L3.38465 6.03147C3.5764 5.65515 3.88236 5.34919 4.25869 5.15744L3.95603 4.56344L3.65336 3.96943C3.02616 4.28901 2.51622 4.79894 2.19664 5.42615L2.79065 5.72881Z" fill="#747474"/>
</svg>
