<svg width="21" height="20" viewBox="0 0 21 20" fill="none" xmlns="http://www.w3.org/2000/svg">
<path d="M10.5013 18.3333C15.1037 18.3333 18.8346 14.6023 18.8346 9.99996C18.8346 5.39759 15.1037 1.66663 10.5013 1.66663C5.89893 1.66663 2.16797 5.39759 2.16797 9.99996C2.16797 14.6023 5.89893 18.3333 10.5013 18.3333Z" stroke="#1B1B1B" stroke-width="1.5" stroke-linecap="round" stroke-linejoin="round"/>
<path d="M7.16667 2.5H8C6.375 7.36667 6.375 12.6333 8 17.5H7.16667" stroke="#1B1B1B" stroke-width="1.5" stroke-linecap="round" stroke-linejoin="round"/>
<path d="M13 2.5C14.625 7.36667 14.625 12.6333 13 17.5" stroke="black" stroke-width="1.5" stroke-linecap="round" stroke-linejoin="round"/>
<path d="M3 13.3333V12.5C7.86667 14.125 13.1333 14.125 18 12.5V13.3333" stroke="black" stroke-width="1.5" stroke-linecap="round" stroke-linejoin="round"/>
<path d="M3 7.5C7.86667 5.875 13.1333 5.875 18 7.5" stroke="#1B1B1B" stroke-width="1.5" stroke-linecap="round" stroke-linejoin="round"/>
</svg>
