<svg width="12" height="13" viewBox="0 0 12 13" fill="none" xmlns="http://www.w3.org/2000/svg">
<path fill-rule="evenodd" clip-rule="evenodd" d="M5.9994 0.666504C9.21884 0.666504 11.8328 3.28044 11.8328 6.49988C11.8328 9.71932 9.21884 12.3333 5.9994 12.3333C2.77996 12.3333 0.166016 9.71932 0.166016 6.49988C0.166016 3.28044 2.77996 0.666504 5.9994 0.666504ZM6.58278 3.7724V3.43738C6.58278 3.11538 6.3214 2.854 5.9994 2.854C5.6774 2.854 5.41602 3.11538 5.41602 3.43738V3.7724C5.41602 4.09426 5.6774 4.35564 5.9994 4.35564C6.3214 4.35564 6.58278 4.09426 6.58278 3.7724ZM6.58278 9.56238V5.71658C6.58278 5.39472 6.3214 5.13334 5.9994 5.13334C5.6774 5.13334 5.41602 5.39472 5.41602 5.71658V9.56238C5.41602 9.88438 5.6774 10.1458 5.9994 10.1458C6.3214 10.1458 6.58278 9.88438 6.58278 9.56238Z" fill="#AEAEAE"/>
</svg>
