<svg width="24" height="25" viewBox="0 0 24 25" fill="none" xmlns="http://www.w3.org/2000/svg">
<g clip-path="url(#clip0_596_55410)">
<path d="M6.48907 9.91974L1.67047 14.7372C-0.556824 16.9642 -0.556824 20.5875 1.67047 22.8144L1.79077 22.9347C2.86981 24.0132 4.30426 24.6074 5.83026 24.6074C7.35626 24.6074 8.79089 24.0132 9.86975 22.9347L14.5062 18.2994C14.1665 18.3484 13.8212 18.3737 13.4718 18.3737C12.5107 18.3737 11.5789 18.1844 10.7186 17.8237L7.79828 20.7433C7.27258 21.2688 6.57367 21.5583 5.83026 21.5583C5.08704 21.5583 4.38812 21.269 3.86243 20.7435C3.33746 20.2187 3.04834 19.52 3.04834 18.7758C3.04834 18.0319 3.33746 17.3329 3.86224 16.8082L8.56055 12.1111C9.08624 11.5854 9.78516 11.2961 10.5286 11.2961C11.2474 11.2961 11.9242 11.5673 12.4435 12.0604C12.4623 12.0758 12.4805 12.0921 12.498 12.1097C12.7582 12.3697 13.1039 12.5129 13.4718 12.5129C13.8395 12.5129 14.1854 12.3697 14.4454 12.1097L15.4973 11.0581C15.2682 10.6908 14.9978 10.3493 14.6884 10.04L14.5682 9.91992C13.4892 8.84106 12.0546 8.24707 10.5287 8.24707C9.00275 8.24707 7.56812 8.84106 6.48907 9.91974Z" fill="#AEAEAE"/>
<path d="M22.3296 10.4775C23.4068 9.40088 23.9999 7.96661 23.9999 6.43896C23.9999 4.9115 23.4066 3.47723 22.3296 2.40039L22.2095 2.28027C21.1304 1.2016 19.6958 0.607422 18.1698 0.607422C16.644 0.607422 15.2094 1.2016 14.1303 2.28027L9.4939 6.91541C9.83356 6.86633 10.1791 6.84106 10.5284 6.84106C11.4894 6.84106 12.4212 7.03058 13.2814 7.39111L16.2018 4.4715C16.7275 3.94598 17.4264 3.65649 18.1698 3.65649C18.9132 3.65649 19.6121 3.9458 20.1378 4.4715C20.6628 4.99628 20.9517 5.69501 20.9517 6.43896C20.9517 7.18311 20.6628 7.88184 20.1378 8.40643L15.4395 13.1036C14.9138 13.6293 14.2149 13.9186 13.4715 13.9186C12.7528 13.9186 12.076 13.6475 11.5568 13.1544C11.5379 13.139 11.5196 13.1227 11.502 13.1051C11.242 12.8451 10.8961 12.7019 10.5284 12.7019C10.1606 12.7019 9.81488 12.8451 9.55487 13.1051L8.50293 14.1569C8.73181 14.524 9.00226 14.8653 9.31171 15.1747L9.43201 15.295C10.511 16.3737 11.9455 16.9677 13.4715 16.9677C14.9975 16.9677 16.4321 16.3737 17.511 15.295L22.3296 10.4775Z" fill="#AEAEAE"/>
</g>
<defs>
<clipPath id="clip0_596_55410">
<rect width="24" height="24" fill="white" transform="translate(0 0.607422)"/>
</clipPath>
</defs>
</svg>
