<svg width="16" height="16" viewBox="0 0 16 16" fill="none" xmlns="http://www.w3.org/2000/svg">
<path fill-rule="evenodd" clip-rule="evenodd" d="M0 0.799996C0 0.358174 0.358175 0 0.799997 0H6.39998C6.84182 0 7.19998 0.358174 7.19998 0.799996V6.39997C7.19998 6.84181 6.84182 7.19997 6.39998 7.19997H0.799997C0.358175 7.19997 0 6.84181 0 6.39997V0.799996ZM2.39999 3.19999C2.39999 2.75816 2.75817 2.39999 3.19999 2.39999H3.99999C4.44181 2.39999 4.79998 2.75816 4.79998 3.19999V3.99998C4.79998 4.4418 4.44181 4.79998 3.99999 4.79998H3.19999C2.75817 4.79998 2.39999 4.4418 2.39999 3.99998V3.19999Z" fill="#1B1B1B"/>
<path fill-rule="evenodd" clip-rule="evenodd" d="M0 9.60005C0 9.15821 0.358175 8.80005 0.799997 8.80005H6.39998C6.84182 8.80005 7.19998 9.15821 7.19998 9.60005V15.2C7.19998 15.6419 6.84182 16 6.39998 16H0.799997C0.358175 16 0 15.6419 0 15.2V9.60005ZM3.19999 11.2C2.75817 11.2 2.39999 11.5582 2.39999 12V12.8C2.39999 13.2419 2.75817 13.6 3.19999 13.6H3.99999C4.44181 13.6 4.79998 13.2419 4.79998 12.8V12C4.79998 11.5582 4.44181 11.2 3.99999 11.2H3.19999Z" fill="#1B1B1B"/>
<path fill-rule="evenodd" clip-rule="evenodd" d="M9.60005 0C9.15821 0 8.80005 0.358174 8.80005 0.799996V6.39997C8.80005 6.84181 9.15821 7.19997 9.60005 7.19997H15.2C15.6419 7.19997 16 6.84181 16 6.39997V0.799996C16 0.358174 15.6419 0 15.2 0H9.60005ZM11.2 3.19999C11.2 2.75816 11.5582 2.39999 12 2.39999H12.8C13.2419 2.39999 13.6 2.75816 13.6 3.19999V3.99998C13.6 4.4418 13.2419 4.79998 12.8 4.79998H12C11.5582 4.79998 11.2 4.4418 11.2 3.99998V3.19999Z" fill="#1B1B1B"/>
<path d="M9.60005 8.80005C9.15821 8.80005 8.80005 9.15821 8.80005 9.60005V10.4C8.80005 10.8419 9.15821 11.2 9.60005 11.2H10.4V12.8C10.4 13.2419 10.7582 13.6 11.2 13.6H12C12.4419 13.6 12.8 13.2419 12.8 12.8V11.2C12.8 10.7582 12.4419 10.4 12 10.4H11.2V9.60005C11.2 9.15821 10.8419 8.80005 10.4 8.80005H9.60005Z" fill="#1B1B1B"/>
<path d="M9.60005 13.5999C9.15821 13.5999 8.80005 13.958 8.80005 14.3998V15.1998C8.80005 15.6417 9.15821 15.9998 9.60005 15.9998H10.4C10.8419 15.9998 11.2 15.6417 11.2 15.1998V14.3998C11.2 13.958 10.8419 13.5999 10.4 13.5999H9.60005Z" fill="#1B1B1B"/>
<path d="M12.7998 9.60005C12.7998 9.15821 13.158 8.80005 13.5998 8.80005H14.3998C14.8416 8.80005 15.1998 9.15821 15.1998 9.60005V10.4C15.1998 10.8419 14.8416 11.2 14.3998 11.2H13.5998C13.158 11.2 12.7998 10.8419 12.7998 10.4V9.60005Z" fill="#1B1B1B"/>
<path d="M13.5998 13.5999C13.158 13.5999 12.7998 13.958 12.7998 14.3998V15.1998C12.7998 15.6417 13.158 15.9998 13.5998 15.9998H14.3998C14.8416 15.9998 15.1998 15.6417 15.1998 15.1998V14.3998C15.1998 13.958 14.8416 13.5999 14.3998 13.5999H13.5998Z" fill="#1B1B1B"/>
</svg>
