<svg width="17" height="17" viewBox="0 0 17 17" fill="none" xmlns="http://www.w3.org/2000/svg">
<path d="M8.50065 1.88574C4.82732 1.88574 1.83398 4.87908 1.83398 8.55241C1.83398 12.2257 4.82732 15.2191 8.50065 15.2191C12.174 15.2191 15.1673 12.2257 15.1673 8.55241C15.1673 4.87908 12.174 1.88574 8.50065 1.88574ZM8.00065 5.88574C8.00065 5.61241 8.22732 5.38574 8.50065 5.38574C8.77398 5.38574 9.00065 5.61241 9.00065 5.88574V9.21908C9.00065 9.49241 8.77398 9.71908 8.50065 9.71908C8.22732 9.71908 8.00065 9.49241 8.00065 9.21908V5.88574ZM9.11398 11.4724C9.08065 11.5591 9.03398 11.6257 8.97398 11.6924C8.90732 11.7524 8.83398 11.7991 8.75398 11.8324C8.67398 11.8657 8.58732 11.8857 8.50065 11.8857C8.41398 11.8857 8.32732 11.8657 8.24732 11.8324C8.16732 11.7991 8.09398 11.7524 8.02732 11.6924C7.96732 11.6257 7.92065 11.5591 7.88732 11.4724C7.85398 11.3924 7.83398 11.3057 7.83398 11.2191C7.83398 11.1324 7.85398 11.0457 7.88732 10.9657C7.92065 10.8857 7.96732 10.8124 8.02732 10.7457C8.09398 10.6857 8.16732 10.6391 8.24732 10.6057C8.40732 10.5391 8.59398 10.5391 8.75398 10.6057C8.83398 10.6391 8.90732 10.6857 8.97398 10.7457C9.03398 10.8124 9.08065 10.8857 9.11398 10.9657C9.14732 11.0457 9.16732 11.1324 9.16732 11.2191C9.16732 11.3057 9.14732 11.3924 9.11398 11.4724Z" fill="#E93544"/>
</svg>
