<svg width="21" height="20" viewBox="0 0 21 20" fill="none" xmlns="http://www.w3.org/2000/svg">
<path d="M10.5007 15.4166C13.4922 15.4166 15.9173 12.9915 15.9173 9.99998C15.9173 7.00844 13.4922 4.58331 10.5007 4.58331C7.50911 4.58331 5.08398 7.00844 5.08398 9.99998C5.08398 12.9915 7.50911 15.4166 10.5007 15.4166Z" stroke="#1B1B1B" stroke-width="1.25" stroke-linecap="round" stroke-linejoin="round"/>
<path d="M16.4493 15.95L16.341 15.8417M16.341 4.15835L16.4493 4.05002L16.341 4.15835ZM4.54935 15.95L4.65768 15.8417L4.54935 15.95ZM10.4993 1.73335V1.66669V1.73335ZM10.4993 18.3334V18.2667V18.3334ZM2.23268 10H2.16602H2.23268ZM18.8327 10H18.766H18.8327ZM4.65768 4.15835L4.54935 4.05002L4.65768 4.15835Z" stroke="#1B1B1B" stroke-width="1.66667" stroke-linecap="round" stroke-linejoin="round"/>
</svg>
