<svg width="10" height="15" viewBox="0 0 10 15" fill="none" xmlns="http://www.w3.org/2000/svg">
<path d="M4.16536 12.3908C4.16536 13.3075 3.41536 14.0575 2.4987 14.0575C1.58203 14.0575 0.832031 13.3075 0.832031 12.3908C0.832031 11.4741 1.58203 10.7241 2.4987 10.7241C3.41536 10.7241 4.16536 11.4741 4.16536 12.3908ZM2.4987 5.72412C1.58203 5.72412 0.832031 6.47412 0.832031 7.39079C0.832031 8.30745 1.58203 9.05746 2.4987 9.05746C3.41536 9.05746 4.16536 8.30745 4.16536 7.39079C4.16536 6.47412 3.41536 5.72412 2.4987 5.72412ZM2.4987 0.724121C1.58203 0.724121 0.832031 1.47412 0.832031 2.39079C0.832031 3.30745 1.58203 4.05745 2.4987 4.05745C3.41536 4.05745 4.16536 3.30745 4.16536 2.39079C4.16536 1.47412 3.41536 0.724121 2.4987 0.724121ZM7.4987 4.05745C8.41536 4.05745 9.16537 3.30745 9.16537 2.39079C9.16537 1.47412 8.41536 0.724121 7.4987 0.724121C6.58203 0.724121 5.83203 1.47412 5.83203 2.39079C5.83203 3.30745 6.58203 4.05745 7.4987 4.05745ZM7.4987 5.72412C6.58203 5.72412 5.83203 6.47412 5.83203 7.39079C5.83203 8.30745 6.58203 9.05746 7.4987 9.05746C8.41536 9.05746 9.16537 8.30745 9.16537 7.39079C9.16537 6.47412 8.41536 5.72412 7.4987 5.72412ZM7.4987 10.7241C6.58203 10.7241 5.83203 11.4741 5.83203 12.3908C5.83203 13.3075 6.58203 14.0575 7.4987 14.0575C8.41536 14.0575 9.16537 13.3075 9.16537 12.3908C9.16537 11.4741 8.41536 10.7241 7.4987 10.7241Z" fill="#D7D7D7"/>
</svg>
