<svg width="17" height="17" viewBox="0 0 17 17" fill="none" xmlns="http://www.w3.org/2000/svg">
<path d="M11.0697 8.84821L11.0697 11.6482C11.0697 13.9815 10.1363 14.9149 7.803 14.9149L5.00299 14.9149C2.66966 14.9149 1.73633 13.9815 1.73633 11.6482L1.73633 8.84821C1.73633 6.51488 2.66966 5.58154 5.00299 5.58154L7.803 5.58154C10.1363 5.58154 11.0697 6.51488 11.0697 8.84821Z" stroke="white" stroke-width="1.5" stroke-linecap="round" stroke-linejoin="round"/>
<path d="M15.0697 4.84821L15.0697 7.64821C15.0697 9.98154 14.1363 10.9149 11.803 10.9149L11.0697 10.9149L11.0697 8.84821C11.0697 6.51488 10.1363 5.58154 7.803 5.58154L5.73633 5.58154L5.73633 4.84821C5.73633 2.51488 6.66966 1.58154 9.00299 1.58154L11.803 1.58154C14.1363 1.58154 15.0697 2.51488 15.0697 4.84821Z" stroke="white" stroke-width="1.5" stroke-linecap="round" stroke-linejoin="round"/>
</svg>
