<svg width="25" height="25" viewBox="0 0 25 25" fill="none" xmlns="http://www.w3.org/2000/svg">
<path d="M12.2988 13.2334C12.8511 13.2334 13.2988 12.7857 13.2988 12.2334C13.2988 11.6811 12.8511 11.2334 12.2988 11.2334C11.7465 11.2334 11.2988 11.6811 11.2988 12.2334C11.2988 12.7857 11.7465 13.2334 12.2988 13.2334Z" stroke="#666666" stroke-width="2" stroke-linecap="round" stroke-linejoin="round"/>
<path d="M19.2988 13.2334C19.8511 13.2334 20.2988 12.7857 20.2988 12.2334C20.2988 11.6811 19.8511 11.2334 19.2988 11.2334C18.7465 11.2334 18.2988 11.6811 18.2988 12.2334C18.2988 12.7857 18.7465 13.2334 19.2988 13.2334Z" stroke="#666666" stroke-width="2" stroke-linecap="round" stroke-linejoin="round"/>
<path d="M5.29883 13.2334C5.85111 13.2334 6.29883 12.7857 6.29883 12.2334C6.29883 11.6811 5.85111 11.2334 5.29883 11.2334C4.74654 11.2334 4.29883 11.6811 4.29883 12.2334C4.29883 12.7857 4.74654 13.2334 5.29883 13.2334Z" stroke="#666666" stroke-width="2" stroke-linecap="round" stroke-linejoin="round"/>
</svg>
