<svg width="20" height="21" viewBox="0 0 20 21" fill="none" xmlns="http://www.w3.org/2000/svg">
<path d="M17.5 5.45085C14.725 5.17585 11.9333 5.03418 9.15 5.03418C7.5 5.03418 5.85 5.11751 4.2 5.28418L2.5 5.45085" stroke="#E93544" stroke-width="1.5" stroke-linecap="round" stroke-linejoin="round"/>
<path d="M7.08398 4.60879L7.26732 3.51712C7.40065 2.72546 7.50065 2.13379 8.90898 2.13379L11.0923 2.13379C12.5007 2.13379 12.609 2.75879 12.734 3.52546L12.9173 4.60879" stroke="#E93544" stroke-width="1.5" stroke-linecap="round" stroke-linejoin="round"/>
<path d="M15.7077 8.08398L15.166 16.4756C15.0743 17.784 14.9993 18.8006 12.6743 18.8006L7.32435 18.8006C4.99935 18.8006 4.92435 17.784 4.83268 16.4756L4.29102 8.08398" stroke="#E93544" stroke-width="1.5" stroke-linecap="round" stroke-linejoin="round"/>
<path d="M8.60742 14.2173L11.3824 14.2173" stroke="#E93544" stroke-width="1.5" stroke-linecap="round" stroke-linejoin="round"/>
<path d="M7.91602 10.8838L12.0827 10.8838" stroke="#E93544" stroke-width="1.5" stroke-linecap="round" stroke-linejoin="round"/>
</svg>
