<svg width="20" height="20" viewBox="0 0 20 20" fill="none" xmlns="http://www.w3.org/2000/svg">
<g clip-path="url(#clip0_876_83238)">
<path d="M7.34863 0.296875C7.84596 2.96814 8.30724 4.52482 9.31836 5.53613C10.3294 6.54721 11.8862 7.00762 14.5566 7.50488C11.886 8.00217 10.3295 8.46349 9.31836 9.47461C8.30725 10.4857 7.84592 12.0423 7.34863 14.7129C6.85136 12.0425 6.39097 10.4857 5.37988 9.47461C4.36857 8.4635 2.81189 8.00223 0.140625 7.50488C2.81196 7.00751 4.3686 6.5474 5.37988 5.53613C6.39116 4.52486 6.85126 2.96822 7.34863 0.296875Z" fill="#1B1B1B" stroke="#1B1B1B" stroke-width="0.054082"/>
<path d="M15.3257 10.6377C15.6384 12.3055 15.9317 13.2856 16.5708 13.9248C17.2098 14.5638 18.1898 14.8573 19.8569 15.1699C18.1898 15.4825 17.2098 15.776 16.5708 16.415C15.9318 17.0541 15.6383 18.034 15.3257 19.7012C15.0131 18.034 14.7196 17.0541 14.0806 16.415C13.4414 15.7759 12.4612 15.4826 10.7935 15.1699C12.4613 14.8572 13.4414 14.564 14.0806 13.9248C14.7197 13.2856 15.013 12.3055 15.3257 10.6377Z" fill="#1B1B1B" stroke="#1B1B1B" stroke-width="0.054082"/>
</g>
<defs>
<clipPath id="clip0_876_83238">
<rect width="20" height="20" fill="white"/>
</clipPath>
</defs>
</svg>
