<svg width="28" height="27" viewBox="0 0 28 27" fill="none" xmlns="http://www.w3.org/2000/svg">
<path d="M24.0873 9.69982V17.2998C24.0873 18.5442 23.4207 19.6998 22.3429 20.3332L15.7429 24.1443C14.6651 24.7665 13.3318 24.7665 12.2429 24.1443L5.64288 20.3332C4.5651 19.7109 3.89844 18.5553 3.89844 17.2998V9.69982C3.89844 8.45538 4.5651 7.29978 5.64288 6.66644L12.2429 2.85534C13.3207 2.23312 14.654 2.23312 15.7429 2.85534L22.3429 6.66644C23.4207 7.29978 24.0873 8.44427 24.0873 9.69982Z" stroke="#AEAEAE" stroke-width="1.66667" stroke-linecap="round" stroke-linejoin="round"/>
<path d="M13.999 12.3877C15.4288 12.3877 16.5879 11.2286 16.5879 9.7988C16.5879 8.369 15.4288 7.20996 13.999 7.20996C12.5692 7.20996 11.4102 8.369 11.4102 9.7988C11.4102 11.2286 12.5692 12.3877 13.999 12.3877Z" stroke="#AEAEAE" stroke-width="1.66667" stroke-linecap="round" stroke-linejoin="round"/>
<path d="M18.4436 18.6769C18.4436 16.6769 16.4547 15.0547 13.9991 15.0547C11.5436 15.0547 9.55469 16.6769 9.55469 18.6769" stroke="#AEAEAE" stroke-width="1.66667" stroke-linecap="round" stroke-linejoin="round"/>
</svg>
