<svg width="21" height="21" viewBox="0 0 21 21" fill="none" xmlns="http://www.w3.org/2000/svg">
<path d="M11.3335 10.1924H6.3335" stroke="white" stroke-width="1.5" stroke-linecap="round" stroke-linejoin="round"/>
<path d="M2.1665 10.1916V6.3416C2.1665 4.6416 3.54151 3.2666 5.24151 3.2666H9.92484C11.6248 3.2666 12.9998 4.32493 12.9998 6.02493" stroke="white" stroke-width="1.5" stroke-linecap="round" stroke-linejoin="round"/>
<path d="M15.0665 11.067C14.6498 11.467 14.4498 12.0837 14.6165 12.717C14.8248 13.492 15.5915 13.9837 16.3915 13.9837H17.1665V15.1921C17.1665 17.0337 15.6748 18.5254 13.8332 18.5254H5.49984C3.65817 18.5254 2.1665 17.0337 2.1665 15.1921V9.35872C2.1665 7.51706 3.65817 6.02539 5.49984 6.02539H13.8332C15.6665 6.02539 17.1665 7.52539 17.1665 9.35872V10.567H16.2665C15.7998 10.567 15.3748 10.7504 15.0665 11.067Z" stroke="white" stroke-width="1.5" stroke-linecap="round" stroke-linejoin="round"/>
<path d="M18.8333 11.4174V13.1341C18.8333 13.6007 18.45 13.9841 17.975 13.9841H16.3667C15.4667 13.9841 14.6417 13.3258 14.5667 12.4258C14.5167 11.9008 14.7167 11.4091 15.0667 11.0674C15.375 10.7507 15.8 10.5674 16.2667 10.5674H17.975C18.45 10.5674 18.8333 10.9507 18.8333 11.4174Z" stroke="white" stroke-width="1.5" stroke-linecap="round" stroke-linejoin="round"/>
</svg>
