<svg width="24" height="32" viewBox="0 0 24 32" fill="none" xmlns="http://www.w3.org/2000/svg">
<path d="M16.3068 14.6452H9.3009C8.69681 14.6452 8.20703 14.1528 8.20703 13.5455C8.20703 12.9382 8.69681 12.4458 9.3009 12.4458H16.3068C16.9109 12.4458 17.4007 12.9382 17.4007 13.5455C17.4007 14.1528 16.911 14.6452 16.3068 14.6452Z" fill="#939598"/>
<path d="M16.6895 12.5161C16.734 12.6359 16.7595 12.765 16.7595 12.9006C16.7595 13.5079 16.2697 14.0002 15.6656 14.0002H8.65975C8.52506 14.0002 8.39652 13.9746 8.27734 13.9298C8.43257 14.3473 8.83178 14.6451 9.30117 14.6451H16.3071C16.9111 14.6451 17.4009 14.1527 17.4009 13.5454C17.4009 13.0735 17.1047 12.6722 16.6895 12.5161Z" fill="#808285"/>
<path d="M20.5033 2.05469H5.10938V9.12905C5.10938 9.58611 5.3499 10.009 5.74181 10.2406L9.47098 12.4459H16.1417L19.8708 10.2406C20.2626 10.0089 20.5033 9.58598 20.5033 9.12905V2.05469Z" fill="#EC523D" fill-opacity="0.94"/>
<path d="M5.87766 8.27907C5.73603 8.27907 5.62109 8.16352 5.62109 8.02114V3.89427C5.62109 3.75189 5.73603 3.63634 5.87766 3.63634C6.01928 3.63634 6.13422 3.75189 6.13422 3.89427V8.02114C6.13422 8.16365 6.01928 8.27907 5.87766 8.27907ZM5.87766 3.12048C5.73603 3.12048 5.62109 3.00492 5.62109 2.86255V2.82824C5.62109 2.68586 5.73603 2.57031 5.87766 2.57031C6.01928 2.57031 6.13422 2.68586 6.13422 2.82824V2.86255C6.13422 3.00505 6.01928 3.12048 5.87766 3.12048Z" fill="#FEA613"/>
<path d="M19.2191 2.05469V7.83941C19.2191 8.29646 18.9785 8.71933 18.5866 8.95095L14.8575 11.1563H8.18678L5.12891 9.34791C5.19241 9.71778 5.41228 10.0465 5.74043 10.2406L9.4696 12.4459H16.1403L19.8695 10.2406C20.2612 10.0089 20.5019 9.58598 20.5019 9.12905V2.05469H19.2191Z" fill="#B9290E"/>
<path d="M19.8603 2.05469V8.48423C19.8603 8.94128 19.6198 9.36416 19.2279 9.59578L15.4987 11.8011H8.82802L5.23047 9.67367C5.33848 9.9062 5.51282 10.1061 5.74013 10.2406L9.46931 12.4459H16.14L19.8692 10.2406C20.2609 10.0089 20.5016 9.58598 20.5016 9.12905V2.05469H19.8603Z" fill="#841702"/>
<path d="M21.3218 2.05438H4.29025C3.82151 2.05438 3.44141 1.67238 3.44141 1.20102C3.44141 0.729779 3.82138 0.347656 4.29025 0.347656H21.3218C21.7905 0.347656 22.1706 0.72965 22.1706 1.20102C22.1706 1.67238 21.7905 2.05438 21.3218 2.05438Z" fill="#939598"/>
<path d="M21.7775 0.48291C21.8623 0.615744 21.9122 0.773339 21.9122 0.942928C21.9122 1.41417 21.5322 1.79629 21.0634 1.79629H4.0318C3.86311 1.79629 3.70635 1.74625 3.57422 1.66087C3.72521 1.89714 3.98831 2.05422 4.28837 2.05422H21.3201C21.7888 2.05422 22.1689 1.67222 22.1689 1.20086C22.1688 0.899209 22.0126 0.634702 21.7775 0.48291Z" fill="#808285"/>
<path d="M10.2383 2.05469H15.3696V12.4459H10.2383V2.05469Z" fill="#F1F2F2"/>
<path d="M10.2383 11.8008H15.3696V12.4456H10.2383V11.8008Z" fill="#E6E7E8"/>
<path d="M20.5033 26.6395V19.1937C20.5033 18.7329 20.2588 18.3072 19.8619 18.0769L13.4477 14.3539C13.0508 14.1236 12.5618 14.1236 12.1649 14.3539L5.75079 18.0769C5.35388 18.3072 5.10938 18.733 5.10938 19.1937V26.6395C5.10938 27.1003 5.35388 27.526 5.75079 27.7563L12.1649 31.4793C12.5618 31.7096 13.0508 31.7096 13.4477 31.4793L19.8619 27.7563C20.2588 27.526 20.5033 27.1003 20.5033 26.6395Z" fill="#FFC91D"/>
<path d="M19.8574 18.0765L19.7358 18.0059C19.8133 18.1735 19.8574 18.3574 19.8574 18.5485V25.9943C19.8574 26.4551 19.6129 26.8808 19.216 27.1112L12.8019 30.834C12.405 31.0643 11.916 31.0643 11.5191 30.834L5.22656 27.1817C5.33599 27.4182 5.51404 27.6211 5.74636 27.7559L12.1605 31.4787C12.5574 31.709 13.0464 31.709 13.4433 31.4787L19.8574 27.7559C20.2543 27.5255 20.4988 27.0997 20.4988 26.639V19.1932C20.4988 18.7326 20.2543 18.3069 19.8574 18.0765Z" fill="#FFA91A"/>
<path d="M18.7243 25.6085V20.2246C18.7243 19.7638 18.4798 19.3381 18.0829 19.1078L13.445 16.4159C13.0481 16.1856 12.5591 16.1856 12.1621 16.4159L7.52422 19.1078C7.12732 19.3381 6.88281 19.764 6.88281 20.2246V25.6085C6.88281 26.0693 7.12732 26.495 7.52422 26.7254L12.1621 29.4172C12.5591 29.6476 13.0481 29.6476 13.445 29.4172L18.0829 26.7254C18.4798 26.495 18.7243 26.0693 18.7243 25.6085Z" fill="#F79219"/>
<path d="M18.0863 19.1078L17.9647 19.0371C18.0422 19.2048 18.0863 19.3887 18.0863 19.5798V24.9637C18.0863 25.4245 17.8418 25.8502 17.4449 26.0805L12.807 28.7724C12.41 29.0027 11.921 29.0027 11.5241 28.7724L7.00781 26.1511C7.11724 26.3876 7.29529 26.5905 7.52761 26.7252L12.1655 29.4171C12.5624 29.6474 13.0515 29.6474 13.4484 29.4171L18.0863 26.7252C18.4832 26.4949 18.7277 26.069 18.7277 25.6084V20.2245C18.7277 19.7638 18.4832 19.3381 18.0863 19.1078Z" fill="#EF7816"/>
<path d="M13.0492 19.4014L13.8302 21.8177H16.3575C16.606 21.8177 16.7093 22.1374 16.5083 22.2843L14.4638 23.7777L15.2447 26.194C15.3216 26.4317 15.051 26.6292 14.8499 26.4824L12.8053 24.9889L10.7608 26.4824C10.5597 26.6292 10.2892 26.4317 10.3659 26.194L11.1469 23.7777L9.10232 22.2843C8.9013 22.1374 9.00457 21.8177 9.25318 21.8177H11.7803L12.5613 19.4014C12.6379 19.1637 12.9723 19.1637 13.0492 19.4014Z" fill="white"/>
<path d="M2.02572 23.4111L2.10757 23.7943C2.19364 24.1971 2.50652 24.5116 2.90715 24.5982L3.28841 24.6805C3.38038 24.7003 3.38038 24.8321 3.28841 24.852L2.90715 24.9343C2.50652 25.0208 2.19364 25.3353 2.10757 25.7381L2.02572 26.1214C2.00597 26.2138 1.87486 26.2138 1.85511 26.1214L1.77326 25.7381C1.68718 25.3353 1.3743 25.0208 0.973677 24.9343L0.592421 24.852C0.500443 24.8321 0.500443 24.7003 0.592421 24.6805L0.973677 24.5982C1.3743 24.5116 1.68718 24.1971 1.77326 23.7943L1.85511 23.4111C1.87486 23.3187 2.00597 23.3187 2.02572 23.4111Z" fill="#FFC91D"/>
<path d="M3.6622 27.3154L3.78215 27.8771C3.90825 28.4672 4.36673 28.9281 4.95375 29.0549L5.51242 29.1755C5.64712 29.2045 5.64712 29.3978 5.51242 29.4268L4.95375 29.5474C4.36673 29.6742 3.90825 30.1351 3.78215 30.7253L3.6622 31.2869C3.63334 31.4223 3.44104 31.4223 3.41218 31.2869L3.29223 30.7253C3.16613 30.1351 2.70765 29.6742 2.12063 29.5474L1.56196 29.4268C1.42726 29.3978 1.42726 29.2045 1.56196 29.1755L2.12063 29.0549C2.70765 28.9281 3.16613 28.4672 3.29223 27.8771L3.41218 27.3154C3.44104 27.18 3.63334 27.18 3.6622 27.3154Z" fill="#FFC91D"/>
<path d="M22.308 15.0231L22.412 15.5103C22.5213 16.0222 22.9191 16.422 23.4282 16.532L23.9129 16.6366C24.0298 16.6618 24.0298 16.8294 23.9129 16.8546L23.4282 16.9592C22.9191 17.0691 22.5214 17.469 22.412 17.9809L22.308 18.4681C22.2828 18.5856 22.1162 18.5856 22.091 18.4681L21.987 17.9809C21.8777 17.469 21.4799 17.0692 20.9707 16.9592L20.4861 16.8546C20.3692 16.8294 20.3692 16.6618 20.4861 16.6366L20.9707 16.532C21.4799 16.4221 21.8776 16.0222 21.987 15.5103L22.091 15.0231C22.1162 14.9057 22.2828 14.9057 22.308 15.0231Z" fill="#FFC91D"/>
</svg>
