<svg width="41" height="41" viewBox="0 0 41 41" fill="none" xmlns="http://www.w3.org/2000/svg">
<rect width="40" height="40" rx="20" fill="white" fill-opacity="0.3"/>
<rect x="3" y="3" width="34" height="34" rx="17" fill="#FF5833"/>
<rect x="3" y="3" width="34" height="34" rx="17" stroke="black" stroke-width="2"/>
<path fill-rule="evenodd" clip-rule="evenodd" d="M13.3117 18.7615C16.2301 13.5872 17.6893 11 20 11C22.3107 11 23.7699 13.5872 26.6883 18.7615L27.0519 19.4063C29.4771 23.7061 30.6897 25.856 29.5937 27.428C28.4978 29 25.7864 29 20.3637 29H19.6363C14.2136 29 11.5022 29 10.4063 27.428C9.31034 25.856 10.5229 23.7061 12.9481 19.4063L13.3117 18.7615ZM20 15.25C20.4142 15.25 20.75 15.5858 20.75 16V21C20.75 21.4142 20.4142 21.75 20 21.75C19.5858 21.75 19.25 21.4142 19.25 21V16C19.25 15.5858 19.5858 15.25 20 15.25ZM20 25C20.5523 25 21 24.5523 21 24C21 23.4477 20.5523 23 20 23C19.4477 23 19 23.4477 19 24C19 24.5523 19.4477 25 20 25Z" fill="white"/>
</svg>
