<svg width="41" height="41" viewBox="0 0 41 41" fill="none" xmlns="http://www.w3.org/2000/svg">
<rect x="0.222656" y="0.445312" width="40" height="40" rx="20" fill="#99A0AE" fill-opacity="0.4"/>
<rect x="3.22266" y="3.44531" width="34" height="34" rx="17" fill="#1E8FFF"/>
<rect x="3.22266" y="3.44531" width="34" height="34" rx="17" stroke="black" stroke-width="2"/>
<path d="M16.5744 28.6872C17.4155 29.7563 18.7368 30.4453 20.2227 30.4453C21.7085 30.4453 23.0298 29.7563 23.8709 28.6872C21.4491 29.0153 18.9962 29.0153 16.5744 28.6872Z" fill="white"/>
<path d="M26.9718 17.4453V18.1494C26.9718 18.9944 27.2129 19.8205 27.6649 20.5236L28.7723 22.2465C29.7838 23.8202 29.0116 25.9592 27.2523 26.4569C22.6499 27.7587 17.7954 27.7587 13.193 26.4569C11.4337 25.9592 10.6615 23.8202 11.673 22.2465L12.7805 20.5236C13.2324 19.8205 13.4735 18.9944 13.4735 18.1494V17.4453C13.4735 13.5793 16.4952 10.4453 20.2227 10.4453C23.9501 10.4453 26.9718 13.5793 26.9718 17.4453Z" fill="white"/>
</svg>
