<svg width="50" height="20" viewBox="0 0 50 20" fill="none" xmlns="http://www.w3.org/2000/svg">
<path d="M25.8031 19.9315C24.3769 19.9315 23.1125 19.7084 22.0101 19.2622C20.9076 18.8072 20.0457 18.1159 19.4245 17.1884C18.812 16.2522 18.5145 15.0666 18.532 13.6316H22.1019C22.1194 14.3141 22.2682 14.8916 22.5482 15.3641C22.8369 15.8278 23.2613 16.1778 23.8213 16.4141C24.39 16.6503 25.0944 16.7684 25.9344 16.7684C26.6781 16.7684 27.2862 16.6897 27.7587 16.5322C28.2312 16.366 28.5812 16.1253 28.8087 15.8103C29.0362 15.4953 29.1499 15.1191 29.1499 14.6816C29.1499 14.2004 29.0056 13.7979 28.7168 13.4741C28.4281 13.1416 27.9731 12.8354 27.3519 12.5554C26.7306 12.2666 25.9212 11.9516 24.9238 11.6104C23.7863 11.2079 22.7888 10.7442 21.9313 10.2192C21.0826 9.68543 20.4263 9.04231 19.9626 8.28982C19.4988 7.52859 19.267 6.6186 19.267 5.55986C19.267 3.83614 19.8445 2.52803 20.9994 1.63555C22.1632 0.73431 23.7469 0.283691 25.7506 0.283691C27.1244 0.283691 28.2575 0.498064 29.1499 0.926807C30.0424 1.35555 30.7205 1.98992 31.1843 2.8299C31.6568 3.66989 31.9499 4.70675 32.0637 5.94048H28.5331C28.4893 5.39799 28.3537 4.943 28.1262 4.5755C27.9075 4.19926 27.5968 3.91926 27.1944 3.73552C26.8006 3.54302 26.3062 3.44677 25.7112 3.44677C24.8013 3.44677 24.1013 3.61302 23.6113 3.94551C23.1213 4.27801 22.8763 4.7855 22.8763 5.46799C22.8763 5.91423 22.9725 6.30798 23.165 6.64922C23.3575 6.98172 23.7119 7.30546 24.2281 7.62046C24.7531 7.9267 25.51 8.26795 26.4987 8.64419C27.33 8.96794 28.1262 9.27856 28.8875 9.57605C29.6487 9.87355 30.3224 10.2235 30.9087 10.626C31.5037 11.0198 31.9674 11.5142 32.2999 12.1091C32.6411 12.6954 32.8161 13.4479 32.8249 14.3666C32.8336 16.1953 32.2212 17.5822 30.9874 18.5272C29.7537 19.4634 28.0256 19.9315 25.8031 19.9315Z" fill="white"/>
<path d="M0.03125 19.9315L6.20667 0.283691H11.6659L17.8413 19.9315H13.828L12.0443 13.7831L10.0849 7.10774L9.00386 2.90521H8.82819L7.76066 7.10774L4.03109 19.9315H0.03125Z" fill="white"/>
<path d="M39.0098 4.04541H38.9893V16.1411H39.0098V19.9312H35.2266V0.283691H39.0098V4.04541ZM49.9287 19.9312H46.1455V11.5396H40.582V8.16162H46.1455V0.283691H49.9287V19.9312Z" fill="white"/>
</svg>
