<svg width="22" height="22" viewBox="0 0 22 22" fill="none" xmlns="http://www.w3.org/2000/svg">
<path d="M3.5 5L5.88675 0H0.113249L2.5 5H3.5ZM17 19.4985L22 21.8853V16.1118L17 18.4985V19.4985ZM3 4.5H2.5V13.2864H3H3.5V4.5H3ZM8.7121 18.9985V19.4985H17.5V18.9985V18.4985H8.7121V18.9985ZM6.50182 18.5536L6.30835 19.0146C7.06949 19.334 7.88665 19.4985 8.7121 19.4985V18.9985V18.4985C8.01953 18.4985 7.33391 18.3605 6.6953 18.0925L6.50182 18.5536ZM3 13.2864H2.5C2.5 15.7886 4.00114 18.0464 6.30835 19.0146L6.50182 18.5536L6.6953 18.0925C4.75949 17.2802 3.5 15.3858 3.5 13.2864H3Z" fill="#FF5500"/>
</svg>
