<svg width="16" height="17" viewBox="0 0 16 17" fill="none" xmlns="http://www.w3.org/2000/svg">
<path d="M11.2003 12.9396C11.9471 12.9396 12.3204 12.9396 12.6056 12.7943C12.8565 12.6665 13.0605 12.4625 13.1883 12.2116C13.3337 11.9264 13.3337 11.553 13.3337 10.8063V4.40628C13.3337 3.65955 13.3337 3.28618 13.1883 3.00096C13.0605 2.75008 12.8565 2.54611 12.6056 2.41827C12.3204 2.27295 11.9471 2.27295 11.2003 2.27295H7.46699C6.72026 2.27295 6.34689 2.27295 6.06167 2.41827C5.81079 2.54611 5.60681 2.75008 5.47898 3.00096C5.33366 3.28618 5.33366 3.65955 5.33366 4.40628M4.80033 15.6063H8.53366C9.2804 15.6063 9.65376 15.6063 9.93898 15.461C10.1899 15.3331 10.3938 15.1292 10.5217 14.8783C10.667 14.5931 10.667 14.2197 10.667 13.4729V7.07295C10.667 6.32621 10.667 5.95284 10.5217 5.66763C10.3938 5.41675 10.1899 5.21277 9.93898 5.08494C9.65376 4.93962 9.2804 4.93962 8.53366 4.93962H4.80033C4.05359 4.93962 3.68022 4.93962 3.395 5.08494C3.14412 5.21277 2.94015 5.41675 2.81232 5.66763C2.66699 5.95284 2.66699 6.32621 2.66699 7.07295V13.4729C2.66699 14.2197 2.66699 14.5931 2.81232 14.8783C2.94015 15.1292 3.14412 15.3331 3.395 15.461C3.68022 15.6063 4.05359 15.6063 4.80033 15.6063Z" stroke="#3D3D3D" stroke-width="1.33333"/>
</svg>
