<svg width="20" height="21" viewBox="0 0 20 21" fill="none" xmlns="http://www.w3.org/2000/svg">
<g clip-path="url(#clip0_7152_13215)">
<path d="M9.16406 4.27295H3.33073C2.8887 4.27295 2.46478 4.44854 2.15222 4.7611C1.83966 5.07367 1.66406 5.49759 1.66406 5.93962V17.6063C1.66406 18.0483 1.83966 18.4722 2.15222 18.7848C2.46478 19.0974 2.8887 19.2729 3.33073 19.2729H14.9974C15.4394 19.2729 15.8633 19.0974 16.1759 18.7848C16.4885 18.4722 16.6641 18.0483 16.6641 17.6063V11.7729" stroke="#656565" stroke-width="1.5" stroke-linecap="round" stroke-linejoin="round"/>
<path d="M15.4141 3.02314C15.7456 2.69162 16.1952 2.50537 16.6641 2.50537C17.1329 2.50537 17.5825 2.69162 17.9141 3.02314C18.2456 3.35466 18.4318 3.8043 18.4318 4.27314C18.4318 4.74198 18.2456 5.19162 17.9141 5.52314L9.9974 13.4398L6.66406 14.2731L7.4974 10.9398L15.4141 3.02314Z" stroke="#656565" stroke-width="1.5" stroke-linecap="round" stroke-linejoin="round"/>
</g>
<defs>
<clipPath id="clip0_7152_13215">
<rect width="20" height="20" fill="white" transform="translate(0 0.939453)"/>
</clipPath>
</defs>
</svg>
