<svg width="30" height="31" viewBox="0 0 30 31" fill="none" xmlns="http://www.w3.org/2000/svg">
<path d="M22.55 19.3674C23.5678 21.6999 26.0636 22.2384 27.07 22.2127C27.2104 22.2091 27.3398 22.3177 27.3398 22.4581V27.5953C27.3398 27.7085 27.2549 27.804 27.1419 27.8115C25.114 27.9458 21.1046 26.9926 19.7235 24.938C17.9597 22.3139 16.3394 21.4015 15.3731 21.2241C15.2598 21.2034 15.1718 21.1082 15.1718 20.9931V15.39C15.1718 15.2819 15.2494 15.1889 15.3568 15.1762C17.5095 14.9218 21.2244 16.3296 22.55 19.3674Z" fill="#06FFB4"/>
<path d="M14.9737 3.16517C15.0831 3.1634 15.1719 3.25229 15.1719 3.36171V7.60861C15.1719 7.71803 15.0832 7.80645 14.9738 7.80933C13.0499 7.85995 11.2155 8.64631 9.85106 10.0107C8.43988 11.4219 7.64707 13.3359 7.64707 15.3316C7.64707 17.3273 8.43988 19.2413 9.85106 20.6525C11.2155 22.0169 13.0499 22.8032 14.9738 22.8538C15.0832 22.8567 15.1719 22.9452 15.1719 23.0546V27.3015C15.1719 27.4109 15.0831 27.4998 14.9737 27.498C11.8183 27.4466 8.80301 26.1709 6.56783 23.9357C4.28589 21.6537 3.00391 18.5588 3.00391 15.3316C3.00391 12.1044 4.28588 9.00944 6.56783 6.7275C8.80301 4.49231 11.8183 3.21652 14.9737 3.16517ZM26.086 12.2747C26.086 12.3972 25.9866 12.4966 25.864 12.4966H21.6414C21.5188 12.4966 21.4195 12.3972 21.4195 12.2747V7.83009H25.864C25.9866 7.83009 26.086 7.92946 26.086 8.05204V12.2747ZM21.4195 7.83009H16.9749C16.8523 7.83009 16.753 7.73072 16.753 7.60814V3.38552C16.753 3.26294 16.8523 3.16357 16.9749 3.16357H21.1975C21.3201 3.16357 21.4195 3.26294 21.4195 3.38552V7.83009Z" fill="#066EFF"/>
</svg>
