<svg width="36" height="36" viewBox="0 0 36 36" fill="none" xmlns="http://www.w3.org/2000/svg">
<rect x="0.864258" y="0.864258" width="34.2715" height="34.2715" rx="17.1357" fill="url(#paint0_linear_6315_32753)"/>
<path d="M23.6965 20.9908C24.4823 22.7917 26.4092 23.2074 27.1862 23.1876C27.2946 23.1848 27.3945 23.2686 27.3945 23.3771V27.3433C27.3945 27.4307 27.3289 27.5044 27.2417 27.5102C25.676 27.6139 22.5805 26.878 21.5143 25.2917C20.1525 23.2658 18.9015 22.5613 18.1555 22.4244C18.068 22.4083 18.0001 22.3349 18.0001 22.246V17.9201C18.0001 17.8366 18.06 17.7648 18.1429 17.755C19.8049 17.5586 22.6731 18.6455 23.6965 20.9908Z" fill="white"/>
<path d="M17.8469 8.4817C17.9314 8.48033 17.9999 8.54896 17.9999 8.63344V11.9123C17.9999 11.9968 17.9314 12.065 17.847 12.0673C16.3616 12.1064 14.9453 12.7135 13.8919 13.7669C12.8024 14.8564 12.1903 16.3341 12.1903 17.8749C12.1903 19.4157 12.8024 20.8934 13.8919 21.983C14.9453 23.0364 16.3616 23.6435 17.847 23.6825C17.9314 23.6848 17.9999 23.7531 17.9999 23.8375V27.1164C17.9999 27.2009 17.9314 27.2695 17.8469 27.2681C15.4107 27.2285 13.0827 26.2435 11.357 24.5178C9.59524 22.756 8.60547 20.3665 8.60547 17.8749C8.60547 15.3834 9.59523 12.9938 11.357 11.232C13.0827 9.50633 15.4107 8.52134 17.8469 8.4817ZM26.4262 15.5148C26.4262 15.6094 26.3495 15.6861 26.2549 15.6861H22.9948C22.9001 15.6861 22.8234 15.6094 22.8234 15.5148V12.0833H26.2549C26.3495 12.0833 26.4262 12.16 26.4262 12.2547V15.5148ZM22.8234 12.0833H19.3919C19.2973 12.0833 19.2206 12.0066 19.2206 11.9119V8.65183C19.2206 8.55719 19.2973 8.48047 19.3919 8.48047H22.652C22.7467 8.48047 22.8234 8.55719 22.8234 8.65183V12.0833Z" fill="white"/>
<g filter="url(#filter0_d_6315_32753)">
<path d="M32.8466 18.0001C32.8465 9.80085 26.1993 3.1541 18.0001 3.1541C9.8009 3.15418 3.15418 9.8009 3.1541 18.0001C3.1541 26.0712 9.59474 32.6382 17.6168 32.8416L18.0001 32.8466C26.0713 32.8466 32.6384 26.4055 32.8416 18.3833L32.8466 18.0001ZM33.989 18.0001C33.989 26.8303 26.8303 33.989 18.0001 33.989C9.16993 33.9889 2.01172 26.8302 2.01172 18.0001C2.01179 9.16998 9.16998 2.01179 18.0001 2.01172C26.8302 2.01172 33.9889 9.16993 33.989 18.0001Z" fill="url(#paint1_linear_6315_32753)" fill-opacity="0.5" shape-rendering="crispEdges"/>
</g>
<defs>
<filter id="filter0_d_6315_32753" x="0.869336" y="0.869336" width="34.2623" height="34.2618" filterUnits="userSpaceOnUse" color-interpolation-filters="sRGB">
<feFlood flood-opacity="0" result="BackgroundImageFix"/>
<feColorMatrix in="SourceAlpha" type="matrix" values="0 0 0 0 0 0 0 0 0 0 0 0 0 0 0 0 0 0 127 0" result="hardAlpha"/>
<feOffset/>
<feGaussianBlur stdDeviation="0.571191"/>
<feComposite in2="hardAlpha" operator="out"/>
<feColorMatrix type="matrix" values="0 0 0 0 0 0 0 0 0 0 0 0 0 0 0 0 0 0 0.25 0"/>
<feBlend mode="normal" in2="BackgroundImageFix" result="effect1_dropShadow_6315_32753"/>
<feBlend mode="normal" in="SourceGraphic" in2="effect1_dropShadow_6315_32753" result="shape"/>
</filter>
<linearGradient id="paint0_linear_6315_32753" x1="7.9856" y1="4.3228" x2="18" y2="35.1357" gradientUnits="userSpaceOnUse">
<stop offset="0.0514739" stop-color="#3C8BFA"/>
<stop offset="0.428284" stop-color="#066EFF"/>
<stop offset="1" stop-color="#014CB4"/>
</linearGradient>
<linearGradient id="paint1_linear_6315_32753" x1="9.37839" y1="4.53674" x2="25.9308" y2="31.6085" gradientUnits="userSpaceOnUse">
<stop stop-color="white"/>
<stop offset="1" stop-color="#0A5FFD"/>
</linearGradient>
</defs>
</svg>
