<svg width="82" height="31" viewBox="0 0 82 31" fill="none" xmlns="http://www.w3.org/2000/svg">
<path d="M57.8012 27.931C56.3749 27.931 55.1106 27.7079 54.0081 27.2617C52.9056 26.8067 52.0438 26.1154 51.4225 25.188C50.81 24.2517 50.5125 23.0661 50.53 21.6311H54.1C54.1175 22.3136 54.2662 22.8911 54.5462 23.3636C54.835 23.8273 55.2593 24.1773 55.8193 24.4136C56.3881 24.6498 57.0924 24.768 57.9324 24.768C58.6762 24.768 59.2843 24.6892 59.7568 24.5317C60.2293 24.3655 60.5793 24.1248 60.8067 23.8098C61.0342 23.4949 61.148 23.1186 61.148 22.6811C61.148 22.1999 61.0036 21.7974 60.7149 21.4736C60.4261 21.1411 59.9711 20.8349 59.3499 20.5549C58.7287 20.2662 57.9193 19.9512 56.9218 19.6099C55.7843 19.2074 54.7868 18.7437 53.9294 18.2187C53.0806 17.6849 52.4244 17.0418 51.9606 16.2893C51.4969 15.5281 51.265 14.6181 51.265 13.5594C51.265 11.8357 51.8425 10.5275 52.9975 9.63506C54.1612 8.73382 55.7449 8.2832 57.7487 8.2832C59.1224 8.2832 60.2555 8.49758 61.148 8.92632C62.0405 9.35506 62.7186 9.98943 63.1823 10.8294C63.6548 11.6694 63.948 12.7063 64.0617 13.94H60.5311C60.4874 13.3975 60.3518 12.9425 60.1243 12.575C59.9055 12.1988 59.5949 11.9188 59.1924 11.735C58.7987 11.5425 58.3043 11.4463 57.7093 11.4463C56.7993 11.4463 56.0993 11.6125 55.6093 11.945C55.1193 12.2775 54.8743 12.785 54.8743 13.4675C54.8743 13.9137 54.9706 14.3075 55.1631 14.6487C55.3556 14.9812 55.7099 15.305 56.2262 15.62C56.7512 15.9262 57.508 16.2675 58.4968 16.6437C59.328 16.9675 60.1243 17.2781 60.8855 17.5756C61.6467 17.8731 62.3205 18.2231 62.9067 18.6256C63.5017 19.0193 63.9655 19.5137 64.2979 20.1087C64.6392 20.6949 64.8142 21.4474 64.8229 22.3661C64.8317 24.1948 64.2192 25.5817 62.9855 26.5267C61.7517 27.4629 60.0236 27.931 57.8012 27.931Z" fill="white"/>
<path d="M32.0303 27.931L38.2057 8.2832H43.6649L49.8404 27.931H45.827L44.0433 21.7827L42.0839 15.1072L41.0029 10.9047H40.8272L39.7597 15.1072L36.0301 27.931H32.0303Z" fill="white"/>
<path d="M71.0107 12.0449H70.9902V24.1406H71.0107V27.9307H67.2275V8.2832H71.0107V12.0449ZM81.9297 27.9307H78.1465V19.5391H72.583V16.1611H78.1465V8.2832H81.9297V27.9307Z" fill="white"/>
<path d="M22.55 19.8068C23.5678 22.1394 26.0636 22.6779 27.07 22.6521C27.2104 22.6485 27.3398 22.7571 27.3398 22.8976V28.0348C27.3398 28.1479 27.2549 28.2434 27.1419 28.2509C25.114 28.3853 21.1046 27.4321 19.7235 25.3775C17.9597 22.7534 16.3394 21.8409 15.3731 21.6636C15.2598 21.6428 15.1718 21.5477 15.1718 21.4325V15.8295C15.1718 15.7213 15.2494 15.6283 15.3568 15.6156C17.5095 15.3613 21.2244 16.7691 22.55 19.8068Z" fill="#06FFB4"/>
<path d="M14.9737 3.60462C15.0831 3.60285 15.1719 3.69174 15.1719 3.80116V8.04806C15.1719 8.15748 15.0832 8.2459 14.9738 8.24879C13.0499 8.29941 11.2155 9.08577 9.85106 10.4502C8.43988 11.8614 7.64707 13.7753 7.64707 15.7711C7.64707 17.7668 8.43988 19.6807 9.85106 21.0919C11.2155 22.4563 13.0499 23.2427 14.9738 23.2933C15.0832 23.2962 15.1719 23.3846 15.1719 23.4941V27.7409C15.1719 27.8503 15.0831 27.9392 14.9737 27.9374C11.8183 27.8861 8.80301 26.6103 6.56783 24.3751C4.28589 22.0932 3.00391 18.9982 3.00391 15.7711C3.00391 12.5439 4.28588 9.4489 6.56783 7.16695C8.80301 4.93176 11.8183 3.65597 14.9737 3.60462ZM26.086 12.7141C26.086 12.8367 25.9866 12.9361 25.864 12.9361H21.6414C21.5188 12.9361 21.4195 12.8367 21.4195 12.7141V8.26954H25.864C25.9866 8.26954 26.086 8.36891 26.086 8.49149V12.7141ZM21.4195 8.26954H16.9749C16.8523 8.26954 16.753 8.17018 16.753 8.0476V3.82498C16.753 3.7024 16.8523 3.60303 16.9749 3.60303H21.1975C21.3201 3.60303 21.4195 3.7024 21.4195 3.82498V8.26954Z" fill="#066EFF"/>
</svg>
