<svg width="136" height="120" viewBox="0 0 136 120" fill="none" xmlns="http://www.w3.org/2000/svg">
<path d="M60.3578 20.7223L19.8173 90.9354C19.085 92.2034 18.6994 93.6418 18.6992 95.106C18.6991 96.5702 19.0844 98.0087 19.8165 99.2768C20.5486 100.545 21.6016 101.598 22.8696 102.33C24.1377 103.062 25.5762 103.447 27.0404 103.447H108.115C109.579 103.447 111.018 103.062 112.286 102.33C113.554 101.598 114.607 100.545 115.339 99.2768C116.071 98.0087 116.456 96.5702 116.456 95.106C116.456 93.6418 116.07 92.2034 115.338 90.9354L74.8019 20.7223C74.0699 19.4546 73.0172 18.4019 71.7495 17.67C70.4817 16.9381 69.0437 16.5527 67.5798 16.5527C66.116 16.5527 64.6779 16.9381 63.4102 17.67C62.1425 18.4019 61.0897 19.4546 60.3578 20.7223Z" fill="#EE404C"/>
<path d="M68.1077 42.377H67.0502C64.4466 42.377 62.3359 44.4876 62.3359 47.0912V69.6245C62.3359 72.2281 64.4466 74.3387 67.0502 74.3387H68.1077C70.7113 74.3387 72.8219 72.2281 72.8219 69.6245V47.0912C72.8219 44.4876 70.7113 42.377 68.1077 42.377Z" fill="#FFF7ED"/>
<path d="M67.5789 92.2096C70.4746 92.2096 72.8219 89.8623 72.8219 86.9666C72.8219 84.071 70.4746 81.7236 67.5789 81.7236C64.6833 81.7236 62.3359 84.071 62.3359 86.9666C62.3359 89.8623 64.6833 92.2096 67.5789 92.2096Z" fill="#FFF7ED"/>
</svg>
