<svg width="65" height="65" viewBox="0 0 65 65" fill="none" xmlns="http://www.w3.org/2000/svg">
<g clip-path="url(#clip0_7046_29675)">
<path fill-rule="evenodd" clip-rule="evenodd" d="M22.1802 2.7173C22.1803 2.2465 22.3673 1.79498 22.7001 1.46199C23.033 1.129 23.4844 0.941761 23.9552 0.94143L41.7041 0.94043C42.175 0.941521 42.6263 1.12927 42.959 1.46254C43.2917 1.7958 43.4787 2.24738 43.4791 2.7183V7.10793H22.1802V2.7173ZM51.3628 62.3977C51.3175 63.0898 51.0094 63.7385 50.5016 64.2109C49.9937 64.6833 49.3244 64.9438 48.6308 64.9389H16.8244C16.131 64.9371 15.464 64.6729 14.9573 64.1995C14.4505 63.7262 14.1417 63.0786 14.0927 62.3869L11.3709 22.5722H54.2677L51.3634 62.3972L51.3628 62.3977ZM58.4338 18.9662H7.22656V14.8412C7.22732 13.7471 7.6622 12.6981 8.43572 11.9245C9.20923 11.1508 10.2582 10.7157 11.3522 10.7147L54.3077 10.7133C55.4016 10.715 56.4502 11.1505 57.2235 11.9242C57.9968 12.698 58.4317 13.7469 58.4327 14.8408V18.9658L58.4338 18.9662ZM24.5851 55.4476C24.5851 55.6843 24.6317 55.9187 24.7223 56.1374C24.8129 56.3562 24.9457 56.5549 25.1131 56.7223C25.2805 56.8897 25.4792 57.0225 25.6979 57.1131C25.9166 57.2037 26.1511 57.2503 26.3878 57.2503C26.6246 57.2503 26.859 57.2037 27.0777 57.1131C27.2964 57.0225 27.4951 56.8897 27.6625 56.7223C27.8299 56.5549 27.9627 56.3562 28.0533 56.1374C28.1439 55.9187 28.1906 55.6843 28.1906 55.4476V30.1667C28.1868 29.6912 27.9953 29.2366 27.6578 28.9016C27.3203 28.5667 26.8642 28.3787 26.3887 28.3786C25.9133 28.3784 25.457 28.5661 25.1193 28.9008C24.7816 29.2354 24.5898 29.69 24.5857 30.1654V55.4476H24.5851ZM37.4476 55.4476C37.4476 55.9257 37.6375 56.3843 37.9756 56.7225C38.3138 57.0606 38.7724 57.2506 39.2506 57.2506C39.7287 57.2506 40.1874 57.0606 40.5255 56.7225C40.8636 56.3843 41.0536 55.9257 41.0536 55.4476V30.1667C41.0498 29.6912 40.8583 29.2364 40.5207 28.9015C40.1832 28.5665 39.727 28.3785 39.2515 28.3783C38.776 28.3781 38.3196 28.5659 37.9819 28.9006C37.6441 29.2353 37.4523 29.6899 37.4482 30.1654L37.4476 55.4476Z" fill="url(#paint0_linear_7046_29675)"/>
</g>
<defs>
<linearGradient id="paint0_linear_7046_29675" x1="32.8302" y1="0.94043" x2="32.8302" y2="64.939" gradientUnits="userSpaceOnUse">
<stop stop-color="#FF6C6F"/>
<stop offset="1" stop-color="#FC0005"/>
</linearGradient>
<clipPath id="clip0_7046_29675">
<rect width="64" height="64" fill="white" transform="translate(0.828125 0.939453)"/>
</clipPath>
</defs>
</svg>
