<svg width="226" height="123" viewBox="0 0 226 123" fill="none" xmlns="http://www.w3.org/2000/svg">
<path d="M85.9293 91.6408C89.1359 91.9291 93.2062 92.529 96.3991 93.0202C97.3741 93.1716 96.8516 93.4185 97.5288 93.5348C98.8498 93.7603 100.164 93.7179 101.453 93.9431C101.888 94.0195 101.31 94.4425 101.768 94.512C104.306 94.8893 106.69 94.902 109.294 95.1066C121.974 96.0919 134.535 95.9602 147.328 94.6777C151.542 94.2574 156.709 93.8937 160.962 92.8582C161.459 92.7375 161.081 92.3991 161.17 92.3475C162.555 91.5459 162.223 92.4475 163.217 92.3497C167.163 91.9535 171.442 90.8935 175.003 89.6232C176.522 89.0767 174.741 88.7958 176.416 88.7346C176.532 88.729 176.277 89.2643 176.71 89.172C177.693 88.9651 179.459 88.2733 180.203 88.0358C181.629 87.5856 181.858 87.4931 183.164 86.9843C184.981 86.2747 187.136 85.5761 188.98 84.5818C189.368 84.3706 188.652 84.2264 189.249 83.8537C189.852 83.4827 191.487 82.6866 192.095 82.4722C192.694 82.2669 192.626 82.6974 192.761 82.7145C193.9 82.8685 195.291 80.9798 195.5 80.8184C199.566 77.8866 203.278 75.7276 206.63 72.4684C209.166 69.9955 211.426 66.9659 213.251 64.1819C214.26 62.6511 215.139 61.214 215.944 59.7172C216.926 57.8643 217.619 56.2694 218.122 54.2617C218.216 53.8727 217.602 54.1972 217.709 53.7319C218.824 48.9159 218.162 44.0987 215.785 39.6755C215.552 39.2386 216.28 39.5381 216.064 39.0805C214.819 36.2056 211.402 31.7842 208.687 32.264C206.991 30.8194 204.88 29.3283 203.319 27.9467C202.314 27.0636 203.645 27.2544 202.162 26.6574C201.832 26.5282 202.02 27.1287 201.543 26.9082C199.558 25.9919 197.253 24.7109 195.187 24.045C194.754 23.9044 194.71 24.3113 194.565 24.3239C193.362 24.412 192.027 22.8502 191.666 22.6358C189.104 21.0702 186.871 20.4889 184.212 19.6011C183.598 19.3976 184.163 20.1315 183.567 19.9545C180.46 19.0274 177.189 18.0439 174.149 17.0181C173.466 16.7873 174.218 16.521 173.896 16.3886C172.476 15.8134 171.914 16.542 170.581 16.0342C170.297 15.928 170.55 15.5964 170.506 15.5428C169.817 14.7026 168.867 15.4406 168.646 15.4111C165.826 15.0582 164.219 13.7273 161.518 13.3362C161.193 13.2907 161.826 13.9054 160.918 13.749C154.823 12.7048 148.462 11.586 142.443 10.4426C141.506 10.2657 142.225 9.99012 142.171 9.93834C141.284 9.12419 140.549 9.97941 140.238 9.97792C137.792 9.94277 135.6 8.92276 133.837 9.868C123.589 8.46479 113.289 8.52401 103.053 7.39673C102.923 7.38359 103.161 6.92561 102.903 6.90141C99.781 6.61222 100.344 7.33653 98.277 8.21097C97.7555 8.43066 96.171 7.38266 96.0307 7.30719C95.5201 7.026 96.0412 6.3358 95.8704 6.28199C94.4509 5.86237 94.7305 8.12396 92.7905 8.15789C92.7299 8.15522 92.9762 7.73331 92.8132 7.69481C92.3063 7.57387 91.8115 7.75007 91.3184 7.61784C90.1926 7.31275 89.7567 6.22031 88.0866 6.91672C87.8714 7.00811 88.2604 8.27802 86.5506 8.28227C85.8488 8.28017 82.8271 8.44403 81.9988 8.41154C81.1635 8.37546 81.71 7.92941 81.6498 7.9148C79.3853 7.4998 80.2249 7.22343 79.0088 6.48914C77.7886 5.76216 78.2473 7.66391 77.7941 7.91185C77.3383 8.15837 75.6451 7.83716 75.2306 7.71566C74.8141 7.59282 75.2952 7.28808 74.9289 7.22965C72.5064 6.85745 73.993 8.27231 73.2203 8.64937C71.3741 9.55014 69.78 8.28344 68.091 8.34339C67.6369 8.35999 68.0421 8.63892 67.6474 8.7177C66.0387 9.03436 64.9288 8.73188 63.1843 9.40786C62.8829 9.51999 61.6316 10.5851 60.4998 10.1433C60.3452 10.0781 60.6789 9.65745 59.9624 9.70258C58.8759 9.77075 57.0952 10.0381 56.0244 10.3963C55.2019 10.6678 56.2855 11.0274 55.2027 11.0844C54.7253 11.1108 55.4992 10.5792 54.6088 10.6583C53.6804 10.742 51.7453 11.2609 50.8204 11.5552C49.9964 11.8149 50.5809 12.1051 50.5217 12.1539C50.1571 12.4373 48.7646 13.1281 48.6554 13.173C48.4928 13.2321 48.3326 13.291 48.1749 13.3496L48.1153 13.37C41.6232 15.4682 35.4491 17.6491 29.8579 21.4987C29.4098 21.8096 29.97 22.0075 29.9042 22.059C28.4605 23.2403 28.9989 21.3886 27.672 21.7746C28.3644 22.4586 27.6219 22.7416 26.6127 23.5916C26.1286 24.0029 26.6252 24.1004 26.6002 24.1648C26.1764 25.1633 25.2295 24.9764 25.0037 24.9618C24.1761 24.9066 24.039 25.8333 23.4839 25.8118C22.9262 25.7972 23.3565 24.7596 22.3679 25.5697C22.3087 26.0594 23.5982 26.1543 22.9508 26.8731C20.4871 29.4991 15.3661 33.8008 13.6193 36.1248C11.8245 38.3918 11.4145 39.2197 10.4414 40.5915C8.76421 43.1103 9.88291 42.4805 9.34885 44.2552C8.87232 46.0471 7.7477 44.5986 7.31587 44.7052C6.88669 44.8212 7.10487 45.2353 6.80171 45.4788C6.49842 45.7257 6.54657 44.9481 6.18683 45.6739C5.80868 46.4025 5.73508 48.6998 6.03265 49.0582C6.63473 49.827 7.63053 49.1193 6.89208 50.9915C6.85059 51.1013 6.51378 50.6395 6.37609 51.0666C5.29425 54.4814 5.14626 58.2622 5.43599 61.8625C5.47621 62.3621 4.93379 61.9975 4.95374 62.293C5.24808 65.386 5.83617 64.1262 7.11195 65.4597C5.87887 65.4176 5.38316 66.5719 6.21262 68.7637C6.73706 70.0879 7.1375 69.6746 7.83592 70.3445C8.03992 70.5342 8.14165 71.5618 8.44346 71.6119C9.42842 71.7684 9.75756 70.5519 10.578 72.7658C10.6153 72.8649 10.0709 72.792 10.2284 73.1196C11.2172 75.1223 12.108 74.968 13.5933 76.8508C14.7612 78.3346 16.578 81.2435 18.1317 82.9146C17.1639 83.8417 18.8466 85.0879 20.1064 84.9938C21.1304 86.0057 22.3826 87.0336 23.3328 87.9884C23.6708 88.3254 23.1843 88.4234 23.2037 88.4938C23.5033 89.5915 24.573 89.2974 24.8411 89.4653C27.7214 91.3029 29.6373 93.4784 32.661 94.6646C32.7707 94.707 33.4213 94.0277 33.7799 95.0601C33.8033 95.1299 32.6726 94.91 33.942 95.7563C35.2378 96.6213 37.4381 98.5279 39.491 99.1898C39.9906 99.3549 41.4955 99.3345 42.1623 100.362C42.2506 100.501 41.9856 100.66 42.0983 100.889C42.137 100.966 42.1804 101.028 42.2272 101.078L42.1939 101.062C42.5964 101.445 43.1839 100.965 43.5333 101.889C43.9391 102.927 45.177 104.097 47.4048 104.375C47.4748 104.385 48.2126 103.876 48.8429 104.128C49.8696 104.541 51.2156 105.201 52.3028 105.582C52.8199 105.763 52.6437 105.211 52.7361 105.235C56.2274 106.192 58.5451 107.385 62.221 108.696C62.8841 108.934 65.0441 108.922 66.2191 109.773C67.5266 110.708 65.4147 112.475 68.9376 112.887C70.373 113.054 72.8083 110.735 74.8975 112.794C79.7403 113.626 84.0061 115.366 88.9408 115.813C89.163 115.833 90.0033 115.182 90.5097 115.291C91.262 115.455 91.607 115.901 92.1438 116.026C94.3942 116.561 96.5316 116.608 98.7124 117.011C99.5414 117.162 99.1918 117.499 100.186 117.676C101.183 117.851 101.908 117.446 103.232 117.884C104.23 118.215 105.098 119.386 106.459 119.682C106.64 118.668 107.578 118.813 109.258 118.733C109.585 118.717 109.281 118.322 109.438 118.296C110.075 118.183 110.612 118.54 111.215 118.402C111.361 118.369 111.404 118.02 111.525 117.973C112.546 117.562 114.105 118.499 114.37 118.659C115.392 119.273 115.923 118.857 116.737 119.125C117.545 119.391 116.294 119.557 117.248 119.752C119.211 120.154 121.781 120.232 123.831 120.302C124.64 120.328 124.1 119.845 124.216 119.838C125.871 119.762 127.585 120.261 128.495 119.316C129.705 121.71 129.491 119.084 131.89 119.473C132.078 119.503 132.38 120.633 131.65 120.832C130.897 121.032 129.827 120.707 128.801 120.982C128.553 121.049 127.193 122.125 126.999 122.187C125.511 122.687 125.315 120.97 125.241 120.877C124.397 119.855 122.699 120.954 122.24 121.013C120.223 121.299 118.502 120.953 116.806 121.09C115.685 121.175 115.485 122.278 114.623 122.172C111.726 121.802 110.91 120.147 108.047 121.175C107.434 121.39 107.865 122.679 105.893 121.461C105.762 121.384 104.349 120.313 103.382 120.738C103.26 120.791 103.215 121.144 103.062 121.153C102.041 121.204 101.427 120.827 100.332 120.799C99.2362 120.769 97.9081 120.763 96.7048 120.44C95.9782 120.246 95.1411 119.428 94.8196 119.207C93.9109 118.573 92.711 119.135 92.1986 118.464C91.685 117.789 93.0456 117.164 91.5016 116.501C91.2705 117.398 90.9563 118.305 90.6858 119.2C87.1266 118.49 83.698 117.464 80.1479 116.693C79.7068 116.598 80.0454 117.186 79.5692 117.096C77.5643 116.714 75.907 115.95 73.8283 115.572C72.2039 115.277 70.3437 115.335 68.6411 115.01C67.9123 113.718 65.3572 113.379 63.6187 112.766C63.0024 112.55 63.1247 112.291 62.7089 112.072C61.1458 111.248 61.6555 112.375 61.1576 112.379C59.0116 112.379 59.4719 110.308 57.173 109.622C57.0498 109.586 55.215 110.169 54.9907 110.167C53.5575 110.168 54.906 109.725 54.1172 109.37C52.6722 108.716 51.7625 108.114 49.9126 107.791C49.3839 107.703 47.9235 107.912 47.1393 107.027C47.0371 106.911 47.2416 106.59 47.147 106.531C45.4544 105.483 44.9293 106.528 43.7269 106.468C42.5323 106.411 41.1638 104.941 40.9517 104.591C40.3461 103.665 41.7057 104.641 41.7815 104.606C42.4448 104.278 41.7835 103.958 41.0646 103.616L40.9039 103.537C40.7218 103.433 40.5354 103.327 40.3641 103.221C40.7804 102.141 39.5319 101.533 39.4786 102.671C39.4742 102.796 40.2101 103.078 40.3641 103.221C39.0489 103.789 37.6063 103.159 36.7073 101.422C36.2949 100.609 37.189 100.477 35.1207 99.4905C34.1259 99.0011 34.0786 99.8978 33.1358 99.5718C30.9571 98.8075 29.1272 96.728 27.1384 95.4644C26.4419 95.0229 26.8458 95.8402 26.3613 95.5494C25.0564 94.7605 24.3082 93.801 22.9532 92.9581C22.8336 92.8844 22.8238 93.4523 22.4421 93.161C19.6025 90.9896 17.4175 88.7005 14.8316 86.0613C13.5061 84.7261 11.2139 82.5106 10.0606 80.9093C8.10473 78.2961 6.46937 74.3807 5.17204 71.8986C4.30896 70.2479 4.06481 70.7707 3.46642 70.1311C2.29128 68.8831 2.50778 65.7996 2.6078 65.4227C2.60259 65.412 3.1416 66.9565 3.13242 66.0558C3.46782 65.4468 2.61549 65.4423 2.6078 65.4227C2.61771 65.1789 2.07693 61.9438 1.95625 61.3134C1.86658 60.9714 1.46387 61.2169 1.42583 61.0354C0.524304 56.6628 0.833284 51.986 2.27175 47.7259C2.30186 47.6525 2.73099 47.8982 2.79576 47.7259C3.72912 45.3346 3.79758 43.6299 4.38436 41.5506C4.98591 39.4782 5.96015 38.0547 7.30749 37.4463C8.04763 36.0391 9.62933 34.4364 10.5889 33.5683C11.5342 32.7119 10.9302 31.9918 10.9859 31.8903C12.7939 28.7911 14.6088 27.674 17.3102 25.2917C18.5879 24.1586 21.1171 21.8932 22.5484 20.7173C23.6755 19.7748 24.5156 19.4492 25.5475 18.5768C25.6877 18.4593 25.302 18.2175 25.3391 18.1731C26.3172 16.9174 26.278 18.1715 26.6355 18.1517C27.9359 18.0937 28.6839 18.0226 30.1486 16.784C30.4825 16.5004 30.8625 14.5856 31.5383 14.1165C32.4122 13.5131 32.3079 14.1661 33.2241 13.5351C33.303 13.4823 33.1339 13.2026 33.748 12.9012C36.582 11.5073 39.8337 10.2626 42.8937 9.09474C43.3183 8.93445 42.5923 8.65353 43.2075 8.41422C44.1788 8.03879 45.1863 7.68215 46.2044 7.36156L45.9921 7.43445C47.8941 6.73133 50.3042 6.09823 52.1059 5.8142C52.8253 5.69737 52.4699 6.15717 52.6483 6.22294C53.7296 6.61951 54.9084 5.39707 55.1462 5.32933C60.1989 3.80217 64.5387 4.04834 69.7088 3.07014C69.9793 3.01412 72.1861 1.77667 73.2591 2.55099C73.3318 2.60197 74.3668 3.39633 75.1795 2.7239C75.2307 2.68198 74.5825 2.27768 75.6518 2.23781C76.7144 2.19852 78.4634 1.76665 79.9783 2.17449C80.4456 2.30329 81.5703 3.11759 82.918 2.34484C82.999 2.28981 85.0865 0.598782 85.9182 1.66492C86.0418 1.84132 86.0002 3.00075 87.5995 2.3479C87.9073 2.22192 87.3313 1.98242 88.149 1.79314C89.404 1.50198 91.1015 1.76702 92.6823 1.22129C92.9516 1.12442 94.1487 0.316492 95.0664 0.904618C95.2124 0.996668 94.9412 1.38688 95.4304 1.42513C97.749 1.60928 100.25 1.35132 102.627 1.64569C103.462 1.74959 103.027 2.3703 103.896 2.55016C104.766 2.72953 106.527 2.92512 107.457 2.66272C108.387 2.40001 107.401 1.37532 108.793 1.33317C114.789 1.15523 120.714 2.05257 126.68 2.59823C127.563 2.68001 126.858 2.26545 128.163 2.36336C132.979 2.70384 141.317 3.26416 145.391 4.59383C148.636 5.64511 144.393 5.53679 146.895 6.12714C148.098 6.41168 149.58 5.45588 149.881 5.46362C152.844 5.52812 154.775 6.36218 157.376 6.65327C157.913 6.71406 157.473 6.15938 157.93 6.21663C159.517 6.41321 161.128 6.92592 162.618 7.17758C163.287 7.28983 163.234 6.91334 163.84 7.06226C165.282 7.41421 166.558 7.83474 167.926 8.47801C168.05 8.53651 167.075 8.78058 168.158 9.03467C169.922 9.44847 171.954 10.2608 174.062 10.4344C174.688 10.4852 174.918 9.69383 176.062 10.5756C176.301 10.7612 175.711 11.6216 177.411 11.1933C177.709 11.1231 180.444 10.6824 181.511 11.7722C181.785 12.0554 182.385 13.0742 183.13 13.1699C183.232 13.1802 182.975 12.6399 183.577 12.7796C185.694 13.2811 187.798 14.0235 189.998 14.6652C190.577 14.8335 189.888 14.0996 190.747 14.3659C193.075 15.0835 195.956 16.3567 198.111 17.4756C198.901 17.8865 198.185 17.9811 198.228 18.0451C198.895 19.0777 199.804 18.5089 200.15 18.6133C202.314 19.2914 203.606 20.4377 205.381 21.3016C205.87 21.543 205.746 20.9787 205.859 20.9986C207.087 21.2689 205.929 21.495 206.539 21.9479C208.27 23.2436 210.07 24.3654 211.908 25.6553C212.559 26.1148 212.14 25.1772 212.722 25.599C216.067 28.017 219.424 31.2887 221.638 35.188C222.041 35.9087 221.435 35.6794 221.453 35.87C221.546 37.1331 223.105 38.3279 223.346 38.6779C224.46 40.2389 224.392 41.0623 224.924 42.6556C227.183 49.1322 225.416 57.3753 222.367 62.9054C221.701 64.1841 221.008 65.3783 220.32 66.4768C215.473 74.0409 210.199 78.6667 203.571 83.5893C203.142 83.8998 203.874 84.0088 203.505 84.2824C198.739 87.7709 193.554 90.2963 188.3 92.7078C187.867 92.9045 188.69 93.0822 187.997 93.4127C186.569 94.0971 184.719 94.7943 183.181 95.1901C182.432 95.3838 183.259 94.6401 182.509 94.8414C180.75 95.3112 178.953 95.8752 177.213 96.4951C176.473 96.7586 177.752 96.8846 176.776 97.1896C170.16 99.2501 163.536 100.792 156.617 101.27C156.141 101.302 155.573 100.374 154.617 100.715C154.584 101.003 154.638 101.328 154.65 101.628C144.842 103.271 135.021 103.639 125.151 103.774C124.735 103.779 125.463 104.301 124.658 104.313C119.963 104.382 115.452 104.489 110.671 103.795C110.202 103.726 110.474 102.798 109.093 102.886C108.841 102.904 106.728 102.935 106.18 103.11C106.105 103.137 106.465 103.594 105.79 103.572C101.857 103.436 97.738 103.035 93.8573 102.394C93.226 102.289 93.9469 101.889 93.4988 101.811C90.3818 101.261 86.8525 101.208 83.8708 100.368C81.9309 99.8088 82.74 99.1059 81.7883 98.1637C81.6488 98.0306 80.4149 97.824 80.4272 97.357C80.4465 96.1835 81.2278 95.0169 81.1778 93.7552C81.1628 93.4842 79.5402 93.516 80.5753 93.0283C80.6445 92.9965 81.835 92.9656 82.161 92.7925C82.3854 92.6734 82.092 92.1538 82.5322 92.0241C82.971 91.8941 83.3771 92.3526 84.1016 92.2256C84.7998 92.0908 84.5721 91.5216 85.9293 91.6408ZM15.0029 29.9273C16.1172 29.4091 15.0625 28.1348 14.4721 29.3209C14.4452 29.3799 14.9462 29.9554 15.0029 29.9273ZM83.9863 116.235C82.7158 115.217 81.5125 116.039 82.3964 116.81C83.285 117.58 84.3758 116.543 83.9863 116.235ZM98.9376 118.509C97.3534 117.675 96.7063 119.932 98.5881 119.759C98.6983 119.75 99.0311 118.558 98.9376 118.509ZM86.792 98.6205C86.7777 98.5972 85.87 98.4598 85.847 98.4782C85.2942 98.9342 87.1123 99.2093 86.792 98.6205ZM113.876 119.82C113.376 119.46 111.814 119.672 112.432 120.127C112.938 120.496 114.501 120.271 113.876 119.82ZM67.9504 7.55152C67.9697 7.57362 68.5979 7.52166 68.5699 7.38567C68.4746 6.94694 67.6181 7.17593 67.9504 7.55152ZM139.32 119.666C135.526 120.101 133.179 118.298 137.179 118.135C137.918 118.093 135.661 118.919 136.618 118.991C138.38 119.116 139.329 117.764 141.105 118.095C141.448 118.159 139.565 119.65 139.314 119.67C139.316 119.668 139.318 119.667 139.32 119.666ZM16.8824 30.8195C16.9123 30.8175 17.5533 30.1926 17.5522 30.1654C17.5232 29.4494 16.2236 30.7141 16.8824 30.8195ZM105.425 6.98412C105.472 7.02992 107.536 7.11897 107.606 7.07948C108.709 6.24984 104.522 6.06591 105.425 6.98412ZM18.1314 82.9652C19.1936 83.2982 19.989 83.9804 20.1037 84.9903C19.4274 84.3089 18.7972 83.6886 18.1314 82.9652Z" fill="#E9358F"/>
</svg>
