<svg width="226" height="122" viewBox="0 0 226 122" fill="none" xmlns="http://www.w3.org/2000/svg">
<path d="M85.0465 90.9494C88.2531 91.2377 92.3234 91.8376 95.5163 92.3288C96.4913 92.4802 95.9688 92.7271 96.6459 92.8434C97.967 93.0689 99.281 93.0265 100.57 93.2517C101.005 93.3281 100.427 93.7511 100.885 93.8206C103.423 94.1979 105.807 94.2105 108.412 94.4152C121.091 95.4005 133.653 95.2688 146.445 93.9863C150.659 93.566 155.826 93.2023 160.08 92.1668C160.576 92.0461 160.198 91.7077 160.287 91.6561C161.672 90.8545 161.341 91.7561 162.334 91.6583C166.281 91.2621 170.559 90.2021 174.12 88.9318C175.639 88.3853 173.858 88.1044 175.533 88.0432C175.649 88.0376 175.394 88.5729 175.828 88.4805C176.81 88.2737 178.576 87.5819 179.32 87.3444C180.747 86.8942 180.976 86.8017 182.281 86.2929C184.099 85.5833 186.253 84.8847 188.097 83.8904C188.485 83.6792 187.77 83.535 188.366 83.1623C188.969 82.7913 190.605 81.9952 191.212 81.7808C191.812 81.5755 191.743 82.006 191.879 82.0231C193.018 82.1771 194.408 80.2884 194.617 80.127C198.683 77.1952 202.395 75.0362 205.747 71.777C208.283 69.3041 210.544 66.2745 212.368 63.4905C213.378 61.9597 214.256 60.5226 215.061 59.0258C216.043 57.1729 216.737 55.578 217.239 53.5703C217.333 53.1813 216.719 53.5058 216.826 53.0405C217.941 48.2245 217.279 43.4073 214.902 38.9841C214.669 38.5472 215.397 38.8467 215.181 38.3891C213.936 35.5142 210.519 31.0928 207.804 31.5726C206.108 30.1279 203.997 28.6369 202.436 27.2553C201.431 26.3722 202.762 26.563 201.279 25.9659C200.95 25.8368 201.137 26.4373 200.66 26.2168C198.675 25.3005 196.37 24.0195 194.305 23.3536C193.871 23.213 193.827 23.6199 193.682 23.6325C192.479 23.7206 191.144 22.1588 190.783 21.9444C188.222 20.3788 185.988 19.7975 183.33 18.9097C182.715 18.7062 183.281 19.4401 182.684 19.2631C179.578 18.336 176.306 17.3525 173.266 16.3267C172.583 16.0959 173.335 15.8295 173.014 15.6972C171.593 15.1219 171.031 15.8506 169.699 15.3428C169.414 15.2365 169.668 14.905 169.624 14.8514C168.934 14.0112 167.984 14.7492 167.763 14.7197C164.944 14.3668 163.336 13.0359 160.635 12.6448C160.31 12.5993 160.943 13.214 160.035 13.0576C153.94 12.0134 147.579 10.8946 141.56 9.7512C140.624 9.57433 141.342 9.29871 141.289 9.24693C140.401 8.43278 139.666 9.288 139.355 9.28652C136.909 9.25137 134.717 8.23136 132.954 9.1766C122.706 7.77339 112.406 7.83261 102.17 6.70532C102.041 6.69218 102.278 6.23421 102.02 6.21001C98.8982 5.92082 99.4614 6.64512 97.3942 7.51956C96.8727 7.73925 95.2882 6.69126 95.1479 6.61578C94.6373 6.3346 95.1584 5.64439 94.9876 5.59058C93.5681 5.17096 93.8477 7.43256 91.9077 7.46648C91.8471 7.46382 92.0934 7.0419 91.9303 7.0034C91.4235 6.88247 90.9286 7.05867 90.4356 6.92643C89.3098 6.62135 88.8739 5.5289 87.2038 6.22532C86.9886 6.3167 87.3776 7.58661 85.6678 7.59086C84.966 7.58877 81.9443 7.75262 81.1159 7.72014C80.2807 7.68405 80.8271 7.238 80.767 7.2234C78.5025 6.80839 79.3421 6.53202 78.1259 5.79774C76.9058 5.07075 77.3645 6.9725 76.9113 7.22044C76.4555 7.46696 74.7623 7.14575 74.3478 7.02426C73.9313 6.90141 74.4124 6.59667 74.0461 6.53825C71.6236 6.16605 73.1102 7.58091 72.3375 7.95796C70.4912 8.85873 68.8971 7.59203 67.2082 7.65199C66.7541 7.66858 67.1593 7.94751 66.7645 8.02629C65.1559 8.34295 64.046 8.04048 62.3015 8.71645C62.0001 8.82858 60.7488 9.89369 59.617 9.45192C59.4624 9.38669 59.7961 8.96605 59.0795 9.01118C57.9931 9.07934 56.2124 9.34671 55.1416 9.70487C54.3191 9.97639 55.4027 10.336 54.3199 10.393C53.8425 10.4194 54.6164 9.88776 53.7259 9.9669C52.7975 10.0506 50.8625 10.5695 49.9376 10.8638C49.1136 11.1235 49.6981 11.4137 49.6389 11.4625C49.2743 11.7459 47.8818 12.4367 47.7726 12.4816C47.61 12.5407 47.4498 12.5996 47.2921 12.6581L47.2325 12.6786C40.7404 14.7768 34.5663 16.9577 28.9751 20.8073C28.527 21.1182 29.0872 21.3161 29.0214 21.3676C27.5777 22.5489 28.1161 20.6972 26.7891 21.0832C27.4816 21.7672 26.7391 22.0502 25.7299 22.9002C25.2457 23.3115 25.7424 23.409 25.7174 23.4734C25.2936 24.4719 24.3467 24.285 24.1209 24.2704C23.2933 24.2152 23.1562 25.1419 22.6011 25.1204C22.0434 25.1058 22.4737 24.0682 21.4851 24.8783C21.4258 25.368 22.7154 25.4629 22.068 26.1817C19.6043 28.8077 14.4833 33.1094 12.7365 35.4334C10.9417 37.7004 10.5317 38.5283 9.55857 39.9001C7.88139 42.4189 9.0001 41.7891 8.46604 43.5638C7.9895 45.3557 6.86488 43.9072 6.43306 44.0138C6.00388 44.1298 6.22205 44.5439 5.9189 44.7874C5.61561 45.0343 5.66375 44.2567 5.30401 44.9825C4.92587 45.7111 4.85227 48.0084 5.14983 48.3668C5.75191 49.1356 6.74772 48.4279 6.00926 50.3001C5.96777 50.4099 5.63097 49.9481 5.49327 50.3752C4.41144 53.79 4.26344 57.5708 4.55318 61.1711C4.59339 61.6707 4.05098 61.3061 4.07093 61.6016C4.36527 64.6946 4.95336 63.4348 6.22914 64.7683C4.99606 64.7262 4.50035 65.8805 5.3298 68.0723C5.85425 69.3965 6.25469 68.9832 6.9531 69.6531C7.15711 69.8428 7.25884 70.8704 7.56065 70.9205C8.54561 71.077 8.87474 69.8605 9.69519 72.0744C9.7325 72.1734 9.18808 72.1006 9.34558 72.4282C10.3344 74.4309 11.2251 74.2766 12.7105 76.1594C13.8784 77.6432 15.6952 80.5521 17.2488 82.2232C16.281 83.1502 17.9638 84.3965 19.2236 84.3024C20.2476 85.3143 21.4997 86.3422 22.45 87.297C22.788 87.634 22.3015 87.732 22.3209 87.8024C22.6205 88.9001 23.6901 88.606 23.9583 88.7739C26.8386 90.6115 28.7545 92.787 31.7782 93.9732C31.8879 94.0156 32.5385 93.3363 32.8971 94.3687C32.9205 94.4385 31.7898 94.2186 33.0592 95.0649C34.355 95.9299 36.5553 97.8365 38.6082 98.4984C39.1077 98.6635 40.6126 98.6431 41.2795 99.671C41.3678 99.8095 41.1028 99.9685 41.2155 100.197C41.2542 100.275 41.2976 100.337 41.3444 100.387L41.3111 100.371C41.7136 100.753 42.3011 100.274 42.6505 101.197C43.0562 102.235 44.2942 103.405 46.522 103.683C46.592 103.693 47.3298 103.184 47.9601 103.437C48.9868 103.849 50.3328 104.509 51.42 104.891C51.9371 105.072 51.7609 104.52 51.8533 104.544C55.3446 105.501 57.6623 106.694 61.3382 108.004C62.0013 108.243 64.1613 108.23 65.3363 109.081C66.6438 110.016 64.5319 111.783 68.0548 112.196C69.4902 112.363 71.9255 110.043 74.0147 112.102C78.8574 112.935 83.1233 114.674 88.058 115.121C88.2802 115.142 89.1205 114.491 89.6269 114.6C90.3792 114.763 90.7241 115.209 91.2609 115.335C93.5114 115.87 95.6488 115.917 97.8296 116.319C98.6586 116.47 98.309 116.808 99.3031 116.985C100.3 117.16 101.025 116.754 102.349 117.192C103.347 117.523 104.215 118.695 105.576 118.99C105.757 117.976 106.695 118.121 108.375 118.041C108.702 118.026 108.398 117.631 108.555 117.605C109.193 117.492 109.729 117.849 110.332 117.711C110.478 117.677 110.521 117.329 110.643 117.282C111.663 116.87 113.222 117.808 113.487 117.968C114.509 118.582 115.04 118.166 115.854 118.434C116.663 118.7 115.411 118.865 116.365 119.06C118.329 119.462 120.899 119.541 122.948 119.611C123.757 119.636 123.217 119.153 123.333 119.146C124.988 119.071 126.703 119.57 127.612 118.625C128.822 121.018 128.608 118.393 131.007 118.781C131.196 118.811 131.497 119.941 130.767 120.141C130.014 120.341 128.944 120.016 127.918 120.291C127.67 120.357 126.31 121.434 126.117 121.496C124.628 121.996 124.432 120.279 124.358 120.186C123.514 119.163 121.816 120.262 121.357 120.322C119.341 120.607 117.619 120.262 115.923 120.399C114.802 120.483 114.603 121.587 113.74 121.48C110.843 121.111 110.027 119.455 107.164 120.483C106.551 120.699 106.982 121.987 105.01 120.77C104.879 120.693 103.466 119.622 102.499 120.046C102.378 120.1 102.332 120.453 102.18 120.462C101.158 120.512 100.544 120.136 99.4493 120.107C98.3534 120.078 97.0253 120.072 95.822 119.748C95.0954 119.554 94.2583 118.737 93.9368 118.515C93.0281 117.882 91.8282 118.443 91.3157 117.772C90.8022 117.098 92.1628 116.473 90.6188 115.809C90.3876 116.707 90.0735 117.613 89.803 118.508C86.2438 117.798 82.8152 116.773 79.2651 116.002C78.824 115.907 79.1626 116.495 78.6864 116.405C76.6815 116.023 75.0242 115.259 72.9454 114.881C71.3211 114.586 69.4608 114.644 67.7583 114.319C67.0295 113.027 64.4744 112.688 62.7359 112.075C62.1196 111.859 62.2419 111.6 61.8261 111.38C60.263 110.556 60.7727 111.684 60.2748 111.688C58.1288 111.687 58.5891 109.617 56.2902 108.931C56.167 108.894 54.3322 109.478 54.1079 109.476C52.6747 109.477 54.0232 109.034 53.2344 108.679C51.7894 108.025 50.8796 107.422 49.0297 107.1C48.5011 107.012 47.0407 107.221 46.2565 106.336C46.1543 106.22 46.3588 105.899 46.2642 105.839C44.5716 104.792 44.0465 105.837 42.8441 105.777C41.6494 105.72 40.281 104.25 40.0689 103.899C39.4633 102.974 40.8229 103.949 40.8986 103.915C41.562 103.586 40.9007 103.267 40.1818 102.925L40.021 102.846C39.839 102.742 39.6526 102.636 39.4813 102.529C39.8976 101.45 38.6491 100.841 38.5958 101.979C38.5914 102.105 39.3273 102.386 39.4813 102.529C38.1661 103.098 36.7235 102.468 35.8245 100.731C35.4121 99.9175 36.3062 99.7858 34.2378 98.7991C33.2431 98.3096 33.1957 99.2064 32.253 98.8804C30.0743 98.1161 28.2444 96.0366 26.2556 94.773C25.5591 94.3315 25.963 95.1488 25.4785 94.858C24.1736 94.0691 23.4254 93.1096 22.0704 92.2667C21.9508 92.193 21.9409 92.7609 21.5593 92.4695C18.7197 90.2982 16.5347 88.0091 13.9487 85.3698C12.6233 84.0347 10.3311 81.8192 9.17776 80.2179C7.22192 77.6047 5.58656 73.6893 4.28923 71.2072C3.42615 69.5565 3.182 70.0793 2.58361 69.4397C1.40847 68.1917 1.62497 65.1082 1.72499 64.7313C1.71978 64.7206 2.25879 66.2651 2.24961 65.3644C2.58501 64.7553 1.73267 64.7509 1.72499 64.7313C1.7349 64.4875 1.19412 61.2524 1.07343 60.622C0.98377 60.28 0.58106 60.5255 0.543014 60.344C-0.358509 55.9713 -0.0495288 51.2946 1.38894 47.0344C1.41904 46.961 1.84817 47.2068 1.91294 47.0345C2.84631 44.6432 2.91476 42.9385 3.50154 40.8592C4.1031 38.7868 5.07734 37.3633 6.42467 36.7549C7.16481 35.3477 8.74651 33.745 9.70613 32.8769C10.6513 32.0205 10.0474 31.3004 10.1031 31.1989C11.9111 28.0997 13.7259 26.9826 16.4274 24.6003C17.7051 23.4672 20.2343 21.2018 21.6656 20.0259C22.7927 19.0834 23.6328 18.7578 24.6647 17.8854C24.8049 17.7679 24.4192 17.5261 24.4563 17.4817C25.4344 16.226 25.3952 17.4801 25.7526 17.4603C27.0531 17.4023 27.8011 17.3312 29.2658 16.0926C29.5997 15.809 29.9797 13.8942 30.6555 13.4251C31.5294 12.8217 31.425 13.4747 32.3413 12.8437C32.4202 12.7909 32.2511 12.5112 32.8652 12.2098C35.6992 10.8159 38.9509 9.57117 42.0108 8.40334C42.4355 8.24305 41.7095 7.96212 42.3246 7.72281C43.296 7.34738 44.3035 6.99075 45.3216 6.67015L45.1092 6.74305C47.0113 6.03992 49.4214 5.40682 51.2231 5.1228C51.9424 5.00596 51.5871 5.46576 51.7655 5.53153C52.8468 5.92811 54.0256 4.70566 54.2634 4.63792C59.3161 3.11076 63.6559 3.35694 68.826 2.37873C69.0965 2.32271 71.3033 1.08527 72.3763 1.85958C72.4489 1.91056 73.484 2.70493 74.2967 2.0325C74.3478 1.99057 73.6996 1.58627 74.7689 1.5464C75.8316 1.50711 77.5806 1.07525 79.0955 1.48309C79.5627 1.61188 80.6875 2.42619 82.0352 1.65344C82.1162 1.5984 84.2037 -0.0926238 85.0354 0.973512C85.159 1.14992 85.1174 2.30935 86.7167 1.65649C87.0244 1.53051 86.4485 1.29101 87.2662 1.10173C88.5212 0.810578 90.2187 1.07561 91.7995 0.52988C92.0688 0.433009 93.2659 -0.374915 94.1836 0.213212C94.3296 0.305262 94.0584 0.695475 94.5476 0.733721C96.8662 0.917875 99.3676 0.659915 101.744 0.95428C102.579 1.05819 102.144 1.6789 103.013 1.85875C103.883 2.03812 105.644 2.23371 106.574 1.97131C107.505 1.7086 106.519 0.683913 107.911 0.641768C113.906 0.463827 119.831 1.36116 125.797 1.90682C126.681 1.9886 125.975 1.57404 127.28 1.67195C132.096 2.01243 140.434 2.57276 144.508 3.90243C147.754 4.9537 143.51 4.84538 146.012 5.43573C147.215 5.72027 148.698 4.76447 148.998 4.77221C151.961 4.83671 153.893 5.67077 156.493 5.96187C157.03 6.02265 156.59 5.46798 157.047 5.52523C158.634 5.7218 160.245 6.23451 161.735 6.48617C162.404 6.59842 162.351 6.22193 162.957 6.37085C164.4 6.72281 165.675 7.14333 167.044 7.7866C167.167 7.8451 166.192 8.08918 167.275 8.34327C169.04 8.75707 171.071 9.56935 173.18 9.74298C173.805 9.79384 174.035 9.00243 175.18 9.88422C175.418 10.0698 174.828 10.9301 176.528 10.5019C176.826 10.4317 179.562 9.99101 180.628 11.0808C180.903 11.3639 181.502 12.3828 182.247 12.4785C182.349 12.4888 182.092 11.9485 182.694 12.0882C184.811 12.5897 186.915 13.3321 189.115 13.9738C189.694 14.1421 189.005 13.4082 189.864 13.6745C192.192 14.3921 195.074 15.6653 197.228 16.7842C198.018 17.1951 197.302 17.2897 197.345 17.3537C198.013 18.3863 198.921 17.8175 199.267 17.9219C201.431 18.6 202.723 19.7462 204.498 20.6102C204.987 20.8516 204.863 20.2873 204.976 20.3072C206.205 20.5775 205.046 20.8036 205.656 21.2565C207.387 22.5522 209.187 23.674 211.025 24.9639C211.676 25.4234 211.258 24.4858 211.84 24.9076C215.184 27.3256 218.541 30.5973 220.756 34.4966C221.158 35.2173 220.552 34.988 220.57 35.1786C220.663 36.4417 222.222 37.6365 222.463 37.9865C223.577 39.5475 223.509 40.3709 224.041 41.9642C226.3 48.4408 224.533 56.6839 221.484 62.214C220.818 63.4927 220.125 64.6869 219.437 65.7854C214.59 73.3495 209.316 77.9753 202.688 82.8979C202.259 83.2084 202.991 83.3174 202.622 83.591C197.856 87.0795 192.672 89.6049 187.417 92.0164C186.984 92.2131 187.807 92.3908 187.114 92.7213C185.686 93.4057 183.836 94.1029 182.298 94.4987C181.549 94.6924 182.376 93.9487 181.627 94.15C179.867 94.6198 178.071 95.1838 176.33 95.8037C175.591 96.0672 176.869 96.1932 175.893 96.4982C169.278 98.5587 162.653 100.101 155.734 100.578C155.259 100.611 154.69 99.6823 153.734 100.024C153.701 100.312 153.755 100.636 153.767 100.937C143.959 102.58 134.138 102.948 124.268 103.083C123.852 103.088 124.58 103.609 123.776 103.622C119.08 103.691 114.569 103.797 109.788 103.103C109.319 103.035 109.591 102.107 108.21 102.195C107.958 102.212 105.845 102.244 105.298 102.418C105.223 102.445 105.582 102.903 104.908 102.881C100.974 102.745 96.8552 102.344 92.9745 101.703C92.3432 101.598 93.0641 101.198 92.616 101.119C89.499 100.569 85.9697 100.517 82.988 99.6767C81.0481 99.1174 81.8572 98.4145 80.9055 97.4723C80.766 97.3392 79.5321 97.1326 79.5444 96.6656C79.5637 95.4921 80.345 94.3255 80.295 93.0638C80.28 92.7928 78.6574 92.8246 79.6925 92.3369C79.7617 92.3051 80.9522 92.2742 81.2782 92.1011C81.5026 91.982 81.2092 91.4624 81.6494 91.3327C82.0882 91.2027 82.4943 91.6612 83.2188 91.5342C83.917 91.3994 83.6893 90.8302 85.0465 90.9494ZM14.1201 29.2359C15.2343 28.7177 14.1797 27.4434 13.5893 28.6295C13.5624 28.6885 14.0634 29.264 14.1201 29.2359ZM83.1035 115.543C81.833 114.526 80.6297 115.348 81.5136 116.119C82.4022 116.889 83.493 115.852 83.1035 115.543ZM98.0548 117.818C96.4706 116.983 95.8235 119.24 97.7053 119.068C97.8154 119.058 98.1483 117.866 98.0548 117.818ZM85.9092 97.9291C85.8949 97.9057 84.9872 97.7684 84.9642 97.7868C84.4114 98.2428 86.2295 98.5179 85.9092 97.9291ZM112.993 119.129C112.493 118.769 110.931 118.981 111.549 119.436C112.055 119.804 113.619 119.58 112.993 119.129ZM67.0676 6.86012C67.0869 6.88221 67.7151 6.83025 67.6871 6.69427C67.5917 6.25553 66.7353 6.48453 67.0676 6.86012ZM138.437 118.975C134.643 119.41 132.297 117.607 136.296 117.444C137.036 117.402 134.778 118.228 135.735 118.299C137.497 118.425 138.446 117.072 140.222 117.404C140.566 117.467 138.683 118.959 138.431 118.978C138.433 118.977 138.435 118.976 138.437 118.975ZM15.9996 30.1281C16.0295 30.1261 16.6705 29.5012 16.6694 29.474C16.6404 28.758 15.3408 30.0227 15.9996 30.1281ZM104.542 6.29271C104.589 6.33852 106.654 6.42756 106.724 6.38807C107.826 5.55843 103.64 5.37451 104.542 6.29271ZM17.2486 82.2738C18.3108 82.6068 19.1061 83.289 19.2209 84.2989C18.5446 83.6175 17.9144 82.9972 17.2486 82.2738Z" fill="#66AAFF"/>
</svg>
