<svg width="41" height="17" viewBox="0 0 41 17" fill="none" xmlns="http://www.w3.org/2000/svg">
<path d="M21.1992 16.2775C20.0749 16.2775 19.0782 16.1016 18.2091 15.7498C17.34 15.3911 16.6606 14.8463 16.1709 14.1151C15.6881 13.3771 15.4536 12.4425 15.4674 11.3113H18.2815C18.2953 11.8493 18.4126 12.3045 18.6333 12.677C18.8609 13.0426 19.1954 13.3185 19.6369 13.5047C20.0852 13.6909 20.6405 13.784 21.3026 13.784C21.8889 13.784 22.3683 13.722 22.7407 13.5978C23.1132 13.4668 23.3891 13.2771 23.5684 13.0288C23.7478 12.7805 23.8374 12.4839 23.8374 12.139C23.8374 11.7596 23.7236 11.4424 23.496 11.1872C23.2684 10.925 22.9097 10.6836 22.42 10.4629C21.9303 10.2353 21.2923 9.987 20.506 9.718C19.6093 9.40071 18.823 9.03515 18.147 8.6213C17.478 8.20056 16.9607 7.69359 16.5951 7.10041C16.2295 6.50034 16.0468 5.783 16.0468 4.94841C16.0468 3.58961 16.502 2.55844 17.4125 1.8549C18.3298 1.14446 19.5783 0.789246 21.1578 0.789246C22.2407 0.789246 23.1339 0.958233 23.8374 1.29621C24.541 1.63418 25.0755 2.13425 25.4411 2.7964C25.8135 3.45856 26.0446 4.27591 26.1343 5.24845H23.3512C23.3167 4.82081 23.2098 4.46214 23.0304 4.17245C22.858 3.87586 22.6131 3.65514 22.2958 3.51029C21.9855 3.35855 21.5958 3.28267 21.1267 3.28267C20.4094 3.28267 19.8576 3.41373 19.4713 3.67583C19.0851 3.93793 18.892 4.33798 18.892 4.87599C18.892 5.22776 18.9678 5.53814 19.1196 5.80714C19.2713 6.06924 19.5507 6.32445 19.9576 6.57276C20.3715 6.81417 20.9681 7.08317 21.7475 7.37976C22.4028 7.63497 23.0304 7.87983 23.6305 8.11434C24.2306 8.34885 24.7617 8.62475 25.2238 8.94203C25.6928 9.25242 26.0584 9.64212 26.3205 10.1112C26.5895 10.5733 26.7275 11.1665 26.7344 11.8907C26.7413 13.3323 26.2584 14.4255 25.2859 15.1704C24.3134 15.9085 22.9511 16.2775 21.1992 16.2775Z" fill="black"/>
<path d="M0.883789 16.2775L5.75182 0.789246H10.0553L14.9233 16.2775H11.7596L10.3536 11.4307L8.80899 6.16858L7.95682 2.85576H7.81834L6.97682 6.16858L4.03683 16.2775H0.883789Z" fill="black"/>
<path d="M31.6118 3.75507H31.5952V13.2892H31.6118V16.2775H28.6294V0.789246H31.6118V3.75507ZM40.2192 16.2775H37.2368V9.66229H32.8511V6.99921H37.2368V0.789246H40.2192V16.2775Z" fill="black"/>
</svg>
