<svg width="41" height="41" viewBox="0 0 41 41" fill="none" xmlns="http://www.w3.org/2000/svg">
<path fill-rule="evenodd" clip-rule="evenodd" d="M10.1233 3.10742H30.5423C34.5701 3.10742 37.8335 6.61862 37.8335 10.9502V30.2646C37.8335 34.5962 34.5701 38.1074 30.5437 38.1074H10.1233C6.0969 38.1074 2.8335 34.5962 2.8335 30.2646V10.9502C2.8335 6.61862 6.0969 3.10742 10.1233 3.10742Z" fill="#0052FF"/>
<path fill-rule="evenodd" clip-rule="evenodd" d="M20.3334 8.17676C27.199 8.17676 32.764 13.7418 32.764 20.6074C32.764 27.473 27.199 33.038 20.3334 33.038C13.4678 33.038 7.90283 27.473 7.90283 20.6074C7.90283 13.7418 13.4678 8.17676 20.3334 8.17676Z" fill="white"/>
<path fill-rule="evenodd" clip-rule="evenodd" d="M17.2718 16.6343H23.394C23.898 16.6343 24.3054 17.0739 24.3054 17.6143V23.5993C24.3054 24.1411 23.8966 24.5793 23.394 24.5793H17.2718C16.7678 24.5793 16.3604 24.1397 16.3604 23.5993V17.6143C16.3604 17.0739 16.7692 16.6343 17.2718 16.6343Z" fill="#0052FF"/>
</svg>
