<svg width="41" height="41" viewBox="0 0 41 41" fill="none" xmlns="http://www.w3.org/2000/svg">
<path d="M36.0905 4.35718L22.4336 14.5167L24.9591 8.52272L36.0905 4.35718Z" fill="#E2761B"/>
<path fill-rule="evenodd" clip-rule="evenodd" d="M36.1505 4.32438C36.1669 4.3544 36.1586 4.39187 36.1312 4.41227L22.4743 14.5718C22.4495 14.5903 22.4154 14.5898 22.391 14.5707C22.3667 14.5516 22.3581 14.5186 22.3701 14.4901L24.8956 8.49611C24.903 8.47871 24.9171 8.4651 24.9348 8.45848L36.0662 4.29294C36.0982 4.28096 36.1342 4.29436 36.1505 4.32438ZM25.0106 8.57666L22.5943 14.3115L35.6607 4.59124L25.0106 8.57666Z" fill="#E2761B"/>
<path d="M4.56276 4.35718L18.1098 14.6129L15.7079 8.52272L4.56276 4.35718ZM31.1765 27.9069L27.5392 33.4885L35.3216 35.6331L37.5588 28.0306L31.1765 27.9069ZM3.12158 28.0306L5.34511 35.6331L13.1275 33.4885L9.49021 27.9069L3.12158 28.0306Z" fill="#E4761B"/>
<path fill-rule="evenodd" clip-rule="evenodd" d="M4.50289 4.32414C4.51931 4.29429 4.55514 4.281 4.58705 4.29293L15.7322 8.45847C15.7504 8.46527 15.7648 8.47949 15.772 8.49757L18.1739 14.5878C18.1852 14.6164 18.1761 14.649 18.1516 14.6676C18.1271 14.6862 18.0932 14.6862 18.0687 14.6677L4.5216 4.41193C4.49444 4.39137 4.48648 4.35399 4.50289 4.32414ZM4.97874 4.58585L17.9565 14.4106L15.6555 8.57634L4.97874 4.58585ZM9.48915 27.8383C9.51282 27.8379 9.53505 27.8496 9.54798 27.8695L13.1852 33.451C13.1972 33.4694 13.1997 33.4923 13.1919 33.5128C13.1842 33.5333 13.1671 33.5488 13.146 33.5547L5.36361 35.6993C5.32748 35.7093 5.29003 35.6884 5.27951 35.6524L3.05598 28.0499C3.04998 28.0294 3.05388 28.0073 3.06654 27.9901C3.07919 27.9728 3.09915 27.9625 3.12052 27.9621L9.48915 27.8383ZM31.1193 27.8695C31.1322 27.8496 31.1544 27.8379 31.1781 27.8383L37.5604 27.9621C37.5818 27.9625 37.6018 27.9728 37.6145 27.9901C37.6271 28.0074 37.631 28.0295 37.6249 28.0501L35.3877 35.6525C35.3771 35.6884 35.3397 35.7092 35.3036 35.6993L27.5213 33.5547C27.5002 33.5488 27.4831 33.5333 27.4753 33.5128C27.4676 33.4923 27.47 33.4694 27.482 33.451L31.1193 27.8695ZM3.21291 28.0975L5.39228 35.549L13.019 33.4473L9.45376 27.9763L3.21291 28.0975ZM31.2135 27.9763L27.6483 33.4473L35.2751 35.5491L37.4679 28.0975L31.2135 27.9763Z" fill="#E4761B"/>
<path d="M12.6882 18.4753L10.5195 21.761L18.247 22.1047L17.9725 13.7874L12.6882 18.4753ZM27.9646 18.4753L22.6117 13.6912L22.4333 22.1047L30.147 21.761L27.9646 18.4753ZM13.1274 33.4878L17.7666 31.2194L13.7587 28.085L13.1274 33.4878ZM22.8862 31.2194L27.5391 33.4878L26.894 28.085L22.8862 31.2194Z" fill="#E4761B"/>
<path fill-rule="evenodd" clip-rule="evenodd" d="M22.5846 13.6283C22.6092 13.6176 22.6377 13.6222 22.6577 13.64L28.024 18.4361L28.0221 18.4374L30.2044 21.7231C30.2181 21.7437 30.2196 21.7701 30.2084 21.7921C30.1972 21.8142 30.175 21.8285 30.1503 21.8296L22.4366 22.1733C22.4176 22.1742 22.3991 22.1671 22.3856 22.1538C22.372 22.1406 22.3645 22.1223 22.3649 22.1033L22.5433 13.6897C22.5439 13.6629 22.56 13.6389 22.5846 13.6283ZM22.6774 13.8417L22.5037 22.0329L30.0229 21.6979L27.9126 18.5207L22.6774 13.8417ZM17.9998 13.7244C18.0243 13.7349 18.0405 13.7586 18.0413 13.7852L18.3158 22.1025C18.3165 22.1216 18.3091 22.1401 18.2955 22.1536C18.2819 22.167 18.2633 22.1742 18.2442 22.1733L10.5168 21.8296C10.4921 21.8285 10.4699 21.8142 10.4587 21.7922C10.4474 21.7702 10.4489 21.7439 10.4625 21.7233L12.6312 18.4376C12.6345 18.4326 12.6384 18.428 12.6429 18.424L17.9272 13.7361C17.9471 13.7184 17.9754 13.7139 17.9998 13.7244ZM12.7407 18.5207L10.6437 21.6979L18.1762 22.0329L17.909 13.9357L12.7407 18.5207ZM13.7326 28.0217C13.7555 28.0121 13.7818 28.0156 13.8013 28.0309L17.8091 31.1654C17.8278 31.18 17.8376 31.2031 17.8351 31.2266C17.8326 31.2501 17.8182 31.2707 17.797 31.2811L13.1578 33.5495C13.1352 33.5605 13.1085 33.5583 13.088 33.5438C13.0675 33.5293 13.0566 33.5048 13.0595 33.4798L13.6909 28.077C13.6937 28.0524 13.7097 28.0312 13.7326 28.0217ZM26.9207 28.0216C26.9435 28.0311 26.9595 28.0522 26.9625 28.0768L27.6076 33.4797C27.6105 33.5046 27.5996 33.5292 27.5792 33.5437C27.5587 33.5583 27.5319 33.5605 27.5093 33.5495L22.8564 31.2811C22.8351 31.2708 22.8207 31.2502 22.8182 31.2266C22.8157 31.2031 22.8256 31.18 22.8442 31.1654L26.852 28.0309C26.8716 28.0157 26.8978 28.0121 26.9207 28.0216ZM13.813 28.2143L13.2104 33.371L17.6382 31.206L13.813 28.2143ZM23.0152 31.2059L27.4563 33.371L26.8406 28.2141L23.0152 31.2059Z" fill="#E4761B"/>
<path d="M27.5397 33.4888L22.8868 31.2205L23.2573 34.2587L23.2162 35.5372L27.5397 33.4888ZM13.1279 33.4888L17.4515 35.5372L17.424 34.2587L17.7671 31.2205L13.1279 33.4888Z" fill="#D7C1B3"/>
<path fill-rule="evenodd" clip-rule="evenodd" d="M22.8462 31.1646C22.8667 31.15 22.8935 31.1478 22.9161 31.1588L27.5691 33.4272C27.5928 33.4387 27.6078 33.4628 27.6076 33.4892C27.6075 33.5156 27.5922 33.5396 27.5684 33.5509L23.2448 35.5993C23.2232 35.6095 23.1978 35.6078 23.1778 35.5946C23.1578 35.5815 23.1461 35.5589 23.1469 35.535L23.1879 34.2618L22.8179 31.2288C22.8149 31.2038 22.8257 31.1792 22.8462 31.1646ZM17.806 31.1644C17.8265 31.1788 17.8374 31.2033 17.8346 31.2282L17.492 34.2618L17.5194 35.5358C17.5199 35.5596 17.508 35.5819 17.4881 35.5948C17.4681 35.6078 17.4429 35.6095 17.4214 35.5993L13.0978 33.5509C13.074 33.5396 13.0588 33.5156 13.0586 33.4893C13.0584 33.4629 13.0734 33.4388 13.0971 33.4272L17.7363 31.1588C17.7588 31.1478 17.7855 31.15 17.806 31.1644ZM22.9695 31.3375L23.326 34.261L23.2877 35.4271L27.3806 33.488L22.9695 31.3375ZM13.2855 33.4879L17.3798 35.4277L17.3545 34.2509L17.6842 31.3371L13.2855 33.4879Z" fill="#D7C1B3"/>
<path d="M17.5195 26.0786L13.6489 24.9376L16.3803 23.6865L17.5195 26.0786ZM23.1332 26.0786L24.2725 23.6865L27.0176 24.9376L23.1332 26.0786Z" fill="#233447"/>
<path fill-rule="evenodd" clip-rule="evenodd" d="M16.352 23.6239C16.3861 23.6083 16.4264 23.623 16.4425 23.6568L17.5817 26.0489C17.5934 26.0734 17.5896 26.1024 17.572 26.123C17.5544 26.1436 17.5264 26.1519 17.5004 26.1442L13.6298 25.0032C13.6023 24.9951 13.5828 24.9708 13.5807 24.9423C13.5787 24.9137 13.5946 24.8869 13.6206 24.875L16.352 23.6239ZM24.2108 23.6568C24.2269 23.623 24.2671 23.6083 24.3012 23.6239L27.0463 24.8749C27.0724 24.8868 27.0883 24.9136 27.0863 24.9422C27.0842 24.9708 27.0647 24.9951 27.0372 25.0032L23.1529 26.1443C23.1269 26.1519 23.0989 26.1435 23.0813 26.1229C23.0637 26.1023 23.0599 26.0733 23.0716 26.0489L24.2108 23.6568ZM24.3057 23.7768L23.2615 25.9693L26.8218 24.9234L24.3057 23.7768ZM13.8445 24.9234L17.3917 25.9691L16.3477 23.7769L13.8445 24.9234Z" fill="#233447"/>
<path d="M13.128 33.4887L13.7868 27.9072L9.49072 28.0309L13.128 33.4887ZM26.8809 27.9072L27.5397 33.4887L31.177 28.0309L26.8809 27.9072ZM30.1476 21.762L22.4339 22.1057L23.1476 26.0787L24.2868 23.6866L27.0319 24.9377L30.1476 21.762ZM13.6495 24.9377L16.3946 23.6866L17.5201 26.0787L18.2476 22.1057L10.5201 21.762L13.6495 24.9377Z" fill="#CD6116"/>
<path fill-rule="evenodd" clip-rule="evenodd" d="M10.4572 21.7341C10.4687 21.7083 10.4948 21.6922 10.523 21.6934L18.2504 22.0371C18.2702 22.038 18.2887 22.0474 18.301 22.0629C18.3134 22.0784 18.3184 22.0985 18.3149 22.118L17.5874 26.0911C17.582 26.1204 17.5583 26.143 17.5288 26.1468C17.4992 26.1507 17.4705 26.135 17.4578 26.108L16.3612 23.7772L13.6778 25.0001C13.6516 25.0121 13.6207 25.0064 13.6004 24.9859L10.471 21.8102C10.4512 21.7901 10.4457 21.7599 10.4572 21.7341ZM30.21 21.734C30.2215 21.7598 30.2161 21.7899 30.1964 21.81L27.0807 24.9858C27.0604 25.0064 27.0295 25.0121 27.0032 25.0001L24.3195 23.7771L23.2093 26.1083C23.1965 26.1352 23.1678 26.1507 23.1382 26.1468C23.1087 26.1428 23.0851 26.1202 23.0798 26.0909L22.3661 22.1178C22.3626 22.0983 22.3677 22.0783 22.38 22.0628C22.3924 22.0474 22.4108 22.038 22.4306 22.0371L30.1443 21.6934C30.1725 21.6922 30.1985 21.7083 30.21 21.734ZM10.6915 21.8383L13.6645 24.8553L16.366 23.6242C16.4002 23.6086 16.4405 23.6234 16.4565 23.6574L17.4909 25.856L18.1657 22.1707L10.6915 21.8383ZM22.5151 22.1707L23.1772 25.8565L24.2246 23.6572C24.2407 23.6233 24.281 23.6087 24.315 23.6242L27.0164 24.8553L29.9764 21.8383L22.5151 22.1707ZM13.8372 27.8609C13.8507 27.8756 13.8571 27.8954 13.8547 27.9152L13.1959 33.4968C13.1925 33.5253 13.1717 33.5488 13.1437 33.5555C13.1158 33.5622 13.0866 33.5507 13.0707 33.5268L9.43339 28.069C9.41956 28.0482 9.41808 28.0216 9.42954 27.9994C9.441 27.9772 9.46358 27.963 9.48853 27.9623L13.7846 27.8386C13.8045 27.838 13.8237 27.8461 13.8372 27.8609ZM26.8301 27.8609C26.8435 27.8461 26.8627 27.838 26.8827 27.8386L31.1788 27.9623C31.2037 27.963 31.2263 27.9772 31.2377 27.9994C31.2492 28.0216 31.2477 28.0482 31.2339 28.069L27.5966 33.5268C27.5807 33.5507 27.5515 33.5622 27.5235 33.5555C27.4956 33.5488 27.4747 33.5253 27.4714 33.4968L26.8125 27.9152C26.8102 27.8954 26.8166 27.8756 26.8301 27.8609ZM9.61631 28.0959L13.0815 33.2955L13.7091 27.9781L9.61631 28.0959ZM26.9582 27.9781L27.5858 33.2955L31.051 28.0959L26.9582 27.9781Z" fill="#CD6116"/>
<path d="M10.5195 21.762L13.7587 28.0859L13.6489 24.9377L10.5195 21.762ZM27.0313 24.9377L26.894 28.0859L30.147 21.762L27.0313 24.9377ZM18.247 22.1057L17.5195 26.0787L18.4254 30.7667L18.6313 24.594L18.247 22.1057ZM22.4333 22.1057L22.0627 24.5802L22.2274 30.7667L23.147 26.0787L22.4333 22.1057Z" fill="#E4751F"/>
<path fill-rule="evenodd" clip-rule="evenodd" d="M30.1874 21.7064C30.2149 21.7262 30.2238 21.7632 30.2083 21.7934L26.9553 28.1173C26.9406 28.146 26.9079 28.1605 26.8767 28.1522C26.8456 28.144 26.8244 28.1151 26.8258 28.0829L26.963 24.9347C26.9637 24.9178 26.9707 24.9017 26.9826 24.8896L30.0983 21.7139C30.122 21.6897 30.1599 21.6865 30.1874 21.7064ZM10.4796 21.7064C10.5071 21.6865 10.5449 21.6897 10.5687 21.7138L13.6981 24.8895C13.7102 24.9018 13.7172 24.9181 13.7178 24.9353L13.8276 28.0835C13.8287 28.1156 13.8074 28.1443 13.7763 28.1523C13.7452 28.1604 13.7126 28.1458 13.6979 28.1172L10.4587 21.7933C10.4433 21.7631 10.4522 21.7262 10.4796 21.7064ZM10.7847 22.1285L13.6797 27.7805L13.5816 24.9668L10.7847 22.1285ZM27.099 24.967L26.9765 27.7761L29.8791 22.1333L27.099 24.967ZM18.2482 22.0371C18.2817 22.0375 18.31 22.0621 18.3151 22.0952L18.7014 24.5963L18.4943 30.769C18.4931 30.8039 18.4659 30.8324 18.4311 30.8351C18.3963 30.8379 18.3649 30.814 18.3583 30.7797L17.4524 26.0918C17.4508 26.0834 17.4508 26.0748 17.4523 26.0664L18.1798 22.0933C18.1858 22.0604 18.2147 22.0366 18.2482 22.0371ZM22.4325 22.0371C22.4661 22.0366 22.4951 22.0605 22.5011 22.0935L23.2148 26.0666C23.2163 26.075 23.2162 26.0836 23.2146 26.092L22.295 30.7799C22.2883 30.8142 22.2568 30.838 22.2219 30.8351C22.1871 30.8322 22.16 30.8035 22.159 30.7685L21.994 24.5699L22.3657 22.0955C22.3706 22.0623 22.3989 22.0375 22.4325 22.0371ZM17.5896 26.0784L18.3774 30.1552L18.5628 24.5981L18.2415 22.5181L17.5896 26.0784ZM22.4397 22.528L22.1317 24.5845L22.2797 30.1446L23.0774 26.0782L22.4397 22.528Z" fill="#E4751F"/>
<path d="M23.147 26.0783L22.2274 30.7663L22.8862 31.2199L26.894 28.0855L27.0313 24.9373L23.147 26.0783ZM13.6489 24.9373L13.7587 28.0855L17.7666 31.2199L18.4254 30.7663L17.5195 26.0783L13.6489 24.9373Z" fill="#F6851B"/>
<path fill-rule="evenodd" clip-rule="evenodd" d="M27.0739 24.883C27.0913 24.8967 27.1011 24.9179 27.1001 24.94L26.9629 28.0882C26.962 28.1083 26.9524 28.1269 26.9366 28.1393L22.9287 31.2738C22.9051 31.2922 22.8722 31.2932 22.8475 31.2762L22.1887 30.8226C22.1662 30.8071 22.155 30.7797 22.1603 30.7528L23.0799 26.0649C23.0848 26.0398 23.1033 26.0195 23.1279 26.0122L27.0122 24.8712C27.0335 24.8649 27.0564 24.8693 27.0739 24.883ZM13.6071 24.8828C13.6246 24.8693 13.6474 24.865 13.6686 24.8712L17.5392 26.0123C17.5638 26.0195 17.5823 26.0399 17.5872 26.0651L18.493 30.753C18.4982 30.7798 18.487 30.8071 18.4646 30.8226L17.8058 31.2762C17.7811 31.2932 17.7482 31.2922 17.7246 31.2738L13.7167 28.1393C13.7007 28.1268 13.6911 28.1079 13.6904 28.0876L13.5806 24.9394C13.5798 24.9174 13.5897 24.8963 13.6071 24.8828ZM23.2066 26.1322L22.3036 30.7351L22.8839 31.1346L26.8271 28.0507L26.9588 25.0299L23.2066 26.1322ZM13.7211 25.0298L17.4603 26.1321L18.3498 30.735L17.7694 31.1346L13.8265 28.0509L13.7211 25.0298Z" fill="#F6851B"/>
<path d="M23.2162 35.5369L23.2573 34.2584L22.9142 33.9559H17.7397L17.424 34.2584L17.4515 35.5369L13.1279 33.4885L14.6377 34.7258L17.6985 36.8567H22.9554L26.0299 34.7258L27.5397 33.4885L23.2162 35.5369Z" fill="#C0AD9E"/>
<path fill-rule="evenodd" clip-rule="evenodd" d="M13.0692 33.4518C13.0878 33.4226 13.1253 33.4117 13.1566 33.4265L17.3798 35.4274L17.3547 34.2599C17.3543 34.2407 17.3619 34.2222 17.3758 34.2089L17.6915 33.9064C17.7043 33.8942 17.7213 33.8874 17.739 33.8874H22.9135C22.9302 33.8874 22.9463 33.8934 22.9589 33.9045L23.302 34.2069C23.3174 34.2205 23.3259 34.2402 23.3252 34.2606L23.2877 35.4268L27.5096 33.4265C27.5409 33.4117 27.5784 33.4226 27.597 33.4518C27.6155 33.4811 27.6093 33.5197 27.5825 33.5416L26.0684 34.7824L22.9938 36.9131C22.9823 36.9211 22.9686 36.9254 22.9547 36.9254H17.6978C17.6838 36.9254 17.6701 36.9211 17.6586 36.9131L14.5934 34.7791L13.0837 33.5416C13.0569 33.5197 13.0507 33.4811 13.0692 33.4518ZM13.6035 33.7902L14.6784 34.6711L17.7194 36.7881H22.9332L25.9878 34.671L27.0627 33.7902L23.2448 35.599C23.2232 35.6092 23.1978 35.6075 23.1778 35.5944C23.1578 35.5812 23.1461 35.5587 23.1469 35.5347L23.187 34.2885L22.8876 34.0246H17.7666L17.4926 34.2871L17.5194 35.5355C17.5199 35.5593 17.508 35.5816 17.4881 35.5946C17.4681 35.6075 17.4429 35.6092 17.4214 35.599L13.6035 33.7902Z" fill="#C0AD9E"/>
<path d="M22.8866 31.2205L22.2277 30.7668H18.4258L17.767 31.2205L17.4238 34.2587L17.7395 33.9563H22.914L23.2572 34.2587L22.8866 31.2205Z" fill="#161616"/>
<path fill-rule="evenodd" clip-rule="evenodd" d="M18.3866 30.7103C18.3981 30.7025 18.4117 30.6982 18.4256 30.6982H22.2275C22.2414 30.6982 22.255 30.7025 22.2665 30.7103L22.9253 31.164C22.9415 31.1752 22.9521 31.1927 22.9545 31.2122L23.3251 34.2505C23.3285 34.2787 23.3141 34.3062 23.2889 34.3195C23.2637 34.3328 23.2329 34.3291 23.2116 34.3103L22.8879 34.025H17.7669L17.4711 34.3083C17.4502 34.3283 17.4191 34.3331 17.3932 34.3203C17.3673 34.3075 17.3522 34.2798 17.3554 34.2511L17.6986 31.2128C17.7008 31.1931 17.7115 31.1753 17.7278 31.164L18.3866 30.7103ZM18.4469 30.8355L17.8314 31.2593L17.5131 34.078L17.6918 33.9068C17.7046 33.8945 17.7216 33.8877 17.7393 33.8877H22.9138C22.9305 33.8877 22.9467 33.8938 22.9592 33.9048L23.167 34.088L22.822 31.2595L22.2062 30.8355H18.4469Z" fill="#161616"/>
<path d="M36.6668 15.1766L37.8335 9.56754L36.0904 4.35718L22.8864 14.173L27.9649 18.476L35.1433 20.5794L36.7355 18.7235L36.0492 18.2286L37.1472 17.225L36.2962 16.5651L37.3943 15.7265L36.6668 15.1766ZM2.8335 9.56754L4.00016 15.1766L3.25899 15.7265L4.35703 16.5651L3.51977 17.225L4.61781 18.2286L3.93154 18.7235L5.50997 20.5794L12.6884 18.476L17.7668 14.173L4.56291 4.35718L2.8335 9.56754Z" fill="#763D16"/>
<path fill-rule="evenodd" clip-rule="evenodd" d="M4.54205 4.29175C4.56305 4.28513 4.58596 4.28899 4.60363 4.30213L17.8076 14.118C17.8244 14.1304 17.8345 14.1499 17.8352 14.1708C17.8359 14.1918 17.8269 14.2119 17.811 14.2254L12.7325 18.5284C12.7252 18.5346 12.7167 18.5392 12.7075 18.5419L5.52904 20.6453C5.50305 20.6529 5.47502 20.6445 5.45747 20.6239L3.87904 18.768C3.86663 18.7534 3.86088 18.7343 3.86319 18.7152C3.86549 18.6962 3.87564 18.679 3.89117 18.6678L4.50898 18.2223L3.47325 17.2757C3.45838 17.2621 3.45023 17.2426 3.45097 17.2225C3.4517 17.2024 3.46125 17.1836 3.47707 17.1711L4.24486 16.566L3.21711 15.7811C3.19998 15.768 3.18999 15.7476 3.19014 15.726C3.19029 15.7045 3.20056 15.6842 3.21788 15.6714L3.92382 15.1476L2.76609 9.58154C2.76362 9.5697 2.76433 9.55742 2.76814 9.54595L4.49755 4.33558C4.50449 4.31468 4.52104 4.29838 4.54205 4.29175ZM36.1107 4.29173C36.1317 4.29832 36.1482 4.31457 36.1552 4.33543L37.8984 9.54579C37.9022 9.55731 37.9029 9.56965 37.9005 9.58154L36.7426 15.1481L37.4354 15.6718C37.4526 15.6847 37.4626 15.7049 37.4627 15.7263C37.4627 15.7478 37.4528 15.768 37.4357 15.7811L36.4086 16.5655L37.1891 17.1708C37.2051 17.1832 37.2148 17.202 37.2156 17.2222C37.2164 17.2425 37.2082 17.262 37.1933 17.2757L36.1576 18.2223L36.7754 18.6678C36.791 18.6791 36.8011 18.6963 36.8034 18.7154C36.8057 18.7345 36.7998 18.7536 36.7873 18.7682L35.1952 20.6241C35.1776 20.6446 35.1497 20.6529 35.1238 20.6453L27.9454 18.5419C27.9361 18.5392 27.9276 18.5346 27.9203 18.5284L22.8419 14.2254C22.8259 14.2119 22.817 14.1918 22.8176 14.1708C22.8183 14.1499 22.8285 14.1304 22.8453 14.118L36.0492 4.30213C36.0668 4.289 36.0897 4.28514 36.1107 4.29173ZM4.59792 4.46891L2.90423 9.57166L4.06713 15.1626C4.07258 15.1888 4.06232 15.2158 4.04083 15.2317L3.37287 15.7273L4.39846 16.5106C4.41531 16.5235 4.42527 16.5434 4.42543 16.5646C4.42559 16.5858 4.41594 16.6059 4.39929 16.619L3.62551 17.2289L4.66389 18.1779C4.67914 18.1919 4.6873 18.2119 4.6861 18.2326C4.68491 18.2532 4.67449 18.2722 4.65773 18.2843L4.03176 18.7357L5.53318 20.5011L12.6549 18.4143L17.6563 14.1765L4.59792 4.46891ZM22.9965 14.1765L27.9979 18.4143L35.1199 20.5011L36.6345 18.7355L36.0088 18.2843C35.9921 18.2722 35.9816 18.2532 35.9804 18.2326C35.9793 18.2119 35.9874 18.1919 36.0027 18.1779L37.0406 17.2293L36.254 16.6194C36.2371 16.6063 36.2273 16.5862 36.2274 16.5649C36.2275 16.5436 36.2374 16.5235 36.2544 16.5106L37.2806 15.7268L36.6252 15.2314C36.6041 15.2154 36.594 15.1886 36.5994 15.1626L37.7623 9.57175L36.0551 4.46877L22.9965 14.1765Z" fill="#763D16"/>
<path d="M35.1432 20.5796L27.9647 18.4763L30.1471 21.7619L26.8941 28.0859L31.1765 28.0309H37.5588L35.1432 20.5796ZM12.6882 18.4763L5.50982 20.5796L3.12158 28.0309H9.49021L13.7588 28.0859L10.5196 21.7619L12.6882 18.4763ZM22.4334 22.1056L22.8863 14.1732L24.9726 8.52295H15.7079L17.7667 14.1732L18.2471 22.1056L18.4118 24.6077L18.4255 30.7667H22.2275L22.2549 24.6077L22.4334 22.1056Z" fill="#F6851B"/>
<path fill-rule="evenodd" clip-rule="evenodd" d="M15.6519 8.48362C15.6647 8.46527 15.6857 8.45435 15.7081 8.45435H24.9728C24.9953 8.45435 25.0163 8.46532 25.0291 8.48374C25.042 8.50216 25.045 8.52569 25.0372 8.54674L22.9545 14.1874L22.5021 22.1096L22.3238 24.6103L22.2964 30.767C22.2962 30.8048 22.2655 30.8353 22.2277 30.8353H18.4258C18.3879 30.8353 18.3572 30.8047 18.3571 30.7668L18.3434 24.6101L18.1789 22.1102L17.6991 14.1874L15.6436 8.54647C15.636 8.52543 15.6391 8.50197 15.6519 8.48362ZM15.8062 8.5916L17.8314 14.1498C17.8337 14.156 17.8351 14.1625 17.8355 14.1691L18.3158 22.1012L18.4808 24.6076L18.4942 30.6981H22.1594L22.1866 24.6028L22.3651 22.1017L22.818 14.1693C22.8184 14.1626 22.8198 14.1559 22.8222 14.1495L24.8743 8.5916H15.8062ZM27.9097 18.4356C27.9268 18.4124 27.9566 18.4023 27.9843 18.4104L35.1627 20.5138C35.1845 20.5202 35.2017 20.5369 35.2087 20.5585L37.6244 28.0097C37.6312 28.0306 37.6275 28.0535 37.6146 28.0713C37.6017 28.089 37.5811 28.0995 37.5591 28.0995H31.1772L26.8953 28.1545C26.8712 28.1548 26.8487 28.1425 26.8361 28.122C26.8234 28.1015 26.8224 28.0759 26.8334 28.0545L30.0679 21.7664L27.9078 18.5142C27.8919 18.4902 27.8926 18.4588 27.9097 18.4356ZM12.7437 18.4355C12.7608 18.4587 12.7617 18.49 12.7458 18.5141L10.5992 21.7663L13.8202 28.0546C13.8312 28.076 13.8301 28.1016 13.8174 28.1221C13.8047 28.1425 13.7823 28.1548 13.7582 28.1545L9.49048 28.0995H3.12185C3.09993 28.0995 3.07933 28.0891 3.06641 28.0713C3.05349 28.0536 3.04981 28.0308 3.0565 28.01L5.44473 20.5587C5.45168 20.537 5.46894 20.5202 5.49079 20.5138L12.6692 18.4104C12.6969 18.4023 12.7266 18.4123 12.7437 18.4355ZM5.56433 20.6353L3.21591 27.9623H9.49048L13.6461 28.0158L10.4588 21.7933C10.4475 21.7712 10.449 21.7448 10.4626 21.7242L12.5281 18.5948L5.56433 20.6353ZM28.1263 18.595L30.2045 21.724C30.2183 21.7447 30.2197 21.7712 30.2084 21.7934L27.0076 28.0158L31.1759 27.9623L37.4647 27.9623L35.0893 20.6353L28.1263 18.595Z" fill="#F6851B"/>
</svg>
