<svg width="124" height="156" viewBox="0 0 124 156" fill="none" xmlns="http://www.w3.org/2000/svg">
<path d="M114.668 97.915C119.9 109.907 132.731 112.675 137.905 112.543C138.627 112.524 139.292 113.083 139.292 113.805V140.215C139.292 140.797 138.856 141.288 138.275 141.326C127.849 142.017 107.237 137.117 100.137 126.554C91.0689 113.063 82.7387 108.372 77.771 107.461C77.1886 107.354 76.7362 106.865 76.7362 106.273V77.4674C76.7362 76.9114 77.1351 76.4332 77.6872 76.368C88.7545 75.0602 107.853 82.2977 114.668 97.915Z" fill="url(#paint0_linear_878_45972)"/>
<path d="M75.717 14.6181C76.2794 14.609 76.7359 15.0659 76.736 15.6285V37.4619C76.736 38.0245 76.2797 38.479 75.7174 38.4939C65.8266 38.7541 56.3957 42.7968 49.3812 49.8113C42.1262 57.0663 38.0504 66.9061 38.0504 77.1661C38.0504 87.4262 42.1262 97.266 49.3812 104.521C56.3957 111.535 65.8266 115.578 75.7174 115.838C76.2797 115.853 76.736 116.308 76.736 116.87V138.704C76.736 139.266 76.2794 139.723 75.717 139.714C59.4947 139.45 43.9931 132.891 32.5019 121.4C20.7704 109.668 14.1797 93.757 14.1797 77.1661C14.1797 60.5752 20.7704 44.6637 32.5019 32.9321C43.9931 21.4409 59.4947 14.8821 75.717 14.6181ZM132.845 61.4503C132.845 62.0805 132.335 62.5913 131.704 62.5913H109.996C109.366 62.5913 108.855 62.0805 108.855 61.4503V38.6006H131.704C132.335 38.6006 132.845 39.1115 132.845 39.7416V61.4503ZM108.855 38.6006H86.0051C85.3749 38.6006 84.864 38.0897 84.864 37.4596V15.7509C84.864 15.1207 85.3749 14.6099 86.0051 14.6099H107.714C108.344 14.6099 108.855 15.1207 108.855 15.7509V38.6006Z" fill="url(#paint1_linear_878_45972)"/>
<defs>
<linearGradient id="paint0_linear_878_45972" x1="108.014" y1="76.2178" x2="108.014" y2="141.39" gradientUnits="userSpaceOnUse">
<stop stop-color="#F4F4F4"/>
<stop offset="1" stop-color="white"/>
</linearGradient>
<linearGradient id="paint1_linear_878_45972" x1="73.5126" y1="14.6099" x2="73.5126" y2="139.714" gradientUnits="userSpaceOnUse">
<stop stop-color="#F4F4F4"/>
<stop offset="1" stop-color="white"/>
</linearGradient>
</defs>
</svg>
