<svg width="41" height="40" viewBox="0 0 41 40" fill="none" xmlns="http://www.w3.org/2000/svg">
<path d="M0.666504 12C0.666504 5.37258 6.03909 0 12.6665 0H28.6665C35.2939 0 40.6665 5.37258 40.6665 12V28C40.6665 34.6274 35.2939 40 28.6665 40H12.6665C6.03909 40 0.666504 34.6274 0.666504 28V12Z" fill="url(#paint0_linear_878_44623)"/>
<g filter="url(#filter0_i_878_44623)">
<path d="M4.6665 12C4.6665 7.58172 8.24823 4 12.6665 4H28.6665C33.0848 4 36.6665 7.58172 36.6665 12V28C36.6665 32.4183 33.0848 36 28.6665 36H12.6665C8.24823 36 4.6665 32.4183 4.6665 28V12Z" fill="#FB009C"/>
<path d="M24.6665 10H16.6665C13.1665 10 11.6665 12 11.6665 15V19.47C11.6665 19.82 12.0065 20.06 12.3265 19.94C13.4265 19.51 14.6765 19.37 15.9665 19.63C18.5665 20.15 20.6365 22.29 21.0665 24.9C21.3265 26.49 21.0065 28 20.2765 29.25C20.0765 29.58 20.3165 30 20.7065 30H24.6665C28.1665 30 29.6665 28 29.6665 25V15C29.6665 12 28.1665 10 24.6665 10ZM27.1665 17.25H25.1665C23.6465 17.25 22.4165 16.02 22.4165 14.5V12.5C22.4165 12.09 22.7565 11.75 23.1665 11.75C23.5765 11.75 23.9165 12.09 23.9165 12.5V14.5C23.9165 15.19 24.4765 15.75 25.1665 15.75H27.1665C27.5765 15.75 27.9165 16.09 27.9165 16.5C27.9165 16.91 27.5765 17.25 27.1665 17.25Z" fill="white"/>
<path d="M14.6665 21C11.9065 21 9.6665 23.24 9.6665 26C9.6665 28.76 11.9065 31 14.6665 31C17.4265 31 19.6665 28.76 19.6665 26C19.6665 23.24 17.4265 21 14.6665 21ZM13.8265 27.27C14.0765 27.52 14.0765 27.93 13.8265 28.19C13.6965 28.32 13.5365 28.38 13.3665 28.38C13.1965 28.38 13.0365 28.32 12.9065 28.19L11.1765 26.46C10.9265 26.21 10.9265 25.8 11.1765 25.54L12.9065 23.81C13.1565 23.56 13.5665 23.56 13.8265 23.81C14.0765 24.06 14.0765 24.47 13.8265 24.73L12.5565 26L13.8265 27.27ZM18.1465 26.46L16.4165 28.19C16.2865 28.32 16.1265 28.38 15.9565 28.38C15.7865 28.38 15.6265 28.32 15.4965 28.19C15.2465 27.94 15.2465 27.53 15.4965 27.27L16.7765 26L15.5065 24.73C15.2565 24.48 15.2565 24.07 15.5065 23.81C15.7565 23.56 16.1665 23.56 16.4265 23.81L18.1565 25.54C18.3965 25.8 18.3965 26.2 18.1465 26.46Z" fill="white"/>
</g>
<defs>
<filter id="filter0_i_878_44623" x="4.6665" y="4" width="32" height="34" filterUnits="userSpaceOnUse" color-interpolation-filters="sRGB">
<feFlood flood-opacity="0" result="BackgroundImageFix"/>
<feBlend mode="normal" in="SourceGraphic" in2="BackgroundImageFix" result="shape"/>
<feColorMatrix in="SourceAlpha" type="matrix" values="0 0 0 0 0 0 0 0 0 0 0 0 0 0 0 0 0 0 127 0" result="hardAlpha"/>
<feOffset dy="2"/>
<feGaussianBlur stdDeviation="2"/>
<feComposite in2="hardAlpha" operator="arithmetic" k2="-1" k3="1"/>
<feColorMatrix type="matrix" values="0 0 0 0 0 0 0 0 0 0 0 0 0 0 0 0 0 0 0.25 0"/>
<feBlend mode="normal" in2="shape" result="effect1_innerShadow_878_44623"/>
</filter>
<linearGradient id="paint0_linear_878_44623" x1="0.666504" y1="2.02081" x2="35.8818" y2="38.5622" gradientUnits="userSpaceOnUse">
<stop stop-color="#FC0DA2"/>
<stop offset="1" stop-color="#FFBAE5"/>
</linearGradient>
</defs>
</svg>
