<svg width="15" height="16" viewBox="0 0 15 16" fill="none" xmlns="http://www.w3.org/2000/svg">
<g clip-path="url(#clip0_6030_45936)">
<path fill-rule="evenodd" clip-rule="evenodd" d="M7.47765 0.668701C3.3427 0.668701 0 4.03605 0 8.20192C0 11.5319 2.14179 14.3507 5.11301 15.3483C5.48449 15.4233 5.62056 15.1863 5.62056 14.9868C5.62056 14.8122 5.60832 14.2135 5.60832 13.5898C3.52821 14.0389 3.09505 12.6918 3.09505 12.6918C2.76077 11.8188 2.26546 11.5944 2.26546 11.5944C1.58464 11.1329 2.31505 11.1329 2.31505 11.1329C3.07025 11.1828 3.46653 11.9061 3.46653 11.9061C4.13495 13.0535 5.21204 12.7293 5.64536 12.5297C5.70719 12.0433 5.90541 11.7066 6.11587 11.5195C4.45684 11.3449 2.71133 10.6964 2.71133 7.80273C2.71133 6.97957 3.00827 6.3061 3.47878 5.78232C3.40454 5.59528 3.14449 4.82186 3.55316 3.78671C3.55316 3.78671 4.18454 3.58712 5.60816 4.55998C6.21767 4.39508 6.84624 4.31119 7.47765 4.31049C8.10903 4.31049 8.75265 4.39788 9.34699 4.55998C10.7708 3.58712 11.4021 3.78671 11.4021 3.78671C11.8108 4.82186 11.5506 5.59528 11.4764 5.78232C11.9593 6.3061 12.244 6.97957 12.244 7.80273C12.244 10.6964 10.4985 11.3323 8.82704 11.5195C9.09949 11.7565 9.33459 12.2054 9.33459 12.9164C9.33459 13.9266 9.32235 14.7373 9.32235 14.9867C9.32235 15.1863 9.45857 15.4233 9.8299 15.3485C12.8011 14.3505 14.9429 11.5319 14.9429 8.20192C14.9552 4.03605 11.6002 0.668701 7.47765 0.668701Z" fill="black"/>
</g>
<defs>
<clipPath id="clip0_6030_45936">
<rect width="15" height="14.6939" fill="white" transform="translate(0 0.668701)"/>
</clipPath>
</defs>
</svg>
