<svg width="15" height="17" viewBox="0 0 15 17" fill="none" xmlns="http://www.w3.org/2000/svg">
<path fill-rule="evenodd" clip-rule="evenodd" d="M1.03629 7.22851C5.05717 5.46535 7.74492 4.32574 9.09954 3.76669C12.9269 2.17554 13.7225 1.89601 14.2385 1.87451C14.346 1.87451 14.6041 1.89601 14.7761 2.02503C14.9051 2.13254 14.9481 2.28305 14.9696 2.39056C14.9911 2.49807 15.0126 2.73459 14.9911 2.92811C14.7761 5.09981 13.8945 10.4108 13.4214 12.8405C13.2279 13.8726 12.8409 14.2167 12.4754 14.2597C11.6798 14.3242 11.0562 13.7221 10.2822 13.2276C9.07804 12.432 8.38998 11.9375 7.20737 11.1634C5.85274 10.2603 6.73432 9.76575 7.50839 8.97017C7.70191 8.75515 11.2497 5.55136 11.3143 5.25033C11.3143 5.20732 11.3358 5.07831 11.2497 5.01381C11.1637 4.9493 11.0562 4.9708 10.9702 4.9923C10.8412 5.01381 8.90602 6.30393 5.14317 8.84116C4.58412 9.2282 4.08958 9.40021 3.63803 9.40021C3.14349 9.40021 2.1974 9.12069 1.48783 8.88417C0.627752 8.60464 -0.0603123 8.45413 0.00419369 7.98108C0.0471977 7.74456 0.39123 7.48654 1.03629 7.22851Z" fill="black"/>
</svg>
