<svg width="33" height="33" viewBox="0 0 33 33" fill="none" xmlns="http://www.w3.org/2000/svg">
<rect x="0.585938" y="0.939453" width="32.4136" height="32" rx="9" fill="#F8F8F8" fill-opacity="0.17" style="mix-blend-mode:luminosity"/>
<rect x="0.922205" y="1.27572" width="31.7411" height="31.3275" rx="8.66373" stroke="url(#paint0_linear_5820_1183)" stroke-opacity="0.25" stroke-width="0.672534"/>
<path d="M13.2951 10.8978L13.7665 11.3692L13.7665 11.3692L13.2951 10.8978ZM10.5448 13.6481L10.0734 13.1767L10.0734 13.1767L10.5448 13.6481ZM10.5448 20.2311L11.0162 19.7597L11.0162 19.7597L10.5448 20.2311ZM13.2951 22.9814L12.8237 23.4528H12.8237L13.2951 22.9814ZM22.6284 13.6481L23.0998 13.1767L22.6284 13.6481ZM19.8781 10.8978L19.4067 11.3692L19.4067 11.3692L19.8781 10.8978ZM23.2164 14.514L23.8647 14.3583L23.8647 14.3583L23.2164 14.514ZM23.0568 14.1286L23.6252 13.7802L23.6252 13.7802L23.0568 14.1286ZM23.0568 19.7507L23.6252 20.099H23.6252L23.0568 19.7507ZM23.2164 19.3653L23.8647 19.5209L23.8647 19.5209L23.2164 19.3653ZM19.0122 23.5694L19.1679 24.2177L19.1679 24.2177L19.0122 23.5694ZM19.3976 23.4098L19.746 23.9782V23.9782L19.3976 23.4098ZM13.7755 23.4098L13.4272 23.9782L13.4272 23.9782L13.7755 23.4098ZM14.1609 23.5694L14.0053 24.2177L14.0053 24.2177L14.1609 23.5694ZM9.95676 19.3653L9.30852 19.5209H9.30852L9.95676 19.3653ZM10.1164 19.7507L10.6848 19.4023L10.6848 19.4023L10.1164 19.7507ZM10.1164 14.1286L10.6848 14.4769L10.6848 14.4769L10.1164 14.1286ZM9.95676 14.514L10.605 14.6696L9.95676 14.514ZM14.1609 10.3098L14.3166 10.958L14.1609 10.3098ZM13.7755 10.4694L14.1239 11.0379V11.0379L13.7755 10.4694ZM19.0122 10.3098L19.1679 9.66154V9.66154L19.0122 10.3098ZM19.3976 10.4694L19.0493 11.0379L19.0493 11.0379L19.3976 10.4694ZM19.058 16.0777C19.3183 15.8173 19.3183 15.3952 19.058 15.1349C18.7976 14.8745 18.3755 14.8745 18.1152 15.1349L19.058 16.0777ZM15.873 18.2323L16.3096 17.7285L16.3096 17.7284L15.873 18.2323ZM15.0231 16.6139C14.7449 16.3728 14.3238 16.4029 14.0827 16.6812C13.8416 16.9595 13.8718 17.3805 14.15 17.6216L15.0231 16.6139ZM18.3696 10.2729V9.60628H14.8036V10.2729V10.9396H18.3696V10.2729ZM13.2951 10.8978L12.8237 10.4264L10.0734 13.1767L10.5448 13.6481L11.0162 14.1195L13.7665 11.3692L13.2951 10.8978ZM9.91992 15.1566H9.25326V18.7226H9.91992H10.5866V15.1566H9.91992ZM10.5448 20.2311L10.0734 20.7025L12.8237 23.4528L13.2951 22.9814L13.7665 22.51L11.0162 19.7597L10.5448 20.2311ZM14.8036 23.6063V24.2729H18.3696V23.6063V22.9396H14.8036V23.6063ZM19.8781 22.9814L20.3495 23.4528L23.0998 20.7025L22.6284 20.2311L22.157 19.7597L19.4067 22.51L19.8781 22.9814ZM23.2533 18.7226H23.9199V15.1566H23.2533H22.5866V18.7226H23.2533ZM22.6284 13.6481L23.0998 13.1767L20.3495 10.4264L19.8781 10.8978L19.4067 11.3692L22.157 14.1195L22.6284 13.6481ZM23.2533 15.1566H23.9199C23.9199 14.8622 23.9242 14.6064 23.8647 14.3583L23.2164 14.514L22.5682 14.6696C22.5823 14.7285 22.5866 14.7988 22.5866 15.1566H23.2533ZM22.6284 13.6481L22.157 14.1195C22.4101 14.3726 22.4567 14.4253 22.4883 14.4769L23.0568 14.1286L23.6252 13.7802C23.4919 13.5628 23.308 13.3849 23.0998 13.1767L22.6284 13.6481ZM23.2164 14.514L23.8647 14.3583C23.8157 14.1543 23.7349 13.9592 23.6252 13.7802L23.0568 14.1286L22.4883 14.4769C22.5249 14.5366 22.5518 14.6016 22.5682 14.6696L23.2164 14.514ZM22.6284 20.2311L23.0998 20.7025C23.308 20.4944 23.4919 20.3165 23.6252 20.099L23.0568 19.7507L22.4883 19.4023C22.4567 19.454 22.4101 19.5067 22.157 19.7597L22.6284 20.2311ZM23.2533 18.7226H22.5866C22.5866 19.0805 22.5823 19.1508 22.5682 19.2096L23.2164 19.3653L23.8647 19.5209C23.9242 19.2729 23.9199 19.017 23.9199 18.7226H23.2533ZM23.0568 19.7507L23.6252 20.099C23.7349 19.9201 23.8157 19.725 23.8647 19.5209L23.2164 19.3653L22.5682 19.2096C22.5518 19.2777 22.5249 19.3427 22.4883 19.4023L23.0568 19.7507ZM18.3696 23.6063V24.2729C18.664 24.2729 18.9198 24.2772 19.1679 24.2177L19.0122 23.5694L18.8566 22.9212C18.7977 22.9353 18.7275 22.9396 18.3696 22.9396V23.6063ZM19.8781 22.9814L19.4067 22.51C19.1537 22.7631 19.1009 22.8097 19.0493 22.8414L19.3976 23.4098L19.746 23.9782C19.9634 23.845 20.1413 23.661 20.3495 23.4528L19.8781 22.9814ZM19.0122 23.5694L19.1679 24.2177C19.3719 24.1687 19.567 24.0879 19.746 23.9782L19.3976 23.4098L19.0493 22.8414C18.9897 22.8779 18.9246 22.9049 18.8566 22.9212L19.0122 23.5694ZM13.2951 22.9814L12.8237 23.4528C13.0318 23.661 13.2097 23.845 13.4272 23.9782L13.7755 23.4098L14.1239 22.8414C14.0722 22.8097 14.0195 22.7631 13.7665 22.51L13.2951 22.9814ZM14.8036 23.6063V22.9396C14.4457 22.9396 14.3755 22.9353 14.3166 22.9212L14.1609 23.5694L14.0053 24.2177C14.2533 24.2772 14.5092 24.2729 14.8036 24.2729V23.6063ZM13.7755 23.4098L13.4272 23.9782C13.6062 24.0879 13.8012 24.1687 14.0053 24.2177L14.1609 23.5694L14.3166 22.9212C14.2486 22.9049 14.1835 22.8779 14.1239 22.8414L13.7755 23.4098ZM9.91992 18.7226H9.25326C9.25326 19.017 9.24897 19.2729 9.30852 19.5209L9.95676 19.3653L10.605 19.2096C10.5909 19.1508 10.5866 19.0805 10.5866 18.7226H9.91992ZM10.5448 20.2311L11.0162 19.7597C10.7631 19.5067 10.7165 19.454 10.6848 19.4023L10.1164 19.7507L9.54797 20.099C9.68125 20.3165 9.86519 20.4944 10.0734 20.7025L10.5448 20.2311ZM9.95676 19.3653L9.30852 19.5209C9.35751 19.725 9.43832 19.9201 9.54797 20.099L10.1164 19.7507L10.6848 19.4023C10.6483 19.3427 10.6213 19.2777 10.605 19.2096L9.95676 19.3653ZM10.5448 13.6481L10.0734 13.1767C9.86519 13.3849 9.68125 13.5628 9.54797 13.7802L10.1164 14.1286L10.6848 14.4769C10.7165 14.4253 10.7631 14.3726 11.0162 14.1195L10.5448 13.6481ZM9.91992 15.1566H10.5866C10.5866 14.7988 10.5909 14.7285 10.605 14.6696L9.95676 14.514L9.30852 14.3583C9.24897 14.6064 9.25326 14.8622 9.25326 15.1566H9.91992ZM10.1164 14.1286L9.54797 13.7802C9.43832 13.9592 9.35751 14.1543 9.30852 14.3583L9.95676 14.514L10.605 14.6696C10.6213 14.6016 10.6483 14.5366 10.6848 14.4769L10.1164 14.1286ZM14.8036 10.2729V9.60628C14.5092 9.60628 14.2533 9.602 14.0053 9.66154L14.1609 10.3098L14.3166 10.958C14.3755 10.9439 14.4457 10.9396 14.8036 10.9396V10.2729ZM13.2951 10.8978L13.7665 11.3692C14.0195 11.1162 14.0722 11.0695 14.1239 11.0379L13.7755 10.4694L13.4272 9.901C13.2097 10.0343 13.0318 10.2182 12.8237 10.4264L13.2951 10.8978ZM14.1609 10.3098L14.0053 9.66154C13.8012 9.71054 13.6062 9.79134 13.4272 9.901L13.7755 10.4694L14.1239 11.0379C14.1835 11.0013 14.2486 10.9744 14.3166 10.958L14.1609 10.3098ZM18.3696 10.2729V10.9396C18.7275 10.9396 18.7977 10.9439 18.8566 10.958L19.0122 10.3098L19.1679 9.66154C18.9198 9.602 18.664 9.60628 18.3696 9.60628V10.2729ZM19.8781 10.8978L20.3495 10.4264C20.1413 10.2182 19.9635 10.0343 19.746 9.901L19.3976 10.4694L19.0493 11.0379C19.1009 11.0695 19.1536 11.1162 19.4067 11.3692L19.8781 10.8978ZM19.0122 10.3098L18.8566 10.958C18.9246 10.9744 18.9897 11.0013 19.0493 11.0379L19.3976 10.4694L19.746 9.901C19.567 9.79134 19.3719 9.71054 19.1679 9.66154L19.0122 10.3098ZM15.9638 18.2291L16.4352 18.7005L19.058 16.0777L18.5866 15.6063L18.1152 15.1349L15.4924 17.7577L15.9638 18.2291ZM15.873 18.2323L16.3096 17.7284L15.0231 16.6139L14.5866 17.1177L14.15 17.6216L15.4365 18.7362L15.873 18.2323ZM15.9638 18.2291L15.4924 17.7577C15.715 17.5351 16.0717 17.5223 16.3096 17.7285L15.873 18.2323L15.4365 18.7362C15.7272 18.9881 16.1632 18.9725 16.4352 18.7005L15.9638 18.2291Z" fill="#15FF43"/>
<defs>
<linearGradient id="paint0_linear_5820_1183" x1="16.7928" y1="0.939453" x2="30.5832" y2="36.2007" gradientUnits="userSpaceOnUse">
<stop stop-color="white" stop-opacity="0.4"/>
<stop offset="0.4" stop-color="white" stop-opacity="0.01"/>
<stop offset="0.6" stop-color="white" stop-opacity="0.01"/>
<stop offset="1" stop-color="white" stop-opacity="0.1"/>
</linearGradient>
</defs>
</svg>
