<svg width="14" height="14" viewBox="0 0 14 14" fill="none" xmlns="http://www.w3.org/2000/svg">
<path d="M6.99945 9.33239C8.28763 9.33239 9.3319 8.28811 9.3319 6.99994C9.3319 5.71176 8.28763 4.66748 6.99945 4.66748C5.71127 4.66748 4.66699 5.71176 4.66699 6.99994C4.66699 8.28811 5.71127 9.33239 6.99945 9.33239Z" fill="white"/>
<path d="M13.5723 5.49499C12.6679 4.02204 10.6106 1.55078 6.99999 1.55078C3.38933 1.55078 1.33209 4.02204 0.427675 5.49499C-0.142558 6.41731 -0.142558 7.58271 0.427675 8.50505C1.33209 9.97801 3.38933 12.4493 6.99999 12.4493C10.6106 12.4493 12.6679 9.97801 13.5723 8.50505C14.1425 7.58271 14.1425 6.41731 13.5723 5.49499ZM6.99999 10.4987C5.06772 10.4987 3.50128 8.93228 3.50128 7.00001C3.50128 5.06774 5.06772 3.50131 6.99999 3.50131C8.93225 3.50131 10.4987 5.06774 10.4987 7.00001C10.4967 8.93148 8.93146 10.4968 6.99999 10.4987Z" fill="white"/>
</svg>
