<svg width="69" height="194" viewBox="0 0 69 194" fill="none" xmlns="http://www.w3.org/2000/svg">
<g opacity="0.5">
<path d="M69.0226 21.9642C75.1782 21.9642 80.1683 16.9741 80.1683 10.8185C80.1683 4.66295 75.1782 -0.327148 69.0226 -0.327148C62.867 -0.327148 57.877 4.66295 57.877 10.8185C57.877 16.9741 62.867 21.9642 69.0226 21.9642Z" fill="#48B3FF"/>
<path d="M69.0226 50.6024C75.1782 50.6024 80.1683 45.6123 80.1683 39.4567C80.1683 33.3011 75.1782 28.311 69.0226 28.311C62.867 28.311 57.877 33.3011 57.877 39.4567C57.877 45.6123 62.867 50.6024 69.0226 50.6024Z" fill="#48B3FF"/>
<path d="M40.5382 50.6024C46.6938 50.6024 51.684 45.6123 51.684 39.4567C51.684 33.3011 46.6938 28.311 40.5382 28.311C34.3826 28.311 29.3926 33.3011 29.3926 39.4567C29.3926 45.6123 34.3826 50.6024 40.5382 50.6024Z" fill="#48B3FF"/>
<path d="M69.0226 193.328C75.1782 193.328 80.1683 188.337 80.1683 182.182C80.1683 176.026 75.1782 171.036 69.0226 171.036C62.867 171.036 57.877 176.026 57.877 182.182C57.877 188.337 62.867 193.328 69.0226 193.328Z" fill="#48B3FF"/>
<path d="M69.0226 164.689C75.1782 164.689 80.1683 159.699 80.1683 153.544C80.1683 147.388 75.1782 142.398 69.0226 142.398C62.867 142.398 57.877 147.388 57.877 153.544C57.877 159.699 62.867 164.689 69.0226 164.689Z" fill="#48B3FF"/>
<path d="M40.5382 164.689C46.6938 164.689 51.684 159.699 51.684 153.544C51.684 147.388 46.6938 142.398 40.5382 142.398C34.3826 142.398 29.3926 147.388 29.3926 153.544C29.3926 159.699 34.3826 164.689 40.5382 164.689Z" fill="#48B3FF"/>
<path d="M69.0226 79.0868C75.1782 79.0868 80.1683 74.0967 80.1683 67.9411C80.1683 61.7855 75.1782 56.7954 69.0226 56.7954C62.867 56.7954 57.877 61.7855 57.877 67.9411C57.877 74.0967 62.867 79.0868 69.0226 79.0868Z" fill="#48B3FF"/>
<path d="M40.5382 79.0868C46.6938 79.0868 51.684 74.0967 51.684 67.9411C51.684 61.7855 46.6938 56.7954 40.5382 56.7954C34.3826 56.7954 29.3926 61.7855 29.3926 67.9411C29.3926 74.0967 34.3826 79.0868 40.5382 79.0868Z" fill="#48B3FF"/>
<path d="M11.9005 79.0868C18.0561 79.0868 23.0463 74.0967 23.0463 67.9411C23.0463 61.7855 18.0561 56.7954 11.9005 56.7954C5.74495 56.7954 0.754883 61.7855 0.754883 67.9411C0.754883 74.0967 5.74495 79.0868 11.9005 79.0868Z" fill="#48B3FF"/>
<path d="M69.0226 107.57C75.1782 107.57 80.1683 102.58 80.1683 96.4245C80.1683 90.2689 75.1782 85.2788 69.0226 85.2788C62.867 85.2788 57.877 90.2689 57.877 96.4245C57.877 102.58 62.867 107.57 69.0226 107.57Z" fill="#48B3FF"/>
<path d="M40.5382 107.57C46.6938 107.57 51.684 102.58 51.684 96.4245C51.684 90.2689 46.6938 85.2788 40.5382 85.2788C34.3826 85.2788 29.3926 90.2689 29.3926 96.4245C29.3926 102.58 34.3826 107.57 40.5382 107.57Z" fill="#48B3FF"/>
<path d="M11.9005 107.57C18.0561 107.57 23.0463 102.58 23.0463 96.4245C23.0463 90.2689 18.0561 85.2788 11.9005 85.2788C5.74495 85.2788 0.754883 90.2689 0.754883 96.4245C0.754883 102.58 5.74495 107.57 11.9005 107.57Z" fill="#48B3FF"/>
<path d="M69.0226 136.208C75.1782 136.208 80.1683 131.218 80.1683 125.063C80.1683 118.907 75.1782 113.917 69.0226 113.917C62.867 113.917 57.877 118.907 57.877 125.063C57.877 131.218 62.867 136.208 69.0226 136.208Z" fill="#48B3FF"/>
<path d="M40.5382 136.208C46.6938 136.208 51.684 131.218 51.684 125.063C51.684 118.907 46.6938 113.917 40.5382 113.917C34.3826 113.917 29.3926 118.907 29.3926 125.063C29.3926 131.218 34.3826 136.208 40.5382 136.208Z" fill="#48B3FF"/>
<path d="M11.9005 136.208C18.0561 136.208 23.0463 131.218 23.0463 125.063C23.0463 118.907 18.0561 113.917 11.9005 113.917C5.74495 113.917 0.754883 118.907 0.754883 125.063C0.754883 131.218 5.74495 136.208 11.9005 136.208Z" fill="#48B3FF"/>
</g>
</svg>
