<svg width="61" height="61" viewBox="0 0 61 61" fill="none" xmlns="http://www.w3.org/2000/svg">
<rect x="0.5" y="0.280273" width="60" height="60" rx="30" fill="url(#paint0_linear_6267_16653)"/>
<path d="M40.473 35.5161C41.8487 38.6689 45.2222 39.3968 46.5826 39.362C46.7724 39.3571 46.9473 39.5039 46.9473 39.6938V46.6375C46.9473 46.7905 46.8324 46.9196 46.6798 46.9297C43.9387 47.1113 38.5193 45.8229 36.6526 43.0458C34.2685 39.4989 32.0783 38.2655 30.7722 38.0258C30.6191 37.9977 30.5001 37.8692 30.5001 37.7135V30.1401C30.5001 29.9939 30.605 29.8682 30.7502 29.851C33.66 29.5072 38.6812 31.4101 40.473 35.5161Z" fill="white"/>
<path d="M30.2319 13.6159C30.3798 13.6135 30.4998 13.7337 30.4999 13.8816V19.622C30.4998 19.7699 30.3799 19.8894 30.232 19.8933C27.6316 19.9617 25.152 21.0246 23.3078 22.8688C21.4004 24.7763 20.3287 27.3633 20.3287 30.0609C20.3287 32.7584 21.4004 35.3455 23.3078 37.2529C25.152 39.0972 27.6316 40.16 30.232 40.2284C30.3799 40.2323 30.4999 40.3519 30.4999 40.4998V46.2401C30.4999 46.388 30.3798 46.5082 30.2319 46.5058C25.9668 46.4364 21.8912 44.7119 18.87 41.6907C15.7856 38.6063 14.0527 34.4229 14.0527 30.0609C14.0527 25.6988 15.7855 21.5154 18.87 18.431C21.8912 15.4098 25.9668 13.6853 30.2319 13.6159ZM45.252 25.9289C45.252 26.0946 45.1177 26.2289 44.952 26.2289H39.2444C39.0788 26.2289 38.9444 26.0946 38.9444 25.9289V19.9213H44.952C45.1177 19.9213 45.252 20.0557 45.252 20.2213V25.9289ZM38.9444 19.9213H32.9369C32.7712 19.9213 32.6369 19.787 32.6369 19.6213V13.9138C32.6369 13.7481 32.7712 13.6138 32.9369 13.6138H38.6444C38.8101 13.6138 38.9444 13.7481 38.9444 13.9138V19.9213Z" fill="white"/>
<g filter="url(#filter0_d_6267_16653)">
<path d="M56.4922 30.2803C56.4921 15.9257 44.8546 4.28906 30.5 4.28906C16.1455 4.28919 4.50892 15.9258 4.50879 30.2803C4.50879 44.4106 15.7846 55.9077 29.8291 56.2637L30.5 56.2725C44.6305 56.2725 56.1277 44.9959 56.4834 30.9512L56.4922 30.2803ZM58.4922 30.2803C58.4922 45.7395 45.9593 58.2725 30.5 58.2725C15.0409 58.2723 2.50879 45.7394 2.50879 30.2803C2.50892 14.8212 15.0409 2.28919 30.5 2.28906C45.9592 2.28906 58.4921 14.8211 58.4922 30.2803Z" fill="url(#paint1_linear_6267_16653)" fill-opacity="0.5" shape-rendering="crispEdges"/>
</g>
<defs>
<filter id="filter0_d_6267_16653" x="0.508789" y="0.289062" width="59.9834" height="59.9834" filterUnits="userSpaceOnUse" color-interpolation-filters="sRGB">
<feFlood flood-opacity="0" result="BackgroundImageFix"/>
<feColorMatrix in="SourceAlpha" type="matrix" values="0 0 0 0 0 0 0 0 0 0 0 0 0 0 0 0 0 0 127 0" result="hardAlpha"/>
<feOffset/>
<feGaussianBlur stdDeviation="1"/>
<feComposite in2="hardAlpha" operator="out"/>
<feColorMatrix type="matrix" values="0 0 0 0 0 0 0 0 0 0 0 0 0 0 0 0 0 0 0.25 0"/>
<feBlend mode="normal" in2="BackgroundImageFix" result="effect1_dropShadow_6267_16653"/>
<feBlend mode="normal" in="SourceGraphic" in2="effect1_dropShadow_6267_16653" result="shape"/>
</filter>
<linearGradient id="paint0_linear_6267_16653" x1="12.9675" y1="6.33523" x2="30.5" y2="60.2803" gradientUnits="userSpaceOnUse">
<stop offset="0.0514739" stop-color="#3C8BFA"/>
<stop offset="0.428284" stop-color="#066EFF"/>
<stop offset="1" stop-color="#014CB4"/>
</linearGradient>
<linearGradient id="paint1_linear_6267_16653" x1="15.4058" y1="6.70968" x2="44.3845" y2="54.105" gradientUnits="userSpaceOnUse">
<stop stop-color="white"/>
<stop offset="1" stop-color="#0A5FFD"/>
</linearGradient>
</defs>
</svg>
