<svg width="24" height="24" viewBox="0 0 24 24" fill="none" xmlns="http://www.w3.org/2000/svg">
<g clip-path="url(#clip0_7006_43133)">
<path d="M13.8006 11.04H15.9606V23.52H13.8006V11.04ZM16.6806 23.52H22.0806C22.8774 23.52 23.5206 22.8768 23.5206 22.08V11.04H16.6806V23.52ZM21.6006 6.14878C21.399 5.90878 21.1014 5.75998 20.7702 5.75998C20.1654 5.75998 19.6806 6.24478 19.6806 6.84958C19.6806 8.19358 20.991 9.18238 21.6006 9.34558C22.2102 9.18238 23.5206 8.19358 23.5206 6.84958C23.5206 6.24958 23.0358 5.75998 22.431 5.75998C22.0998 5.75998 21.8022 5.90878 21.6006 6.14878ZM20.6406 4.06558C21.2502 3.90238 22.5606 2.91358 22.5606 1.56958C22.5606 0.96478 22.0758 0.47998 21.471 0.47998C21.135 0.47998 20.8374 0.62878 20.6406 0.86878C20.439 0.62878 20.1414 0.47998 19.8102 0.47998C19.2054 0.47998 18.7206 0.96478 18.7206 1.56958C18.7206 2.90878 20.031 3.90238 20.6406 4.06558ZM11.7462 9.15838L18.4998 5.25598L17.6598 3.80158C17.2614 3.11518 16.383 2.87518 15.6918 3.27358L10.1814 6.45598L11.7462 9.15838ZM9.2502 10.5984L11.1222 9.51838L8.0646 4.21918C7.767 3.70078 7.1046 3.52798 6.591 3.82558C6.0726 4.12318 5.8998 4.78558 6.1974 5.29918L9.2502 10.5984ZM6.2406 13.1712V22.08C6.2406 22.8768 6.8838 23.52 7.6806 23.52H13.0806V11.04H9.9318L6.2406 13.1712ZM7.071 8.25598L1.5606 11.4384C0.8742 11.8368 0.6342 12.7152 1.0326 13.4064L1.8726 14.8608L8.6262 10.9584L7.071 8.25598ZM11.2854 2.36158C11.4582 2.26078 11.679 2.32318 11.775 2.49118C11.8758 2.66398 11.8134 2.88478 11.6454 2.98078C10.671 3.54238 9.8646 4.25758 9.3318 4.97758L9.8262 5.83198L11.7846 4.70398C13.0566 3.96958 13.4934 2.34238 12.759 1.07038C12.4326 0.50878 11.7126 0.31198 11.151 0.63838C9.9414 1.33918 9.0534 2.42398 8.583 3.67678L8.9478 4.30558C9.5286 3.59038 10.3302 2.91358 11.2854 2.36158ZM4.7526 8.76478L6.711 7.63678L6.2214 6.78718C5.3334 6.88318 4.311 7.21918 3.3318 7.78558C3.2742 7.81918 3.2118 7.83358 3.1542 7.83358C3.0294 7.83358 2.9094 7.77118 2.8422 7.65118C2.7414 7.47838 2.8038 7.25758 2.9718 7.16158C3.9318 6.60478 4.9206 6.26398 5.8326 6.11998L5.463 5.47678C4.143 5.26078 2.7606 5.48158 1.551 6.18238C0.9894 6.50878 0.7926 7.22878 1.119 7.79038C1.8534 9.06238 3.4806 9.49918 4.7526 8.76478Z" fill="white"/>
</g>
<defs>
<clipPath id="clip0_7006_43133">
<rect width="24" height="24" fill="white"/>
</clipPath>
</defs>
</svg>
