<svg width="24" height="25" viewBox="0 0 24 25" fill="none" xmlns="http://www.w3.org/2000/svg">
<path d="M20.1775 5.28711H3.8217C2.88604 5.28711 2.125 6.049 2.125 6.98508V17.6407C2.125 18.5764 2.88604 19.3374 3.8217 19.3374H8.96448C9.06651 19.3374 9.16078 19.3921 9.21177 19.4803L11.4834 23.4156C11.5948 23.6078 11.7781 23.7134 11.9996 23.7134C12.2212 23.7134 12.4044 23.6077 12.5158 23.4151L14.7875 19.4803C14.8385 19.3921 14.9327 19.3374 15.0348 19.3374H20.1775C21.1132 19.3374 21.8742 18.5764 21.8742 17.6407V6.98508C21.8742 6.049 21.1132 5.28711 20.1775 5.28711ZM15.9337 16.8703H8.06674V15.5702C8.06674 14.495 8.82369 13.6201 9.75445 13.6201H14.2447C15.1759 13.6201 15.9337 14.495 15.9337 15.5702V16.8703H15.9337ZM11.9996 7.75426C13.1642 7.75426 14.1117 8.70176 14.1117 9.86635C14.1117 11.0309 13.1642 11.9785 11.9996 11.9785C10.835 11.9785 9.88753 11.0309 9.88753 9.86635C9.88753 8.70176 10.835 7.75426 11.9996 7.75426Z" fill="white"/>
</svg>
