<svg width="24" height="25" viewBox="0 0 24 25" fill="none" xmlns="http://www.w3.org/2000/svg">
<path d="M20.1484 17.2402V18.6953C20.1484 19.4979 19.4954 20.1504 18.6934 20.1504H6.17969C4.89573 20.1504 3.85156 19.1062 3.85156 17.8223C3.85156 17.8223 3.85156 7.93646 3.85156 7.92773C3.85156 6.64377 4.89573 5.59961 6.17969 5.59961H16.9473C17.4298 5.59961 17.8203 5.99073 17.8203 6.47266C17.8203 6.95458 17.4298 7.3457 16.9473 7.3457H6.17969C5.85899 7.3457 5.59766 7.60645 5.59766 7.92773C5.59766 8.24902 5.85899 8.50977 6.17969 8.50977H18.6934C19.4954 8.50977 20.1484 9.16222 20.1484 9.96484V11.4199H17.2383C15.6336 11.4199 14.3281 12.7254 14.3281 14.3301C14.3281 15.9347 15.6336 17.2402 17.2383 17.2402H20.1484Z" fill="white"/>
<path d="M20.1484 12.584V16.0762H17.2383C16.2739 16.0762 15.4922 15.2945 15.4922 14.3301C15.4922 13.3657 16.2739 12.584 17.2383 12.584H20.1484Z" fill="white"/>
</svg>
