<svg width="925" height="675" viewBox="0 0 925 675" fill="none" xmlns="http://www.w3.org/2000/svg">
<path d="M924.307 0.325195C716.933 98.6591 496.179 400.318 496.179 614.922H392.067C392.067 405.938 102.667 116.776 0.55127 0.325195H924.307Z" fill="url(#paint0_linear_5751_11252)"/>
<path d="M390.52 589.506C390.52 587.082 391.269 584.718 392.666 582.737C394.866 579.617 398.446 577.761 402.264 577.761H413.033C416.457 577.761 419.81 578.737 422.699 580.576L426.452 582.966C429.341 584.804 432.694 585.781 436.118 585.781H478.136C488.077 585.781 496.136 593.84 496.136 603.781V656.357C496.136 666.298 488.077 674.357 478.136 674.357H408.52C398.578 674.357 390.52 666.298 390.52 656.357V589.506Z" fill="url(#paint1_linear_5751_11252)"/>
<rect x="407.073" y="588.463" width="64.201" height="64.4775" rx="8" transform="rotate(-7.95716 407.073 588.463)" fill="#EFEFEF"/>
<rect x="428.76" y="576.717" width="64.201" height="64.4775" rx="8" transform="rotate(3.61485 428.76 576.717)" fill="white"/>
<g filter="url(#filter0_i_5751_11252)">
<path d="M386.14 621.856C385.508 614.276 391.489 607.775 399.095 607.775H486.861C494.398 607.775 500.356 614.165 499.829 621.684L496.984 662.266C496.507 669.076 490.843 674.357 484.016 674.357H402.481C395.72 674.357 390.088 669.175 389.526 662.438L386.14 621.856Z" fill="url(#paint2_linear_5751_11252)"/>
</g>
<path d="M436.274 635.946C436.984 635.946 437.609 636.096 438.149 636.396C438.689 636.686 439.109 637.096 439.409 637.626C439.709 638.156 439.859 638.771 439.859 639.471V643.251C439.859 644.151 439.604 644.901 439.094 645.501C438.594 646.101 437.914 646.471 437.054 646.611C437.014 646.621 436.994 646.646 436.994 646.686V648.051C436.994 648.151 436.944 648.201 436.844 648.201H435.704C435.604 648.201 435.554 648.151 435.554 648.051V646.686C435.554 646.646 435.534 646.621 435.494 646.611C434.634 646.471 433.949 646.101 433.439 645.501C432.939 644.901 432.689 644.151 432.689 643.251V639.471C432.689 638.771 432.839 638.156 433.139 637.626C433.439 637.096 433.859 636.686 434.399 636.396C434.939 636.096 435.564 635.946 436.274 635.946ZM438.419 639.396C438.419 638.736 438.219 638.206 437.819 637.806C437.429 637.396 436.914 637.191 436.274 637.191C435.634 637.191 435.114 637.396 434.714 637.806C434.324 638.206 434.129 638.736 434.129 639.396V643.236C434.129 643.896 434.324 644.431 434.714 644.841C435.114 645.241 435.634 645.441 436.274 645.441C436.914 645.441 437.429 645.241 437.819 644.841C438.219 644.431 438.419 643.896 438.419 643.236V639.396ZM446.895 641.586C447.095 642.076 447.195 642.641 447.195 643.281C447.195 643.811 447.115 644.301 446.955 644.751C446.735 645.371 446.37 645.851 445.86 646.191C445.35 646.521 444.735 646.686 444.015 646.686C443.295 646.686 442.67 646.501 442.14 646.131C441.62 645.761 441.255 645.261 441.045 644.631C440.935 644.351 440.87 643.951 440.85 643.431C440.85 643.331 440.9 643.281 441 643.281H442.155C442.255 643.281 442.305 643.331 442.305 643.431C442.325 643.791 442.365 644.056 442.425 644.226C442.525 644.596 442.71 644.891 442.98 645.111C443.26 645.331 443.605 645.441 444.015 645.441C444.775 645.441 445.285 645.096 445.545 644.406C445.675 644.106 445.74 643.716 445.74 643.236C445.74 642.726 445.66 642.271 445.5 641.871C445.22 641.251 444.72 640.941 444 640.941C443.83 640.941 443.615 641.016 443.355 641.166C443.315 641.186 443.285 641.196 443.265 641.196C443.215 641.196 443.175 641.171 443.145 641.121L442.575 640.341C442.555 640.301 442.545 640.266 442.545 640.236C442.545 640.206 442.56 640.171 442.59 640.131L445.155 637.386C445.185 637.336 445.175 637.311 445.125 637.311H441.135C441.035 637.311 440.985 637.261 440.985 637.161V636.216C440.985 636.116 441.035 636.066 441.135 636.066H446.955C447.055 636.066 447.105 636.116 447.105 636.216V637.296C447.105 637.346 447.08 637.406 447.03 637.476L444.75 639.966C444.73 639.986 444.725 640.006 444.735 640.026C444.745 640.036 444.765 640.046 444.795 640.056C445.305 640.106 445.735 640.266 446.085 640.536C446.435 640.796 446.705 641.146 446.895 641.586ZM448.116 646.566C448.056 646.566 448.016 646.551 447.996 646.521C447.976 646.481 447.981 646.436 448.011 646.386L450.501 642.801C450.521 642.771 450.521 642.741 450.501 642.711L448.011 639.111L447.981 639.036C447.981 638.966 448.026 638.931 448.116 638.931H449.331C449.411 638.931 449.471 638.961 449.511 639.021L451.266 641.586C451.276 641.596 451.291 641.601 451.311 641.601C451.331 641.601 451.346 641.596 451.356 641.586L453.096 639.021C453.136 638.961 453.196 638.931 453.276 638.931H454.581C454.641 638.931 454.681 638.951 454.701 638.991C454.721 639.021 454.716 639.061 454.686 639.111L452.196 642.711C452.186 642.741 452.186 642.771 452.196 642.801L454.686 646.386L454.716 646.461C454.716 646.531 454.671 646.566 454.581 646.566H453.351C453.271 646.566 453.211 646.536 453.171 646.476L451.431 643.911C451.421 643.891 451.406 643.881 451.386 643.881C451.366 643.881 451.351 643.891 451.341 643.911L449.586 646.476C449.546 646.536 449.486 646.566 449.406 646.566H448.116Z" fill="#B5E0FF"/>
<defs>
<filter id="filter0_i_5751_11252" x="386.095" y="607.775" width="115.767" height="70.582" filterUnits="userSpaceOnUse" color-interpolation-filters="sRGB">
<feFlood flood-opacity="0" result="BackgroundImageFix"/>
<feBlend mode="normal" in="SourceGraphic" in2="BackgroundImageFix" result="shape"/>
<feColorMatrix in="SourceAlpha" type="matrix" values="0 0 0 0 0 0 0 0 0 0 0 0 0 0 0 0 0 0 127 0" result="hardAlpha"/>
<feOffset dx="2" dy="4"/>
<feGaussianBlur stdDeviation="2"/>
<feComposite in2="hardAlpha" operator="arithmetic" k2="-1" k3="1"/>
<feColorMatrix type="matrix" values="0 0 0 0 1 0 0 0 0 1 0 0 0 0 1 0 0 0 0.25 0"/>
<feBlend mode="normal" in2="shape" result="effect1_innerShadow_5751_11252"/>
</filter>
<linearGradient id="paint0_linear_5751_11252" x1="462.429" y1="460.524" x2="462.429" y2="614.922" gradientUnits="userSpaceOnUse">
<stop stop-opacity="0"/>
<stop offset="1" stop-color="#002663"/>
</linearGradient>
<linearGradient id="paint1_linear_5751_11252" x1="443.328" y1="577.761" x2="443.328" y2="674.357" gradientUnits="userSpaceOnUse">
<stop stop-color="#0844C5"/>
<stop offset="1" stop-color="#0E275D"/>
</linearGradient>
<linearGradient id="paint2_linear_5751_11252" x1="442.885" y1="607.775" x2="442.885" y2="674.357" gradientUnits="userSpaceOnUse">
<stop stop-color="#48B3FF"/>
<stop offset="1" stop-color="#0059FF"/>
</linearGradient>
</defs>
</svg>
