<svg width="114" height="98" viewBox="0 0 114 98" fill="none" xmlns="http://www.w3.org/2000/svg">
<path d="M4.51953 13.032C4.51953 10.6085 5.26924 8.24429 6.66585 6.26368C8.8662 3.14322 12.4461 1.28714 16.2643 1.28714H27.0327C30.4569 1.28714 33.81 2.26383 36.6986 4.10259L40.4523 6.49206C43.3409 8.33081 46.694 9.3075 50.1182 9.3075H92.1361C102.077 9.3075 110.136 17.3664 110.136 27.3075V79.8833C110.136 89.8244 102.077 97.8833 92.1361 97.8833H22.5195C12.5784 97.8833 4.51953 89.8244 4.51953 79.8833V13.032Z" fill="url(#paint0_linear_5341_31846)"/>
<rect x="21.0732" y="11.9893" width="64.201" height="64.4775" rx="8" transform="rotate(-7.95716 21.0732 11.9893)" fill="#EFEFEF"/>
<rect x="42.7598" y="0.243164" width="64.201" height="64.4775" rx="8" transform="rotate(3.61485 42.7598 0.243164)" fill="white"/>
<g filter="url(#filter0_i_5341_31846)">
<path d="M0.140482 45.3815C-0.491837 37.8019 5.4895 31.3008 13.0955 31.3008H100.861C108.398 31.3008 114.356 37.6906 113.829 45.2098L110.984 85.7914C110.507 92.6016 104.843 97.8824 98.0161 97.8824H16.4809C9.72022 97.8824 4.08797 92.7004 3.52593 85.9631L0.140482 45.3815Z" fill="url(#paint1_linear_5341_31846)"/>
</g>
<defs>
<filter id="filter0_i_5341_31846" x="0.0947266" y="31.3008" width="115.767" height="70.582" filterUnits="userSpaceOnUse" color-interpolation-filters="sRGB">
<feFlood flood-opacity="0" result="BackgroundImageFix"/>
<feBlend mode="normal" in="SourceGraphic" in2="BackgroundImageFix" result="shape"/>
<feColorMatrix in="SourceAlpha" type="matrix" values="0 0 0 0 0 0 0 0 0 0 0 0 0 0 0 0 0 0 127 0" result="hardAlpha"/>
<feOffset dx="2" dy="4"/>
<feGaussianBlur stdDeviation="2"/>
<feComposite in2="hardAlpha" operator="arithmetic" k2="-1" k3="1"/>
<feColorMatrix type="matrix" values="0 0 0 0 1 0 0 0 0 1 0 0 0 0 1 0 0 0 0.25 0"/>
<feBlend mode="normal" in2="shape" result="effect1_innerShadow_5341_31846"/>
</filter>
<linearGradient id="paint0_linear_5341_31846" x1="57.3278" y1="1.28711" x2="57.3278" y2="97.8833" gradientUnits="userSpaceOnUse">
<stop stop-color="#0844C5"/>
<stop offset="1" stop-color="#0E275D"/>
</linearGradient>
<linearGradient id="paint1_linear_5341_31846" x1="56.8848" y1="31.3008" x2="56.8848" y2="97.8824" gradientUnits="userSpaceOnUse">
<stop stop-color="#48B3FF"/>
<stop offset="1" stop-color="#0059FF"/>
</linearGradient>
</defs>
</svg>
