<svg width="25" height="25" viewBox="0 0 25 25" fill="none" xmlns="http://www.w3.org/2000/svg">
<rect x="0.689453" y="0.939453" width="24.31" height="24" rx="6" fill="#F8F8F8" fill-opacity="0.17" style="mix-blend-mode:luminosity"/>
<rect x="0.941652" y="1.19165" width="23.8056" height="23.4956" rx="5.7478" stroke="url(#paint0_linear_5579_28043)" stroke-opacity="0.25" stroke-width="0.504398"/>
<path d="M16.0759 11.9956C16.1293 11.9956 16.1719 12.017 16.2039 12.0596C16.2466 12.0916 16.2679 12.1343 16.2679 12.1876V13.7396C16.2679 13.793 16.2466 13.841 16.2039 13.8836C16.1719 13.9156 16.1293 13.9316 16.0759 13.9316H13.8839C13.8306 13.9316 13.8039 13.9583 13.8039 14.0116V16.1716C13.8039 16.225 13.7826 16.273 13.7399 16.3156C13.7079 16.3476 13.6653 16.3636 13.6119 16.3636H12.0759C12.0226 16.3636 11.9746 16.3476 11.9319 16.3156C11.8999 16.273 11.8839 16.225 11.8839 16.1716V14.0116C11.8839 13.9583 11.8573 13.9316 11.8039 13.9316H9.61192C9.55859 13.9316 9.51059 13.9156 9.46792 13.8836C9.43592 13.841 9.41992 13.793 9.41992 13.7396V12.1876C9.41992 12.1343 9.43592 12.0916 9.46792 12.0596C9.51059 12.017 9.55859 11.9956 9.61192 11.9956H11.8039C11.8573 11.9956 11.8839 11.969 11.8839 11.9156V9.70763C11.8839 9.65429 11.8999 9.61163 11.9319 9.57963C11.9746 9.53696 12.0226 9.51562 12.0759 9.51562H13.6119C13.6653 9.51562 13.7079 9.53696 13.7399 9.57963C13.7826 9.61163 13.8039 9.65429 13.8039 9.70763V11.9156C13.8039 11.969 13.8306 11.9956 13.8839 11.9956H16.0759Z" fill="white"/>
<defs>
<linearGradient id="paint0_linear_5579_28043" x1="12.8444" y1="0.939453" x2="23.1873" y2="27.3853" gradientUnits="userSpaceOnUse">
<stop stop-color="white" stop-opacity="0.4"/>
<stop offset="0.4" stop-color="white" stop-opacity="0.01"/>
<stop offset="0.6" stop-color="white" stop-opacity="0.01"/>
<stop offset="1" stop-color="white" stop-opacity="0.1"/>
</linearGradient>
</defs>
</svg>
