<svg width="18" height="18" viewBox="0 0 18 18" fill="none" xmlns="http://www.w3.org/2000/svg">
<path d="M9 0.5C4.30558 0.5 0.5 4.30558 0.5 9C0.5 13.6944 4.30558 17.5 9 17.5C12.7023 17.5 15.8496 15.1335 17.0161 11.8332C17.1726 11.3906 16.9405 10.905 16.4979 10.7486C16.0553 10.5921 15.5697 10.8241 15.4133 11.2668C14.4794 13.909 11.9594 15.8 9 15.8C5.24446 15.8 2.2 12.7556 2.2 9C2.2 5.24446 5.24446 2.2 9 2.2C10.3189 2.2 11.4363 2.67699 12.4988 3.42451C13.2134 3.9273 13.8746 4.5299 14.5456 5.175H11.975C11.5055 5.175 11.125 5.55556 11.125 6.025C11.125 6.49444 11.5055 6.875 11.975 6.875H16.65C17.1195 6.875 17.5 6.49444 17.5 6.025V1.35C17.5 0.880562 17.1195 0.5 16.65 0.5C16.1805 0.5 15.8 0.880562 15.8 1.35V4.02215C15.0789 3.32696 14.3088 2.61936 13.477 2.03416C12.2257 1.15379 10.772 0.5 9 0.5Z" fill="#666666"/>
</svg>
