<svg width="315" height="58" viewBox="0 0 315 58" fill="none" xmlns="http://www.w3.org/2000/svg">
<mask id="path-1-outside-1_5835_8670" maskUnits="userSpaceOnUse" x="0" y="-0.5" width="315" height="59" fill="black">
<rect fill="white" y="-0.5" width="315" height="59"/>
<path d="M53.3658 25.772C53.3658 26.0707 53.3658 26.5613 53.3658 27.244C53.4084 27.884 53.4084 28.6093 53.3658 29.42C53.2378 32.876 52.4058 36.14 50.8698 39.212C49.3764 42.2413 47.5204 44.908 45.3018 47.212C43.0831 49.516 40.6724 51.3293 38.0698 52.652C35.5098 53.9747 33.0991 54.636 30.8378 54.636C28.5338 54.636 26.5284 54.2093 24.8218 53.356C23.1578 52.5453 21.7284 51.4147 20.5338 49.964C19.3818 48.4707 18.4644 46.7213 17.7818 44.716C17.0991 42.668 16.6298 40.4493 16.3738 38.06C13.4298 37.1213 10.9764 35.6493 9.01375 33.644C7.09375 31.596 5.68575 29.3773 4.78975 26.988C3.85108 24.556 3.46708 22.1453 3.63775 19.756C3.76575 17.324 4.49108 15.276 5.81375 13.612C6.45375 12.7587 7.11508 12.1613 7.79775 11.82C8.48042 11.4787 9.18442 11.308 9.90975 11.308C10.8484 11.308 11.7658 11.564 12.6618 12.076C13.6004 12.588 14.4751 13.2493 15.2858 14.06C16.0964 14.828 16.8218 15.7027 17.4618 16.684C18.1444 17.6227 18.6991 18.54 19.1258 19.436H18.9338C18.4644 18.4547 17.8244 17.7293 17.0138 17.26C16.2458 16.7907 15.3711 16.556 14.3898 16.556C13.4084 16.556 12.3844 16.812 11.3177 17.324C10.2938 17.836 9.35508 18.6467 8.50175 19.756C7.13642 21.42 6.41108 23.2547 6.32575 25.26C6.19775 27.2227 6.62442 29.1 7.60575 30.892C8.62975 32.684 10.1444 34.2413 12.1498 35.564C14.1978 36.8867 16.6724 37.74 19.5738 38.124C18.6778 37.9107 17.8884 37.6547 17.2058 37.356C16.5658 37.0573 16.2458 36.7373 16.2458 36.396C16.2458 33.452 16.6724 30.5933 17.5258 27.82C18.3791 25.004 19.5311 22.38 20.9818 19.948C22.4751 17.4733 24.2031 15.2333 26.1658 13.228C28.1711 11.18 30.2831 9.43067 32.5018 7.98C34.7631 6.48667 37.0884 5.33466 39.4778 4.524C41.9098 3.71333 44.2991 3.308 46.6458 3.308C47.7551 3.308 48.9071 3.52133 50.1018 3.948C51.3391 4.37466 52.4698 5.036 53.4938 5.932C54.5604 6.828 55.4351 7.98 56.1178 9.388C56.8004 10.7533 57.1418 12.4173 57.1418 14.38C57.1418 16.5987 56.6724 18.732 55.7338 20.78C54.7951 22.828 53.5151 24.748 51.8938 26.54C50.3151 28.332 48.4591 29.9747 46.3258 31.468C44.1924 32.9187 41.9098 34.1773 39.4778 35.244C37.0884 36.3107 34.6138 37.164 32.0538 37.804C29.5364 38.444 27.0618 38.828 24.6298 38.956C24.5871 40.748 24.6298 42.54 24.7578 44.332C24.8858 46.0813 25.1631 47.6813 25.5898 49.132C26.0591 50.54 26.6991 51.692 27.5098 52.588C28.3631 53.484 29.4724 53.932 30.8378 53.932C32.4591 53.932 33.9098 53.5693 35.1898 52.844C36.4698 52.1613 37.5791 51.244 38.5178 50.092C39.4991 48.94 40.3311 47.6173 41.0138 46.124C41.7391 44.6307 42.3578 43.0947 42.8698 41.516C43.3818 39.9373 43.7871 38.38 44.0858 36.844C44.4271 35.2653 44.7258 33.836 44.9818 32.556C45.8351 32.044 46.6031 31.5533 47.2858 31.084C47.9684 30.572 48.6298 30.06 49.2698 29.548C49.9098 29.036 50.5498 28.4813 51.1898 27.884C51.8724 27.244 52.5978 26.54 53.3658 25.772ZM28.0858 31.02C28.0858 29.8253 28.1711 28.5027 28.3418 27.052C28.5124 25.6013 28.7898 24.1293 29.1738 22.636C29.6004 21.1427 30.1551 19.692 30.8378 18.284C31.5204 16.8333 32.3311 15.5747 33.2698 14.508C34.2084 13.3987 35.3178 12.5027 36.5978 11.82C37.8778 11.1373 39.3071 10.796 40.8857 10.796C42.8058 10.796 44.5338 11.1587 46.0698 11.884C47.6058 12.5667 48.9071 13.5053 49.9738 14.7C51.0404 15.8947 51.8511 17.3027 52.4058 18.924C53.0031 20.5027 53.3018 22.2093 53.3018 24.044C54.3684 22.5507 55.2004 21.0147 55.7978 19.436C56.3951 17.8573 56.6938 16.2147 56.6938 14.508C56.6938 12.716 56.3738 11.18 55.7338 9.9C55.0938 8.57733 54.2404 7.48933 53.1738 6.636C52.1498 5.74 50.9764 5.1 49.6538 4.716C48.3738 4.28933 47.0724 4.076 45.7498 4.076C43.5311 4.076 41.3978 4.63066 39.3498 5.74C37.3444 6.84933 35.4884 8.38533 33.7818 10.348C32.0751 12.3107 30.5604 14.6147 29.2378 17.26C27.9578 19.9053 26.8911 22.764 26.0378 25.836C25.1844 29.1213 24.7364 31.788 24.6938 33.836C24.6511 35.8413 24.6298 37.3347 24.6298 38.316C28.2138 38.188 31.7978 37.5267 35.3818 36.332C38.9658 35.1373 42.2511 33.5373 45.2378 31.532C45.9631 28.5027 46.4751 25.836 46.7738 23.532C47.1151 21.228 47.1791 19.2867 46.9658 17.708C46.7524 16.1293 46.2191 14.892 45.3658 13.996C44.5124 13.1 43.2538 12.5667 41.5898 12.396C39.9258 12.1827 38.4324 12.3533 37.1098 12.908C35.8298 13.4627 34.6991 14.252 33.7178 15.276C32.7364 16.3 31.9044 17.4947 31.2218 18.86C30.5391 20.2253 29.9844 21.6547 29.5578 23.148C29.1311 24.5987 28.8324 26.028 28.6618 27.436C28.5338 28.844 28.4911 30.0813 28.5338 31.148L28.0858 31.02ZM65.5642 51.5H57.7563V6.7H70.6843C72.6896 6.7 74.6096 6.87066 76.4443 7.212C78.2789 7.55333 79.9003 8.172 81.3083 9.068C82.7163 9.92133 83.8256 11.0947 84.6363 12.588C85.4896 14.0387 85.9163 15.8947 85.9163 18.156C85.9163 20.204 85.5536 21.996 84.8283 23.532C84.1029 25.068 83.0576 26.348 81.6923 27.372C80.3696 28.396 78.7696 29.164 76.8923 29.676C75.0576 30.188 72.9883 30.444 70.6843 30.444H65.6283L65.5642 51.5ZM70.6843 24.364C71.7509 24.364 72.7323 24.3 73.6283 24.172C74.5243 24.0013 75.2923 23.7027 75.9323 23.276C76.6149 22.8493 77.1269 22.252 77.4683 21.484C77.8523 20.716 78.0443 19.7347 78.0443 18.54C78.0443 17.3453 77.8523 16.364 77.4683 15.596C77.1269 14.828 76.6149 14.252 75.9323 13.868C75.2923 13.4413 74.5243 13.164 73.6283 13.036C72.7323 12.8653 71.7509 12.78 70.6843 12.78H65.6283V24.364H70.6843ZM96.0642 45.74H123.072V51.5H88.2563V6.7H122.88V12.46H96.1283V26.22H122.88V31.98H96.1283L96.0642 45.74ZM158.072 49.58V6.7H166.328L165.816 51.5H151.096L134.136 9.644L133.688 51.5H125.944V6.7H140.728L158.072 49.58ZM193.213 29.356C193.213 31.7027 193.575 33.8573 194.301 35.82C195.026 37.7827 196.093 39.468 197.501 40.876C198.909 42.2413 200.637 43.308 202.685 44.076C204.733 44.844 207.058 45.228 209.661 45.228C210.727 45.228 211.858 45.1213 213.053 44.908C214.29 44.652 215.442 44.0973 216.509 43.244C217.618 42.3907 218.557 41.1533 219.325 39.532C220.093 37.868 220.562 35.6067 220.733 32.748V31.98H199.613V26.22H227.581V51.5H220.733V42.22C220.007 45.7187 218.45 48.236 216.061 49.772C213.671 51.2653 210.813 52.012 207.485 52.012C204.455 52.012 201.661 51.4787 199.101 50.412C196.541 49.3027 194.343 47.7667 192.509 45.804C190.674 43.7987 189.245 41.4093 188.221 38.636C187.197 35.82 186.685 32.7267 186.685 29.356C186.685 25.9427 187.197 22.8493 188.221 20.076C189.287 17.3027 190.759 14.9347 192.637 12.972C194.557 10.9667 196.839 9.43066 199.485 8.364C202.173 7.25466 205.159 6.7 208.445 6.7H227.389L227.325 13.612L208.445 13.484C206.141 13.484 204.05 13.868 202.173 14.636C200.295 15.404 198.695 16.492 197.373 17.9C196.05 19.2653 195.026 20.9293 194.301 22.892C193.575 24.812 193.213 26.9667 193.213 29.356ZM240.609 51.5H232.673V6.7H240.545L240.609 51.5ZM252.563 51.5H244.819V6.7H279.443V12.46H252.691V26.22H279.443V31.98H252.691L252.563 51.5ZM282.241 6.764H311.681V12.524H300.929L300.993 51.5H293.057V12.524H282.241V6.764Z"/>
</mask>
<path d="M53.3658 25.772C53.3658 26.0707 53.3658 26.5613 53.3658 27.244C53.4084 27.884 53.4084 28.6093 53.3658 29.42C53.2378 32.876 52.4058 36.14 50.8698 39.212C49.3764 42.2413 47.5204 44.908 45.3018 47.212C43.0831 49.516 40.6724 51.3293 38.0698 52.652C35.5098 53.9747 33.0991 54.636 30.8378 54.636C28.5338 54.636 26.5284 54.2093 24.8218 53.356C23.1578 52.5453 21.7284 51.4147 20.5338 49.964C19.3818 48.4707 18.4644 46.7213 17.7818 44.716C17.0991 42.668 16.6298 40.4493 16.3738 38.06C13.4298 37.1213 10.9764 35.6493 9.01375 33.644C7.09375 31.596 5.68575 29.3773 4.78975 26.988C3.85108 24.556 3.46708 22.1453 3.63775 19.756C3.76575 17.324 4.49108 15.276 5.81375 13.612C6.45375 12.7587 7.11508 12.1613 7.79775 11.82C8.48042 11.4787 9.18442 11.308 9.90975 11.308C10.8484 11.308 11.7658 11.564 12.6618 12.076C13.6004 12.588 14.4751 13.2493 15.2858 14.06C16.0964 14.828 16.8218 15.7027 17.4618 16.684C18.1444 17.6227 18.6991 18.54 19.1258 19.436H18.9338C18.4644 18.4547 17.8244 17.7293 17.0138 17.26C16.2458 16.7907 15.3711 16.556 14.3898 16.556C13.4084 16.556 12.3844 16.812 11.3177 17.324C10.2938 17.836 9.35508 18.6467 8.50175 19.756C7.13642 21.42 6.41108 23.2547 6.32575 25.26C6.19775 27.2227 6.62442 29.1 7.60575 30.892C8.62975 32.684 10.1444 34.2413 12.1498 35.564C14.1978 36.8867 16.6724 37.74 19.5738 38.124C18.6778 37.9107 17.8884 37.6547 17.2058 37.356C16.5658 37.0573 16.2458 36.7373 16.2458 36.396C16.2458 33.452 16.6724 30.5933 17.5258 27.82C18.3791 25.004 19.5311 22.38 20.9818 19.948C22.4751 17.4733 24.2031 15.2333 26.1658 13.228C28.1711 11.18 30.2831 9.43067 32.5018 7.98C34.7631 6.48667 37.0884 5.33466 39.4778 4.524C41.9098 3.71333 44.2991 3.308 46.6458 3.308C47.7551 3.308 48.9071 3.52133 50.1018 3.948C51.3391 4.37466 52.4698 5.036 53.4938 5.932C54.5604 6.828 55.4351 7.98 56.1178 9.388C56.8004 10.7533 57.1418 12.4173 57.1418 14.38C57.1418 16.5987 56.6724 18.732 55.7338 20.78C54.7951 22.828 53.5151 24.748 51.8938 26.54C50.3151 28.332 48.4591 29.9747 46.3258 31.468C44.1924 32.9187 41.9098 34.1773 39.4778 35.244C37.0884 36.3107 34.6138 37.164 32.0538 37.804C29.5364 38.444 27.0618 38.828 24.6298 38.956C24.5871 40.748 24.6298 42.54 24.7578 44.332C24.8858 46.0813 25.1631 47.6813 25.5898 49.132C26.0591 50.54 26.6991 51.692 27.5098 52.588C28.3631 53.484 29.4724 53.932 30.8378 53.932C32.4591 53.932 33.9098 53.5693 35.1898 52.844C36.4698 52.1613 37.5791 51.244 38.5178 50.092C39.4991 48.94 40.3311 47.6173 41.0138 46.124C41.7391 44.6307 42.3578 43.0947 42.8698 41.516C43.3818 39.9373 43.7871 38.38 44.0858 36.844C44.4271 35.2653 44.7258 33.836 44.9818 32.556C45.8351 32.044 46.6031 31.5533 47.2858 31.084C47.9684 30.572 48.6298 30.06 49.2698 29.548C49.9098 29.036 50.5498 28.4813 51.1898 27.884C51.8724 27.244 52.5978 26.54 53.3658 25.772ZM28.0858 31.02C28.0858 29.8253 28.1711 28.5027 28.3418 27.052C28.5124 25.6013 28.7898 24.1293 29.1738 22.636C29.6004 21.1427 30.1551 19.692 30.8378 18.284C31.5204 16.8333 32.3311 15.5747 33.2698 14.508C34.2084 13.3987 35.3178 12.5027 36.5978 11.82C37.8778 11.1373 39.3071 10.796 40.8857 10.796C42.8058 10.796 44.5338 11.1587 46.0698 11.884C47.6058 12.5667 48.9071 13.5053 49.9738 14.7C51.0404 15.8947 51.8511 17.3027 52.4058 18.924C53.0031 20.5027 53.3018 22.2093 53.3018 24.044C54.3684 22.5507 55.2004 21.0147 55.7978 19.436C56.3951 17.8573 56.6938 16.2147 56.6938 14.508C56.6938 12.716 56.3738 11.18 55.7338 9.9C55.0938 8.57733 54.2404 7.48933 53.1738 6.636C52.1498 5.74 50.9764 5.1 49.6538 4.716C48.3738 4.28933 47.0724 4.076 45.7498 4.076C43.5311 4.076 41.3978 4.63066 39.3498 5.74C37.3444 6.84933 35.4884 8.38533 33.7818 10.348C32.0751 12.3107 30.5604 14.6147 29.2378 17.26C27.9578 19.9053 26.8911 22.764 26.0378 25.836C25.1844 29.1213 24.7364 31.788 24.6938 33.836C24.6511 35.8413 24.6298 37.3347 24.6298 38.316C28.2138 38.188 31.7978 37.5267 35.3818 36.332C38.9658 35.1373 42.2511 33.5373 45.2378 31.532C45.9631 28.5027 46.4751 25.836 46.7738 23.532C47.1151 21.228 47.1791 19.2867 46.9658 17.708C46.7524 16.1293 46.2191 14.892 45.3658 13.996C44.5124 13.1 43.2538 12.5667 41.5898 12.396C39.9258 12.1827 38.4324 12.3533 37.1098 12.908C35.8298 13.4627 34.6991 14.252 33.7178 15.276C32.7364 16.3 31.9044 17.4947 31.2218 18.86C30.5391 20.2253 29.9844 21.6547 29.5578 23.148C29.1311 24.5987 28.8324 26.028 28.6618 27.436C28.5338 28.844 28.4911 30.0813 28.5338 31.148L28.0858 31.02ZM65.5642 51.5H57.7563V6.7H70.6843C72.6896 6.7 74.6096 6.87066 76.4443 7.212C78.2789 7.55333 79.9003 8.172 81.3083 9.068C82.7163 9.92133 83.8256 11.0947 84.6363 12.588C85.4896 14.0387 85.9163 15.8947 85.9163 18.156C85.9163 20.204 85.5536 21.996 84.8283 23.532C84.1029 25.068 83.0576 26.348 81.6923 27.372C80.3696 28.396 78.7696 29.164 76.8923 29.676C75.0576 30.188 72.9883 30.444 70.6843 30.444H65.6283L65.5642 51.5ZM70.6843 24.364C71.7509 24.364 72.7323 24.3 73.6283 24.172C74.5243 24.0013 75.2923 23.7027 75.9323 23.276C76.6149 22.8493 77.1269 22.252 77.4683 21.484C77.8523 20.716 78.0443 19.7347 78.0443 18.54C78.0443 17.3453 77.8523 16.364 77.4683 15.596C77.1269 14.828 76.6149 14.252 75.9323 13.868C75.2923 13.4413 74.5243 13.164 73.6283 13.036C72.7323 12.8653 71.7509 12.78 70.6843 12.78H65.6283V24.364H70.6843ZM96.0642 45.74H123.072V51.5H88.2563V6.7H122.88V12.46H96.1283V26.22H122.88V31.98H96.1283L96.0642 45.74ZM158.072 49.58V6.7H166.328L165.816 51.5H151.096L134.136 9.644L133.688 51.5H125.944V6.7H140.728L158.072 49.58ZM193.213 29.356C193.213 31.7027 193.575 33.8573 194.301 35.82C195.026 37.7827 196.093 39.468 197.501 40.876C198.909 42.2413 200.637 43.308 202.685 44.076C204.733 44.844 207.058 45.228 209.661 45.228C210.727 45.228 211.858 45.1213 213.053 44.908C214.29 44.652 215.442 44.0973 216.509 43.244C217.618 42.3907 218.557 41.1533 219.325 39.532C220.093 37.868 220.562 35.6067 220.733 32.748V31.98H199.613V26.22H227.581V51.5H220.733V42.22C220.007 45.7187 218.45 48.236 216.061 49.772C213.671 51.2653 210.813 52.012 207.485 52.012C204.455 52.012 201.661 51.4787 199.101 50.412C196.541 49.3027 194.343 47.7667 192.509 45.804C190.674 43.7987 189.245 41.4093 188.221 38.636C187.197 35.82 186.685 32.7267 186.685 29.356C186.685 25.9427 187.197 22.8493 188.221 20.076C189.287 17.3027 190.759 14.9347 192.637 12.972C194.557 10.9667 196.839 9.43066 199.485 8.364C202.173 7.25466 205.159 6.7 208.445 6.7H227.389L227.325 13.612L208.445 13.484C206.141 13.484 204.05 13.868 202.173 14.636C200.295 15.404 198.695 16.492 197.373 17.9C196.05 19.2653 195.026 20.9293 194.301 22.892C193.575 24.812 193.213 26.9667 193.213 29.356ZM240.609 51.5H232.673V6.7H240.545L240.609 51.5ZM252.563 51.5H244.819V6.7H279.443V12.46H252.691V26.22H279.443V31.98H252.691L252.563 51.5ZM282.241 6.764H311.681V12.524H300.929L300.993 51.5H293.057V12.524H282.241V6.764Z" fill="white"/>
<path d="M53.3658 25.772H56.3658V18.5294L51.2444 23.6507L53.3658 25.772ZM53.3658 27.244H50.3658V27.3439L50.3724 27.4436L53.3658 27.244ZM53.3658 29.42L50.3699 29.2623L50.3687 29.2856L50.3678 29.309L53.3658 29.42ZM50.8698 39.212L48.1865 37.8704L48.1827 37.8779L48.1789 37.8855L50.8698 39.212ZM45.3018 47.212L43.1408 45.1311V45.1311L45.3018 47.212ZM38.0698 52.652L36.7106 49.9775L36.7016 49.9821L36.6927 49.9867L38.0698 52.652ZM24.8218 53.356L26.1634 50.6727L26.1496 50.6658L26.1357 50.659L24.8218 53.356ZM20.5338 49.964L18.1584 51.7964L18.1876 51.8342L18.218 51.8711L20.5338 49.964ZM17.7818 44.716L14.9357 45.6647L14.9387 45.6737L14.9418 45.6828L17.7818 44.716ZM16.3738 38.06L19.3567 37.7404L19.1483 35.7958L17.2851 35.2018L16.3738 38.06ZM9.01375 33.644L6.82514 35.6958L6.84719 35.7193L6.86974 35.7424L9.01375 33.644ZM4.78975 26.988L7.59874 25.9346L7.59369 25.9212L7.58852 25.9078L4.78975 26.988ZM3.63775 19.756L6.63013 19.9697L6.63213 19.9417L6.6336 19.9137L3.63775 19.756ZM5.81375 13.612L8.16222 15.4787L8.18845 15.4457L8.21375 15.412L5.81375 13.612ZM7.79775 11.82L9.13938 14.5033L9.13939 14.5033L7.79775 11.82ZM12.6618 12.076L11.1733 14.6807L11.1991 14.6955L11.2252 14.7097L12.6618 12.076ZM15.2858 14.06L13.1644 16.1813L13.1931 16.21L13.2225 16.2379L15.2858 14.06ZM17.4618 16.684L14.9489 18.3228L14.9906 18.3868L15.0355 18.4485L17.4618 16.684ZM19.1258 19.436V22.436H23.8771L21.8343 18.1462L19.1258 19.436ZM18.9338 19.436L16.2273 20.7304L17.0431 22.436H18.9338V19.436ZM17.0138 17.26L15.4494 19.8198L15.4798 19.8384L15.5106 19.8563L17.0138 17.26ZM11.3177 17.324L10.0196 14.6194L9.99775 14.6299L9.97611 14.6407L11.3177 17.324ZM8.50175 19.756L10.821 21.6589L10.8509 21.6225L10.8796 21.5851L8.50175 19.756ZM6.32575 25.26L9.31939 25.4552L9.3216 25.4214L9.32304 25.3875L6.32575 25.26ZM7.60575 30.892L4.97446 32.3329L4.98753 32.3568L5.00102 32.3804L7.60575 30.892ZM12.1498 35.564L10.498 38.0683L10.51 38.0763L10.5222 38.0841L12.1498 35.564ZM19.5738 38.124L19.1801 41.0981L20.2686 35.2056L19.5738 38.124ZM17.2058 37.356L15.9371 40.0745L15.97 40.0899L16.0033 40.1045L17.2058 37.356ZM17.5258 27.82L20.3931 28.7023L20.3968 28.69L17.5258 27.82ZM20.9818 19.948L18.4132 18.398L18.4092 18.4046L18.4053 18.4112L20.9818 19.948ZM26.1658 13.228L24.0222 11.1291L24.0217 11.1296L26.1658 13.228ZM32.5018 7.98L34.1435 10.4909L34.1549 10.4834L32.5018 7.98ZM39.4778 4.524L38.5291 1.67795L38.5215 1.68048L38.5139 1.68306L39.4778 4.524ZM50.1018 3.948L49.0927 6.77322L49.1082 6.77876L49.1238 6.78412L50.1018 3.948ZM53.4938 5.932L51.5182 8.18973L51.541 8.20965L51.5642 8.22912L53.4938 5.932ZM56.1178 9.388L53.4183 10.6968L53.4263 10.7133L53.4345 10.7296L56.1178 9.388ZM55.7338 20.78L53.0066 19.53V19.53L55.7338 20.78ZM51.8938 26.54L49.6691 24.5273L49.6558 24.542L49.6427 24.5569L51.8938 26.54ZM46.3258 31.468L48.0127 33.9488L48.0295 33.9373L48.0461 33.9257L46.3258 31.468ZM39.4778 35.244L38.2728 32.4966L38.2638 32.5006L38.2548 32.5046L39.4778 35.244ZM32.0538 37.804L31.3261 34.8935L31.3146 34.8965L32.0538 37.804ZM24.6298 38.956L24.4721 35.9601L21.6968 36.1062L21.6306 38.8846L24.6298 38.956ZM24.7578 44.332L21.7654 44.5457L21.7657 44.5509L24.7578 44.332ZM25.5898 49.132L22.7117 49.9785L22.7268 50.0299L22.7437 50.0807L25.5898 49.132ZM27.5098 52.588L25.2851 54.6007L25.3109 54.6292L25.3373 54.657L27.5098 52.588ZM35.1898 52.844L33.778 50.1969L33.7441 50.215L33.7107 50.2339L35.1898 52.844ZM38.5178 50.092L36.234 48.1466L36.2128 48.1716L36.192 48.197L38.5178 50.092ZM41.0138 46.124L38.3152 44.8133L38.2999 44.8448L38.2853 44.8767L41.0138 46.124ZM42.8698 41.516L40.0161 40.5905V40.5905L42.8698 41.516ZM44.0858 36.844L41.1535 36.21L41.1469 36.2406L41.1409 36.2714L44.0858 36.844ZM44.9818 32.556L43.4383 29.9835L42.3003 30.6663L42.04 31.9677L44.9818 32.556ZM47.2858 31.084L48.9853 33.5561L49.0363 33.5211L49.0858 33.484L47.2858 31.084ZM51.1898 27.884L53.2367 30.0772L53.2416 30.0726L51.1898 27.884ZM28.0858 31.02H25.0858V33.2829L27.2616 33.9046L28.0858 31.02ZM28.3418 27.052L25.3623 26.7015L28.3418 27.052ZM29.1738 22.636L26.2892 21.8118L26.2782 21.8502L26.2683 21.8889L29.1738 22.636ZM30.8378 18.284L33.5372 19.5928L33.5448 19.5771L33.5522 19.5614L30.8378 18.284ZM33.2698 14.508L35.5219 16.4899L35.5411 16.468L35.5599 16.4458L33.2698 14.508ZM36.5978 11.82L38.0095 14.4671L38.0095 14.4671L36.5978 11.82ZM46.0698 11.884L44.7887 14.5967L44.8199 14.6114L44.8513 14.6254L46.0698 11.884ZM49.9738 14.7L47.7359 16.698V16.698L49.9738 14.7ZM52.4058 18.924L49.5673 19.8951L49.5828 19.9406L49.5999 19.9857L52.4058 18.924ZM53.3018 24.044H50.3018V33.4054L55.743 25.7877L53.3018 24.044ZM55.7978 19.436L52.9919 18.3743V18.3743L55.7978 19.436ZM55.7338 9.9L53.0333 11.2067L53.0418 11.2242L53.0505 11.2416L55.7338 9.9ZM53.1738 6.636L51.1982 8.89373L51.248 8.93728L51.2997 8.97861L53.1738 6.636ZM49.6538 4.716L48.7051 7.56205L48.7609 7.58064L48.8173 7.59704L49.6538 4.716ZM39.3498 5.74L37.9209 3.10212L37.9092 3.10846L37.8976 3.1149L39.3498 5.74ZM33.7818 10.348L36.0456 12.3165V12.3165L33.7818 10.348ZM29.2378 17.26L26.5545 15.9184L26.5458 15.9358L26.5373 15.9533L29.2378 17.26ZM26.0378 25.836L23.1472 25.0331L23.1404 25.0574L23.1341 25.0818L26.0378 25.836ZM24.6938 33.836L27.6931 33.8998L27.6931 33.8985L24.6938 33.836ZM24.6298 38.316H21.6298V41.4251L24.7368 41.3141L24.6298 38.316ZM35.3818 36.332L34.4331 33.4859L35.3818 36.332ZM45.2378 31.532L46.9101 34.0227L47.8825 33.3697L48.1553 32.2306L45.2378 31.532ZM46.7738 23.532L43.8061 23.0924L43.8021 23.1193L43.7986 23.1463L46.7738 23.532ZM46.9658 17.708L43.9928 18.1098L46.9658 17.708ZM45.3658 13.996L47.5382 11.927L47.5382 11.927L45.3658 13.996ZM41.5898 12.396L41.2083 15.3716L41.2459 15.3765L41.2837 15.3803L41.5898 12.396ZM37.1098 12.908L35.9496 10.1414L35.9332 10.1483L35.9169 10.1553L37.1098 12.908ZM31.2218 18.86L28.5385 17.5184L28.5385 17.5184L31.2218 18.86ZM29.5578 23.148L32.4358 23.9945L32.4391 23.9833L32.4423 23.9722L29.5578 23.148ZM28.6618 27.436L25.6835 27.075L25.6781 27.1196L25.6741 27.1644L28.6618 27.436ZM28.5338 31.148L27.7096 34.0326L31.6971 35.1719L31.5314 31.0281L28.5338 31.148ZM53.3658 25.772H50.3658C50.3658 25.7726 50.3658 25.7732 50.3658 25.7738C50.3658 25.7743 50.3658 25.7749 50.3658 25.7755C50.3658 25.7761 50.3658 25.7767 50.3658 25.7773C50.3658 25.7779 50.3658 25.7784 50.3658 25.779C50.3658 25.7796 50.3658 25.7802 50.3658 25.7808C50.3658 25.7814 50.3658 25.782 50.3658 25.7826C50.3658 25.7832 50.3658 25.7838 50.3658 25.7844C50.3658 25.785 50.3658 25.7855 50.3658 25.7861C50.3658 25.7867 50.3658 25.7873 50.3658 25.7879C50.3658 25.7885 50.3658 25.7891 50.3658 25.7897C50.3658 25.7903 50.3658 25.7909 50.3658 25.7915C50.3658 25.7921 50.3658 25.7927 50.3658 25.7933C50.3658 25.7939 50.3658 25.7945 50.3658 25.7951C50.3658 25.7957 50.3658 25.7963 50.3658 25.7969C50.3658 25.7975 50.3658 25.7981 50.3658 25.7987C50.3658 25.7993 50.3658 25.8 50.3658 25.8006C50.3658 25.8012 50.3658 25.8018 50.3658 25.8024C50.3658 25.803 50.3658 25.8036 50.3658 25.8042C50.3658 25.8048 50.3658 25.8054 50.3658 25.806C50.3658 25.8067 50.3658 25.8073 50.3658 25.8079C50.3658 25.8085 50.3658 25.8091 50.3658 25.8097C50.3658 25.8103 50.3658 25.8109 50.3658 25.8116C50.3658 25.8122 50.3658 25.8128 50.3658 25.8134C50.3658 25.814 50.3658 25.8146 50.3658 25.8153C50.3658 25.8159 50.3658 25.8165 50.3658 25.8171C50.3658 25.8177 50.3658 25.8184 50.3658 25.819C50.3658 25.8196 50.3658 25.8202 50.3658 25.8209C50.3658 25.8215 50.3658 25.8221 50.3658 25.8227C50.3658 25.8233 50.3658 25.824 50.3658 25.8246C50.3658 25.8252 50.3658 25.8258 50.3658 25.8265C50.3658 25.8271 50.3658 25.8277 50.3658 25.8284C50.3658 25.829 50.3658 25.8296 50.3658 25.8302C50.3658 25.8309 50.3658 25.8315 50.3658 25.8321C50.3658 25.8328 50.3658 25.8334 50.3658 25.834C50.3658 25.8347 50.3658 25.8353 50.3658 25.8359C50.3658 25.8366 50.3658 25.8372 50.3658 25.8378C50.3658 25.8385 50.3658 25.8391 50.3658 25.8398C50.3658 25.8404 50.3658 25.841 50.3658 25.8417C50.3658 25.8423 50.3658 25.843 50.3658 25.8436C50.3658 25.8442 50.3658 25.8449 50.3658 25.8455C50.3658 25.8462 50.3658 25.8468 50.3658 25.8474C50.3658 25.8481 50.3658 25.8487 50.3658 25.8494C50.3658 25.85 50.3658 25.8507 50.3658 25.8513C50.3658 25.852 50.3658 25.8526 50.3658 25.8533C50.3658 25.8539 50.3658 25.8545 50.3658 25.8552C50.3658 25.8558 50.3658 25.8565 50.3658 25.8571C50.3658 25.8578 50.3658 25.8585 50.3658 25.8591C50.3658 25.8598 50.3658 25.8604 50.3658 25.8611C50.3658 25.8617 50.3658 25.8624 50.3658 25.863C50.3658 25.8637 50.3658 25.8643 50.3658 25.865C50.3658 25.8656 50.3658 25.8663 50.3658 25.867C50.3658 25.8676 50.3658 25.8683 50.3658 25.8689C50.3658 25.8696 50.3658 25.8703 50.3658 25.8709C50.3658 25.8716 50.3658 25.8722 50.3658 25.8729C50.3658 25.8736 50.3658 25.8742 50.3658 25.8749C50.3658 25.8756 50.3658 25.8762 50.3658 25.8769C50.3658 25.8776 50.3658 25.8782 50.3658 25.8789C50.3658 25.8796 50.3658 25.8802 50.3658 25.8809C50.3658 25.8816 50.3658 25.8822 50.3658 25.8829C50.3658 25.8836 50.3658 25.8842 50.3658 25.8849C50.3658 25.8856 50.3658 25.8863 50.3658 25.8869C50.3658 25.8876 50.3658 25.8883 50.3658 25.8889C50.3658 25.8896 50.3658 25.8903 50.3658 25.891C50.3658 25.8916 50.3658 25.8923 50.3658 25.893C50.3658 25.8937 50.3658 25.8944 50.3658 25.895C50.3658 25.8957 50.3658 25.8964 50.3658 25.8971C50.3658 25.8978 50.3658 25.8984 50.3658 25.8991C50.3658 25.8998 50.3658 25.9005 50.3658 25.9012C50.3658 25.9018 50.3658 25.9025 50.3658 25.9032C50.3658 25.9039 50.3658 25.9046 50.3658 25.9053C50.3658 25.906 50.3658 25.9066 50.3658 25.9073C50.3658 25.908 50.3658 25.9087 50.3658 25.9094C50.3658 25.9101 50.3658 25.9108 50.3658 25.9115C50.3658 25.9121 50.3658 25.9128 50.3658 25.9135C50.3658 25.9142 50.3658 25.9149 50.3658 25.9156C50.3658 25.9163 50.3658 25.917 50.3658 25.9177C50.3658 25.9184 50.3658 25.9191 50.3658 25.9198C50.3658 25.9205 50.3658 25.9212 50.3658 25.9219C50.3658 25.9226 50.3658 25.9233 50.3658 25.924C50.3658 25.9247 50.3658 25.9254 50.3658 25.9261C50.3658 25.9268 50.3658 25.9275 50.3658 25.9282C50.3658 25.9289 50.3658 25.9296 50.3658 25.9303C50.3658 25.931 50.3658 25.9317 50.3658 25.9324C50.3658 25.9331 50.3658 25.9338 50.3658 25.9345C50.3658 25.9352 50.3658 25.9359 50.3658 25.9366C50.3658 25.9373 50.3658 25.938 50.3658 25.9388C50.3658 25.9395 50.3658 25.9402 50.3658 25.9409C50.3658 25.9416 50.3658 25.9423 50.3658 25.943C50.3658 25.9437 50.3658 25.9444 50.3658 25.9452C50.3658 25.9459 50.3658 25.9466 50.3658 25.9473C50.3658 25.948 50.3658 25.9487 50.3658 25.9494C50.3658 25.9502 50.3658 25.9509 50.3658 25.9516C50.3658 25.9523 50.3658 25.953 50.3658 25.9538C50.3658 25.9545 50.3658 25.9552 50.3658 25.9559C50.3658 25.9566 50.3658 25.9574 50.3658 25.9581C50.3658 25.9588 50.3658 25.9595 50.3658 25.9602C50.3658 25.961 50.3658 25.9617 50.3658 25.9624C50.3658 25.9631 50.3658 25.9639 50.3658 25.9646C50.3658 25.9653 50.3658 25.9661 50.3658 25.9668C50.3658 25.9675 50.3658 25.9682 50.3658 25.969C50.3658 25.9697 50.3658 25.9704 50.3658 25.9712C50.3658 25.9719 50.3658 25.9726 50.3658 25.9734C50.3658 25.9741 50.3658 25.9748 50.3658 25.9756C50.3658 25.9763 50.3658 25.977 50.3658 25.9778C50.3658 25.9785 50.3658 25.9792 50.3658 25.98C50.3658 25.9807 50.3658 25.9814 50.3658 25.9822C50.3658 25.9829 50.3658 25.9837 50.3658 25.9844C50.3658 25.9851 50.3658 25.9859 50.3658 25.9866C50.3658 25.9874 50.3658 25.9881 50.3658 25.9889C50.3658 25.9896 50.3658 25.9903 50.3658 25.9911C50.3658 25.9918 50.3658 25.9926 50.3658 25.9933C50.3658 25.9941 50.3658 25.9948 50.3658 25.9956C50.3658 25.9963 50.3658 25.9971 50.3658 25.9978C50.3658 25.9986 50.3658 25.9993 50.3658 26.0001C50.3658 26.0008 50.3658 26.0016 50.3658 26.0023C50.3658 26.0031 50.3658 26.0038 50.3658 26.0046C50.3658 26.0053 50.3658 26.0061 50.3658 26.0068C50.3658 26.0076 50.3658 26.0083 50.3658 26.0091C50.3658 26.0098 50.3658 26.0106 50.3658 26.0114C50.3658 26.0121 50.3658 26.0129 50.3658 26.0136C50.3658 26.0144 50.3658 26.0152 50.3658 26.0159C50.3658 26.0167 50.3658 26.0174 50.3658 26.0182C50.3658 26.019 50.3658 26.0197 50.3658 26.0205C50.3658 26.0213 50.3658 26.022 50.3658 26.0228C50.3658 26.0236 50.3658 26.0243 50.3658 26.0251C50.3658 26.0258 50.3658 26.0266 50.3658 26.0274C50.3658 26.0282 50.3658 26.0289 50.3658 26.0297C50.3658 26.0305 50.3658 26.0312 50.3658 26.032C50.3658 26.0328 50.3658 26.0335 50.3658 26.0343C50.3658 26.0351 50.3658 26.0359 50.3658 26.0366C50.3658 26.0374 50.3658 26.0382 50.3658 26.039C50.3658 26.0397 50.3658 26.0405 50.3658 26.0413C50.3658 26.0421 50.3658 26.0428 50.3658 26.0436C50.3658 26.0444 50.3658 26.0452 50.3658 26.046C50.3658 26.0467 50.3658 26.0475 50.3658 26.0483C50.3658 26.0491 50.3658 26.0499 50.3658 26.0506C50.3658 26.0514 50.3658 26.0522 50.3658 26.053C50.3658 26.0538 50.3658 26.0546 50.3658 26.0553C50.3658 26.0561 50.3658 26.0569 50.3658 26.0577C50.3658 26.0585 50.3658 26.0593 50.3658 26.0601C50.3658 26.0609 50.3658 26.0616 50.3658 26.0624C50.3658 26.0632 50.3658 26.064 50.3658 26.0648C50.3658 26.0656 50.3658 26.0664 50.3658 26.0672C50.3658 26.068 50.3658 26.0688 50.3658 26.0696C50.3658 26.0704 50.3658 26.0712 50.3658 26.0719C50.3658 26.0727 50.3658 26.0735 50.3658 26.0743C50.3658 26.0751 50.3658 26.0759 50.3658 26.0767C50.3658 26.0775 50.3658 26.0783 50.3658 26.0791C50.3658 26.0799 50.3658 26.0807 50.3658 26.0815C50.3658 26.0823 50.3658 26.0831 50.3658 26.0839C50.3658 26.0847 50.3658 26.0855 50.3658 26.0863C50.3658 26.0872 50.3658 26.088 50.3658 26.0888C50.3658 26.0896 50.3658 26.0904 50.3658 26.0912C50.3658 26.092 50.3658 26.0928 50.3658 26.0936C50.3658 26.0944 50.3658 26.0952 50.3658 26.096C50.3658 26.0968 50.3658 26.0977 50.3658 26.0985C50.3658 26.0993 50.3658 26.1001 50.3658 26.1009C50.3658 26.1017 50.3658 26.1025 50.3658 26.1034C50.3658 26.1042 50.3658 26.105 50.3658 26.1058C50.3658 26.1066 50.3658 26.1074 50.3658 26.1082C50.3658 26.1091 50.3658 26.1099 50.3658 26.1107C50.3658 26.1115 50.3658 26.1123 50.3658 26.1132C50.3658 26.114 50.3658 26.1148 50.3658 26.1156C50.3658 26.1165 50.3658 26.1173 50.3658 26.1181C50.3658 26.1189 50.3658 26.1197 50.3658 26.1206C50.3658 26.1214 50.3658 26.1222 50.3658 26.123C50.3658 26.1239 50.3658 26.1247 50.3658 26.1255C50.3658 26.1264 50.3658 26.1272 50.3658 26.128C50.3658 26.1288 50.3658 26.1297 50.3658 26.1305C50.3658 26.1313 50.3658 26.1322 50.3658 26.133C50.3658 26.1338 50.3658 26.1347 50.3658 26.1355C50.3658 26.1363 50.3658 26.1372 50.3658 26.138C50.3658 26.1388 50.3658 26.1397 50.3658 26.1405C50.3658 26.1413 50.3658 26.1422 50.3658 26.143C50.3658 26.1439 50.3658 26.1447 50.3658 26.1455C50.3658 26.1464 50.3658 26.1472 50.3658 26.1481C50.3658 26.1489 50.3658 26.1497 50.3658 26.1506C50.3658 26.1514 50.3658 26.1523 50.3658 26.1531C50.3658 26.154 50.3658 26.1548 50.3658 26.1557C50.3658 26.1565 50.3658 26.1573 50.3658 26.1582C50.3658 26.159 50.3658 26.1599 50.3658 26.1607C50.3658 26.1616 50.3658 26.1624 50.3658 26.1633C50.3658 26.1641 50.3658 26.165 50.3658 26.1658C50.3658 26.1667 50.3658 26.1675 50.3658 26.1684C50.3658 26.1692 50.3658 26.1701 50.3658 26.1709C50.3658 26.1718 50.3658 26.1727 50.3658 26.1735C50.3658 26.1744 50.3658 26.1752 50.3658 26.1761C50.3658 26.1769 50.3658 26.1778 50.3658 26.1787C50.3658 26.1795 50.3658 26.1804 50.3658 26.1812C50.3658 26.1821 50.3658 26.183 50.3658 26.1838C50.3658 26.1847 50.3658 26.1855 50.3658 26.1864C50.3658 26.1873 50.3658 26.1881 50.3658 26.189C50.3658 26.1899 50.3658 26.1907 50.3658 26.1916C50.3658 26.1925 50.3658 26.1933 50.3658 26.1942C50.3658 26.1951 50.3658 26.1959 50.3658 26.1968C50.3658 26.1977 50.3658 26.1985 50.3658 26.1994C50.3658 26.2003 50.3658 26.2012 50.3658 26.202C50.3658 26.2029 50.3658 26.2038 50.3658 26.2046C50.3658 26.2055 50.3658 26.2064 50.3658 26.2073C50.3658 26.2081 50.3658 26.209 50.3658 26.2099C50.3658 26.2108 50.3658 26.2116 50.3658 26.2125C50.3658 26.2134 50.3658 26.2143 50.3658 26.2152C50.3658 26.216 50.3658 26.2169 50.3658 26.2178C50.3658 26.2187 50.3658 26.2196 50.3658 26.2204C50.3658 26.2213 50.3658 26.2222 50.3658 26.2231C50.3658 26.224 50.3658 26.2249 50.3658 26.2257C50.3658 26.2266 50.3658 26.2275 50.3658 26.2284C50.3658 26.2293 50.3658 26.2302 50.3658 26.2311C50.3658 26.232 50.3658 26.2328 50.3658 26.2337C50.3658 26.2346 50.3658 26.2355 50.3658 26.2364C50.3658 26.2373 50.3658 26.2382 50.3658 26.2391C50.3658 26.24 50.3658 26.2409 50.3658 26.2418C50.3658 26.2426 50.3658 26.2435 50.3658 26.2444C50.3658 26.2453 50.3658 26.2462 50.3658 26.2471C50.3658 26.248 50.3658 26.2489 50.3658 26.2498C50.3658 26.2507 50.3658 26.2516 50.3658 26.2525C50.3658 26.2534 50.3658 26.2543 50.3658 26.2552C50.3658 26.2561 50.3658 26.257 50.3658 26.2579C50.3658 26.2588 50.3658 26.2597 50.3658 26.2606C50.3658 26.2615 50.3658 26.2624 50.3658 26.2633C50.3658 26.2643 50.3658 26.2652 50.3658 26.2661C50.3658 26.267 50.3658 26.2679 50.3658 26.2688C50.3658 26.2697 50.3658 26.2706 50.3658 26.2715C50.3658 26.2724 50.3658 26.2733 50.3658 26.2743C50.3658 26.2752 50.3658 26.2761 50.3658 26.277C50.3658 26.2779 50.3658 26.2788 50.3658 26.2797C50.3658 26.2806 50.3658 26.2816 50.3658 26.2825C50.3658 26.2834 50.3658 26.2843 50.3658 26.2852C50.3658 26.2861 50.3658 26.2871 50.3658 26.288C50.3658 26.2889 50.3658 26.2898 50.3658 26.2907C50.3658 26.2917 50.3658 26.2926 50.3658 26.2935C50.3658 26.2944 50.3658 26.2953 50.3658 26.2963C50.3658 26.2972 50.3658 26.2981 50.3658 26.299C50.3658 26.3 50.3658 26.3009 50.3658 26.3018C50.3658 26.3027 50.3658 26.3037 50.3658 26.3046C50.3658 26.3055 50.3658 26.3064 50.3658 26.3074C50.3658 26.3083 50.3658 26.3092 50.3658 26.3102C50.3658 26.3111 50.3658 26.312 50.3658 26.313C50.3658 26.3139 50.3658 26.3148 50.3658 26.3158C50.3658 26.3167 50.3658 26.3176 50.3658 26.3186C50.3658 26.3195 50.3658 26.3204 50.3658 26.3214C50.3658 26.3223 50.3658 26.3232 50.3658 26.3242C50.3658 26.3251 50.3658 26.3261 50.3658 26.327C50.3658 26.3279 50.3658 26.3289 50.3658 26.3298C50.3658 26.3308 50.3658 26.3317 50.3658 26.3326C50.3658 26.3336 50.3658 26.3345 50.3658 26.3355C50.3658 26.3364 50.3658 26.3374 50.3658 26.3383C50.3658 26.3392 50.3658 26.3402 50.3658 26.3411C50.3658 26.3421 50.3658 26.343 50.3658 26.344C50.3658 26.3449 50.3658 26.3459 50.3658 26.3468C50.3658 26.3478 50.3658 26.3487 50.3658 26.3497C50.3658 26.3506 50.3658 26.3516 50.3658 26.3525C50.3658 26.3535 50.3658 26.3544 50.3658 26.3554C50.3658 26.3563 50.3658 26.3573 50.3658 26.3583C50.3658 26.3592 50.3658 26.3602 50.3658 26.3611C50.3658 26.3621 50.3658 26.363 50.3658 26.364C50.3658 26.365 50.3658 26.3659 50.3658 26.3669C50.3658 26.3678 50.3658 26.3688 50.3658 26.3698C50.3658 26.3707 50.3658 26.3717 50.3658 26.3726C50.3658 26.3736 50.3658 26.3746 50.3658 26.3755C50.3658 26.3765 50.3658 26.3775 50.3658 26.3784C50.3658 26.3794 50.3658 26.3804 50.3658 26.3813C50.3658 26.3823 50.3658 26.3833 50.3658 26.3842C50.3658 26.3852 50.3658 26.3862 50.3658 26.3871C50.3658 26.3881 50.3658 26.3891 50.3658 26.3901C50.3658 26.391 50.3658 26.392 50.3658 26.393C50.3658 26.3939 50.3658 26.3949 50.3658 26.3959C50.3658 26.3969 50.3658 26.3978 50.3658 26.3988C50.3658 26.3998 50.3658 26.4008 50.3658 26.4017C50.3658 26.4027 50.3658 26.4037 50.3658 26.4047C50.3658 26.4057 50.3658 26.4066 50.3658 26.4076C50.3658 26.4086 50.3658 26.4096 50.3658 26.4106C50.3658 26.4115 50.3658 26.4125 50.3658 26.4135C50.3658 26.4145 50.3658 26.4155 50.3658 26.4165C50.3658 26.4174 50.3658 26.4184 50.3658 26.4194C50.3658 26.4204 50.3658 26.4214 50.3658 26.4224C50.3658 26.4234 50.3658 26.4244 50.3658 26.4253C50.3658 26.4263 50.3658 26.4273 50.3658 26.4283C50.3658 26.4293 50.3658 26.4303 50.3658 26.4313C50.3658 26.4323 50.3658 26.4333 50.3658 26.4343C50.3658 26.4353 50.3658 26.4363 50.3658 26.4372C50.3658 26.4382 50.3658 26.4392 50.3658 26.4402C50.3658 26.4412 50.3658 26.4422 50.3658 26.4432C50.3658 26.4442 50.3658 26.4452 50.3658 26.4462C50.3658 26.4472 50.3658 26.4482 50.3658 26.4492C50.3658 26.4502 50.3658 26.4512 50.3658 26.4522C50.3658 26.4532 50.3658 26.4542 50.3658 26.4552C50.3658 26.4562 50.3658 26.4572 50.3658 26.4583C50.3658 26.4593 50.3658 26.4603 50.3658 26.4613C50.3658 26.4623 50.3658 26.4633 50.3658 26.4643C50.3658 26.4653 50.3658 26.4663 50.3658 26.4673C50.3658 26.4683 50.3658 26.4693 50.3658 26.4703C50.3658 26.4714 50.3658 26.4724 50.3658 26.4734C50.3658 26.4744 50.3658 26.4754 50.3658 26.4764C50.3658 26.4774 50.3658 26.4785 50.3658 26.4795C50.3658 26.4805 50.3658 26.4815 50.3658 26.4825C50.3658 26.4835 50.3658 26.4846 50.3658 26.4856C50.3658 26.4866 50.3658 26.4876 50.3658 26.4886C50.3658 26.4896 50.3658 26.4907 50.3658 26.4917C50.3658 26.4927 50.3658 26.4937 50.3658 26.4948C50.3658 26.4958 50.3658 26.4968 50.3658 26.4978C50.3658 26.4988 50.3658 26.4999 50.3658 26.5009C50.3658 26.5019 50.3658 26.503 50.3658 26.504C50.3658 26.505 50.3658 26.506 50.3658 26.5071C50.3658 26.5081 50.3658 26.5091 50.3658 26.5102C50.3658 26.5112 50.3658 26.5122 50.3658 26.5132C50.3658 26.5143 50.3658 26.5153 50.3658 26.5163C50.3658 26.5174 50.3658 26.5184 50.3658 26.5194C50.3658 26.5205 50.3658 26.5215 50.3658 26.5225C50.3658 26.5236 50.3658 26.5246 50.3658 26.5257C50.3658 26.5267 50.3658 26.5277 50.3658 26.5288C50.3658 26.5298 50.3658 26.5308 50.3658 26.5319C50.3658 26.5329 50.3658 26.534 50.3658 26.535C50.3658 26.5361 50.3658 26.5371 50.3658 26.5381C50.3658 26.5392 50.3658 26.5402 50.3658 26.5413C50.3658 26.5423 50.3658 26.5434 50.3658 26.5444C50.3658 26.5455 50.3658 26.5465 50.3658 26.5476C50.3658 26.5486 50.3658 26.5496 50.3658 26.5507C50.3658 26.5517 50.3658 26.5528 50.3658 26.5538C50.3658 26.5549 50.3658 26.5559 50.3658 26.557C50.3658 26.5581 50.3658 26.5591 50.3658 26.5602C50.3658 26.5612 50.3658 26.5623 50.3658 26.5633C50.3658 26.5644 50.3658 26.5654 50.3658 26.5665C50.3658 26.5675 50.3658 26.5686 50.3658 26.5697C50.3658 26.5707 50.3658 26.5718 50.3658 26.5728C50.3658 26.5739 50.3658 26.575 50.3658 26.576C50.3658 26.5771 50.3658 26.5781 50.3658 26.5792C50.3658 26.5803 50.3658 26.5813 50.3658 26.5824C50.3658 26.5835 50.3658 26.5845 50.3658 26.5856C50.3658 26.5866 50.3658 26.5877 50.3658 26.5888C50.3658 26.5898 50.3658 26.5909 50.3658 26.592C50.3658 26.5931 50.3658 26.5941 50.3658 26.5952C50.3658 26.5963 50.3658 26.5973 50.3658 26.5984C50.3658 26.5995 50.3658 26.6005 50.3658 26.6016C50.3658 26.6027 50.3658 26.6038 50.3658 26.6048C50.3658 26.6059 50.3658 26.607 50.3658 26.6081C50.3658 26.6091 50.3658 26.6102 50.3658 26.6113C50.3658 26.6124 50.3658 26.6134 50.3658 26.6145C50.3658 26.6156 50.3658 26.6167 50.3658 26.6178C50.3658 26.6188 50.3658 26.6199 50.3658 26.621C50.3658 26.6221 50.3658 26.6232 50.3658 26.6243C50.3658 26.6253 50.3658 26.6264 50.3658 26.6275C50.3658 26.6286 50.3658 26.6297 50.3658 26.6308C50.3658 26.6318 50.3658 26.6329 50.3658 26.634C50.3658 26.6351 50.3658 26.6362 50.3658 26.6373C50.3658 26.6384 50.3658 26.6395 50.3658 26.6405C50.3658 26.6416 50.3658 26.6427 50.3658 26.6438C50.3658 26.6449 50.3658 26.646 50.3658 26.6471C50.3658 26.6482 50.3658 26.6493 50.3658 26.6504C50.3658 26.6515 50.3658 26.6526 50.3658 26.6537C50.3658 26.6548 50.3658 26.6559 50.3658 26.657C50.3658 26.6581 50.3658 26.6592 50.3658 26.6602C50.3658 26.6613 50.3658 26.6624 50.3658 26.6635C50.3658 26.6646 50.3658 26.6658 50.3658 26.6669C50.3658 26.668 50.3658 26.6691 50.3658 26.6702C50.3658 26.6713 50.3658 26.6724 50.3658 26.6735C50.3658 26.6746 50.3658 26.6757 50.3658 26.6768C50.3658 26.6779 50.3658 26.679 50.3658 26.6801C50.3658 26.6812 50.3658 26.6823 50.3658 26.6834C50.3658 26.6845 50.3658 26.6857 50.3658 26.6868C50.3658 26.6879 50.3658 26.689 50.3658 26.6901C50.3658 26.6912 50.3658 26.6923 50.3658 26.6934C50.3658 26.6946 50.3658 26.6957 50.3658 26.6968C50.3658 26.6979 50.3658 26.699 50.3658 26.7001C50.3658 26.7012 50.3658 26.7024 50.3658 26.7035C50.3658 26.7046 50.3658 26.7057 50.3658 26.7068C50.3658 26.708 50.3658 26.7091 50.3658 26.7102C50.3658 26.7113 50.3658 26.7124 50.3658 26.7136C50.3658 26.7147 50.3658 26.7158 50.3658 26.7169C50.3658 26.7181 50.3658 26.7192 50.3658 26.7203C50.3658 26.7214 50.3658 26.7226 50.3658 26.7237C50.3658 26.7248 50.3658 26.7259 50.3658 26.7271C50.3658 26.7282 50.3658 26.7293 50.3658 26.7305C50.3658 26.7316 50.3658 26.7327 50.3658 26.7338C50.3658 26.735 50.3658 26.7361 50.3658 26.7372C50.3658 26.7384 50.3658 26.7395 50.3658 26.7406C50.3658 26.7418 50.3658 26.7429 50.3658 26.744C50.3658 26.7452 50.3658 26.7463 50.3658 26.7475C50.3658 26.7486 50.3658 26.7497 50.3658 26.7509C50.3658 26.752 50.3658 26.7531 50.3658 26.7543C50.3658 26.7554 50.3658 26.7566 50.3658 26.7577C50.3658 26.7588 50.3658 26.76 50.3658 26.7611C50.3658 26.7623 50.3658 26.7634 50.3658 26.7646C50.3658 26.7657 50.3658 26.7669 50.3658 26.768C50.3658 26.7691 50.3658 26.7703 50.3658 26.7714C50.3658 26.7726 50.3658 26.7737 50.3658 26.7749C50.3658 26.776 50.3658 26.7772 50.3658 26.7783C50.3658 26.7795 50.3658 26.7806 50.3658 26.7818C50.3658 26.7829 50.3658 26.7841 50.3658 26.7852C50.3658 26.7864 50.3658 26.7875 50.3658 26.7887C50.3658 26.7899 50.3658 26.791 50.3658 26.7922C50.3658 26.7933 50.3658 26.7945 50.3658 26.7956C50.3658 26.7968 50.3658 26.798 50.3658 26.7991C50.3658 26.8003 50.3658 26.8014 50.3658 26.8026C50.3658 26.8038 50.3658 26.8049 50.3658 26.8061C50.3658 26.8072 50.3658 26.8084 50.3658 26.8096C50.3658 26.8107 50.3658 26.8119 50.3658 26.8131C50.3658 26.8142 50.3658 26.8154 50.3658 26.8166C50.3658 26.8177 50.3658 26.8189 50.3658 26.8201C50.3658 26.8212 50.3658 26.8224 50.3658 26.8236C50.3658 26.8247 50.3658 26.8259 50.3658 26.8271C50.3658 26.8282 50.3658 26.8294 50.3658 26.8306C50.3658 26.8318 50.3658 26.8329 50.3658 26.8341C50.3658 26.8353 50.3658 26.8365 50.3658 26.8376C50.3658 26.8388 50.3658 26.84 50.3658 26.8412C50.3658 26.8423 50.3658 26.8435 50.3658 26.8447C50.3658 26.8459 50.3658 26.847 50.3658 26.8482C50.3658 26.8494 50.3658 26.8506 50.3658 26.8518C50.3658 26.8529 50.3658 26.8541 50.3658 26.8553C50.3658 26.8565 50.3658 26.8577 50.3658 26.8589C50.3658 26.86 50.3658 26.8612 50.3658 26.8624C50.3658 26.8636 50.3658 26.8648 50.3658 26.866C50.3658 26.8672 50.3658 26.8683 50.3658 26.8695C50.3658 26.8707 50.3658 26.8719 50.3658 26.8731C50.3658 26.8743 50.3658 26.8755 50.3658 26.8767C50.3658 26.8779 50.3658 26.8791 50.3658 26.8802C50.3658 26.8814 50.3658 26.8826 50.3658 26.8838C50.3658 26.885 50.3658 26.8862 50.3658 26.8874C50.3658 26.8886 50.3658 26.8898 50.3658 26.891C50.3658 26.8922 50.3658 26.8934 50.3658 26.8946C50.3658 26.8958 50.3658 26.897 50.3658 26.8982C50.3658 26.8994 50.3658 26.9006 50.3658 26.9018C50.3658 26.903 50.3658 26.9042 50.3658 26.9054C50.3658 26.9066 50.3658 26.9078 50.3658 26.909C50.3658 26.9102 50.3658 26.9114 50.3658 26.9126C50.3658 26.9138 50.3658 26.915 50.3658 26.9163C50.3658 26.9175 50.3658 26.9187 50.3658 26.9199C50.3658 26.9211 50.3658 26.9223 50.3658 26.9235C50.3658 26.9247 50.3658 26.9259 50.3658 26.9271C50.3658 26.9283 50.3658 26.9296 50.3658 26.9308C50.3658 26.932 50.3658 26.9332 50.3658 26.9344C50.3658 26.9356 50.3658 26.9368 50.3658 26.9381C50.3658 26.9393 50.3658 26.9405 50.3658 26.9417C50.3658 26.9429 50.3658 26.9441 50.3658 26.9454C50.3658 26.9466 50.3658 26.9478 50.3658 26.949C50.3658 26.9502 50.3658 26.9515 50.3658 26.9527C50.3658 26.9539 50.3658 26.9551 50.3658 26.9564C50.3658 26.9576 50.3658 26.9588 50.3658 26.96C50.3658 26.9613 50.3658 26.9625 50.3658 26.9637C50.3658 26.9649 50.3658 26.9662 50.3658 26.9674C50.3658 26.9686 50.3658 26.9698 50.3658 26.9711C50.3658 26.9723 50.3658 26.9735 50.3658 26.9748C50.3658 26.976 50.3658 26.9772 50.3658 26.9785C50.3658 26.9797 50.3658 26.9809 50.3658 26.9822C50.3658 26.9834 50.3658 26.9846 50.3658 26.9859C50.3658 26.9871 50.3658 26.9883 50.3658 26.9896C50.3658 26.9908 50.3658 26.992 50.3658 26.9933C50.3658 26.9945 50.3658 26.9958 50.3658 26.997C50.3658 26.9982 50.3658 26.9995 50.3658 27.0007C50.3658 27.002 50.3658 27.0032 50.3658 27.0044C50.3658 27.0057 50.3658 27.0069 50.3658 27.0082C50.3658 27.0094 50.3658 27.0107 50.3658 27.0119C50.3658 27.0132 50.3658 27.0144 50.3658 27.0156C50.3658 27.0169 50.3658 27.0181 50.3658 27.0194C50.3658 27.0206 50.3658 27.0219 50.3658 27.0231C50.3658 27.0244 50.3658 27.0256 50.3658 27.0269C50.3658 27.0281 50.3658 27.0294 50.3658 27.0306C50.3658 27.0319 50.3658 27.0332 50.3658 27.0344C50.3658 27.0357 50.3658 27.0369 50.3658 27.0382C50.3658 27.0394 50.3658 27.0407 50.3658 27.0419C50.3658 27.0432 50.3658 27.0445 50.3658 27.0457C50.3658 27.047 50.3658 27.0482 50.3658 27.0495C50.3658 27.0508 50.3658 27.052 50.3658 27.0533C50.3658 27.0545 50.3658 27.0558 50.3658 27.0571C50.3658 27.0583 50.3658 27.0596 50.3658 27.0609C50.3658 27.0621 50.3658 27.0634 50.3658 27.0646C50.3658 27.0659 50.3658 27.0672 50.3658 27.0684C50.3658 27.0697 50.3658 27.071 50.3658 27.0723C50.3658 27.0735 50.3658 27.0748 50.3658 27.0761C50.3658 27.0773 50.3658 27.0786 50.3658 27.0799C50.3658 27.0811 50.3658 27.0824 50.3658 27.0837C50.3658 27.085 50.3658 27.0862 50.3658 27.0875C50.3658 27.0888 50.3658 27.0901 50.3658 27.0913C50.3658 27.0926 50.3658 27.0939 50.3658 27.0952C50.3658 27.0965 50.3658 27.0977 50.3658 27.099C50.3658 27.1003 50.3658 27.1016 50.3658 27.1028C50.3658 27.1041 50.3658 27.1054 50.3658 27.1067C50.3658 27.108 50.3658 27.1093 50.3658 27.1105C50.3658 27.1118 50.3658 27.1131 50.3658 27.1144C50.3658 27.1157 50.3658 27.117 50.3658 27.1182C50.3658 27.1195 50.3658 27.1208 50.3658 27.1221C50.3658 27.1234 50.3658 27.1247 50.3658 27.126C50.3658 27.1273 50.3658 27.1286 50.3658 27.1298C50.3658 27.1311 50.3658 27.1324 50.3658 27.1337C50.3658 27.135 50.3658 27.1363 50.3658 27.1376C50.3658 27.1389 50.3658 27.1402 50.3658 27.1415C50.3658 27.1428 50.3658 27.1441 50.3658 27.1454C50.3658 27.1467 50.3658 27.148 50.3658 27.1493C50.3658 27.1506 50.3658 27.1519 50.3658 27.1532C50.3658 27.1545 50.3658 27.1558 50.3658 27.1571C50.3658 27.1584 50.3658 27.1597 50.3658 27.161C50.3658 27.1623 50.3658 27.1636 50.3658 27.1649C50.3658 27.1662 50.3658 27.1675 50.3658 27.1688C50.3658 27.1701 50.3658 27.1714 50.3658 27.1727C50.3658 27.174 50.3658 27.1753 50.3658 27.1766C50.3658 27.1779 50.3658 27.1793 50.3658 27.1806C50.3658 27.1819 50.3658 27.1832 50.3658 27.1845C50.3658 27.1858 50.3658 27.1871 50.3658 27.1884C50.3658 27.1897 50.3658 27.1911 50.3658 27.1924C50.3658 27.1937 50.3658 27.195 50.3658 27.1963C50.3658 27.1976 50.3658 27.1989 50.3658 27.2003C50.3658 27.2016 50.3658 27.2029 50.3658 27.2042C50.3658 27.2055 50.3658 27.2069 50.3658 27.2082C50.3658 27.2095 50.3658 27.2108 50.3658 27.2121C50.3658 27.2135 50.3658 27.2148 50.3658 27.2161C50.3658 27.2174 50.3658 27.2188 50.3658 27.2201C50.3658 27.2214 50.3658 27.2227 50.3658 27.2241C50.3658 27.2254 50.3658 27.2267 50.3658 27.228C50.3658 27.2294 50.3658 27.2307 50.3658 27.232C50.3658 27.2333 50.3658 27.2347 50.3658 27.236C50.3658 27.2373 50.3658 27.2387 50.3658 27.24C50.3658 27.2413 50.3658 27.2427 50.3658 27.244H53.3658H56.3658C56.3658 27.2427 56.3658 27.2413 56.3658 27.24C56.3658 27.2387 56.3658 27.2373 56.3658 27.236C56.3658 27.2347 56.3658 27.2333 56.3658 27.232C56.3658 27.2307 56.3658 27.2294 56.3658 27.228C56.3658 27.2267 56.3658 27.2254 56.3658 27.2241C56.3658 27.2227 56.3658 27.2214 56.3658 27.2201C56.3658 27.2188 56.3658 27.2174 56.3658 27.2161C56.3658 27.2148 56.3658 27.2135 56.3658 27.2121C56.3658 27.2108 56.3658 27.2095 56.3658 27.2082C56.3658 27.2069 56.3658 27.2055 56.3658 27.2042C56.3658 27.2029 56.3658 27.2016 56.3658 27.2003C56.3658 27.1989 56.3658 27.1976 56.3658 27.1963C56.3658 27.195 56.3658 27.1937 56.3658 27.1924C56.3658 27.1911 56.3658 27.1897 56.3658 27.1884C56.3658 27.1871 56.3658 27.1858 56.3658 27.1845C56.3658 27.1832 56.3658 27.1819 56.3658 27.1806C56.3658 27.1793 56.3658 27.1779 56.3658 27.1766C56.3658 27.1753 56.3658 27.174 56.3658 27.1727C56.3658 27.1714 56.3658 27.1701 56.3658 27.1688C56.3658 27.1675 56.3658 27.1662 56.3658 27.1649C56.3658 27.1636 56.3658 27.1623 56.3658 27.161C56.3658 27.1597 56.3658 27.1584 56.3658 27.1571C56.3658 27.1558 56.3658 27.1545 56.3658 27.1532C56.3658 27.1519 56.3658 27.1506 56.3658 27.1493C56.3658 27.148 56.3658 27.1467 56.3658 27.1454C56.3658 27.1441 56.3658 27.1428 56.3658 27.1415C56.3658 27.1402 56.3658 27.1389 56.3658 27.1376C56.3658 27.1363 56.3658 27.135 56.3658 27.1337C56.3658 27.1324 56.3658 27.1311 56.3658 27.1298C56.3658 27.1286 56.3658 27.1273 56.3658 27.126C56.3658 27.1247 56.3658 27.1234 56.3658 27.1221C56.3658 27.1208 56.3658 27.1195 56.3658 27.1182C56.3658 27.117 56.3658 27.1157 56.3658 27.1144C56.3658 27.1131 56.3658 27.1118 56.3658 27.1105C56.3658 27.1093 56.3658 27.108 56.3658 27.1067C56.3658 27.1054 56.3658 27.1041 56.3658 27.1028C56.3658 27.1016 56.3658 27.1003 56.3658 27.099C56.3658 27.0977 56.3658 27.0965 56.3658 27.0952C56.3658 27.0939 56.3658 27.0926 56.3658 27.0913C56.3658 27.0901 56.3658 27.0888 56.3658 27.0875C56.3658 27.0862 56.3658 27.085 56.3658 27.0837C56.3658 27.0824 56.3658 27.0811 56.3658 27.0799C56.3658 27.0786 56.3658 27.0773 56.3658 27.0761C56.3658 27.0748 56.3658 27.0735 56.3658 27.0723C56.3658 27.071 56.3658 27.0697 56.3658 27.0684C56.3658 27.0672 56.3658 27.0659 56.3658 27.0646C56.3658 27.0634 56.3658 27.0621 56.3658 27.0609C56.3658 27.0596 56.3658 27.0583 56.3658 27.0571C56.3658 27.0558 56.3658 27.0545 56.3658 27.0533C56.3658 27.052 56.3658 27.0508 56.3658 27.0495C56.3658 27.0482 56.3658 27.047 56.3658 27.0457C56.3658 27.0445 56.3658 27.0432 56.3658 27.0419C56.3658 27.0407 56.3658 27.0394 56.3658 27.0382C56.3658 27.0369 56.3658 27.0357 56.3658 27.0344C56.3658 27.0332 56.3658 27.0319 56.3658 27.0306C56.3658 27.0294 56.3658 27.0281 56.3658 27.0269C56.3658 27.0256 56.3658 27.0244 56.3658 27.0231C56.3658 27.0219 56.3658 27.0206 56.3658 27.0194C56.3658 27.0181 56.3658 27.0169 56.3658 27.0156C56.3658 27.0144 56.3658 27.0132 56.3658 27.0119C56.3658 27.0107 56.3658 27.0094 56.3658 27.0082C56.3658 27.0069 56.3658 27.0057 56.3658 27.0044C56.3658 27.0032 56.3658 27.002 56.3658 27.0007C56.3658 26.9995 56.3658 26.9982 56.3658 26.997C56.3658 26.9958 56.3658 26.9945 56.3658 26.9933C56.3658 26.992 56.3658 26.9908 56.3658 26.9896C56.3658 26.9883 56.3658 26.9871 56.3658 26.9859C56.3658 26.9846 56.3658 26.9834 56.3658 26.9822C56.3658 26.9809 56.3658 26.9797 56.3658 26.9785C56.3658 26.9772 56.3658 26.976 56.3658 26.9748C56.3658 26.9735 56.3658 26.9723 56.3658 26.9711C56.3658 26.9698 56.3658 26.9686 56.3658 26.9674C56.3658 26.9662 56.3658 26.9649 56.3658 26.9637C56.3658 26.9625 56.3658 26.9613 56.3658 26.96C56.3658 26.9588 56.3658 26.9576 56.3658 26.9564C56.3658 26.9551 56.3658 26.9539 56.3658 26.9527C56.3658 26.9515 56.3658 26.9502 56.3658 26.949C56.3658 26.9478 56.3658 26.9466 56.3658 26.9454C56.3658 26.9441 56.3658 26.9429 56.3658 26.9417C56.3658 26.9405 56.3658 26.9393 56.3658 26.9381C56.3658 26.9368 56.3658 26.9356 56.3658 26.9344C56.3658 26.9332 56.3658 26.932 56.3658 26.9308C56.3658 26.9296 56.3658 26.9283 56.3658 26.9271C56.3658 26.9259 56.3658 26.9247 56.3658 26.9235C56.3658 26.9223 56.3658 26.9211 56.3658 26.9199C56.3658 26.9187 56.3658 26.9175 56.3658 26.9163C56.3658 26.915 56.3658 26.9138 56.3658 26.9126C56.3658 26.9114 56.3658 26.9102 56.3658 26.909C56.3658 26.9078 56.3658 26.9066 56.3658 26.9054C56.3658 26.9042 56.3658 26.903 56.3658 26.9018C56.3658 26.9006 56.3658 26.8994 56.3658 26.8982C56.3658 26.897 56.3658 26.8958 56.3658 26.8946C56.3658 26.8934 56.3658 26.8922 56.3658 26.891C56.3658 26.8898 56.3658 26.8886 56.3658 26.8874C56.3658 26.8862 56.3658 26.885 56.3658 26.8838C56.3658 26.8826 56.3658 26.8814 56.3658 26.8802C56.3658 26.8791 56.3658 26.8779 56.3658 26.8767C56.3658 26.8755 56.3658 26.8743 56.3658 26.8731C56.3658 26.8719 56.3658 26.8707 56.3658 26.8695C56.3658 26.8683 56.3658 26.8672 56.3658 26.866C56.3658 26.8648 56.3658 26.8636 56.3658 26.8624C56.3658 26.8612 56.3658 26.86 56.3658 26.8589C56.3658 26.8577 56.3658 26.8565 56.3658 26.8553C56.3658 26.8541 56.3658 26.8529 56.3658 26.8518C56.3658 26.8506 56.3658 26.8494 56.3658 26.8482C56.3658 26.847 56.3658 26.8459 56.3658 26.8447C56.3658 26.8435 56.3658 26.8423 56.3658 26.8412C56.3658 26.84 56.3658 26.8388 56.3658 26.8376C56.3658 26.8365 56.3658 26.8353 56.3658 26.8341C56.3658 26.8329 56.3658 26.8318 56.3658 26.8306C56.3658 26.8294 56.3658 26.8282 56.3658 26.8271C56.3658 26.8259 56.3658 26.8247 56.3658 26.8236C56.3658 26.8224 56.3658 26.8212 56.3658 26.8201C56.3658 26.8189 56.3658 26.8177 56.3658 26.8166C56.3658 26.8154 56.3658 26.8142 56.3658 26.8131C56.3658 26.8119 56.3658 26.8107 56.3658 26.8096C56.3658 26.8084 56.3658 26.8072 56.3658 26.8061C56.3658 26.8049 56.3658 26.8038 56.3658 26.8026C56.3658 26.8014 56.3658 26.8003 56.3658 26.7991C56.3658 26.798 56.3658 26.7968 56.3658 26.7956C56.3658 26.7945 56.3658 26.7933 56.3658 26.7922C56.3658 26.791 56.3658 26.7899 56.3658 26.7887C56.3658 26.7875 56.3658 26.7864 56.3658 26.7852C56.3658 26.7841 56.3658 26.7829 56.3658 26.7818C56.3658 26.7806 56.3658 26.7795 56.3658 26.7783C56.3658 26.7772 56.3658 26.776 56.3658 26.7749C56.3658 26.7737 56.3658 26.7726 56.3658 26.7714C56.3658 26.7703 56.3658 26.7691 56.3658 26.768C56.3658 26.7669 56.3658 26.7657 56.3658 26.7646C56.3658 26.7634 56.3658 26.7623 56.3658 26.7611C56.3658 26.76 56.3658 26.7588 56.3658 26.7577C56.3658 26.7566 56.3658 26.7554 56.3658 26.7543C56.3658 26.7531 56.3658 26.752 56.3658 26.7509C56.3658 26.7497 56.3658 26.7486 56.3658 26.7475C56.3658 26.7463 56.3658 26.7452 56.3658 26.744C56.3658 26.7429 56.3658 26.7418 56.3658 26.7406C56.3658 26.7395 56.3658 26.7384 56.3658 26.7372C56.3658 26.7361 56.3658 26.735 56.3658 26.7338C56.3658 26.7327 56.3658 26.7316 56.3658 26.7305C56.3658 26.7293 56.3658 26.7282 56.3658 26.7271C56.3658 26.7259 56.3658 26.7248 56.3658 26.7237C56.3658 26.7226 56.3658 26.7214 56.3658 26.7203C56.3658 26.7192 56.3658 26.7181 56.3658 26.7169C56.3658 26.7158 56.3658 26.7147 56.3658 26.7136C56.3658 26.7124 56.3658 26.7113 56.3658 26.7102C56.3658 26.7091 56.3658 26.708 56.3658 26.7068C56.3658 26.7057 56.3658 26.7046 56.3658 26.7035C56.3658 26.7024 56.3658 26.7012 56.3658 26.7001C56.3658 26.699 56.3658 26.6979 56.3658 26.6968C56.3658 26.6957 56.3658 26.6946 56.3658 26.6934C56.3658 26.6923 56.3658 26.6912 56.3658 26.6901C56.3658 26.689 56.3658 26.6879 56.3658 26.6868C56.3658 26.6857 56.3658 26.6845 56.3658 26.6834C56.3658 26.6823 56.3658 26.6812 56.3658 26.6801C56.3658 26.679 56.3658 26.6779 56.3658 26.6768C56.3658 26.6757 56.3658 26.6746 56.3658 26.6735C56.3658 26.6724 56.3658 26.6713 56.3658 26.6702C56.3658 26.6691 56.3658 26.668 56.3658 26.6669C56.3658 26.6658 56.3658 26.6646 56.3658 26.6635C56.3658 26.6624 56.3658 26.6613 56.3658 26.6602C56.3658 26.6592 56.3658 26.6581 56.3658 26.657C56.3658 26.6559 56.3658 26.6548 56.3658 26.6537C56.3658 26.6526 56.3658 26.6515 56.3658 26.6504C56.3658 26.6493 56.3658 26.6482 56.3658 26.6471C56.3658 26.646 56.3658 26.6449 56.3658 26.6438C56.3658 26.6427 56.3658 26.6416 56.3658 26.6405C56.3658 26.6395 56.3658 26.6384 56.3658 26.6373C56.3658 26.6362 56.3658 26.6351 56.3658 26.634C56.3658 26.6329 56.3658 26.6318 56.3658 26.6308C56.3658 26.6297 56.3658 26.6286 56.3658 26.6275C56.3658 26.6264 56.3658 26.6253 56.3658 26.6243C56.3658 26.6232 56.3658 26.6221 56.3658 26.621C56.3658 26.6199 56.3658 26.6188 56.3658 26.6178C56.3658 26.6167 56.3658 26.6156 56.3658 26.6145C56.3658 26.6134 56.3658 26.6124 56.3658 26.6113C56.3658 26.6102 56.3658 26.6091 56.3658 26.6081C56.3658 26.607 56.3658 26.6059 56.3658 26.6048C56.3658 26.6038 56.3658 26.6027 56.3658 26.6016C56.3658 26.6005 56.3658 26.5995 56.3658 26.5984C56.3658 26.5973 56.3658 26.5963 56.3658 26.5952C56.3658 26.5941 56.3658 26.5931 56.3658 26.592C56.3658 26.5909 56.3658 26.5898 56.3658 26.5888C56.3658 26.5877 56.3658 26.5866 56.3658 26.5856C56.3658 26.5845 56.3658 26.5835 56.3658 26.5824C56.3658 26.5813 56.3658 26.5803 56.3658 26.5792C56.3658 26.5781 56.3658 26.5771 56.3658 26.576C56.3658 26.575 56.3658 26.5739 56.3658 26.5728C56.3658 26.5718 56.3658 26.5707 56.3658 26.5697C56.3658 26.5686 56.3658 26.5675 56.3658 26.5665C56.3658 26.5654 56.3658 26.5644 56.3658 26.5633C56.3658 26.5623 56.3658 26.5612 56.3658 26.5602C56.3658 26.5591 56.3658 26.5581 56.3658 26.557C56.3658 26.5559 56.3658 26.5549 56.3658 26.5538C56.3658 26.5528 56.3658 26.5517 56.3658 26.5507C56.3658 26.5496 56.3658 26.5486 56.3658 26.5476C56.3658 26.5465 56.3658 26.5455 56.3658 26.5444C56.3658 26.5434 56.3658 26.5423 56.3658 26.5413C56.3658 26.5402 56.3658 26.5392 56.3658 26.5381C56.3658 26.5371 56.3658 26.5361 56.3658 26.535C56.3658 26.534 56.3658 26.5329 56.3658 26.5319C56.3658 26.5308 56.3658 26.5298 56.3658 26.5288C56.3658 26.5277 56.3658 26.5267 56.3658 26.5257C56.3658 26.5246 56.3658 26.5236 56.3658 26.5225C56.3658 26.5215 56.3658 26.5205 56.3658 26.5194C56.3658 26.5184 56.3658 26.5174 56.3658 26.5163C56.3658 26.5153 56.3658 26.5143 56.3658 26.5132C56.3658 26.5122 56.3658 26.5112 56.3658 26.5102C56.3658 26.5091 56.3658 26.5081 56.3658 26.5071C56.3658 26.506 56.3658 26.505 56.3658 26.504C56.3658 26.503 56.3658 26.5019 56.3658 26.5009C56.3658 26.4999 56.3658 26.4988 56.3658 26.4978C56.3658 26.4968 56.3658 26.4958 56.3658 26.4948C56.3658 26.4937 56.3658 26.4927 56.3658 26.4917C56.3658 26.4907 56.3658 26.4896 56.3658 26.4886C56.3658 26.4876 56.3658 26.4866 56.3658 26.4856C56.3658 26.4846 56.3658 26.4835 56.3658 26.4825C56.3658 26.4815 56.3658 26.4805 56.3658 26.4795C56.3658 26.4785 56.3658 26.4774 56.3658 26.4764C56.3658 26.4754 56.3658 26.4744 56.3658 26.4734C56.3658 26.4724 56.3658 26.4714 56.3658 26.4703C56.3658 26.4693 56.3658 26.4683 56.3658 26.4673C56.3658 26.4663 56.3658 26.4653 56.3658 26.4643C56.3658 26.4633 56.3658 26.4623 56.3658 26.4613C56.3658 26.4603 56.3658 26.4593 56.3658 26.4583C56.3658 26.4572 56.3658 26.4562 56.3658 26.4552C56.3658 26.4542 56.3658 26.4532 56.3658 26.4522C56.3658 26.4512 56.3658 26.4502 56.3658 26.4492C56.3658 26.4482 56.3658 26.4472 56.3658 26.4462C56.3658 26.4452 56.3658 26.4442 56.3658 26.4432C56.3658 26.4422 56.3658 26.4412 56.3658 26.4402C56.3658 26.4392 56.3658 26.4382 56.3658 26.4372C56.3658 26.4363 56.3658 26.4353 56.3658 26.4343C56.3658 26.4333 56.3658 26.4323 56.3658 26.4313C56.3658 26.4303 56.3658 26.4293 56.3658 26.4283C56.3658 26.4273 56.3658 26.4263 56.3658 26.4253C56.3658 26.4244 56.3658 26.4234 56.3658 26.4224C56.3658 26.4214 56.3658 26.4204 56.3658 26.4194C56.3658 26.4184 56.3658 26.4174 56.3658 26.4165C56.3658 26.4155 56.3658 26.4145 56.3658 26.4135C56.3658 26.4125 56.3658 26.4115 56.3658 26.4106C56.3658 26.4096 56.3658 26.4086 56.3658 26.4076C56.3658 26.4066 56.3658 26.4057 56.3658 26.4047C56.3658 26.4037 56.3658 26.4027 56.3658 26.4017C56.3658 26.4008 56.3658 26.3998 56.3658 26.3988C56.3658 26.3978 56.3658 26.3969 56.3658 26.3959C56.3658 26.3949 56.3658 26.3939 56.3658 26.393C56.3658 26.392 56.3658 26.391 56.3658 26.3901C56.3658 26.3891 56.3658 26.3881 56.3658 26.3871C56.3658 26.3862 56.3658 26.3852 56.3658 26.3842C56.3658 26.3833 56.3658 26.3823 56.3658 26.3813C56.3658 26.3804 56.3658 26.3794 56.3658 26.3784C56.3658 26.3775 56.3658 26.3765 56.3658 26.3755C56.3658 26.3746 56.3658 26.3736 56.3658 26.3726C56.3658 26.3717 56.3658 26.3707 56.3658 26.3698C56.3658 26.3688 56.3658 26.3678 56.3658 26.3669C56.3658 26.3659 56.3658 26.365 56.3658 26.364C56.3658 26.363 56.3658 26.3621 56.3658 26.3611C56.3658 26.3602 56.3658 26.3592 56.3658 26.3583C56.3658 26.3573 56.3658 26.3563 56.3658 26.3554C56.3658 26.3544 56.3658 26.3535 56.3658 26.3525C56.3658 26.3516 56.3658 26.3506 56.3658 26.3497C56.3658 26.3487 56.3658 26.3478 56.3658 26.3468C56.3658 26.3459 56.3658 26.3449 56.3658 26.344C56.3658 26.343 56.3658 26.3421 56.3658 26.3411C56.3658 26.3402 56.3658 26.3392 56.3658 26.3383C56.3658 26.3374 56.3658 26.3364 56.3658 26.3355C56.3658 26.3345 56.3658 26.3336 56.3658 26.3326C56.3658 26.3317 56.3658 26.3308 56.3658 26.3298C56.3658 26.3289 56.3658 26.3279 56.3658 26.327C56.3658 26.3261 56.3658 26.3251 56.3658 26.3242C56.3658 26.3232 56.3658 26.3223 56.3658 26.3214C56.3658 26.3204 56.3658 26.3195 56.3658 26.3186C56.3658 26.3176 56.3658 26.3167 56.3658 26.3158C56.3658 26.3148 56.3658 26.3139 56.3658 26.313C56.3658 26.312 56.3658 26.3111 56.3658 26.3102C56.3658 26.3092 56.3658 26.3083 56.3658 26.3074C56.3658 26.3064 56.3658 26.3055 56.3658 26.3046C56.3658 26.3037 56.3658 26.3027 56.3658 26.3018C56.3658 26.3009 56.3658 26.3 56.3658 26.299C56.3658 26.2981 56.3658 26.2972 56.3658 26.2963C56.3658 26.2953 56.3658 26.2944 56.3658 26.2935C56.3658 26.2926 56.3658 26.2917 56.3658 26.2907C56.3658 26.2898 56.3658 26.2889 56.3658 26.288C56.3658 26.2871 56.3658 26.2861 56.3658 26.2852C56.3658 26.2843 56.3658 26.2834 56.3658 26.2825C56.3658 26.2816 56.3658 26.2806 56.3658 26.2797C56.3658 26.2788 56.3658 26.2779 56.3658 26.277C56.3658 26.2761 56.3658 26.2752 56.3658 26.2743C56.3658 26.2733 56.3658 26.2724 56.3658 26.2715C56.3658 26.2706 56.3658 26.2697 56.3658 26.2688C56.3658 26.2679 56.3658 26.267 56.3658 26.2661C56.3658 26.2652 56.3658 26.2643 56.3658 26.2633C56.3658 26.2624 56.3658 26.2615 56.3658 26.2606C56.3658 26.2597 56.3658 26.2588 56.3658 26.2579C56.3658 26.257 56.3658 26.2561 56.3658 26.2552C56.3658 26.2543 56.3658 26.2534 56.3658 26.2525C56.3658 26.2516 56.3658 26.2507 56.3658 26.2498C56.3658 26.2489 56.3658 26.248 56.3658 26.2471C56.3658 26.2462 56.3658 26.2453 56.3658 26.2444C56.3658 26.2435 56.3658 26.2426 56.3658 26.2418C56.3658 26.2409 56.3658 26.24 56.3658 26.2391C56.3658 26.2382 56.3658 26.2373 56.3658 26.2364C56.3658 26.2355 56.3658 26.2346 56.3658 26.2337C56.3658 26.2328 56.3658 26.232 56.3658 26.2311C56.3658 26.2302 56.3658 26.2293 56.3658 26.2284C56.3658 26.2275 56.3658 26.2266 56.3658 26.2257C56.3658 26.2249 56.3658 26.224 56.3658 26.2231C56.3658 26.2222 56.3658 26.2213 56.3658 26.2204C56.3658 26.2196 56.3658 26.2187 56.3658 26.2178C56.3658 26.2169 56.3658 26.216 56.3658 26.2152C56.3658 26.2143 56.3658 26.2134 56.3658 26.2125C56.3658 26.2116 56.3658 26.2108 56.3658 26.2099C56.3658 26.209 56.3658 26.2081 56.3658 26.2073C56.3658 26.2064 56.3658 26.2055 56.3658 26.2046C56.3658 26.2038 56.3658 26.2029 56.3658 26.202C56.3658 26.2012 56.3658 26.2003 56.3658 26.1994C56.3658 26.1985 56.3658 26.1977 56.3658 26.1968C56.3658 26.1959 56.3658 26.1951 56.3658 26.1942C56.3658 26.1933 56.3658 26.1925 56.3658 26.1916C56.3658 26.1907 56.3658 26.1899 56.3658 26.189C56.3658 26.1881 56.3658 26.1873 56.3658 26.1864C56.3658 26.1855 56.3658 26.1847 56.3658 26.1838C56.3658 26.183 56.3658 26.1821 56.3658 26.1812C56.3658 26.1804 56.3658 26.1795 56.3658 26.1787C56.3658 26.1778 56.3658 26.1769 56.3658 26.1761C56.3658 26.1752 56.3658 26.1744 56.3658 26.1735C56.3658 26.1727 56.3658 26.1718 56.3658 26.1709C56.3658 26.1701 56.3658 26.1692 56.3658 26.1684C56.3658 26.1675 56.3658 26.1667 56.3658 26.1658C56.3658 26.165 56.3658 26.1641 56.3658 26.1633C56.3658 26.1624 56.3658 26.1616 56.3658 26.1607C56.3658 26.1599 56.3658 26.159 56.3658 26.1582C56.3658 26.1573 56.3658 26.1565 56.3658 26.1557C56.3658 26.1548 56.3658 26.154 56.3658 26.1531C56.3658 26.1523 56.3658 26.1514 56.3658 26.1506C56.3658 26.1497 56.3658 26.1489 56.3658 26.1481C56.3658 26.1472 56.3658 26.1464 56.3658 26.1455C56.3658 26.1447 56.3658 26.1439 56.3658 26.143C56.3658 26.1422 56.3658 26.1413 56.3658 26.1405C56.3658 26.1397 56.3658 26.1388 56.3658 26.138C56.3658 26.1372 56.3658 26.1363 56.3658 26.1355C56.3658 26.1347 56.3658 26.1338 56.3658 26.133C56.3658 26.1322 56.3658 26.1313 56.3658 26.1305C56.3658 26.1297 56.3658 26.1288 56.3658 26.128C56.3658 26.1272 56.3658 26.1264 56.3658 26.1255C56.3658 26.1247 56.3658 26.1239 56.3658 26.123C56.3658 26.1222 56.3658 26.1214 56.3658 26.1206C56.3658 26.1197 56.3658 26.1189 56.3658 26.1181C56.3658 26.1173 56.3658 26.1165 56.3658 26.1156C56.3658 26.1148 56.3658 26.114 56.3658 26.1132C56.3658 26.1123 56.3658 26.1115 56.3658 26.1107C56.3658 26.1099 56.3658 26.1091 56.3658 26.1082C56.3658 26.1074 56.3658 26.1066 56.3658 26.1058C56.3658 26.105 56.3658 26.1042 56.3658 26.1034C56.3658 26.1025 56.3658 26.1017 56.3658 26.1009C56.3658 26.1001 56.3658 26.0993 56.3658 26.0985C56.3658 26.0977 56.3658 26.0968 56.3658 26.096C56.3658 26.0952 56.3658 26.0944 56.3658 26.0936C56.3658 26.0928 56.3658 26.092 56.3658 26.0912C56.3658 26.0904 56.3658 26.0896 56.3658 26.0888C56.3658 26.088 56.3658 26.0872 56.3658 26.0863C56.3658 26.0855 56.3658 26.0847 56.3658 26.0839C56.3658 26.0831 56.3658 26.0823 56.3658 26.0815C56.3658 26.0807 56.3658 26.0799 56.3658 26.0791C56.3658 26.0783 56.3658 26.0775 56.3658 26.0767C56.3658 26.0759 56.3658 26.0751 56.3658 26.0743C56.3658 26.0735 56.3658 26.0727 56.3658 26.0719C56.3658 26.0712 56.3658 26.0704 56.3658 26.0696C56.3658 26.0688 56.3658 26.068 56.3658 26.0672C56.3658 26.0664 56.3658 26.0656 56.3658 26.0648C56.3658 26.064 56.3658 26.0632 56.3658 26.0624C56.3658 26.0616 56.3658 26.0609 56.3658 26.0601C56.3658 26.0593 56.3658 26.0585 56.3658 26.0577C56.3658 26.0569 56.3658 26.0561 56.3658 26.0553C56.3658 26.0546 56.3658 26.0538 56.3658 26.053C56.3658 26.0522 56.3658 26.0514 56.3658 26.0506C56.3658 26.0499 56.3658 26.0491 56.3658 26.0483C56.3658 26.0475 56.3658 26.0467 56.3658 26.046C56.3658 26.0452 56.3658 26.0444 56.3658 26.0436C56.3658 26.0428 56.3658 26.0421 56.3658 26.0413C56.3658 26.0405 56.3658 26.0397 56.3658 26.039C56.3658 26.0382 56.3658 26.0374 56.3658 26.0366C56.3658 26.0359 56.3658 26.0351 56.3658 26.0343C56.3658 26.0335 56.3658 26.0328 56.3658 26.032C56.3658 26.0312 56.3658 26.0305 56.3658 26.0297C56.3658 26.0289 56.3658 26.0282 56.3658 26.0274C56.3658 26.0266 56.3658 26.0258 56.3658 26.0251C56.3658 26.0243 56.3658 26.0236 56.3658 26.0228C56.3658 26.022 56.3658 26.0213 56.3658 26.0205C56.3658 26.0197 56.3658 26.019 56.3658 26.0182C56.3658 26.0174 56.3658 26.0167 56.3658 26.0159C56.3658 26.0152 56.3658 26.0144 56.3658 26.0136C56.3658 26.0129 56.3658 26.0121 56.3658 26.0114C56.3658 26.0106 56.3658 26.0098 56.3658 26.0091C56.3658 26.0083 56.3658 26.0076 56.3658 26.0068C56.3658 26.0061 56.3658 26.0053 56.3658 26.0046C56.3658 26.0038 56.3658 26.0031 56.3658 26.0023C56.3658 26.0016 56.3658 26.0008 56.3658 26.0001C56.3658 25.9993 56.3658 25.9986 56.3658 25.9978C56.3658 25.9971 56.3658 25.9963 56.3658 25.9956C56.3658 25.9948 56.3658 25.9941 56.3658 25.9933C56.3658 25.9926 56.3658 25.9918 56.3658 25.9911C56.3658 25.9903 56.3658 25.9896 56.3658 25.9889C56.3658 25.9881 56.3658 25.9874 56.3658 25.9866C56.3658 25.9859 56.3658 25.9851 56.3658 25.9844C56.3658 25.9837 56.3658 25.9829 56.3658 25.9822C56.3658 25.9814 56.3658 25.9807 56.3658 25.98C56.3658 25.9792 56.3658 25.9785 56.3658 25.9778C56.3658 25.977 56.3658 25.9763 56.3658 25.9756C56.3658 25.9748 56.3658 25.9741 56.3658 25.9734C56.3658 25.9726 56.3658 25.9719 56.3658 25.9712C56.3658 25.9704 56.3658 25.9697 56.3658 25.969C56.3658 25.9682 56.3658 25.9675 56.3658 25.9668C56.3658 25.9661 56.3658 25.9653 56.3658 25.9646C56.3658 25.9639 56.3658 25.9631 56.3658 25.9624C56.3658 25.9617 56.3658 25.961 56.3658 25.9602C56.3658 25.9595 56.3658 25.9588 56.3658 25.9581C56.3658 25.9574 56.3658 25.9566 56.3658 25.9559C56.3658 25.9552 56.3658 25.9545 56.3658 25.9538C56.3658 25.953 56.3658 25.9523 56.3658 25.9516C56.3658 25.9509 56.3658 25.9502 56.3658 25.9494C56.3658 25.9487 56.3658 25.948 56.3658 25.9473C56.3658 25.9466 56.3658 25.9459 56.3658 25.9452C56.3658 25.9444 56.3658 25.9437 56.3658 25.943C56.3658 25.9423 56.3658 25.9416 56.3658 25.9409C56.3658 25.9402 56.3658 25.9395 56.3658 25.9388C56.3658 25.938 56.3658 25.9373 56.3658 25.9366C56.3658 25.9359 56.3658 25.9352 56.3658 25.9345C56.3658 25.9338 56.3658 25.9331 56.3658 25.9324C56.3658 25.9317 56.3658 25.931 56.3658 25.9303C56.3658 25.9296 56.3658 25.9289 56.3658 25.9282C56.3658 25.9275 56.3658 25.9268 56.3658 25.9261C56.3658 25.9254 56.3658 25.9247 56.3658 25.924C56.3658 25.9233 56.3658 25.9226 56.3658 25.9219C56.3658 25.9212 56.3658 25.9205 56.3658 25.9198C56.3658 25.9191 56.3658 25.9184 56.3658 25.9177C56.3658 25.917 56.3658 25.9163 56.3658 25.9156C56.3658 25.9149 56.3658 25.9142 56.3658 25.9135C56.3658 25.9128 56.3658 25.9121 56.3658 25.9115C56.3658 25.9108 56.3658 25.9101 56.3658 25.9094C56.3658 25.9087 56.3658 25.908 56.3658 25.9073C56.3658 25.9066 56.3658 25.906 56.3658 25.9053C56.3658 25.9046 56.3658 25.9039 56.3658 25.9032C56.3658 25.9025 56.3658 25.9018 56.3658 25.9012C56.3658 25.9005 56.3658 25.8998 56.3658 25.8991C56.3658 25.8984 56.3658 25.8978 56.3658 25.8971C56.3658 25.8964 56.3658 25.8957 56.3658 25.895C56.3658 25.8944 56.3658 25.8937 56.3658 25.893C56.3658 25.8923 56.3658 25.8916 56.3658 25.891C56.3658 25.8903 56.3658 25.8896 56.3658 25.8889C56.3658 25.8883 56.3658 25.8876 56.3658 25.8869C56.3658 25.8863 56.3658 25.8856 56.3658 25.8849C56.3658 25.8842 56.3658 25.8836 56.3658 25.8829C56.3658 25.8822 56.3658 25.8816 56.3658 25.8809C56.3658 25.8802 56.3658 25.8796 56.3658 25.8789C56.3658 25.8782 56.3658 25.8776 56.3658 25.8769C56.3658 25.8762 56.3658 25.8756 56.3658 25.8749C56.3658 25.8742 56.3658 25.8736 56.3658 25.8729C56.3658 25.8722 56.3658 25.8716 56.3658 25.8709C56.3658 25.8703 56.3658 25.8696 56.3658 25.8689C56.3658 25.8683 56.3658 25.8676 56.3658 25.867C56.3658 25.8663 56.3658 25.8656 56.3658 25.865C56.3658 25.8643 56.3658 25.8637 56.3658 25.863C56.3658 25.8624 56.3658 25.8617 56.3658 25.8611C56.3658 25.8604 56.3658 25.8598 56.3658 25.8591C56.3658 25.8585 56.3658 25.8578 56.3658 25.8571C56.3658 25.8565 56.3658 25.8558 56.3658 25.8552C56.3658 25.8545 56.3658 25.8539 56.3658 25.8533C56.3658 25.8526 56.3658 25.852 56.3658 25.8513C56.3658 25.8507 56.3658 25.85 56.3658 25.8494C56.3658 25.8487 56.3658 25.8481 56.3658 25.8474C56.3658 25.8468 56.3658 25.8462 56.3658 25.8455C56.3658 25.8449 56.3658 25.8442 56.3658 25.8436C56.3658 25.843 56.3658 25.8423 56.3658 25.8417C56.3658 25.841 56.3658 25.8404 56.3658 25.8398C56.3658 25.8391 56.3658 25.8385 56.3658 25.8378C56.3658 25.8372 56.3658 25.8366 56.3658 25.8359C56.3658 25.8353 56.3658 25.8347 56.3658 25.834C56.3658 25.8334 56.3658 25.8328 56.3658 25.8321C56.3658 25.8315 56.3658 25.8309 56.3658 25.8302C56.3658 25.8296 56.3658 25.829 56.3658 25.8284C56.3658 25.8277 56.3658 25.8271 56.3658 25.8265C56.3658 25.8258 56.3658 25.8252 56.3658 25.8246C56.3658 25.824 56.3658 25.8233 56.3658 25.8227C56.3658 25.8221 56.3658 25.8215 56.3658 25.8209C56.3658 25.8202 56.3658 25.8196 56.3658 25.819C56.3658 25.8184 56.3658 25.8177 56.3658 25.8171C56.3658 25.8165 56.3658 25.8159 56.3658 25.8153C56.3658 25.8146 56.3658 25.814 56.3658 25.8134C56.3658 25.8128 56.3658 25.8122 56.3658 25.8116C56.3658 25.8109 56.3658 25.8103 56.3658 25.8097C56.3658 25.8091 56.3658 25.8085 56.3658 25.8079C56.3658 25.8073 56.3658 25.8067 56.3658 25.806C56.3658 25.8054 56.3658 25.8048 56.3658 25.8042C56.3658 25.8036 56.3658 25.803 56.3658 25.8024C56.3658 25.8018 56.3658 25.8012 56.3658 25.8006C56.3658 25.8 56.3658 25.7993 56.3658 25.7987C56.3658 25.7981 56.3658 25.7975 56.3658 25.7969C56.3658 25.7963 56.3658 25.7957 56.3658 25.7951C56.3658 25.7945 56.3658 25.7939 56.3658 25.7933C56.3658 25.7927 56.3658 25.7921 56.3658 25.7915C56.3658 25.7909 56.3658 25.7903 56.3658 25.7897C56.3658 25.7891 56.3658 25.7885 56.3658 25.7879C56.3658 25.7873 56.3658 25.7867 56.3658 25.7861C56.3658 25.7855 56.3658 25.785 56.3658 25.7844C56.3658 25.7838 56.3658 25.7832 56.3658 25.7826C56.3658 25.782 56.3658 25.7814 56.3658 25.7808C56.3658 25.7802 56.3658 25.7796 56.3658 25.779C56.3658 25.7784 56.3658 25.7779 56.3658 25.7773C56.3658 25.7767 56.3658 25.7761 56.3658 25.7755C56.3658 25.7749 56.3658 25.7743 56.3658 25.7738C56.3658 25.7732 56.3658 25.7726 56.3658 25.772H53.3658ZM53.3658 27.244L50.3724 27.4436C50.4054 27.9383 50.4079 28.5411 50.3699 29.2623L53.3658 29.42L56.3616 29.5777C56.409 28.6776 56.4115 27.8297 56.3591 27.0444L53.3658 27.244ZM53.3658 29.42L50.3678 29.309C50.2555 32.3401 49.5296 35.1841 48.1865 37.8704L50.8698 39.212L53.553 40.5536C55.2819 37.0959 56.22 33.4119 56.3637 29.531L53.3658 29.42ZM50.8698 39.212L48.1789 37.8855C46.8146 40.6531 45.1333 43.0619 43.1408 45.1311L45.3018 47.212L47.4627 49.2929C49.9075 46.7541 51.9382 43.8295 53.5606 40.5385L50.8698 39.212ZM45.3018 47.212L43.1408 45.1311C41.1323 47.2169 38.9876 48.8204 36.7106 49.9775L38.0698 52.652L39.4289 55.3265C42.3573 53.8383 45.0339 51.8151 47.4627 49.2929L45.3018 47.212ZM38.0698 52.652L36.6927 49.9867C34.4448 51.1481 32.5066 51.636 30.8378 51.636V54.636V57.636C33.6916 57.636 36.5747 56.8012 39.4468 55.3173L38.0698 52.652ZM30.8378 54.636V51.636C28.904 51.636 27.3758 51.2789 26.1634 50.6727L24.8218 53.356L23.4801 56.0393C25.6811 57.1398 28.1635 57.636 30.8378 57.636V54.636ZM24.8218 53.356L26.1357 50.659C24.8644 50.0397 23.7751 49.1807 22.8495 48.0569L20.5338 49.964L18.218 51.8711C19.6818 53.6486 21.4511 55.0509 23.5078 56.053L24.8218 53.356ZM20.5338 49.964L22.9091 48.1316C21.9816 46.9293 21.2111 45.4805 20.6217 43.7492L17.7818 44.716L14.9418 45.6828C15.7178 47.9622 16.7819 50.012 18.1584 51.7964L20.5338 49.964ZM17.7818 44.716L20.6278 43.7673C20.0203 41.945 19.5923 39.9395 19.3567 37.7404L16.3738 38.06L13.3908 38.3796C13.6672 40.9592 14.1778 43.391 14.9357 45.6647L17.7818 44.716ZM16.3738 38.06L17.2851 35.2018C14.7597 34.3966 12.744 33.1664 11.1578 31.5456L9.01375 33.644L6.86974 35.7424C9.20881 38.1323 12.0998 39.8461 15.4624 40.9182L16.3738 38.06ZM9.01375 33.644L11.2024 31.5922C9.52577 29.8038 8.3425 27.918 7.59874 25.9346L4.78975 26.988L1.98076 28.0414C3.029 30.8367 4.66173 33.3882 6.82514 35.6958L9.01375 33.644ZM4.78975 26.988L7.58852 25.9078C6.79457 23.8507 6.49361 21.881 6.63013 19.9697L3.63775 19.756L0.645374 19.5423C0.440557 22.4097 0.907596 25.2613 1.99098 28.0682L4.78975 26.988ZM3.63775 19.756L6.6336 19.9137C6.73376 18.0107 7.28265 16.5853 8.16222 15.4787L5.81375 13.612L3.46528 11.7453C1.69952 13.9667 0.797739 16.6373 0.641896 19.5983L3.63775 19.756ZM5.81375 13.612L8.21375 15.412C8.67876 14.792 9.00516 14.5704 9.13938 14.5033L7.79775 11.82L6.45612 9.13671C5.22501 9.75226 4.22874 10.7253 3.41375 11.812L5.81375 13.612ZM7.79775 11.82L9.13939 14.5033C9.42788 14.359 9.67455 14.308 9.90975 14.308V11.308V8.308C8.69429 8.308 7.53296 8.59829 6.45611 9.13672L7.79775 11.82ZM9.90975 11.308V14.308C10.2755 14.308 10.6844 14.4013 11.1733 14.6807L12.6618 12.076L14.1502 9.47126C12.8471 8.72667 11.4213 8.308 9.90975 8.308V11.308ZM12.6618 12.076L11.2252 14.7097C11.8948 15.0749 12.5418 15.5587 13.1644 16.1813L15.2858 14.06L17.4071 11.9387C16.4084 10.94 15.306 10.1011 14.0983 9.44231L12.6618 12.076ZM15.2858 14.06L13.2225 16.2379C13.8546 16.8366 14.4309 17.5285 14.9489 18.3228L17.4618 16.684L19.9746 15.0452C19.2126 13.8769 18.3383 12.8193 17.349 11.8821L15.2858 14.06ZM17.4618 16.684L15.0355 18.4485C15.6274 19.2624 16.0818 20.0216 16.4172 20.7258L19.1258 19.436L21.8343 18.1462C21.3163 17.0584 20.6614 15.983 19.888 14.9195L17.4618 16.684ZM19.1258 19.436V16.436H18.9338V19.436V22.436H19.1258V19.436ZM18.9338 19.436L21.6402 18.1416C20.9533 16.7054 19.9311 15.4825 18.5169 14.6637L17.0138 17.26L15.5106 19.8563C15.7177 19.9762 15.9756 20.2039 16.2273 20.7304L18.9338 19.436ZM17.0138 17.26L18.5781 14.7002C17.2969 13.9172 15.8715 13.556 14.3898 13.556V16.556V19.556C14.8707 19.556 15.1946 19.6641 15.4494 19.8198L17.0138 17.26ZM14.3898 16.556V13.556C12.876 13.556 11.4092 13.9524 10.0196 14.6194L11.3177 17.324L12.6159 20.0286C13.3596 19.6716 13.9408 19.556 14.3898 19.556V16.556ZM11.3177 17.324L9.97611 14.6407C8.46645 15.3955 7.19326 16.5367 6.12388 17.9269L8.50175 19.756L10.8796 21.5851C11.5169 20.7567 12.121 20.2765 12.6594 20.0073L11.3177 17.324ZM8.50175 19.756L6.18253 17.853C4.43649 19.981 3.4435 22.4292 3.32846 25.1325L6.32575 25.26L9.32304 25.3875C9.37867 24.0801 9.83634 22.859 10.821 21.6589L8.50175 19.756ZM6.32575 25.26L3.33211 25.0648C3.16553 27.6189 3.73055 30.0614 4.97446 32.3329L7.60575 30.892L10.237 29.4511C9.51829 28.1385 9.22997 26.8264 9.31939 25.4552L6.32575 25.26ZM7.60575 30.892L5.00102 32.3804C6.29405 34.6432 8.16408 36.5289 10.498 38.0683L12.1498 35.564L13.8015 33.0597C12.1247 31.9537 10.9654 30.7248 10.2105 29.4036L7.60575 30.892ZM12.1498 35.564L10.5222 38.0841C13.0101 39.6909 15.9259 40.6674 19.1801 41.0981L19.5738 38.124L19.9674 35.1499C17.419 34.8126 15.3854 34.0824 13.7773 33.0439L12.1498 35.564ZM19.5738 38.124L20.2686 35.2056C19.5076 35.0244 18.8941 34.8201 18.4082 34.6075L17.2058 37.356L16.0033 40.1045C16.8827 40.4892 17.8479 40.7969 18.8789 41.0424L19.5738 38.124ZM17.2058 37.356L18.4744 34.6374C18.3139 34.5625 18.4212 34.5849 18.6071 34.7707C18.8199 34.9835 19.2458 35.5378 19.2458 36.396H16.2458H13.2458C13.2458 37.5956 13.8316 38.4805 14.3644 39.0133C14.8703 39.5191 15.4576 39.8508 15.9371 40.0745L17.2058 37.356ZM16.2458 36.396H19.2458C19.2458 33.7466 19.629 31.1856 20.3931 28.7023L17.5258 27.82L14.6584 26.9377C13.7158 30.0011 13.2458 33.1574 13.2458 36.396H16.2458ZM17.5258 27.82L20.3968 28.69C21.1822 26.0983 22.2373 23.6993 23.5582 21.4848L20.9818 19.948L18.4053 18.4112C16.8249 21.0607 15.576 23.9097 14.6547 26.95L17.5258 27.82ZM20.9818 19.948L23.5503 21.498C24.9274 19.2159 26.5142 17.161 28.3098 15.3264L26.1658 13.228L24.0217 11.1296C21.892 13.3056 20.0228 15.7307 18.4132 18.398L20.9818 19.948ZM26.1658 13.228L28.3093 15.3269C30.175 13.4215 32.1205 11.8136 34.1435 10.4909L32.5018 7.98L30.86 5.46909C28.4456 7.04772 26.1672 8.93849 24.0222 11.1291L26.1658 13.228ZM32.5018 7.98L34.1549 10.4834C36.2177 9.12121 38.3128 8.0872 40.4416 7.36493L39.4778 4.524L38.5139 1.68306C35.864 2.58213 33.3085 3.85212 30.8486 5.47661L32.5018 7.98ZM39.4778 4.524L40.4264 7.37005C42.5807 6.65196 44.6499 6.308 46.6458 6.308V3.308V0.307999C43.9482 0.307999 41.2388 0.774704 38.5291 1.67795L39.4778 4.524ZM46.6458 3.308V6.308C47.3657 6.308 48.1761 6.44585 49.0927 6.77322L50.1018 3.948L51.1108 1.12277C49.6381 0.596817 48.1445 0.307999 46.6458 0.307999V3.308ZM50.1018 3.948L49.1238 6.78412C49.9798 7.0793 50.7744 7.53891 51.5182 8.18973L53.4938 5.932L55.4693 3.67427C54.1651 2.53309 52.6984 1.67003 51.0797 1.11188L50.1018 3.948ZM53.4938 5.932L51.5642 8.22912C52.2698 8.82187 52.8971 9.62182 53.4183 10.6968L56.1178 9.388L58.8172 8.07918C57.9731 6.33817 56.851 4.83412 55.4233 3.63488L53.4938 5.932ZM56.1178 9.388L53.4345 10.7296C53.858 11.5767 54.1418 12.7543 54.1418 14.38H57.1418H60.1418C60.1418 12.0804 59.7428 9.92991 58.801 8.04635L56.1178 9.388ZM57.1418 14.38H54.1418C54.1418 16.1604 53.7683 17.868 53.0066 19.53L55.7338 20.78L58.4609 22.03C59.5765 19.596 60.1418 17.0369 60.1418 14.38H57.1418ZM55.7338 20.78L53.0066 19.53C52.2045 21.2801 51.0999 22.9459 49.6691 24.5273L51.8938 26.54L54.1184 28.5527C55.9303 26.5501 57.3857 24.3759 58.4609 22.03L55.7338 20.78ZM51.8938 26.54L49.6427 24.5569C48.2349 26.1549 46.561 27.6413 44.6054 29.0103L46.3258 31.468L48.0461 33.9257C50.3572 32.308 52.3953 30.5091 54.1448 28.5231L51.8938 26.54ZM46.3258 31.468L44.6388 28.9872C42.662 30.3314 40.5412 31.5017 38.2728 32.4966L39.4778 35.244L40.6827 37.9914C43.2783 36.853 45.7228 35.5059 48.0127 33.9488L46.3258 31.468ZM39.4778 35.244L38.2548 32.5046C36.0266 33.4993 33.7178 34.2957 31.3261 34.8936L32.0538 37.804L32.7814 40.7144C35.5097 40.0323 38.1502 39.122 40.7007 37.9834L39.4778 35.244ZM32.0538 37.804L31.3146 34.8965C28.9751 35.4913 26.6953 35.8431 24.4721 35.9601L24.6298 38.956L24.7874 41.9519C27.4282 41.8129 30.0977 41.3967 32.7929 40.7115L32.0538 37.804ZM24.6298 38.956L21.6306 38.8846C21.5857 40.7719 21.6306 42.6591 21.7654 44.5457L24.7578 44.332L27.7501 44.1183C27.6289 42.4209 27.5885 40.7241 27.6289 39.0274L24.6298 38.956ZM24.7578 44.332L21.7657 44.5509C21.9069 46.48 22.2162 48.2939 22.7117 49.9785L25.5898 49.132L28.4678 48.2855C28.11 47.0688 27.8646 45.6827 27.7498 44.1131L24.7578 44.332ZM25.5898 49.132L22.7437 50.0807C23.3151 51.7949 24.14 53.3351 25.2851 54.6007L27.5098 52.588L29.7344 50.5753C29.2582 50.0489 28.803 49.2851 28.4358 48.1833L25.5898 49.132ZM27.5098 52.588L25.3373 54.657C26.8186 56.2123 28.7453 56.932 30.8378 56.932V53.932V50.932C30.1995 50.932 29.9076 50.7557 29.6822 50.519L27.5098 52.588ZM30.8378 53.932V56.932C32.9233 56.932 34.8928 56.4605 36.6688 55.4541L35.1898 52.844L33.7107 50.2339C32.9267 50.6782 31.9949 50.932 30.8378 50.932V53.932ZM35.1898 52.844L36.6015 55.4911C38.2417 54.6163 39.6594 53.4402 40.8435 51.987L38.5178 50.092L36.192 48.197C35.4988 49.0478 34.6978 49.7064 33.778 50.1969L35.1898 52.844ZM38.5178 50.092L40.8015 52.0374C41.9772 50.6573 42.954 49.0955 43.7422 47.3713L41.0138 46.124L38.2853 44.8767C37.7082 46.1392 37.021 47.2227 36.234 48.1466L38.5178 50.092ZM41.0138 46.124L43.7123 47.4347C44.4981 45.8168 45.1687 44.1521 45.7234 42.4415L42.8698 41.516L40.0161 40.5905C39.5469 42.0373 38.98 43.4446 38.3152 44.8133L41.0138 46.124ZM42.8698 41.516L45.7234 42.4415C46.2707 40.7541 46.7074 39.0789 47.0306 37.4166L44.0858 36.844L41.1409 36.2714C40.8668 37.6811 40.4928 39.1206 40.0161 40.5905L42.8698 41.516ZM44.0858 36.844L47.018 37.478C47.3619 35.8875 47.6638 34.4427 47.9235 33.1443L44.9818 32.556L42.04 31.9677C41.7877 33.2293 41.4923 34.6431 41.1535 36.21L44.0858 36.844ZM44.9818 32.556L46.5252 35.1285C47.4215 34.5907 48.2428 34.0666 48.9853 33.5561L47.2858 31.084L45.5862 28.6119C44.9634 29.04 44.2487 29.4973 43.4383 29.9835L44.9818 32.556ZM47.2858 31.084L49.0858 33.484C49.7924 32.954 50.4785 32.4229 51.1438 31.8906L49.2698 29.548L47.3957 27.2054C46.781 27.6971 46.1444 28.19 45.4858 28.684L47.2858 31.084ZM49.2698 29.548L51.1438 31.8906C51.8472 31.3279 52.5447 30.723 53.2367 30.0772L51.1898 27.884L49.1428 25.6908C48.5548 26.2397 47.9723 26.7441 47.3957 27.2054L49.2698 29.548ZM51.1898 27.884L53.2416 30.0726C53.9511 29.4074 54.6998 28.6806 55.4871 27.8933L53.3658 25.772L51.2444 23.6507C50.4957 24.3994 49.7937 25.0806 49.1379 25.6954L51.1898 27.884ZM28.0858 31.02H31.0858C31.0858 29.9648 31.1613 28.7614 31.3212 27.4025L28.3418 27.052L25.3623 26.7015C25.1808 28.2439 25.0858 29.6858 25.0858 31.02H28.0858ZM28.3418 27.052L31.3212 27.4025C31.4753 26.0927 31.7269 24.7532 32.0792 23.3831L29.1738 22.636L26.2683 21.8889C25.8526 23.5054 25.5495 25.1099 25.3623 26.7015L28.3418 27.052ZM29.1738 22.636L32.0583 23.4602C32.437 22.1347 32.9295 20.8461 33.5372 19.5928L30.8378 18.284L28.1383 16.9752C27.3806 18.5379 26.7638 20.1507 26.2892 21.8118L29.1738 22.636ZM30.8378 18.284L33.5522 19.5614C34.1298 18.3339 34.7919 17.3195 35.5219 16.4899L33.2698 14.508L31.0176 12.5261C29.8703 13.8299 28.911 15.3327 28.1233 17.0066L30.8378 18.284ZM33.2698 14.508L35.5599 16.4458C36.2537 15.6258 37.0652 14.9707 38.0095 14.4671L36.5978 11.82L35.186 9.17294C33.5703 10.0346 32.1631 11.1715 30.9796 12.5702L33.2698 14.508ZM36.5978 11.82L38.0095 14.4671C38.8174 14.0362 39.755 13.796 40.8857 13.796V10.796V7.796C38.8591 7.796 36.9381 8.23848 35.186 9.17294L36.5978 11.82ZM40.8857 10.796V13.796C42.4207 13.796 43.7026 14.0838 44.7887 14.5967L46.0698 11.884L47.3508 9.17125C45.3649 8.23349 43.1908 7.796 40.8857 7.796V10.796ZM46.0698 11.884L44.8513 14.6254C46.0183 15.1441 46.9665 15.8363 47.7359 16.698L49.9738 14.7L52.2116 12.702C50.8476 11.1744 49.1932 9.98922 47.2882 9.14256L46.0698 11.884ZM49.9738 14.7L47.7359 16.698C48.5176 17.5735 49.1331 18.6259 49.5673 19.8951L52.4058 18.924L55.2442 17.9529C54.5691 15.9794 53.5633 14.2159 52.2116 12.7019L49.9738 14.7ZM52.4058 18.924L49.5999 19.9857C50.0581 21.1967 50.3018 22.5404 50.3018 24.044H53.3018H56.3018C56.3018 21.8782 55.948 19.8086 55.2116 17.8623L52.4058 18.924ZM53.3018 24.044L55.743 25.7877C56.9471 24.1019 57.9071 22.3385 58.6036 20.4977L55.7978 19.436L52.9919 18.3743C52.4938 19.6908 51.7898 20.9994 50.8606 22.3003L53.3018 24.044ZM55.7978 19.436L58.6036 20.4977C59.3308 18.5759 59.6938 16.5733 59.6938 14.508H56.6938H53.6938C53.6938 15.8561 53.4594 17.1387 52.9919 18.3743L55.7978 19.436ZM56.6938 14.508H59.6938C59.6938 12.365 59.3112 10.3466 58.417 8.55836L55.7338 9.9L53.0505 11.2416C53.4363 12.0134 53.6938 13.067 53.6938 14.508H56.6938ZM55.7338 9.9L58.4342 8.59332C57.6144 6.89909 56.4897 5.44688 55.0478 4.29339L53.1738 6.636L51.2997 8.97861C51.9911 9.53178 52.5731 10.2556 53.0333 11.2067L55.7338 9.9ZM53.1738 6.636L55.1493 4.37827C53.7915 3.19021 52.2282 2.33954 50.4902 1.83496L49.6538 4.716L48.8173 7.59704C49.7247 7.86046 50.508 8.28978 51.1982 8.89373L53.1738 6.636ZM49.6538 4.716L50.6024 1.86995C49.0228 1.34339 47.4014 1.076 45.7498 1.076V4.076V7.076C46.7435 7.076 47.7247 7.23527 48.7051 7.56205L49.6538 4.716ZM45.7498 4.076V1.076C43.007 1.076 40.385 1.76738 37.9209 3.10212L39.3498 5.74L40.7786 8.37787C42.4105 7.49395 44.0552 7.076 45.7498 7.076V4.076ZM39.3498 5.74L37.8976 3.1149C35.547 4.41523 33.424 6.18749 31.5179 8.37946L33.7818 10.348L36.0456 12.3165C37.5528 10.5832 39.1419 9.28343 40.8019 8.3651L39.3498 5.74ZM33.7818 10.348L31.5179 8.37946C29.6248 10.5566 27.9749 13.0775 26.5545 15.9184L29.2378 17.26L31.921 18.6016C33.1459 16.1518 34.5254 14.0648 36.0456 12.3165L33.7818 10.348ZM29.2378 17.26L26.5373 15.9533C25.1727 18.7735 24.0446 21.8023 23.1472 25.0331L26.0378 25.836L28.9283 26.6389C29.7375 23.7257 30.7428 21.0371 31.9382 18.5667L29.2378 17.26ZM26.0378 25.836L23.1341 25.0818C22.255 28.4663 21.7441 31.3898 21.6944 33.7735L24.6938 33.836L27.6931 33.8985C27.7288 32.1862 28.1138 29.7763 28.9414 26.5902L26.0378 25.836ZM24.6938 33.836L21.6944 33.7722C21.6517 35.7817 21.6298 37.3013 21.6298 38.316H24.6298H27.6298C27.6298 37.368 27.6505 35.901 27.6931 33.8998L24.6938 33.836ZM24.6298 38.316L24.7368 41.3141C28.6221 41.1753 32.4891 40.4585 36.3304 39.178L35.3818 36.332L34.4331 33.4859C31.1064 34.5949 27.8054 35.2007 24.5227 35.3179L24.6298 38.316ZM35.3818 36.332L36.3304 39.178C40.1577 37.9023 43.6883 36.1858 46.9101 34.0227L45.2378 31.532L43.5654 29.0413C40.8139 30.8888 37.7738 32.3724 34.4331 33.4859L35.3818 36.332ZM45.2378 31.532L48.1553 32.2306C48.8976 29.1303 49.4329 26.3554 49.7489 23.9177L46.7738 23.532L43.7986 23.1463C43.5173 25.3166 43.0286 27.875 42.3202 30.8334L45.2378 31.532ZM46.7738 23.532L49.7414 23.9716C50.1068 21.505 50.2028 19.2606 49.9387 17.3062L46.9658 17.708L43.9928 18.1098C44.1553 19.3127 44.1234 20.951 43.8061 23.0924L46.7738 23.532ZM46.9658 17.708L49.9387 17.3062C49.6651 15.2816 48.9378 13.3967 47.5382 11.927L45.3658 13.996L43.1933 16.065C43.5003 16.3873 43.8397 16.9771 43.9928 18.1098L46.9658 17.708ZM45.3658 13.996L47.5382 11.927C46.0416 10.3556 44.0196 9.62948 41.8958 9.41166L41.5898 12.396L41.2837 15.3803C42.4879 15.5039 42.9833 15.8444 43.1933 16.065L45.3658 13.996ZM41.5898 12.396L41.9712 9.42036C39.8735 9.15141 37.8358 9.3504 35.9496 10.1414L37.1098 12.908L38.2699 15.6746C39.029 15.3563 39.978 15.2139 41.2083 15.3716L41.5898 12.396ZM37.1098 12.908L35.9169 10.1553C34.2645 10.8714 32.8045 11.8931 31.5518 13.2003L33.7178 15.276L35.8837 17.3517C36.5937 16.6109 37.395 16.054 38.3026 15.6607L37.1098 12.908ZM33.7178 15.276L31.5518 13.2003C30.3469 14.4576 29.3455 15.9043 28.5385 17.5184L31.2218 18.86L33.905 20.2016C34.4633 19.0851 35.126 18.1424 35.8837 17.3517L33.7178 15.276ZM31.2218 18.86L28.5385 17.5184C27.7714 19.0525 27.1499 20.6553 26.6732 22.3238L29.5578 23.148L32.4423 23.9722C32.8189 22.6541 33.3068 21.3982 33.905 20.2016L31.2218 18.86ZM29.5578 23.148L26.6797 22.3015C26.2093 23.9006 25.8754 25.4923 25.6835 27.075L28.6618 27.436L31.64 27.797C31.7894 26.5637 32.0528 25.2968 32.4358 23.9945L29.5578 23.148ZM28.6618 27.436L25.6741 27.1644C25.5378 28.6636 25.4869 30.0366 25.5361 31.2679L28.5338 31.148L31.5314 31.0281C31.4953 30.126 31.5297 29.0244 31.6494 27.7076L28.6618 27.436ZM28.5338 31.148L29.3579 28.2634L28.9099 28.1354L28.0858 31.02L27.2616 33.9046L27.7096 34.0326L28.5338 31.148ZM65.5643 51.5V54.5H68.5551L68.5642 51.5091L65.5643 51.5ZM57.7562 51.5H54.7562V54.5H57.7562V51.5ZM57.7562 6.7V3.7H54.7562V6.7H57.7562ZM76.4443 7.212L75.8955 10.1614L76.4443 7.212ZM81.3083 9.068L79.6976 11.599L79.7253 11.6166L79.7533 11.6336L81.3083 9.068ZM84.6363 12.588L81.9997 14.0193L82.0243 14.0646L82.0504 14.1091L84.6363 12.588ZM84.8282 23.532L82.1155 22.251H82.1155L84.8282 23.532ZM81.6923 27.372L79.8923 24.972L79.8739 24.9858L79.8557 24.9998L81.6923 27.372ZM76.8923 29.676L76.1029 26.7817L76.0944 26.784L76.0859 26.7864L76.8923 29.676ZM65.6283 30.444V27.444H62.6374L62.6283 30.4349L65.6283 30.444ZM73.6283 24.172L74.0525 27.1418L74.1213 27.132L74.1896 27.119L73.6283 24.172ZM75.9323 23.276L74.3423 20.732L74.3048 20.7554L74.2682 20.7798L75.9323 23.276ZM77.4682 21.484L74.785 20.1424L74.7545 20.2033L74.7268 20.2656L77.4682 21.484ZM77.4682 15.596L74.7268 16.8144L74.7545 16.8767L74.785 16.9376L77.4682 15.596ZM75.9323 13.868L74.2681 16.3641L74.3626 16.4271L74.4615 16.4827L75.9323 13.868ZM73.6283 13.036L73.0669 15.983L73.1352 15.996L73.204 16.0058L73.6283 13.036ZM65.6283 12.78V9.78H62.6283V12.78H65.6283ZM65.6283 24.364H62.6283V27.364H65.6283V24.364ZM65.5643 51.5V48.5H57.7562V51.5V54.5H65.5643V51.5ZM57.7562 51.5H60.7562V6.7H57.7562H54.7562V51.5H57.7562ZM57.7562 6.7V9.7H70.6842V6.7V3.7H57.7562V6.7ZM70.6842 6.7V9.7C72.5191 9.7 74.2547 9.85611 75.8955 10.1614L76.4443 7.212L76.993 4.26261C74.9645 3.88521 72.8601 3.7 70.6842 3.7V6.7ZM76.4443 7.212L75.8955 10.1614C77.3972 10.4408 78.6497 10.9321 79.6976 11.599L81.3083 9.068L82.9189 6.53701C81.1508 5.41189 79.1606 4.66589 76.993 4.26261L76.4443 7.212ZM81.3083 9.068L79.7533 11.6336C80.6916 12.2023 81.4342 12.9775 81.9997 14.0193L84.6363 12.588L87.2728 11.1567C86.217 9.21178 84.7409 7.64041 82.8632 6.5024L81.3083 9.068ZM84.6363 12.588L82.0504 14.1091C82.5549 14.9666 82.9163 16.252 82.9163 18.156H85.9163H88.9163C88.9163 15.5373 88.4243 13.1107 87.2221 11.0669L84.6363 12.588ZM85.9163 18.156H82.9163C82.9163 19.8507 82.6168 21.1894 82.1155 22.251L84.8282 23.532L87.541 24.813C88.4904 22.8026 88.9163 20.5573 88.9163 18.156H85.9163ZM84.8282 23.532L82.1155 22.251C81.5998 23.3431 80.8687 24.2397 79.8923 24.972L81.6923 27.372L83.4922 29.772C85.2465 28.4563 86.606 26.7929 87.541 24.813L84.8282 23.532ZM81.6923 27.372L79.8557 24.9998C78.891 25.7467 77.6616 26.3566 76.1029 26.7817L76.8923 29.676L77.6816 32.5703C79.8776 31.9714 81.8481 31.0453 83.5288 29.7442L81.6923 27.372ZM76.8923 29.676L76.0859 26.7864C74.5618 27.2117 72.7706 27.444 70.6842 27.444V30.444V33.444C73.2059 33.444 75.5533 33.1643 77.6986 32.5656L76.8923 29.676ZM70.6842 30.444V27.444H65.6283V30.444V33.444H70.6842V30.444ZM65.6283 30.444L62.6283 30.4349L62.5643 51.4909L65.5643 51.5L68.5642 51.5091L68.6282 30.4531L65.6283 30.444ZM70.6842 24.364V27.364C71.8686 27.364 72.9938 27.2931 74.0525 27.1418L73.6283 24.172L73.204 21.2022C72.4707 21.3069 71.6333 21.364 70.6842 21.364V24.364ZM73.6283 24.172L74.1896 27.119C75.4076 26.887 76.5666 26.4586 77.5964 25.7722L75.9323 23.276L74.2682 20.7798C74.0179 20.9467 73.6409 21.1157 73.0669 21.225L73.6283 24.172ZM75.9323 23.276L77.5222 25.82C78.7354 25.0617 79.6366 23.9918 80.2097 22.7024L77.4682 21.484L74.7268 20.2656C74.6172 20.5122 74.4944 20.6369 74.3423 20.732L75.9323 23.276ZM77.4682 21.484L80.1515 22.8256C80.809 21.5108 81.0443 20.0288 81.0443 18.54H78.0443H75.0443C75.0443 19.4406 74.8955 19.9212 74.785 20.1424L77.4682 21.484ZM78.0443 18.54H81.0443C81.0443 17.0512 80.809 15.5692 80.1515 14.2544L77.4682 15.596L74.785 16.9376C74.8955 17.1588 75.0443 17.6394 75.0443 18.54H78.0443ZM77.4682 15.596L80.2097 14.3776C79.6264 13.0653 78.6906 11.9775 77.403 11.2533L75.9323 13.868L74.4615 16.4827C74.5392 16.5265 74.6274 16.5907 74.7268 16.8144L77.4682 15.596ZM75.9323 13.868L77.5964 11.3719C76.5233 10.6565 75.3142 10.2464 74.0525 10.0662L73.6283 13.036L73.204 16.0058C73.7343 16.0816 74.0612 16.2262 74.2681 16.3641L75.9323 13.868ZM73.6283 13.036L74.1896 10.089C73.0806 9.87775 71.9085 9.78 70.6842 9.78V12.78V15.78C71.5933 15.78 72.3839 15.8529 73.0669 15.983L73.6283 13.036ZM70.6842 12.78V9.78H65.6283V12.78V15.78H70.6842V12.78ZM65.6283 12.78H62.6283V24.364H65.6283H68.6283V12.78H65.6283ZM65.6283 24.364V27.364H70.6842V24.364V21.364H65.6283V24.364ZM96.0642 45.74L93.0643 45.726L93.0503 48.74H96.0642V45.74ZM123.072 45.74H126.072V42.74H123.072V45.74ZM123.072 51.5V54.5H126.072V51.5H123.072ZM88.2562 51.5H85.2562V54.5H88.2562V51.5ZM88.2562 6.7V3.7H85.2562V6.7H88.2562ZM122.88 6.7H125.88V3.7H122.88V6.7ZM122.88 12.46V15.46H125.88V12.46H122.88ZM96.1283 12.46V9.46H93.1283V12.46H96.1283ZM96.1283 26.22H93.1283V29.22H96.1283V26.22ZM122.88 26.22H125.88V23.22H122.88V26.22ZM122.88 31.98V34.98H125.88V31.98H122.88ZM96.1283 31.98V28.98H93.1422L93.1283 31.966L96.1283 31.98ZM96.0642 45.74V48.74H123.072V45.74V42.74H96.0642V45.74ZM123.072 45.74H120.072V51.5H123.072H126.072V45.74H123.072ZM123.072 51.5V48.5H88.2562V51.5V54.5H123.072V51.5ZM88.2562 51.5H91.2562V6.7H88.2562H85.2562V51.5H88.2562ZM88.2562 6.7V9.7H122.88V6.7V3.7H88.2562V6.7ZM122.88 6.7H119.88V12.46H122.88H125.88V6.7H122.88ZM122.88 12.46V9.46H96.1283V12.46V15.46H122.88V12.46ZM96.1283 12.46H93.1283V26.22H96.1283H99.1283V12.46H96.1283ZM96.1283 26.22V29.22H122.88V26.22V23.22H96.1283V26.22ZM122.88 26.22H119.88V31.98H122.88H125.88V26.22H122.88ZM122.88 31.98V28.98H96.1283V31.98V34.98H122.88V31.98ZM96.1283 31.98L93.1283 31.966L93.0643 45.726L96.0642 45.74L99.0642 45.754L99.1282 31.994L96.1283 31.98ZM158.072 49.58L155.291 50.7049L161.072 49.58H158.072ZM158.072 6.7V3.7H155.072V6.7H158.072ZM166.328 6.7L169.328 6.73428L169.362 3.7H166.328V6.7ZM165.816 51.5V54.5H168.782L168.816 51.5343L165.816 51.5ZM151.096 51.5L148.315 52.6266L149.074 54.5H151.096V51.5ZM134.136 9.644L136.916 8.51738L131.136 9.61189L134.136 9.644ZM133.688 51.5V54.5H136.656L136.688 51.5321L133.688 51.5ZM125.944 51.5H122.944V54.5H125.944V51.5ZM125.944 6.7V3.7H122.944V6.7H125.944ZM140.728 6.7L143.509 5.5751L142.75 3.7H140.728V6.7ZM158.072 49.58H161.072V6.7H158.072H155.072V49.58H158.072ZM158.072 6.7V9.7H166.328V6.7V3.7H158.072V6.7ZM166.328 6.7L163.328 6.66571L162.816 51.4657L165.816 51.5L168.816 51.5343L169.328 6.73428L166.328 6.7ZM165.816 51.5V48.5H151.096V51.5V54.5H165.816V51.5ZM151.096 51.5L153.876 50.3734L136.916 8.51738L134.136 9.644L131.355 10.7706L148.315 52.6266L151.096 51.5ZM134.136 9.644L131.136 9.61189L130.688 51.4679L133.688 51.5L136.688 51.5321L137.136 9.67611L134.136 9.644ZM133.688 51.5V48.5H125.944V51.5V54.5H133.688V51.5ZM125.944 51.5H128.944V6.7H125.944H122.944V51.5H125.944ZM125.944 6.7V9.7H140.728V6.7V3.7H125.944V6.7ZM140.728 6.7L137.947 7.8249L155.291 50.7049L158.072 49.58L160.853 48.4551L143.509 5.5751L140.728 6.7ZM194.301 35.82L197.115 34.7801V34.78L194.301 35.82ZM197.501 40.876L195.379 42.9973L195.396 43.0136L195.412 43.0297L197.501 40.876ZM202.685 44.076L203.738 41.267L202.685 44.076ZM213.053 44.908L213.58 47.8613L213.62 47.8541L213.661 47.8458L213.053 44.908ZM216.509 43.244L214.68 40.8661L214.657 40.8835L214.635 40.9014L216.509 43.244ZM219.325 39.532L222.036 40.8163L222.042 40.8027L222.049 40.7892L219.325 39.532ZM220.733 32.748L223.727 32.9268L223.733 32.8375V32.748H220.733ZM220.733 31.98H223.733V28.98H220.733V31.98ZM199.613 31.98H196.613V34.98H199.613V31.98ZM199.613 26.22V23.22H196.613V26.22H199.613ZM227.581 26.22H230.581V23.22H227.581V26.22ZM227.581 51.5V54.5H230.581V51.5H227.581ZM220.733 51.5H217.733V54.5H220.733V51.5ZM220.733 42.22H223.733L217.795 41.611L220.733 42.22ZM216.061 49.772L217.651 52.316L217.667 52.3059L217.683 52.2955L216.061 49.772ZM199.101 50.412L197.908 53.1647L197.927 53.1731L197.947 53.1812L199.101 50.412ZM192.509 45.804L190.295 47.829L190.306 47.8409L190.317 47.8527L192.509 45.804ZM188.221 38.636L185.401 39.6612L185.404 39.6682L185.406 39.6751L188.221 38.636ZM188.221 20.076L185.421 18.9991L185.413 19.0179L185.406 19.0369L188.221 20.076ZM192.637 12.972L190.47 10.8973L190.469 10.8983L192.637 12.972ZM199.485 8.364L200.607 11.1463L200.618 11.1418L200.629 11.1371L199.485 8.364ZM227.389 6.7L230.389 6.72777L230.417 3.7H227.389V6.7ZM227.325 13.612L227.304 16.6119L230.297 16.6322L230.325 13.6398L227.325 13.612ZM208.445 13.484L208.465 10.4841L208.455 10.484H208.445V13.484ZM202.173 14.636L201.037 11.8594L202.173 14.636ZM197.373 17.9L199.527 19.9874L199.544 19.9708L199.559 19.954L197.373 17.9ZM194.301 22.892L197.107 23.9522L197.111 23.9421L197.115 23.9319L194.301 22.892ZM193.213 29.356H190.213C190.213 32.0148 190.624 34.5264 191.487 36.86L194.301 35.82L197.115 34.78C196.526 33.1882 196.213 31.3906 196.213 29.356H193.213ZM194.301 35.82L191.487 36.86C192.354 39.2077 193.65 41.2676 195.379 42.9973L197.501 40.876L199.622 38.7547C198.536 37.6684 197.698 36.3576 197.115 34.7801L194.301 35.82ZM197.501 40.876L195.412 43.0297C197.149 44.7138 199.242 45.9888 201.631 46.885L202.685 44.076L203.738 41.267C202.032 40.6272 200.668 39.7689 199.589 38.7223L197.501 40.876ZM202.685 44.076L201.631 46.885C204.073 47.8008 206.765 48.228 209.661 48.228V45.228V42.228C207.351 42.228 205.392 41.8872 203.738 41.267L202.685 44.076ZM209.661 45.228V48.228C210.926 48.228 212.235 48.1015 213.58 47.8613L213.053 44.908L212.525 41.9547C211.481 42.1411 210.528 42.228 209.661 42.228V45.228ZM213.053 44.908L213.661 47.8458C215.398 47.4863 216.977 46.7109 218.383 45.5866L216.509 43.244L214.635 40.9014C213.907 41.4838 213.182 41.8177 212.445 41.9702L213.053 44.908ZM216.509 43.244L218.338 45.6219C219.915 44.409 221.12 42.7494 222.036 40.8163L219.325 39.532L216.614 38.2477C215.993 39.5573 215.322 40.3724 214.68 40.8661L216.509 43.244ZM219.325 39.532L222.049 40.7892C223.036 38.6496 223.546 35.9721 223.727 32.9268L220.733 32.748L217.738 32.5692C217.579 35.2412 217.149 37.0864 216.601 38.2748L219.325 39.532ZM220.733 32.748H223.733V31.98H220.733H217.733V32.748H220.733ZM220.733 31.98V28.98H199.613V31.98V34.98H220.733V31.98ZM199.613 31.98H202.613V26.22H199.613H196.613V31.98H199.613ZM199.613 26.22V29.22H227.581V26.22V23.22H199.613V26.22ZM227.581 26.22H224.581V51.5H227.581H230.581V26.22H227.581ZM227.581 51.5V48.5H220.733V51.5V54.5H227.581V51.5ZM220.733 51.5H223.733V42.22H220.733H217.733V51.5H220.733ZM220.733 42.22L217.795 41.611C217.189 44.5359 215.985 46.2541 214.438 47.2485L216.061 49.772L217.683 52.2955C220.915 50.2179 222.826 46.9014 223.67 42.829L220.733 42.22ZM216.061 49.772L214.471 47.228C212.639 48.373 210.354 49.012 207.485 49.012V52.012V55.012C211.272 55.012 214.704 54.1577 217.651 52.316L216.061 49.772ZM207.485 52.012V49.012C204.815 49.012 202.416 48.5436 200.255 47.6428L199.101 50.412L197.947 53.1812C200.905 54.4138 204.096 55.012 207.485 55.012V52.012ZM199.101 50.412L200.294 47.6593C198.096 46.7072 196.243 45.4057 194.7 43.7553L192.509 45.804L190.317 47.8527C192.444 50.1276 194.985 51.8981 197.908 53.1647L199.101 50.412ZM192.509 45.804L194.722 43.779C193.172 42.0845 191.936 40.0379 191.035 37.5969L188.221 38.636L185.406 39.6751C186.553 42.7807 188.176 45.5128 190.295 47.829L192.509 45.804ZM188.221 38.636L191.04 37.6108C190.15 35.1617 189.685 32.4203 189.685 29.356H186.685H183.685C183.685 33.033 184.244 36.4783 185.401 39.6612L188.221 38.636ZM186.685 29.356H189.685C189.685 26.2433 190.151 23.5087 191.035 21.1151L188.221 20.076L185.406 19.0369C184.242 22.19 183.685 25.642 183.685 29.356H186.685ZM188.221 20.076L191.021 21.1529C191.958 18.7153 193.227 16.6953 194.805 15.0457L192.637 12.972L190.469 10.8983C188.292 13.1741 186.617 15.89 185.421 18.9991L188.221 20.076ZM192.637 12.972L194.804 15.0467C196.421 13.3572 198.345 12.0584 200.607 11.1463L199.485 8.364L198.363 5.58167C195.334 6.80297 192.692 8.57612 190.47 10.8973L192.637 12.972ZM199.485 8.364L200.629 11.1371C202.91 10.1958 205.501 9.7 208.445 9.7V6.7V3.7C204.818 3.7 201.435 4.31353 198.34 5.59088L199.485 8.364ZM208.445 6.7V9.7H227.389V6.7V3.7H208.445V6.7ZM227.389 6.7L224.389 6.67222L224.325 13.5842L227.325 13.612L230.325 13.6398L230.389 6.72777L227.389 6.7ZM227.325 13.612L227.345 10.6121L208.465 10.4841L208.445 13.484L208.424 16.4839L227.304 16.6119L227.325 13.612ZM208.445 13.484V10.484C205.804 10.484 203.32 10.9252 201.037 11.8594L202.173 14.636L203.309 17.4126C204.78 16.8108 206.478 16.484 208.445 16.484V13.484ZM202.173 14.636L201.037 11.8594C198.782 12.7818 196.818 14.109 195.186 15.846L197.373 17.9L199.559 19.954C200.573 18.875 201.809 18.0262 203.309 17.4126L202.173 14.636ZM197.373 17.9L195.218 15.8126C193.577 17.5064 192.342 19.5379 191.487 21.852L194.301 22.892L197.115 23.9319C197.71 22.3208 198.523 21.0242 199.527 19.9874L197.373 17.9ZM194.301 22.892L191.494 21.8318C190.622 24.1413 190.213 26.6629 190.213 29.356H193.213H196.213C196.213 27.2704 196.529 25.4827 197.107 23.9522L194.301 22.892ZM240.609 51.5V54.5H243.614L243.609 51.4957L240.609 51.5ZM232.673 51.5H229.673V54.5H232.673V51.5ZM232.673 6.7V3.7H229.673V6.7H232.673ZM240.545 6.7L243.545 6.69571L243.541 3.7H240.545V6.7ZM240.609 51.5V48.5H232.673V51.5V54.5H240.609V51.5ZM232.673 51.5H235.673V6.7H232.673H229.673V51.5H232.673ZM232.673 6.7V9.7H240.545V6.7V3.7H232.673V6.7ZM240.545 6.7L237.545 6.70428L237.609 51.5043L240.609 51.5L243.609 51.4957L243.545 6.69571L240.545 6.7ZM252.563 51.5V54.5H255.543L255.563 51.5197L252.563 51.5ZM244.819 51.5H241.819V54.5H244.819V51.5ZM244.819 6.7V3.7H241.819V6.7H244.819ZM279.443 6.7H282.443V3.7H279.443V6.7ZM279.443 12.46V15.46H282.443V12.46H279.443ZM252.691 12.46V9.46H249.691V12.46H252.691ZM252.691 26.22H249.691V29.22H252.691V26.22ZM279.443 26.22H282.443V23.22H279.443V26.22ZM279.443 31.98V34.98H282.443V31.98H279.443ZM252.691 31.98V28.98H249.71L249.691 31.9603L252.691 31.98ZM252.563 51.5V48.5H244.819V51.5V54.5H252.563V51.5ZM244.819 51.5H247.819V6.7H244.819H241.819V51.5H244.819ZM244.819 6.7V9.7H279.443V6.7V3.7H244.819V6.7ZM279.443 6.7H276.443V12.46H279.443H282.443V6.7H279.443ZM279.443 12.46V9.46H252.691V12.46V15.46H279.443V12.46ZM252.691 12.46H249.691V26.22H252.691H255.691V12.46H252.691ZM252.691 26.22V29.22H279.443V26.22V23.22H252.691V26.22ZM279.443 26.22H276.443V31.98H279.443H282.443V26.22H279.443ZM279.443 31.98V28.98H252.691V31.98V34.98H279.443V31.98ZM252.691 31.98L249.691 31.9603L249.563 51.4803L252.563 51.5L255.563 51.5197L255.691 31.9997L252.691 31.98ZM282.241 6.764V3.764H279.241V6.764H282.241ZM311.681 6.764H314.681V3.764H311.681V6.764ZM311.681 12.524V15.524H314.681V12.524H311.681ZM300.929 12.524V9.524H297.924L297.929 12.5289L300.929 12.524ZM300.993 51.5V54.5H303.998L303.993 51.4951L300.993 51.5ZM293.057 51.5H290.057V54.5H293.057V51.5ZM293.057 12.524H296.057V9.524H293.057V12.524ZM282.241 12.524H279.241V15.524H282.241V12.524ZM282.241 6.764V9.764H311.681V6.764V3.764H282.241V6.764ZM311.681 6.764H308.681V12.524H311.681H314.681V6.764H311.681ZM311.681 12.524V9.524H300.929V12.524V15.524H311.681V12.524ZM300.929 12.524L297.929 12.5289L297.993 51.5049L300.993 51.5L303.993 51.4951L303.929 12.5191L300.929 12.524ZM300.993 51.5V48.5H293.057V51.5V54.5H300.993V51.5ZM293.057 51.5H296.057V12.524H293.057H290.057V51.5H293.057ZM293.057 12.524V9.524H282.241V12.524V15.524H293.057V12.524ZM282.241 12.524H285.241V6.764H282.241H279.241V12.524H282.241Z" fill="#1E8FFF" mask="url(#path-1-outside-1_5835_8670)"/>
</svg>
