<svg width="8" height="5" viewBox="0 0 8 5" fill="none" xmlns="http://www.w3.org/2000/svg">
<path d="M1.19809 0.381348L7.08912 0.381348C7.19339 0.38137 7.29532 0.412308 7.38201 0.47025C7.46871 0.528192 7.53627 0.610537 7.57617 0.706875C7.61608 0.803213 7.62652 0.909218 7.60618 1.01149C7.58584 1.11376 7.53564 1.20771 7.46192 1.28145L4.51641 4.22696C4.41752 4.32581 4.28342 4.38135 4.1436 4.38135C4.00378 4.38135 3.86968 4.32581 3.7708 4.22696L0.825286 1.28145C0.751564 1.20771 0.701361 1.11376 0.681024 1.01149C0.660688 0.909218 0.67113 0.803213 0.711031 0.706875C0.750932 0.610537 0.8185 0.528192 0.905194 0.47025C0.991888 0.412308 1.09381 0.38137 1.19809 0.381348Z" fill="white"/>
</svg>
