<svg width="16" height="17" viewBox="0 0 16 17" fill="none" xmlns="http://www.w3.org/2000/svg">
<path d="M6.0625 12.6404L6.0625 5.23892C6.06253 5.10792 6.1014 4.97986 6.1742 4.87093C6.24699 4.76201 6.35045 4.67712 6.47149 4.62699C6.59253 4.57686 6.72571 4.56374 6.85421 4.58929C6.9827 4.61484 7.10073 4.67791 7.19339 4.77054L10.8941 8.47126C11.0183 8.5955 11.0881 8.76398 11.0881 8.93965C11.0881 9.11532 11.0183 9.2838 10.8941 9.40804L7.19339 13.1088C7.10073 13.2014 6.9827 13.2645 6.85421 13.29C6.72571 13.3156 6.59253 13.3024 6.47149 13.2523C6.35045 13.2022 6.24699 13.1173 6.1742 13.0084C6.1014 12.8994 6.06253 12.7714 6.0625 12.6404Z" fill="#3D3D3D"/>
</svg>
