<svg width="101" height="100" viewBox="0 0 101 100" fill="none" xmlns="http://www.w3.org/2000/svg">
<path d="M91.2031 18.75V28.125H3.70312V18.75C3.70312 13.5925 7.92065 9.375 13.0781 9.375H22.4531V3.125H28.7031V9.375H66.2031V3.125H72.4531V9.375H81.8281C86.9856 9.375 91.2031 13.5925 91.2031 18.75ZM91.2031 34.375V51.6235C86.7338 48.6267 81.3597 46.875 75.5781 46.875C60.0782 46.875 47.4531 59.5001 47.4531 75C47.4531 80.78 49.2033 86.1572 52.2032 90.625H13.0781C7.92218 90.625 3.70312 86.4075 3.70312 81.25V34.375H91.2031ZM31.8281 68.75H19.3281V75H31.8281V68.75ZM31.8281 50H19.3281V56.25H31.8281V50ZM97.4531 75C97.4531 87.0789 87.657 96.875 75.5781 96.875C63.4993 96.875 53.7031 87.0789 53.7031 75C53.7031 62.9211 63.4993 53.125 75.5781 53.125C87.657 53.125 97.4531 62.9211 97.4531 75ZM79.9971 75L86.2471 68.75L81.8281 64.3311L75.5781 70.5811L69.3281 64.3311L64.9092 68.75L71.1592 75L64.9092 81.25L69.3281 85.6689L75.5781 79.4189L81.8281 85.6689L86.2471 81.25L79.9971 75Z" fill="#1E8FFF"/>
</svg>
