<svg width="101" height="100" viewBox="0 0 101 100" fill="none" xmlns="http://www.w3.org/2000/svg">
<path d="M51.6565 3.13809C50.2753 3.10372 48.894 3.13809 47.519 3.22872C38.6003 3.81309 30.1815 6.69434 22.7628 12.2756V9.36309C22.7565 7.64746 21.3659 6.25684 19.6503 6.25059C17.9253 6.24434 16.519 7.63809 16.5128 9.36309V19.0506C16.5128 21.835 19.869 23.2256 21.8409 21.2662C36.2753 6.83497 59.1222 5.33809 75.3128 17.7631C91.5034 30.1881 95.9659 52.6381 85.7659 70.3131C75.5597 87.9881 53.8972 95.3318 35.0409 87.5193C16.1847 79.7068 6.06904 59.2037 11.3534 39.4912C11.8034 37.8225 10.8097 36.1068 9.13779 35.6631C7.47529 35.21 5.75967 36.1912 5.30342 37.8537C-0.777833 60.5537 10.9315 84.3131 32.6409 93.31C54.3503 102.304 79.419 93.7693 91.169 73.4256C102.919 53.0818 97.769 27.1037 79.1253 12.8006C70.969 6.54122 61.319 3.35372 51.6565 3.13809ZM50.5847 18.0193C32.9565 18.0193 18.5847 32.3693 18.5847 49.9943C18.5847 67.6193 32.9597 81.9881 50.5847 81.9881C68.2097 81.9881 82.5534 67.6162 82.5534 49.9943C82.5534 32.3725 68.2097 18.0193 50.5847 18.0193ZM50.5847 30.36C52.3097 30.3662 53.7034 31.7725 53.6972 33.4975V33.9787C56.8222 34.4037 59.5003 36.3412 60.9222 39.0381C61.7222 40.5662 61.1315 42.4537 59.6003 43.2568C58.0784 44.0568 56.1878 43.4693 55.3815 41.9443C54.8222 40.8787 53.7409 40.1443 52.4034 40.1443H49.4972C47.5784 40.1443 46.1284 41.5943 46.1284 43.5131C46.1284 45.4318 47.5784 46.8818 49.4972 46.8818H50.5847H50.7378H51.6659C56.9409 46.8818 61.2597 51.2287 61.2597 56.5006C61.2597 61.0787 58.0065 64.9412 53.6972 65.8881V66.51C53.6909 68.2256 52.3003 69.6162 50.5847 69.6225C48.8565 69.6318 47.4472 68.2381 47.4409 66.51V66.0225C44.3222 65.5912 41.644 63.6662 40.2253 60.9756C39.419 59.4506 40.0097 57.5537 41.5378 56.7506C43.069 55.9443 44.9597 56.5381 45.7628 58.0693C46.3222 59.135 47.4253 59.8631 48.7597 59.8631H51.6659C53.5878 59.8631 55.0097 58.4193 55.0097 56.5006C55.0097 54.5818 53.5878 53.1318 51.6659 53.1318H50.5847H49.4972C44.2222 53.1318 39.8784 48.785 39.8784 43.5131C39.8784 38.9475 43.1409 35.0881 47.4409 34.1318V33.4975C47.4347 31.76 48.844 30.3506 50.5847 30.36Z" fill="#1E8FFF"/>
</svg>
