<svg width="65" height="64" viewBox="0 0 65 64" fill="none" xmlns="http://www.w3.org/2000/svg">
<g clip-path="url(#clip0_7702_32261)">
<path d="M64.2547 32.8826L53.6867 9.98392C52.3827 7.15992 49.532 5.33325 46.42 5.33325H18.58C15.468 5.33325 12.6173 7.15992 11.316 9.98125L0.745333 32.8826C0.582667 33.2319 0.5 33.6133 0.5 33.9999V50.6666C0.5 55.0772 4.08933 58.6666 8.5 58.6666H56.5C60.9107 58.6666 64.5 55.0772 64.5 50.6666V33.9999C64.5 33.6133 64.4173 33.2319 64.2547 32.8826ZM16.1587 12.2159C16.5933 11.2746 17.5427 10.6666 18.58 10.6666H46.42C47.4573 10.6666 48.4067 11.2746 48.8413 12.2159L57.972 31.9999H52.4813C50.4067 31.9999 48.6093 33.3359 48.012 35.3252L45.1507 44.8586C45.068 45.1413 44.812 45.3332 44.516 45.3332H20.484C20.188 45.3332 19.932 45.1412 19.8467 44.8559L16.9853 35.3252C16.388 33.3359 14.5933 31.9999 12.516 31.9999H7.028L16.1587 12.2159Z" fill="#343535"/>
</g>
<defs>
<clipPath id="clip0_7702_32261">
<rect width="64" height="64" fill="white" transform="translate(0.5)"/>
</clipPath>
</defs>
</svg>
