<svg width="24" height="24" viewBox="0 0 24 24" fill="none" xmlns="http://www.w3.org/2000/svg">
<path d="M18.3668 3.18715C18.1698 2.85206 17.8895 2.57368 17.553 2.37916C17.2165 2.18463 16.8354 2.08058 16.4468 2.07715H7.55176C7.16311 2.08058 6.78197 2.18463 6.4455 2.37916C6.10902 2.57368 5.82866 2.85206 5.63176 3.18715L1.18426 10.8896C0.986777 11.2317 0.882812 11.6197 0.882812 12.0146C0.882812 12.4096 0.986777 12.7976 1.18426 13.1396L5.63176 20.8121C5.82866 21.1472 6.10902 21.4256 6.4455 21.6201C6.78197 21.8147 7.16311 21.9187 7.55176 21.9221H16.4468C16.8354 21.9187 17.2165 21.8147 17.553 21.6201C17.8895 21.4256 18.1698 21.1472 18.3668 20.8121L22.8143 13.1096C23.0117 12.7676 23.1157 12.3796 23.1157 11.9846C23.1157 11.5897 23.0117 11.2017 22.8143 10.8596L18.3668 3.18715ZM15.7493 11.9996C15.7493 12.7413 15.5293 13.4664 15.1173 14.083C14.7052 14.6997 14.1195 15.1804 13.4343 15.4642C12.7491 15.748 11.9951 15.8223 11.2677 15.6776C10.5402 15.5329 9.87205 15.1757 9.34761 14.6513C8.82316 14.1269 8.46601 13.4587 8.32131 12.7312C8.17662 12.0038 8.25088 11.2498 8.53471 10.5646C8.81854 9.87936 9.29918 9.29369 9.91587 8.88164C10.5326 8.46958 11.2576 8.24965 11.9993 8.24965C12.9938 8.24965 13.9476 8.64474 14.6509 9.348C15.3542 10.0513 15.7493 11.0051 15.7493 11.9996Z" fill="#066EFF"/>
</svg>
