<svg width="506" height="122" viewBox="0 0 506 122" fill="none" xmlns="http://www.w3.org/2000/svg">
<g filter="url(#filter0_i_7238_31243)">
<rect x="0.328125" width="505.5" height="122" rx="12" fill="url(#paint0_linear_7238_31243)"/>
<g style="mix-blend-mode:plus-lighter" opacity="0.7">
<g filter="url(#filter1_ii_7238_31243)">
<path d="M297.078 29.7329H302.431C303.11 29.7329 303.534 28.9981 303.195 28.4101L294.136 12.7081C293.979 12.4351 293.687 12.2669 293.372 12.2669H288.019C287.34 12.2669 286.916 13.0017 287.255 13.5897L296.314 29.2917C296.472 29.5647 296.763 29.7329 297.078 29.7329Z" fill="url(#paint1_linear_7238_31243)"/>
</g>
<path d="M297.078 29.6226H302.431C303.025 29.6226 303.396 28.9798 303.1 28.4653L294.041 12.7632C293.903 12.5243 293.648 12.3774 293.372 12.3774H288.02C287.426 12.3774 287.054 13.0202 287.351 13.5347L296.41 29.2368C296.548 29.4755 296.802 29.6225 297.078 29.6226Z" stroke="url(#paint2_linear_7238_31243)" stroke-width="0.220505"/>
<g filter="url(#filter2_ii_7238_31243)">
<path d="M308.5 29.7329H313.853C314.532 29.7329 314.956 28.9981 314.617 28.4101L305.558 12.7081C305.401 12.4351 305.109 12.2669 304.794 12.2669H299.441C298.762 12.2669 298.338 13.0017 298.677 13.5897L307.736 29.2917C307.894 29.5647 308.185 29.7329 308.5 29.7329Z" fill="url(#paint3_linear_7238_31243)"/>
</g>
<path d="M308.5 29.6226H313.853C314.446 29.6226 314.818 28.9798 314.521 28.4653L305.463 12.7632C305.325 12.5243 305.07 12.3774 304.794 12.3774H299.441C298.847 12.3774 298.476 13.0202 298.772 13.5347L307.832 29.2368C307.97 29.4755 308.224 29.6225 308.5 29.6226Z" stroke="url(#paint4_linear_7238_31243)" stroke-width="0.220505"/>
<path d="M319.918 29.7329H325.271C325.95 29.7329 326.374 28.9981 326.035 28.4101L316.976 12.7081C316.819 12.4351 316.527 12.2669 316.212 12.2669H310.859C310.18 12.2669 309.756 13.0017 310.095 13.5897L319.154 29.2917C319.312 29.5647 319.603 29.7329 319.918 29.7329Z" fill="white" fill-opacity="0.1"/>
<path d="M331.34 29.7329H336.693C337.372 29.7329 337.796 28.9981 337.457 28.4101L328.398 12.7081C328.24 12.4351 327.949 12.2669 327.634 12.2669H322.281C321.602 12.2669 321.178 13.0017 321.517 13.5897L330.576 29.2917C330.733 29.5647 331.025 29.7329 331.34 29.7329Z" fill="white" fill-opacity="0.1"/>
<g filter="url(#filter3_ii_7238_31243)">
<path d="M342.758 29.7329H348.111C348.79 29.7329 349.214 28.9981 348.875 28.4101L339.816 12.7081C339.658 12.4351 339.367 12.2669 339.052 12.2669H333.699C333.02 12.2669 332.596 13.0017 332.935 13.5897L341.994 29.2917C342.151 29.5647 342.443 29.7329 342.758 29.7329Z" fill="url(#paint5_linear_7238_31243)"/>
</g>
<path d="M342.758 29.6226H348.11C348.704 29.6226 349.076 28.9798 348.779 28.4653L339.721 12.7632C339.583 12.5243 339.328 12.3774 339.052 12.3774H333.699C333.105 12.3774 332.733 13.0202 333.03 13.5347L342.09 29.2368C342.228 29.4755 342.482 29.6225 342.758 29.6226Z" stroke="url(#paint6_linear_7238_31243)" stroke-width="0.220505"/>
<g filter="url(#filter4_ii_7238_31243)">
<path d="M354.18 29.7329H359.533C360.211 29.7329 360.636 28.9981 360.297 28.4101L351.238 12.7081C351.08 12.4351 350.789 12.2669 350.474 12.2669H345.121C344.442 12.2669 344.018 13.0017 344.357 13.5897L353.416 29.2917C353.573 29.5647 353.865 29.7329 354.18 29.7329Z" fill="url(#paint7_linear_7238_31243)"/>
</g>
<path d="M354.18 29.6226H359.532C360.126 29.6226 360.498 28.9798 360.201 28.4653L351.143 12.7632C351.005 12.5243 350.749 12.3774 350.474 12.3774H345.121C344.527 12.3774 344.155 13.0202 344.452 13.5347L353.512 29.2368C353.65 29.4755 353.904 29.6225 354.18 29.6226Z" stroke="url(#paint8_linear_7238_31243)" stroke-width="0.220505"/>
<path d="M365.598 29.7329H370.951C371.629 29.7329 372.054 28.9981 371.715 28.4101L362.656 12.7081C362.498 12.4351 362.207 12.2669 361.892 12.2669H356.539C355.86 12.2669 355.436 13.0017 355.775 13.5897L364.834 29.2917C364.991 29.5647 365.282 29.7329 365.598 29.7329Z" fill="white" fill-opacity="0.1"/>
<path d="M377.02 29.7329H382.372C383.051 29.7329 383.476 28.9981 383.136 28.4101L374.078 12.7081C373.92 12.4351 373.629 12.2669 373.314 12.2669H367.961C367.282 12.2669 366.858 13.0017 367.197 13.5897L376.256 29.2917C376.413 29.5647 376.704 29.7329 377.02 29.7329Z" fill="white" fill-opacity="0.1"/>
<g filter="url(#filter5_ii_7238_31243)">
<path d="M388.438 29.7329H393.79C394.469 29.7329 394.894 28.9981 394.554 28.4101L385.496 12.7081C385.338 12.4351 385.047 12.2669 384.732 12.2669H379.379C378.7 12.2669 378.275 13.0017 378.615 13.5897L387.674 29.2917C387.831 29.5647 388.122 29.7329 388.438 29.7329Z" fill="url(#paint9_linear_7238_31243)"/>
</g>
<path d="M388.438 29.6226H393.79C394.384 29.6226 394.756 28.9798 394.459 28.4653L385.4 12.7632C385.263 12.5243 385.007 12.3774 384.731 12.3774H379.379C378.785 12.3774 378.413 13.0202 378.71 13.5347L387.77 29.2368C387.907 29.4755 388.162 29.6225 388.438 29.6226Z" stroke="url(#paint10_linear_7238_31243)" stroke-width="0.220505"/>
<g filter="url(#filter6_ii_7238_31243)">
<path d="M399.859 29.7329H405.212C405.891 29.7329 406.316 28.9981 405.976 28.4101L396.917 12.7081C396.76 12.4351 396.469 12.2669 396.153 12.2669H390.801C390.122 12.2669 389.697 13.0017 390.037 13.5897L399.095 29.2917C399.253 29.5647 399.544 29.7329 399.859 29.7329Z" fill="url(#paint11_linear_7238_31243)"/>
</g>
<path d="M399.859 29.6226H405.212C405.806 29.6226 406.178 28.9798 405.881 28.4653L396.822 12.7632C396.684 12.5243 396.429 12.3774 396.153 12.3774H390.801C390.207 12.3774 389.835 13.0202 390.132 13.5347L399.191 29.2368C399.329 29.4755 399.584 29.6225 399.859 29.6226Z" stroke="url(#paint12_linear_7238_31243)" stroke-width="0.220505"/>
<path d="M411.277 29.7329H416.63C417.309 29.7329 417.734 28.9981 417.394 28.4101L408.335 12.7081C408.178 12.4351 407.887 12.2669 407.571 12.2669H402.219C401.54 12.2669 401.115 13.0017 401.455 13.5897L410.513 29.2917C410.671 29.5647 410.962 29.7329 411.277 29.7329Z" fill="white" fill-opacity="0.1"/>
<path d="M422.699 29.7329H428.052C428.731 29.7329 429.155 28.9981 428.816 28.4101L419.757 12.7081C419.6 12.4351 419.309 12.2669 418.993 12.2669H413.64C412.962 12.2669 412.537 13.0017 412.876 13.5897L421.935 29.2917C422.093 29.5647 422.384 29.7329 422.699 29.7329Z" fill="white" fill-opacity="0.1"/>
<g filter="url(#filter7_ii_7238_31243)">
<path d="M434.121 29.7329H439.474C440.153 29.7329 440.577 28.9981 440.238 28.4101L431.179 12.7081C431.022 12.4351 430.73 12.2669 430.415 12.2669H425.062C424.383 12.2669 423.959 13.0017 424.298 13.5897L433.357 29.2917C433.515 29.5647 433.806 29.7329 434.121 29.7329Z" fill="url(#paint13_linear_7238_31243)"/>
</g>
<path d="M434.121 29.6226H439.474C440.068 29.6226 440.439 28.9798 440.143 28.4653L431.084 12.7632C430.946 12.5243 430.691 12.3774 430.415 12.3774H425.062C424.469 12.3774 424.097 13.0202 424.394 13.5347L433.453 29.2368C433.591 29.4755 433.845 29.6225 434.121 29.6226Z" stroke="url(#paint14_linear_7238_31243)" stroke-width="0.220505"/>
<g filter="url(#filter8_ii_7238_31243)">
<path d="M445.539 29.7329H450.892C451.571 29.7329 451.995 28.9981 451.656 28.4101L442.597 12.7081C442.44 12.4351 442.148 12.2669 441.833 12.2669H436.48C435.801 12.2669 435.377 13.0017 435.716 13.5897L444.775 29.2917C444.933 29.5647 445.224 29.7329 445.539 29.7329Z" fill="url(#paint15_linear_7238_31243)"/>
</g>
<path d="M445.539 29.6226H450.892C451.486 29.6226 451.857 28.9798 451.561 28.4653L442.502 12.7632C442.364 12.5243 442.109 12.3774 441.833 12.3774H436.48C435.886 12.3774 435.515 13.0202 435.812 13.5347L444.871 29.2368C445.009 29.4755 445.263 29.6225 445.539 29.6226Z" stroke="url(#paint16_linear_7238_31243)" stroke-width="0.220505"/>
<path d="M456.961 29.7329H462.314C462.993 29.7329 463.417 28.9981 463.078 28.4101L454.019 12.7081C453.862 12.4351 453.57 12.2669 453.255 12.2669H447.902C447.223 12.2669 446.799 13.0017 447.138 13.5897L456.197 29.2917C456.355 29.5647 456.646 29.7329 456.961 29.7329Z" fill="white" fill-opacity="0.1"/>
<path d="M468.379 29.7329H473.732C474.411 29.7329 474.835 28.9981 474.496 28.4101L465.437 12.7081C465.279 12.4351 464.988 12.2669 464.673 12.2669H459.32C458.641 12.2669 458.217 13.0017 458.556 13.5897L467.615 29.2917C467.772 29.5647 468.064 29.7329 468.379 29.7329Z" fill="white" fill-opacity="0.1"/>
<path d="M479.801 29.7329H485.154C485.833 29.7329 486.257 28.9981 485.918 28.4101L476.859 12.7081C476.701 12.4351 476.41 12.2669 476.095 12.2669H470.742C470.063 12.2669 469.639 13.0017 469.978 13.5897L479.037 29.2917C479.194 29.5647 479.486 29.7329 479.801 29.7329Z" fill="white" fill-opacity="0.1"/>
</g>
</g>
<defs>
<filter id="filter0_i_7238_31243" x="0.328125" y="0" width="505.5" height="126" filterUnits="userSpaceOnUse" color-interpolation-filters="sRGB">
<feFlood flood-opacity="0" result="BackgroundImageFix"/>
<feBlend mode="normal" in="SourceGraphic" in2="BackgroundImageFix" result="shape"/>
<feColorMatrix in="SourceAlpha" type="matrix" values="0 0 0 0 0 0 0 0 0 0 0 0 0 0 0 0 0 0 127 0" result="hardAlpha"/>
<feOffset dy="4"/>
<feGaussianBlur stdDeviation="6.05"/>
<feComposite in2="hardAlpha" operator="arithmetic" k2="-1" k3="1"/>
<feColorMatrix type="matrix" values="0 0 0 0 1 0 0 0 0 1 0 0 0 0 1 0 0 0 0.48 0"/>
<feBlend mode="normal" in2="shape" result="effect1_innerShadow_7238_31243"/>
</filter>
<filter id="filter1_ii_7238_31243" x="286.255" y="11.3848" width="17.9398" height="19.2301" filterUnits="userSpaceOnUse" color-interpolation-filters="sRGB">
<feFlood flood-opacity="0" result="BackgroundImageFix"/>
<feBlend mode="normal" in="SourceGraphic" in2="BackgroundImageFix" result="shape"/>
<feColorMatrix in="SourceAlpha" type="matrix" values="0 0 0 0 0 0 0 0 0 0 0 0 0 0 0 0 0 0 127 0" result="hardAlpha"/>
<feOffset dx="0.88202" dy="-0.88202"/>
<feGaussianBlur stdDeviation="0.633952"/>
<feComposite in2="hardAlpha" operator="arithmetic" k2="-1" k3="1"/>
<feColorMatrix type="matrix" values="0 0 0 0 1 0 0 0 0 1 0 0 0 0 1 0 0 0 1 0"/>
<feBlend mode="overlay" in2="shape" result="effect1_innerShadow_7238_31243"/>
<feColorMatrix in="SourceAlpha" type="matrix" values="0 0 0 0 0 0 0 0 0 0 0 0 0 0 0 0 0 0 127 0" result="hardAlpha"/>
<feOffset dx="-0.88202" dy="0.88202"/>
<feGaussianBlur stdDeviation="0.633952"/>
<feComposite in2="hardAlpha" operator="arithmetic" k2="-1" k3="1"/>
<feColorMatrix type="matrix" values="0 0 0 0 1 0 0 0 0 1 0 0 0 0 1 0 0 0 1 0"/>
<feBlend mode="overlay" in2="effect1_innerShadow_7238_31243" result="effect2_innerShadow_7238_31243"/>
</filter>
<filter id="filter2_ii_7238_31243" x="297.677" y="11.3848" width="17.9398" height="19.2301" filterUnits="userSpaceOnUse" color-interpolation-filters="sRGB">
<feFlood flood-opacity="0" result="BackgroundImageFix"/>
<feBlend mode="normal" in="SourceGraphic" in2="BackgroundImageFix" result="shape"/>
<feColorMatrix in="SourceAlpha" type="matrix" values="0 0 0 0 0 0 0 0 0 0 0 0 0 0 0 0 0 0 127 0" result="hardAlpha"/>
<feOffset dx="0.88202" dy="-0.88202"/>
<feGaussianBlur stdDeviation="0.633952"/>
<feComposite in2="hardAlpha" operator="arithmetic" k2="-1" k3="1"/>
<feColorMatrix type="matrix" values="0 0 0 0 1 0 0 0 0 1 0 0 0 0 1 0 0 0 1 0"/>
<feBlend mode="overlay" in2="shape" result="effect1_innerShadow_7238_31243"/>
<feColorMatrix in="SourceAlpha" type="matrix" values="0 0 0 0 0 0 0 0 0 0 0 0 0 0 0 0 0 0 127 0" result="hardAlpha"/>
<feOffset dx="-0.88202" dy="0.88202"/>
<feGaussianBlur stdDeviation="0.633952"/>
<feComposite in2="hardAlpha" operator="arithmetic" k2="-1" k3="1"/>
<feColorMatrix type="matrix" values="0 0 0 0 1 0 0 0 0 1 0 0 0 0 1 0 0 0 1 0"/>
<feBlend mode="overlay" in2="effect1_innerShadow_7238_31243" result="effect2_innerShadow_7238_31243"/>
</filter>
<filter id="filter3_ii_7238_31243" x="331.934" y="11.3848" width="17.9398" height="19.2301" filterUnits="userSpaceOnUse" color-interpolation-filters="sRGB">
<feFlood flood-opacity="0" result="BackgroundImageFix"/>
<feBlend mode="normal" in="SourceGraphic" in2="BackgroundImageFix" result="shape"/>
<feColorMatrix in="SourceAlpha" type="matrix" values="0 0 0 0 0 0 0 0 0 0 0 0 0 0 0 0 0 0 127 0" result="hardAlpha"/>
<feOffset dx="0.88202" dy="-0.88202"/>
<feGaussianBlur stdDeviation="0.633952"/>
<feComposite in2="hardAlpha" operator="arithmetic" k2="-1" k3="1"/>
<feColorMatrix type="matrix" values="0 0 0 0 1 0 0 0 0 1 0 0 0 0 1 0 0 0 1 0"/>
<feBlend mode="overlay" in2="shape" result="effect1_innerShadow_7238_31243"/>
<feColorMatrix in="SourceAlpha" type="matrix" values="0 0 0 0 0 0 0 0 0 0 0 0 0 0 0 0 0 0 127 0" result="hardAlpha"/>
<feOffset dx="-0.88202" dy="0.88202"/>
<feGaussianBlur stdDeviation="0.633952"/>
<feComposite in2="hardAlpha" operator="arithmetic" k2="-1" k3="1"/>
<feColorMatrix type="matrix" values="0 0 0 0 1 0 0 0 0 1 0 0 0 0 1 0 0 0 1 0"/>
<feBlend mode="overlay" in2="effect1_innerShadow_7238_31243" result="effect2_innerShadow_7238_31243"/>
</filter>
<filter id="filter4_ii_7238_31243" x="343.356" y="11.3848" width="17.9398" height="19.2301" filterUnits="userSpaceOnUse" color-interpolation-filters="sRGB">
<feFlood flood-opacity="0" result="BackgroundImageFix"/>
<feBlend mode="normal" in="SourceGraphic" in2="BackgroundImageFix" result="shape"/>
<feColorMatrix in="SourceAlpha" type="matrix" values="0 0 0 0 0 0 0 0 0 0 0 0 0 0 0 0 0 0 127 0" result="hardAlpha"/>
<feOffset dx="0.88202" dy="-0.88202"/>
<feGaussianBlur stdDeviation="0.633952"/>
<feComposite in2="hardAlpha" operator="arithmetic" k2="-1" k3="1"/>
<feColorMatrix type="matrix" values="0 0 0 0 1 0 0 0 0 1 0 0 0 0 1 0 0 0 1 0"/>
<feBlend mode="overlay" in2="shape" result="effect1_innerShadow_7238_31243"/>
<feColorMatrix in="SourceAlpha" type="matrix" values="0 0 0 0 0 0 0 0 0 0 0 0 0 0 0 0 0 0 127 0" result="hardAlpha"/>
<feOffset dx="-0.88202" dy="0.88202"/>
<feGaussianBlur stdDeviation="0.633952"/>
<feComposite in2="hardAlpha" operator="arithmetic" k2="-1" k3="1"/>
<feColorMatrix type="matrix" values="0 0 0 0 1 0 0 0 0 1 0 0 0 0 1 0 0 0 1 0"/>
<feBlend mode="overlay" in2="effect1_innerShadow_7238_31243" result="effect2_innerShadow_7238_31243"/>
</filter>
<filter id="filter5_ii_7238_31243" x="377.614" y="11.3848" width="17.9398" height="19.2301" filterUnits="userSpaceOnUse" color-interpolation-filters="sRGB">
<feFlood flood-opacity="0" result="BackgroundImageFix"/>
<feBlend mode="normal" in="SourceGraphic" in2="BackgroundImageFix" result="shape"/>
<feColorMatrix in="SourceAlpha" type="matrix" values="0 0 0 0 0 0 0 0 0 0 0 0 0 0 0 0 0 0 127 0" result="hardAlpha"/>
<feOffset dx="0.88202" dy="-0.88202"/>
<feGaussianBlur stdDeviation="0.633952"/>
<feComposite in2="hardAlpha" operator="arithmetic" k2="-1" k3="1"/>
<feColorMatrix type="matrix" values="0 0 0 0 1 0 0 0 0 1 0 0 0 0 1 0 0 0 1 0"/>
<feBlend mode="overlay" in2="shape" result="effect1_innerShadow_7238_31243"/>
<feColorMatrix in="SourceAlpha" type="matrix" values="0 0 0 0 0 0 0 0 0 0 0 0 0 0 0 0 0 0 127 0" result="hardAlpha"/>
<feOffset dx="-0.88202" dy="0.88202"/>
<feGaussianBlur stdDeviation="0.633952"/>
<feComposite in2="hardAlpha" operator="arithmetic" k2="-1" k3="1"/>
<feColorMatrix type="matrix" values="0 0 0 0 1 0 0 0 0 1 0 0 0 0 1 0 0 0 1 0"/>
<feBlend mode="overlay" in2="effect1_innerShadow_7238_31243" result="effect2_innerShadow_7238_31243"/>
</filter>
<filter id="filter6_ii_7238_31243" x="389.036" y="11.3848" width="17.9398" height="19.2301" filterUnits="userSpaceOnUse" color-interpolation-filters="sRGB">
<feFlood flood-opacity="0" result="BackgroundImageFix"/>
<feBlend mode="normal" in="SourceGraphic" in2="BackgroundImageFix" result="shape"/>
<feColorMatrix in="SourceAlpha" type="matrix" values="0 0 0 0 0 0 0 0 0 0 0 0 0 0 0 0 0 0 127 0" result="hardAlpha"/>
<feOffset dx="0.88202" dy="-0.88202"/>
<feGaussianBlur stdDeviation="0.633952"/>
<feComposite in2="hardAlpha" operator="arithmetic" k2="-1" k3="1"/>
<feColorMatrix type="matrix" values="0 0 0 0 1 0 0 0 0 1 0 0 0 0 1 0 0 0 1 0"/>
<feBlend mode="overlay" in2="shape" result="effect1_innerShadow_7238_31243"/>
<feColorMatrix in="SourceAlpha" type="matrix" values="0 0 0 0 0 0 0 0 0 0 0 0 0 0 0 0 0 0 127 0" result="hardAlpha"/>
<feOffset dx="-0.88202" dy="0.88202"/>
<feGaussianBlur stdDeviation="0.633952"/>
<feComposite in2="hardAlpha" operator="arithmetic" k2="-1" k3="1"/>
<feColorMatrix type="matrix" values="0 0 0 0 1 0 0 0 0 1 0 0 0 0 1 0 0 0 1 0"/>
<feBlend mode="overlay" in2="effect1_innerShadow_7238_31243" result="effect2_innerShadow_7238_31243"/>
</filter>
<filter id="filter7_ii_7238_31243" x="423.298" y="11.3848" width="17.9398" height="19.2301" filterUnits="userSpaceOnUse" color-interpolation-filters="sRGB">
<feFlood flood-opacity="0" result="BackgroundImageFix"/>
<feBlend mode="normal" in="SourceGraphic" in2="BackgroundImageFix" result="shape"/>
<feColorMatrix in="SourceAlpha" type="matrix" values="0 0 0 0 0 0 0 0 0 0 0 0 0 0 0 0 0 0 127 0" result="hardAlpha"/>
<feOffset dx="0.88202" dy="-0.88202"/>
<feGaussianBlur stdDeviation="0.633952"/>
<feComposite in2="hardAlpha" operator="arithmetic" k2="-1" k3="1"/>
<feColorMatrix type="matrix" values="0 0 0 0 1 0 0 0 0 1 0 0 0 0 1 0 0 0 1 0"/>
<feBlend mode="overlay" in2="shape" result="effect1_innerShadow_7238_31243"/>
<feColorMatrix in="SourceAlpha" type="matrix" values="0 0 0 0 0 0 0 0 0 0 0 0 0 0 0 0 0 0 127 0" result="hardAlpha"/>
<feOffset dx="-0.88202" dy="0.88202"/>
<feGaussianBlur stdDeviation="0.633952"/>
<feComposite in2="hardAlpha" operator="arithmetic" k2="-1" k3="1"/>
<feColorMatrix type="matrix" values="0 0 0 0 1 0 0 0 0 1 0 0 0 0 1 0 0 0 1 0"/>
<feBlend mode="overlay" in2="effect1_innerShadow_7238_31243" result="effect2_innerShadow_7238_31243"/>
</filter>
<filter id="filter8_ii_7238_31243" x="434.716" y="11.3848" width="17.9398" height="19.2301" filterUnits="userSpaceOnUse" color-interpolation-filters="sRGB">
<feFlood flood-opacity="0" result="BackgroundImageFix"/>
<feBlend mode="normal" in="SourceGraphic" in2="BackgroundImageFix" result="shape"/>
<feColorMatrix in="SourceAlpha" type="matrix" values="0 0 0 0 0 0 0 0 0 0 0 0 0 0 0 0 0 0 127 0" result="hardAlpha"/>
<feOffset dx="0.88202" dy="-0.88202"/>
<feGaussianBlur stdDeviation="0.633952"/>
<feComposite in2="hardAlpha" operator="arithmetic" k2="-1" k3="1"/>
<feColorMatrix type="matrix" values="0 0 0 0 1 0 0 0 0 1 0 0 0 0 1 0 0 0 1 0"/>
<feBlend mode="overlay" in2="shape" result="effect1_innerShadow_7238_31243"/>
<feColorMatrix in="SourceAlpha" type="matrix" values="0 0 0 0 0 0 0 0 0 0 0 0 0 0 0 0 0 0 127 0" result="hardAlpha"/>
<feOffset dx="-0.88202" dy="0.88202"/>
<feGaussianBlur stdDeviation="0.633952"/>
<feComposite in2="hardAlpha" operator="arithmetic" k2="-1" k3="1"/>
<feColorMatrix type="matrix" values="0 0 0 0 1 0 0 0 0 1 0 0 0 0 1 0 0 0 1 0"/>
<feBlend mode="overlay" in2="effect1_innerShadow_7238_31243" result="effect2_innerShadow_7238_31243"/>
</filter>
<linearGradient id="paint0_linear_7238_31243" x1="485.551" y1="-41.0059" x2="181.645" y2="249.642" gradientUnits="userSpaceOnUse">
<stop stop-color="#26A17B"/>
<stop offset="0.403384" stop-color="#BBF7C6"/>
<stop offset="0.729587" stop-color="#066EFF"/>
</linearGradient>
<linearGradient id="paint1_linear_7238_31243" x1="295.225" y1="29.7329" x2="295.225" y2="12.2669" gradientUnits="userSpaceOnUse">
<stop stop-color="#25376E"/>
<stop offset="1" stop-color="#0043EC"/>
</linearGradient>
<linearGradient id="paint2_linear_7238_31243" x1="299.842" y1="29.6363" x2="300.579" y2="11.7845" gradientUnits="userSpaceOnUse">
<stop stop-color="#BBF7C6"/>
<stop offset="0.4" stop-color="#052E0F" stop-opacity="0.1"/>
<stop offset="0.6" stop-color="#052E0F" stop-opacity="0.3"/>
<stop offset="1" stop-color="#BBF7C6"/>
</linearGradient>
<linearGradient id="paint3_linear_7238_31243" x1="306.647" y1="29.7329" x2="306.647" y2="12.2669" gradientUnits="userSpaceOnUse">
<stop stop-color="#25376E"/>
<stop offset="1" stop-color="#0043EC"/>
</linearGradient>
<linearGradient id="paint4_linear_7238_31243" x1="311.264" y1="29.6363" x2="312.001" y2="11.7845" gradientUnits="userSpaceOnUse">
<stop stop-color="#BBF7C6"/>
<stop offset="0.4" stop-color="#052E0F" stop-opacity="0.1"/>
<stop offset="0.6" stop-color="#052E0F" stop-opacity="0.3"/>
<stop offset="1" stop-color="#BBF7C6"/>
</linearGradient>
<linearGradient id="paint5_linear_7238_31243" x1="340.905" y1="29.7329" x2="340.905" y2="12.2669" gradientUnits="userSpaceOnUse">
<stop stop-color="#25376E"/>
<stop offset="1" stop-color="#0043EC"/>
</linearGradient>
<linearGradient id="paint6_linear_7238_31243" x1="345.521" y1="29.6363" x2="346.259" y2="11.7845" gradientUnits="userSpaceOnUse">
<stop stop-color="#BBF7C6"/>
<stop offset="0.4" stop-color="#052E0F" stop-opacity="0.1"/>
<stop offset="0.6" stop-color="#052E0F" stop-opacity="0.3"/>
<stop offset="1" stop-color="#BBF7C6"/>
</linearGradient>
<linearGradient id="paint7_linear_7238_31243" x1="352.327" y1="29.7329" x2="352.327" y2="12.2669" gradientUnits="userSpaceOnUse">
<stop stop-color="#25376E"/>
<stop offset="1" stop-color="#0043EC"/>
</linearGradient>
<linearGradient id="paint8_linear_7238_31243" x1="356.943" y1="29.6363" x2="357.681" y2="11.7845" gradientUnits="userSpaceOnUse">
<stop stop-color="#BBF7C6"/>
<stop offset="0.4" stop-color="#052E0F" stop-opacity="0.1"/>
<stop offset="0.6" stop-color="#052E0F" stop-opacity="0.3"/>
<stop offset="1" stop-color="#BBF7C6"/>
</linearGradient>
<linearGradient id="paint9_linear_7238_31243" x1="386.585" y1="29.7329" x2="386.585" y2="12.2669" gradientUnits="userSpaceOnUse">
<stop stop-color="#25376E"/>
<stop offset="1" stop-color="#0043EC"/>
</linearGradient>
<linearGradient id="paint10_linear_7238_31243" x1="391.201" y1="29.6363" x2="391.939" y2="11.7845" gradientUnits="userSpaceOnUse">
<stop stop-color="#BBF7C6"/>
<stop offset="0.4" stop-color="#052E0F" stop-opacity="0.1"/>
<stop offset="0.6" stop-color="#052E0F" stop-opacity="0.3"/>
<stop offset="1" stop-color="#BBF7C6"/>
</linearGradient>
<linearGradient id="paint11_linear_7238_31243" x1="398.006" y1="29.7329" x2="398.006" y2="12.2669" gradientUnits="userSpaceOnUse">
<stop stop-color="#25376E"/>
<stop offset="1" stop-color="#0043EC"/>
</linearGradient>
<linearGradient id="paint12_linear_7238_31243" x1="402.623" y1="29.6363" x2="403.361" y2="11.7845" gradientUnits="userSpaceOnUse">
<stop stop-color="#BBF7C6"/>
<stop offset="0.4" stop-color="#052E0F" stop-opacity="0.1"/>
<stop offset="0.6" stop-color="#052E0F" stop-opacity="0.3"/>
<stop offset="1" stop-color="#BBF7C6"/>
</linearGradient>
<linearGradient id="paint13_linear_7238_31243" x1="432.268" y1="29.7329" x2="432.268" y2="12.2669" gradientUnits="userSpaceOnUse">
<stop stop-color="#25376E"/>
<stop offset="1" stop-color="#0043EC"/>
</linearGradient>
<linearGradient id="paint14_linear_7238_31243" x1="436.885" y1="29.6363" x2="437.622" y2="11.7845" gradientUnits="userSpaceOnUse">
<stop stop-color="#BBF7C6"/>
<stop offset="0.4" stop-color="#052E0F" stop-opacity="0.1"/>
<stop offset="0.6" stop-color="#052E0F" stop-opacity="0.3"/>
<stop offset="1" stop-color="#BBF7C6"/>
</linearGradient>
<linearGradient id="paint15_linear_7238_31243" x1="443.686" y1="29.7329" x2="443.686" y2="12.2669" gradientUnits="userSpaceOnUse">
<stop stop-color="#25376E"/>
<stop offset="1" stop-color="#0043EC"/>
</linearGradient>
<linearGradient id="paint16_linear_7238_31243" x1="448.303" y1="29.6363" x2="449.04" y2="11.7845" gradientUnits="userSpaceOnUse">
<stop stop-color="#BBF7C6"/>
<stop offset="0.4" stop-color="#052E0F" stop-opacity="0.1"/>
<stop offset="0.6" stop-color="#052E0F" stop-opacity="0.3"/>
<stop offset="1" stop-color="#BBF7C6"/>
</linearGradient>
</defs>
</svg>
