<svg width="41" height="40" viewBox="0 0 41 40" fill="none" xmlns="http://www.w3.org/2000/svg">
<rect x="1.33203" y="1" width="38" height="38" rx="19" fill="#0844C5"/>
<rect x="1.33203" y="1" width="38" height="38" rx="19" stroke="white" stroke-width="2"/>
<g clip-path="url(#clip0_7601_18851)">
<path d="M20.5477 10.6276C20.2715 10.6207 19.9952 10.6276 19.7202 10.6457C17.9365 10.7626 16.2527 11.3389 14.769 12.4551V11.8726C14.7677 11.5295 14.4896 11.2514 14.1465 11.2501C13.8015 11.2489 13.5202 11.5276 13.519 11.8726V13.8101C13.519 14.367 14.1902 14.6451 14.5846 14.2532C17.4715 11.367 22.0408 11.0676 25.279 13.5526C28.5171 16.0376 29.4096 20.5276 27.3696 24.0626C25.3283 27.5976 20.9958 29.0664 17.2246 27.5039C13.4533 25.9414 11.4302 21.8407 12.4871 17.8982C12.5771 17.5645 12.3783 17.2214 12.044 17.1326C11.7115 17.042 11.3683 17.2382 11.2771 17.5707C10.0608 22.1107 12.4027 26.8626 16.7446 28.662C21.0865 30.4607 26.1002 28.7539 28.4502 24.6851C30.8002 20.6164 29.7702 15.4207 26.0415 12.5601C24.4102 11.3082 22.4802 10.6707 20.5477 10.6276ZM20.3333 13.6039C16.8077 13.6039 13.9333 16.4739 13.9333 19.9989C13.9333 23.5239 16.8083 26.3976 20.3333 26.3976C23.8583 26.3976 26.7271 23.5232 26.7271 19.9989C26.7271 16.4745 23.8583 13.6039 20.3333 13.6039ZM20.3333 16.072C20.6783 16.0732 20.9571 16.3545 20.9558 16.6995V16.7957C21.5808 16.8807 22.1165 17.2682 22.4008 17.8076C22.5608 18.1132 22.4427 18.4907 22.1365 18.6514C21.8321 18.8114 21.454 18.6939 21.2927 18.3889C21.1808 18.1757 20.9646 18.0289 20.6971 18.0289H20.1158C19.7321 18.0289 19.4421 18.3189 19.4421 18.7026C19.4421 19.0864 19.7321 19.3764 20.1158 19.3764H20.3333H20.364H20.5496C21.6046 19.3764 22.4683 20.2457 22.4683 21.3001C22.4683 22.2157 21.8177 22.9882 20.9558 23.1776V23.302C20.9546 23.6451 20.6765 23.9232 20.3333 23.9245C19.9877 23.9264 19.7058 23.6476 19.7046 23.302V23.2045C19.0808 23.1182 18.5452 22.7332 18.2615 22.1951C18.1002 21.8901 18.2183 21.5107 18.524 21.3501C18.8302 21.1889 19.2083 21.3076 19.369 21.6139C19.4808 21.827 19.7015 21.9726 19.9683 21.9726H20.5496C20.934 21.9726 21.2183 21.6839 21.2183 21.3001C21.2183 20.9164 20.934 20.6264 20.5496 20.6264H20.3333H20.1158C19.0608 20.6264 18.1921 19.757 18.1921 18.7026C18.1921 17.7895 18.8446 17.0176 19.7046 16.8264V16.6995C19.7033 16.352 19.9852 16.0701 20.3333 16.072Z" fill="white"/>
</g>
<defs>
<clipPath id="clip0_7601_18851">
<rect width="20" height="20" fill="white" transform="translate(10.332 10)"/>
</clipPath>
</defs>
</svg>
