<svg width="506" height="122" viewBox="0 0 506 122" fill="none" xmlns="http://www.w3.org/2000/svg">
<g filter="url(#filter0_i_7238_31202)">
<rect width="505.5" height="122" rx="12" fill="url(#paint0_linear_7238_31202)"/>
<g style="mix-blend-mode:plus-lighter" opacity="0.7">
<g filter="url(#filter1_ii_7238_31202)">
<path d="M295.75 29.7329H301.103C301.782 29.7329 302.206 28.9981 301.867 28.4101L292.808 12.7081C292.651 12.4351 292.359 12.2669 292.044 12.2669H286.691C286.012 12.2669 285.588 13.0017 285.927 13.5897L294.986 29.2917C295.144 29.5647 295.435 29.7329 295.75 29.7329Z" fill="url(#paint1_linear_7238_31202)"/>
</g>
<path d="M295.75 29.6226H301.103C301.696 29.6226 302.068 28.9798 301.771 28.4653L292.713 12.7632C292.575 12.5243 292.32 12.3774 292.044 12.3774H286.691C286.097 12.3774 285.726 13.0202 286.022 13.5347L295.082 29.2368C295.22 29.4755 295.474 29.6225 295.75 29.6226Z" stroke="url(#paint2_linear_7238_31202)" stroke-width="0.220505"/>
<g filter="url(#filter2_ii_7238_31202)">
<path d="M307.172 29.7329H312.525C313.204 29.7329 313.628 28.9981 313.289 28.4101L304.23 12.7081C304.072 12.4351 303.781 12.2669 303.466 12.2669H298.113C297.434 12.2669 297.01 13.0017 297.349 13.5897L306.408 29.2917C306.565 29.5647 306.857 29.7329 307.172 29.7329Z" fill="url(#paint3_linear_7238_31202)"/>
</g>
<path d="M307.172 29.6226H312.524C313.118 29.6226 313.49 28.9798 313.193 28.4653L304.135 12.7632C303.997 12.5243 303.742 12.3774 303.466 12.3774H298.113C297.519 12.3774 297.148 13.0202 297.444 13.5347L306.504 29.2368C306.642 29.4755 306.896 29.6225 307.172 29.6226Z" stroke="url(#paint4_linear_7238_31202)" stroke-width="0.220505"/>
<path d="M318.59 29.7329H323.943C324.622 29.7329 325.046 28.9981 324.707 28.4101L315.648 12.7081C315.49 12.4351 315.199 12.2669 314.884 12.2669H309.531C308.852 12.2669 308.428 13.0017 308.767 13.5897L317.826 29.2917C317.983 29.5647 318.275 29.7329 318.59 29.7329Z" fill="white" fill-opacity="0.1"/>
<path d="M330.012 29.7329H335.365C336.044 29.7329 336.468 28.9981 336.129 28.4101L327.07 12.7081C326.912 12.4351 326.621 12.2669 326.306 12.2669H320.953C320.274 12.2669 319.85 13.0017 320.189 13.5897L329.248 29.2917C329.405 29.5647 329.697 29.7329 330.012 29.7329Z" fill="white" fill-opacity="0.1"/>
<g filter="url(#filter3_ii_7238_31202)">
<path d="M341.43 29.7329H346.783C347.461 29.7329 347.886 28.9981 347.547 28.4101L338.488 12.7081C338.33 12.4351 338.039 12.2669 337.724 12.2669H332.371C331.692 12.2669 331.268 13.0017 331.607 13.5897L340.666 29.2917C340.823 29.5647 341.115 29.7329 341.43 29.7329Z" fill="url(#paint5_linear_7238_31202)"/>
</g>
<path d="M341.43 29.6226H346.782C347.376 29.6226 347.748 28.9798 347.451 28.4653L338.393 12.7632C338.255 12.5243 337.999 12.3774 337.724 12.3774H332.371C331.777 12.3774 331.405 13.0202 331.702 13.5347L340.762 29.2368C340.9 29.4755 341.154 29.6225 341.43 29.6226Z" stroke="url(#paint6_linear_7238_31202)" stroke-width="0.220505"/>
<g filter="url(#filter4_ii_7238_31202)">
<path d="M352.852 29.7329H358.205C358.883 29.7329 359.308 28.9981 358.969 28.4101L349.91 12.7081C349.752 12.4351 349.461 12.2669 349.146 12.2669H343.793C343.114 12.2669 342.69 13.0017 343.029 13.5897L352.088 29.2917C352.245 29.5647 352.536 29.7329 352.852 29.7329Z" fill="url(#paint7_linear_7238_31202)"/>
</g>
<path d="M352.852 29.6226H358.204C358.798 29.6226 359.17 28.9798 358.873 28.4653L349.814 12.7632C349.677 12.5243 349.421 12.3774 349.146 12.3774H343.793C343.199 12.3774 342.827 13.0202 343.124 13.5347L352.184 29.2368C352.321 29.4755 352.576 29.6225 352.852 29.6226Z" stroke="url(#paint8_linear_7238_31202)" stroke-width="0.220505"/>
<path d="M364.27 29.7329H369.622C370.301 29.7329 370.726 28.9981 370.386 28.4101L361.328 12.7081C361.17 12.4351 360.879 12.2669 360.564 12.2669H355.211C354.532 12.2669 354.108 13.0017 354.447 13.5897L363.506 29.2917C363.663 29.5647 363.954 29.7329 364.27 29.7329Z" fill="white" fill-opacity="0.1"/>
<path d="M375.691 29.7329H381.044C381.723 29.7329 382.148 28.9981 381.808 28.4101L372.75 12.7081C372.592 12.4351 372.301 12.2669 371.986 12.2669H366.633C365.954 12.2669 365.529 13.0017 365.869 13.5897L374.927 29.2917C375.085 29.5647 375.376 29.7329 375.691 29.7329Z" fill="white" fill-opacity="0.1"/>
<g filter="url(#filter5_ii_7238_31202)">
<path d="M387.109 29.7329H392.462C393.141 29.7329 393.566 28.9981 393.226 28.4101L384.167 12.7081C384.01 12.4351 383.719 12.2669 383.403 12.2669H378.051C377.372 12.2669 376.947 13.0017 377.287 13.5897L386.345 29.2917C386.503 29.5647 386.794 29.7329 387.109 29.7329Z" fill="url(#paint9_linear_7238_31202)"/>
</g>
<path d="M387.109 29.6226H392.462C393.056 29.6226 393.428 28.9798 393.131 28.4653L384.072 12.7632C383.934 12.5243 383.679 12.3774 383.403 12.3774H378.051C377.457 12.3774 377.085 13.0202 377.382 13.5347L386.441 29.2368C386.579 29.4755 386.834 29.6225 387.109 29.6226Z" stroke="url(#paint10_linear_7238_31202)" stroke-width="0.220505"/>
<g filter="url(#filter6_ii_7238_31202)">
<path d="M398.531 29.7329H403.884C404.563 29.7329 404.987 28.9981 404.648 28.4101L395.589 12.7081C395.432 12.4351 395.141 12.2669 394.825 12.2669H389.472C388.794 12.2669 388.369 13.0017 388.708 13.5897L397.767 29.2917C397.925 29.5647 398.216 29.7329 398.531 29.7329Z" fill="url(#paint11_linear_7238_31202)"/>
</g>
<path d="M398.531 29.6226H403.884C404.478 29.6226 404.849 28.9798 404.553 28.4653L395.494 12.7632C395.356 12.5243 395.101 12.3774 394.825 12.3774H389.473C388.879 12.3774 388.507 13.0202 388.804 13.5347L397.863 29.2368C398.001 29.4755 398.256 29.6225 398.531 29.6226Z" stroke="url(#paint12_linear_7238_31202)" stroke-width="0.220505"/>
<path d="M409.949 29.7329H415.302C415.981 29.7329 416.405 28.9981 416.066 28.4101L407.007 12.7081C406.85 12.4351 406.559 12.2669 406.243 12.2669H400.89C400.212 12.2669 399.787 13.0017 400.126 13.5897L409.185 29.2917C409.343 29.5647 409.634 29.7329 409.949 29.7329Z" fill="white" fill-opacity="0.1"/>
<path d="M421.371 29.7329H426.724C427.403 29.7329 427.827 28.9981 427.488 28.4101L418.429 12.7081C418.272 12.4351 417.98 12.2669 417.665 12.2669H412.312C411.633 12.2669 411.209 13.0017 411.548 13.5897L420.607 29.2917C420.765 29.5647 421.056 29.7329 421.371 29.7329Z" fill="white" fill-opacity="0.1"/>
<g filter="url(#filter7_ii_7238_31202)">
<path d="M432.793 29.7329H438.146C438.825 29.7329 439.249 28.9981 438.91 28.4101L429.851 12.7081C429.694 12.4351 429.402 12.2669 429.087 12.2669H423.734C423.055 12.2669 422.631 13.0017 422.97 13.5897L432.029 29.2917C432.187 29.5647 432.478 29.7329 432.793 29.7329Z" fill="url(#paint13_linear_7238_31202)"/>
</g>
<path d="M432.793 29.6226H438.146C438.739 29.6226 439.111 28.9798 438.814 28.4653L429.756 12.7632C429.618 12.5243 429.363 12.3774 429.087 12.3774H423.734C423.14 12.3774 422.769 13.0202 423.065 13.5347L432.125 29.2368C432.263 29.4755 432.517 29.6225 432.793 29.6226Z" stroke="url(#paint14_linear_7238_31202)" stroke-width="0.220505"/>
<g filter="url(#filter8_ii_7238_31202)">
<path d="M444.211 29.7329H449.564C450.243 29.7329 450.667 28.9981 450.328 28.4101L441.269 12.7081C441.112 12.4351 440.82 12.2669 440.505 12.2669H435.152C434.473 12.2669 434.049 13.0017 434.388 13.5897L443.447 29.2917C443.605 29.5647 443.896 29.7329 444.211 29.7329Z" fill="url(#paint15_linear_7238_31202)"/>
</g>
<path d="M444.211 29.6226H449.563C450.157 29.6226 450.529 28.9798 450.232 28.4653L441.174 12.7632C441.036 12.5243 440.781 12.3774 440.505 12.3774H435.152C434.558 12.3774 434.187 13.0202 434.483 13.5347L443.543 29.2368C443.681 29.4755 443.935 29.6225 444.211 29.6226Z" stroke="url(#paint16_linear_7238_31202)" stroke-width="0.220505"/>
<path d="M455.633 29.7329H460.986C461.665 29.7329 462.089 28.9981 461.75 28.4101L452.691 12.7081C452.533 12.4351 452.242 12.2669 451.927 12.2669H446.574C445.895 12.2669 445.471 13.0017 445.81 13.5897L454.869 29.2917C455.026 29.5647 455.318 29.7329 455.633 29.7329Z" fill="white" fill-opacity="0.1"/>
<path d="M467.051 29.7329H472.404C473.083 29.7329 473.507 28.9981 473.168 28.4101L464.109 12.7081C463.951 12.4351 463.66 12.2669 463.345 12.2669H457.992C457.313 12.2669 456.889 13.0017 457.228 13.5897L466.287 29.2917C466.444 29.5647 466.736 29.7329 467.051 29.7329Z" fill="white" fill-opacity="0.1"/>
<path d="M478.473 29.7329H483.826C484.504 29.7329 484.929 28.9981 484.59 28.4101L475.531 12.7081C475.373 12.4351 475.082 12.2669 474.767 12.2669H469.414C468.735 12.2669 468.311 13.0017 468.65 13.5897L477.709 29.2917C477.866 29.5647 478.157 29.7329 478.473 29.7329Z" fill="white" fill-opacity="0.1"/>
</g>
</g>
<defs>
<filter id="filter0_i_7238_31202" x="0" y="0" width="505.5" height="126" filterUnits="userSpaceOnUse" color-interpolation-filters="sRGB">
<feFlood flood-opacity="0" result="BackgroundImageFix"/>
<feBlend mode="normal" in="SourceGraphic" in2="BackgroundImageFix" result="shape"/>
<feColorMatrix in="SourceAlpha" type="matrix" values="0 0 0 0 0 0 0 0 0 0 0 0 0 0 0 0 0 0 127 0" result="hardAlpha"/>
<feOffset dy="4"/>
<feGaussianBlur stdDeviation="6.05"/>
<feComposite in2="hardAlpha" operator="arithmetic" k2="-1" k3="1"/>
<feColorMatrix type="matrix" values="0 0 0 0 1 0 0 0 0 1 0 0 0 0 1 0 0 0 0.48 0"/>
<feBlend mode="normal" in2="shape" result="effect1_innerShadow_7238_31202"/>
</filter>
<filter id="filter1_ii_7238_31202" x="284.927" y="11.3848" width="17.9398" height="19.2301" filterUnits="userSpaceOnUse" color-interpolation-filters="sRGB">
<feFlood flood-opacity="0" result="BackgroundImageFix"/>
<feBlend mode="normal" in="SourceGraphic" in2="BackgroundImageFix" result="shape"/>
<feColorMatrix in="SourceAlpha" type="matrix" values="0 0 0 0 0 0 0 0 0 0 0 0 0 0 0 0 0 0 127 0" result="hardAlpha"/>
<feOffset dx="0.88202" dy="-0.88202"/>
<feGaussianBlur stdDeviation="0.633952"/>
<feComposite in2="hardAlpha" operator="arithmetic" k2="-1" k3="1"/>
<feColorMatrix type="matrix" values="0 0 0 0 1 0 0 0 0 1 0 0 0 0 1 0 0 0 1 0"/>
<feBlend mode="overlay" in2="shape" result="effect1_innerShadow_7238_31202"/>
<feColorMatrix in="SourceAlpha" type="matrix" values="0 0 0 0 0 0 0 0 0 0 0 0 0 0 0 0 0 0 127 0" result="hardAlpha"/>
<feOffset dx="-0.88202" dy="0.88202"/>
<feGaussianBlur stdDeviation="0.633952"/>
<feComposite in2="hardAlpha" operator="arithmetic" k2="-1" k3="1"/>
<feColorMatrix type="matrix" values="0 0 0 0 1 0 0 0 0 1 0 0 0 0 1 0 0 0 1 0"/>
<feBlend mode="overlay" in2="effect1_innerShadow_7238_31202" result="effect2_innerShadow_7238_31202"/>
</filter>
<filter id="filter2_ii_7238_31202" x="296.348" y="11.3848" width="17.9398" height="19.2301" filterUnits="userSpaceOnUse" color-interpolation-filters="sRGB">
<feFlood flood-opacity="0" result="BackgroundImageFix"/>
<feBlend mode="normal" in="SourceGraphic" in2="BackgroundImageFix" result="shape"/>
<feColorMatrix in="SourceAlpha" type="matrix" values="0 0 0 0 0 0 0 0 0 0 0 0 0 0 0 0 0 0 127 0" result="hardAlpha"/>
<feOffset dx="0.88202" dy="-0.88202"/>
<feGaussianBlur stdDeviation="0.633952"/>
<feComposite in2="hardAlpha" operator="arithmetic" k2="-1" k3="1"/>
<feColorMatrix type="matrix" values="0 0 0 0 1 0 0 0 0 1 0 0 0 0 1 0 0 0 1 0"/>
<feBlend mode="overlay" in2="shape" result="effect1_innerShadow_7238_31202"/>
<feColorMatrix in="SourceAlpha" type="matrix" values="0 0 0 0 0 0 0 0 0 0 0 0 0 0 0 0 0 0 127 0" result="hardAlpha"/>
<feOffset dx="-0.88202" dy="0.88202"/>
<feGaussianBlur stdDeviation="0.633952"/>
<feComposite in2="hardAlpha" operator="arithmetic" k2="-1" k3="1"/>
<feColorMatrix type="matrix" values="0 0 0 0 1 0 0 0 0 1 0 0 0 0 1 0 0 0 1 0"/>
<feBlend mode="overlay" in2="effect1_innerShadow_7238_31202" result="effect2_innerShadow_7238_31202"/>
</filter>
<filter id="filter3_ii_7238_31202" x="330.606" y="11.3848" width="17.9398" height="19.2301" filterUnits="userSpaceOnUse" color-interpolation-filters="sRGB">
<feFlood flood-opacity="0" result="BackgroundImageFix"/>
<feBlend mode="normal" in="SourceGraphic" in2="BackgroundImageFix" result="shape"/>
<feColorMatrix in="SourceAlpha" type="matrix" values="0 0 0 0 0 0 0 0 0 0 0 0 0 0 0 0 0 0 127 0" result="hardAlpha"/>
<feOffset dx="0.88202" dy="-0.88202"/>
<feGaussianBlur stdDeviation="0.633952"/>
<feComposite in2="hardAlpha" operator="arithmetic" k2="-1" k3="1"/>
<feColorMatrix type="matrix" values="0 0 0 0 1 0 0 0 0 1 0 0 0 0 1 0 0 0 1 0"/>
<feBlend mode="overlay" in2="shape" result="effect1_innerShadow_7238_31202"/>
<feColorMatrix in="SourceAlpha" type="matrix" values="0 0 0 0 0 0 0 0 0 0 0 0 0 0 0 0 0 0 127 0" result="hardAlpha"/>
<feOffset dx="-0.88202" dy="0.88202"/>
<feGaussianBlur stdDeviation="0.633952"/>
<feComposite in2="hardAlpha" operator="arithmetic" k2="-1" k3="1"/>
<feColorMatrix type="matrix" values="0 0 0 0 1 0 0 0 0 1 0 0 0 0 1 0 0 0 1 0"/>
<feBlend mode="overlay" in2="effect1_innerShadow_7238_31202" result="effect2_innerShadow_7238_31202"/>
</filter>
<filter id="filter4_ii_7238_31202" x="342.028" y="11.3848" width="17.9398" height="19.2301" filterUnits="userSpaceOnUse" color-interpolation-filters="sRGB">
<feFlood flood-opacity="0" result="BackgroundImageFix"/>
<feBlend mode="normal" in="SourceGraphic" in2="BackgroundImageFix" result="shape"/>
<feColorMatrix in="SourceAlpha" type="matrix" values="0 0 0 0 0 0 0 0 0 0 0 0 0 0 0 0 0 0 127 0" result="hardAlpha"/>
<feOffset dx="0.88202" dy="-0.88202"/>
<feGaussianBlur stdDeviation="0.633952"/>
<feComposite in2="hardAlpha" operator="arithmetic" k2="-1" k3="1"/>
<feColorMatrix type="matrix" values="0 0 0 0 1 0 0 0 0 1 0 0 0 0 1 0 0 0 1 0"/>
<feBlend mode="overlay" in2="shape" result="effect1_innerShadow_7238_31202"/>
<feColorMatrix in="SourceAlpha" type="matrix" values="0 0 0 0 0 0 0 0 0 0 0 0 0 0 0 0 0 0 127 0" result="hardAlpha"/>
<feOffset dx="-0.88202" dy="0.88202"/>
<feGaussianBlur stdDeviation="0.633952"/>
<feComposite in2="hardAlpha" operator="arithmetic" k2="-1" k3="1"/>
<feColorMatrix type="matrix" values="0 0 0 0 1 0 0 0 0 1 0 0 0 0 1 0 0 0 1 0"/>
<feBlend mode="overlay" in2="effect1_innerShadow_7238_31202" result="effect2_innerShadow_7238_31202"/>
</filter>
<filter id="filter5_ii_7238_31202" x="376.286" y="11.3848" width="17.9398" height="19.2301" filterUnits="userSpaceOnUse" color-interpolation-filters="sRGB">
<feFlood flood-opacity="0" result="BackgroundImageFix"/>
<feBlend mode="normal" in="SourceGraphic" in2="BackgroundImageFix" result="shape"/>
<feColorMatrix in="SourceAlpha" type="matrix" values="0 0 0 0 0 0 0 0 0 0 0 0 0 0 0 0 0 0 127 0" result="hardAlpha"/>
<feOffset dx="0.88202" dy="-0.88202"/>
<feGaussianBlur stdDeviation="0.633952"/>
<feComposite in2="hardAlpha" operator="arithmetic" k2="-1" k3="1"/>
<feColorMatrix type="matrix" values="0 0 0 0 1 0 0 0 0 1 0 0 0 0 1 0 0 0 1 0"/>
<feBlend mode="overlay" in2="shape" result="effect1_innerShadow_7238_31202"/>
<feColorMatrix in="SourceAlpha" type="matrix" values="0 0 0 0 0 0 0 0 0 0 0 0 0 0 0 0 0 0 127 0" result="hardAlpha"/>
<feOffset dx="-0.88202" dy="0.88202"/>
<feGaussianBlur stdDeviation="0.633952"/>
<feComposite in2="hardAlpha" operator="arithmetic" k2="-1" k3="1"/>
<feColorMatrix type="matrix" values="0 0 0 0 1 0 0 0 0 1 0 0 0 0 1 0 0 0 1 0"/>
<feBlend mode="overlay" in2="effect1_innerShadow_7238_31202" result="effect2_innerShadow_7238_31202"/>
</filter>
<filter id="filter6_ii_7238_31202" x="387.708" y="11.3848" width="17.9398" height="19.2301" filterUnits="userSpaceOnUse" color-interpolation-filters="sRGB">
<feFlood flood-opacity="0" result="BackgroundImageFix"/>
<feBlend mode="normal" in="SourceGraphic" in2="BackgroundImageFix" result="shape"/>
<feColorMatrix in="SourceAlpha" type="matrix" values="0 0 0 0 0 0 0 0 0 0 0 0 0 0 0 0 0 0 127 0" result="hardAlpha"/>
<feOffset dx="0.88202" dy="-0.88202"/>
<feGaussianBlur stdDeviation="0.633952"/>
<feComposite in2="hardAlpha" operator="arithmetic" k2="-1" k3="1"/>
<feColorMatrix type="matrix" values="0 0 0 0 1 0 0 0 0 1 0 0 0 0 1 0 0 0 1 0"/>
<feBlend mode="overlay" in2="shape" result="effect1_innerShadow_7238_31202"/>
<feColorMatrix in="SourceAlpha" type="matrix" values="0 0 0 0 0 0 0 0 0 0 0 0 0 0 0 0 0 0 127 0" result="hardAlpha"/>
<feOffset dx="-0.88202" dy="0.88202"/>
<feGaussianBlur stdDeviation="0.633952"/>
<feComposite in2="hardAlpha" operator="arithmetic" k2="-1" k3="1"/>
<feColorMatrix type="matrix" values="0 0 0 0 1 0 0 0 0 1 0 0 0 0 1 0 0 0 1 0"/>
<feBlend mode="overlay" in2="effect1_innerShadow_7238_31202" result="effect2_innerShadow_7238_31202"/>
</filter>
<filter id="filter7_ii_7238_31202" x="421.97" y="11.3848" width="17.9398" height="19.2301" filterUnits="userSpaceOnUse" color-interpolation-filters="sRGB">
<feFlood flood-opacity="0" result="BackgroundImageFix"/>
<feBlend mode="normal" in="SourceGraphic" in2="BackgroundImageFix" result="shape"/>
<feColorMatrix in="SourceAlpha" type="matrix" values="0 0 0 0 0 0 0 0 0 0 0 0 0 0 0 0 0 0 127 0" result="hardAlpha"/>
<feOffset dx="0.88202" dy="-0.88202"/>
<feGaussianBlur stdDeviation="0.633952"/>
<feComposite in2="hardAlpha" operator="arithmetic" k2="-1" k3="1"/>
<feColorMatrix type="matrix" values="0 0 0 0 1 0 0 0 0 1 0 0 0 0 1 0 0 0 1 0"/>
<feBlend mode="overlay" in2="shape" result="effect1_innerShadow_7238_31202"/>
<feColorMatrix in="SourceAlpha" type="matrix" values="0 0 0 0 0 0 0 0 0 0 0 0 0 0 0 0 0 0 127 0" result="hardAlpha"/>
<feOffset dx="-0.88202" dy="0.88202"/>
<feGaussianBlur stdDeviation="0.633952"/>
<feComposite in2="hardAlpha" operator="arithmetic" k2="-1" k3="1"/>
<feColorMatrix type="matrix" values="0 0 0 0 1 0 0 0 0 1 0 0 0 0 1 0 0 0 1 0"/>
<feBlend mode="overlay" in2="effect1_innerShadow_7238_31202" result="effect2_innerShadow_7238_31202"/>
</filter>
<filter id="filter8_ii_7238_31202" x="433.388" y="11.3848" width="17.9398" height="19.2301" filterUnits="userSpaceOnUse" color-interpolation-filters="sRGB">
<feFlood flood-opacity="0" result="BackgroundImageFix"/>
<feBlend mode="normal" in="SourceGraphic" in2="BackgroundImageFix" result="shape"/>
<feColorMatrix in="SourceAlpha" type="matrix" values="0 0 0 0 0 0 0 0 0 0 0 0 0 0 0 0 0 0 127 0" result="hardAlpha"/>
<feOffset dx="0.88202" dy="-0.88202"/>
<feGaussianBlur stdDeviation="0.633952"/>
<feComposite in2="hardAlpha" operator="arithmetic" k2="-1" k3="1"/>
<feColorMatrix type="matrix" values="0 0 0 0 1 0 0 0 0 1 0 0 0 0 1 0 0 0 1 0"/>
<feBlend mode="overlay" in2="shape" result="effect1_innerShadow_7238_31202"/>
<feColorMatrix in="SourceAlpha" type="matrix" values="0 0 0 0 0 0 0 0 0 0 0 0 0 0 0 0 0 0 127 0" result="hardAlpha"/>
<feOffset dx="-0.88202" dy="0.88202"/>
<feGaussianBlur stdDeviation="0.633952"/>
<feComposite in2="hardAlpha" operator="arithmetic" k2="-1" k3="1"/>
<feColorMatrix type="matrix" values="0 0 0 0 1 0 0 0 0 1 0 0 0 0 1 0 0 0 1 0"/>
<feBlend mode="overlay" in2="effect1_innerShadow_7238_31202" result="effect2_innerShadow_7238_31202"/>
</filter>
<linearGradient id="paint0_linear_7238_31202" x1="396.078" y1="-19.8156" x2="161.996" y2="221.993" gradientUnits="userSpaceOnUse">
<stop stop-color="#F1A871"/>
<stop offset="0.403384" stop-color="#F2ACEB"/>
<stop offset="0.729587" stop-color="#E4809C"/>
</linearGradient>
<linearGradient id="paint1_linear_7238_31202" x1="293.897" y1="29.7329" x2="293.897" y2="12.2669" gradientUnits="userSpaceOnUse">
<stop stop-color="#25376E"/>
<stop offset="1" stop-color="#0043EC"/>
</linearGradient>
<linearGradient id="paint2_linear_7238_31202" x1="298.514" y1="29.6363" x2="299.251" y2="11.7845" gradientUnits="userSpaceOnUse">
<stop stop-color="#BBF7C6"/>
<stop offset="0.4" stop-color="#052E0F" stop-opacity="0.1"/>
<stop offset="0.6" stop-color="#052E0F" stop-opacity="0.3"/>
<stop offset="1" stop-color="#BBF7C6"/>
</linearGradient>
<linearGradient id="paint3_linear_7238_31202" x1="305.319" y1="29.7329" x2="305.319" y2="12.2669" gradientUnits="userSpaceOnUse">
<stop stop-color="#25376E"/>
<stop offset="1" stop-color="#0043EC"/>
</linearGradient>
<linearGradient id="paint4_linear_7238_31202" x1="309.935" y1="29.6363" x2="310.673" y2="11.7845" gradientUnits="userSpaceOnUse">
<stop stop-color="#BBF7C6"/>
<stop offset="0.4" stop-color="#052E0F" stop-opacity="0.1"/>
<stop offset="0.6" stop-color="#052E0F" stop-opacity="0.3"/>
<stop offset="1" stop-color="#BBF7C6"/>
</linearGradient>
<linearGradient id="paint5_linear_7238_31202" x1="339.577" y1="29.7329" x2="339.577" y2="12.2669" gradientUnits="userSpaceOnUse">
<stop stop-color="#25376E"/>
<stop offset="1" stop-color="#0043EC"/>
</linearGradient>
<linearGradient id="paint6_linear_7238_31202" x1="344.193" y1="29.6363" x2="344.931" y2="11.7845" gradientUnits="userSpaceOnUse">
<stop stop-color="#BBF7C6"/>
<stop offset="0.4" stop-color="#052E0F" stop-opacity="0.1"/>
<stop offset="0.6" stop-color="#052E0F" stop-opacity="0.3"/>
<stop offset="1" stop-color="#BBF7C6"/>
</linearGradient>
<linearGradient id="paint7_linear_7238_31202" x1="350.999" y1="29.7329" x2="350.999" y2="12.2669" gradientUnits="userSpaceOnUse">
<stop stop-color="#25376E"/>
<stop offset="1" stop-color="#0043EC"/>
</linearGradient>
<linearGradient id="paint8_linear_7238_31202" x1="355.615" y1="29.6363" x2="356.353" y2="11.7845" gradientUnits="userSpaceOnUse">
<stop stop-color="#BBF7C6"/>
<stop offset="0.4" stop-color="#052E0F" stop-opacity="0.1"/>
<stop offset="0.6" stop-color="#052E0F" stop-opacity="0.3"/>
<stop offset="1" stop-color="#BBF7C6"/>
</linearGradient>
<linearGradient id="paint9_linear_7238_31202" x1="385.256" y1="29.7329" x2="385.256" y2="12.2669" gradientUnits="userSpaceOnUse">
<stop stop-color="#25376E"/>
<stop offset="1" stop-color="#0043EC"/>
</linearGradient>
<linearGradient id="paint10_linear_7238_31202" x1="389.873" y1="29.6363" x2="390.611" y2="11.7845" gradientUnits="userSpaceOnUse">
<stop stop-color="#BBF7C6"/>
<stop offset="0.4" stop-color="#052E0F" stop-opacity="0.1"/>
<stop offset="0.6" stop-color="#052E0F" stop-opacity="0.3"/>
<stop offset="1" stop-color="#BBF7C6"/>
</linearGradient>
<linearGradient id="paint11_linear_7238_31202" x1="396.678" y1="29.7329" x2="396.678" y2="12.2669" gradientUnits="userSpaceOnUse">
<stop stop-color="#25376E"/>
<stop offset="1" stop-color="#0043EC"/>
</linearGradient>
<linearGradient id="paint12_linear_7238_31202" x1="401.295" y1="29.6363" x2="402.033" y2="11.7845" gradientUnits="userSpaceOnUse">
<stop stop-color="#BBF7C6"/>
<stop offset="0.4" stop-color="#052E0F" stop-opacity="0.1"/>
<stop offset="0.6" stop-color="#052E0F" stop-opacity="0.3"/>
<stop offset="1" stop-color="#BBF7C6"/>
</linearGradient>
<linearGradient id="paint13_linear_7238_31202" x1="430.94" y1="29.7329" x2="430.94" y2="12.2669" gradientUnits="userSpaceOnUse">
<stop stop-color="#25376E"/>
<stop offset="1" stop-color="#0043EC"/>
</linearGradient>
<linearGradient id="paint14_linear_7238_31202" x1="435.557" y1="29.6363" x2="436.294" y2="11.7845" gradientUnits="userSpaceOnUse">
<stop stop-color="#BBF7C6"/>
<stop offset="0.4" stop-color="#052E0F" stop-opacity="0.1"/>
<stop offset="0.6" stop-color="#052E0F" stop-opacity="0.3"/>
<stop offset="1" stop-color="#BBF7C6"/>
</linearGradient>
<linearGradient id="paint15_linear_7238_31202" x1="442.358" y1="29.7329" x2="442.358" y2="12.2669" gradientUnits="userSpaceOnUse">
<stop stop-color="#25376E"/>
<stop offset="1" stop-color="#0043EC"/>
</linearGradient>
<linearGradient id="paint16_linear_7238_31202" x1="446.975" y1="29.6363" x2="447.712" y2="11.7845" gradientUnits="userSpaceOnUse">
<stop stop-color="#BBF7C6"/>
<stop offset="0.4" stop-color="#052E0F" stop-opacity="0.1"/>
<stop offset="0.6" stop-color="#052E0F" stop-opacity="0.3"/>
<stop offset="1" stop-color="#BBF7C6"/>
</linearGradient>
</defs>
</svg>
