<svg width="24" height="25" viewBox="0 0 24 25" fill="none" xmlns="http://www.w3.org/2000/svg">
<path d="M21 22.7573L3 22.7573C2.59 22.7573 2.25 22.4173 2.25 22.0073C2.25 21.5973 2.59 21.2573 3 21.2573L21 21.2573C21.41 21.2573 21.75 21.5973 21.75 22.0073C21.75 22.4173 21.41 22.7573 21 22.7573Z" fill="#066EFF"/>
<path d="M19.0206 4.23748C17.0806 2.29748 15.1806 2.24748 13.1906 4.23748L11.9806 5.44748C11.8806 5.54748 11.8406 5.70748 11.8806 5.84748C12.6406 8.49748 14.7606 10.6175 17.4106 11.3775C17.4506 11.3875 17.4906 11.3975 17.5306 11.3975C17.6406 11.3975 17.7406 11.3575 17.8206 11.2775L19.0206 10.0675C20.0106 9.08748 20.4906 8.13748 20.4906 7.17748C20.5006 6.18748 20.0206 5.22748 19.0206 4.23748Z" fill="#066EFF"/>
<path d="M15.6103 12.2871C15.3203 12.1471 15.0403 12.0071 14.7703 11.8471C14.5503 11.7171 14.3403 11.5771 14.1303 11.4271C13.9603 11.3171 13.7603 11.1571 13.5703 10.9971C13.5503 10.9871 13.4803 10.9271 13.4003 10.8471C13.0703 10.5671 12.7003 10.2071 12.3703 9.80713C12.3403 9.78713 12.2903 9.71713 12.2203 9.62713C12.1203 9.50713 11.9503 9.30713 11.8003 9.07713C11.6803 8.92713 11.5403 8.70713 11.4103 8.48713C11.2503 8.21713 11.1103 7.94713 10.9703 7.66713C10.9491 7.62173 10.9286 7.57657 10.9088 7.53166C10.7612 7.19835 10.3265 7.1009 10.0688 7.35866L4.34032 13.0871C4.21032 13.2171 4.09032 13.4671 4.06032 13.6371L3.52032 17.4671C3.42032 18.1471 3.61032 18.7871 4.03032 19.2171C4.39032 19.5671 4.89032 19.7571 5.43032 19.7571C5.55032 19.7571 5.67032 19.7471 5.79032 19.7271L9.63032 19.1871C9.81032 19.1571 10.0603 19.0371 10.1803 18.9071L15.9016 13.1858C16.1612 12.9263 16.0633 12.4808 15.7257 12.3367C15.6877 12.3205 15.6492 12.304 15.6103 12.2871Z" fill="#066EFF"/>
</svg>
