<svg width="16" height="17" viewBox="0 0 16 17" fill="none" xmlns="http://www.w3.org/2000/svg">
<g clip-path="url(#clip0_6944_23350)">
<path d="M2 7.54165H14M5.33333 4.87498V2.20831M10.6667 4.87498V2.20831M6.26667 15.5416H9.73333C11.2268 15.5416 11.9735 15.5416 12.544 15.251C13.0457 14.9953 13.4537 14.5874 13.7094 14.0856C14 13.5152 14 12.7685 14 11.275V7.80831C14 6.31484 14 5.5681 13.7094 4.99767C13.4537 4.49591 13.0457 4.08796 12.544 3.8323C11.9735 3.54165 11.2268 3.54165 9.73333 3.54165H6.26667C4.77319 3.54165 4.02646 3.54165 3.45603 3.8323C2.95426 4.08796 2.54631 4.49591 2.29065 4.99767C2 5.5681 2 6.31484 2 7.80831V11.275C2 12.7685 2 13.5152 2.29065 14.0856C2.54631 14.5874 2.95426 14.9953 3.45603 15.251C4.02646 15.5416 4.77319 15.5416 6.26667 15.5416Z" stroke="white" stroke-width="1.33333" stroke-linecap="round"/>
</g>
<defs>
<clipPath id="clip0_6944_23350">
<rect width="16" height="16" fill="white" transform="translate(0 0.875)"/>
</clipPath>
</defs>
</svg>
