<svg width="49" height="49" viewBox="0 0 49 49" fill="none" xmlns="http://www.w3.org/2000/svg">
<path fill-rule="evenodd" clip-rule="evenodd" d="M31.7678 24.2727L23.8125 32.2272C23.8125 32.2272 26.6415 31.3437 30.7073 32.7575C31.3913 32.9952 32.5358 31.8507 32.298 31.1667C30.8843 27.101 31.7678 24.2727 31.7678 24.2727Z" fill="#347BFA"/>
<path fill-rule="evenodd" clip-rule="evenodd" d="M10.4813 10.937C15.3113 6.10775 23.1526 6.10775 27.9826 10.937C32.8118 15.767 32.8118 23.6082 27.9826 28.4383C23.1526 33.2675 15.3113 33.2675 10.4813 28.4383C5.65206 23.6082 5.65206 15.767 10.4813 10.937Z" fill="#E9F3FC"/>
<path fill-rule="evenodd" clip-rule="evenodd" d="M26.3844 9.58545C26.9454 9.9837 27.4809 10.4344 27.9842 10.9369C32.8134 15.7669 32.8134 23.6082 27.9842 28.4382C23.1542 33.2674 15.3129 33.2674 10.4829 28.4382C10.1987 28.1532 9.93094 27.8584 9.67969 27.5547C14.3612 29.0757 19.7117 27.9777 23.4287 24.2607C27.3932 20.2962 28.3787 14.4732 26.3844 9.58545Z" fill="#CADCF0"/>
<path fill-rule="evenodd" clip-rule="evenodd" d="M9.42062 9.87644C14.8356 4.46144 23.6279 4.46144 29.0429 9.87644C34.4579 15.2914 34.4579 24.0837 29.0429 29.4987C23.6279 34.9137 14.8356 34.9137 9.42062 29.4987C4.00563 24.0837 4.00563 15.2914 9.42062 9.87644ZM11.0114 11.4672C15.5481 6.93044 22.9154 6.93044 27.4521 11.4672C31.9889 16.0039 31.9889 23.3712 27.4521 27.9079C22.9154 32.4447 15.5481 32.4447 11.0114 27.9079C6.47463 23.3712 6.47463 16.0039 11.0114 11.4672Z" fill="#A4BBDB"/>
<path fill-rule="evenodd" clip-rule="evenodd" d="M6.80091 25.8574C4.22691 20.6682 5.09991 14.1972 9.42066 9.87643C13.4782 5.81893 19.4317 4.80193 24.4409 6.82543C24.4769 7.28518 24.4957 7.75093 24.4957 8.22118C24.4957 8.58418 24.4844 8.94493 24.4627 9.30343C20.1044 7.10893 14.6489 7.83043 11.0114 11.4672C7.15566 15.3229 6.57666 21.2232 9.27591 25.6932C8.48541 25.8012 7.67841 25.8574 6.85941 25.8574H6.80091Z" fill="#B9CAE3"/>
<path fill-rule="evenodd" clip-rule="evenodd" d="M30.1055 35.3322C28.7878 34.0145 28.7878 31.8777 30.1055 30.5592C31.4232 29.2415 33.5607 29.2415 34.8785 30.5592L45.7505 41.4312C46.043 41.7237 45.2112 43.031 43.8942 44.348C42.5772 45.665 41.27 46.4967 40.9775 46.2042L30.1055 35.3322Z" fill="#A4BBDB"/>
<path fill-rule="evenodd" clip-rule="evenodd" d="M30.1055 35.3322C28.7878 34.0145 28.7878 31.8777 30.1055 30.5592C31.4232 29.2415 33.5607 29.2415 34.8785 30.5592L44.7185 40.3992C45.011 40.6917 44.1792 41.999 42.8622 43.316C41.5452 44.633 40.238 45.4647 39.9455 45.1722L30.1055 35.3322Z" fill="#CADCF0"/>
<path fill-rule="evenodd" clip-rule="evenodd" d="M17.6419 17.3262C17.6246 16.6115 17.8931 16.0895 18.3071 15.7835C18.9581 15.3035 19.9309 15.3237 20.4589 15.9185C20.6854 16.1742 20.8166 16.5357 20.8204 16.9932C20.8294 18.0905 20.3149 18.7317 19.8109 19.3955C19.1329 20.2902 18.4556 21.2097 18.3716 22.745C18.3491 23.159 18.6671 23.5122 19.0804 23.5347C19.4936 23.5572 19.8476 23.24 19.8701 22.8267C19.9331 21.6605 20.4911 20.981 21.0064 20.3015C21.6964 19.3917 22.3331 18.4842 22.3204 16.9812C22.3129 16.0977 22.0181 15.416 21.5801 14.9225C20.5571 13.7705 18.6784 13.646 17.4169 14.576C16.6609 15.134 16.1111 16.058 16.1419 17.3615C16.1516 17.7755 16.4959 18.1032 16.9099 18.0935C17.3231 18.0837 17.6516 17.7402 17.6419 17.3262Z" fill="#347BFA"/>
<path d="M19.0475 26.3202C19.557 26.3202 19.97 25.9072 19.97 25.3977C19.97 24.8882 19.557 24.4752 19.0475 24.4752C18.538 24.4752 18.125 24.8882 18.125 25.3977C18.125 25.9072 18.538 26.3202 19.0475 26.3202Z" fill="#347BFA"/>
<path fill-rule="evenodd" clip-rule="evenodd" d="M32.5493 6.87269L34.7993 3.12269C35.0123 2.76794 34.8976 2.30669 34.5421 2.09369C34.1873 1.88144 33.7261 1.99619 33.5131 2.35094L31.2631 6.10094C31.0501 6.45644 31.1656 6.91769 31.5203 7.12994C31.8758 7.34294 32.3363 7.22819 32.5493 6.87269Z" fill="#347BFA"/>
<path fill-rule="evenodd" clip-rule="evenodd" d="M36.0972 9.34399L44.3472 3.34399C44.6817 3.10024 44.7559 2.63074 44.5129 2.29624C44.2692 1.96099 43.7997 1.88749 43.4652 2.13049L35.2152 8.13049C34.8799 8.37424 34.8064 8.84374 35.0494 9.17824C35.2932 9.51349 35.7627 9.58699 36.0972 9.34399Z" fill="#347BFA"/>
<path fill-rule="evenodd" clip-rule="evenodd" d="M37.3378 13.9646L43.3378 12.4646C43.7398 12.3641 43.9843 11.9569 43.8838 11.5549C43.7833 11.1536 43.3761 10.9091 42.9741 11.0096L36.9741 12.5096C36.5728 12.6101 36.3283 13.0174 36.4288 13.4194C36.5293 13.8206 36.9366 14.0651 37.3378 13.9646Z" fill="#347BFA"/>
</svg>
