<svg width="438" height="286" viewBox="0 0 438 286" fill="none" xmlns="http://www.w3.org/2000/svg">
<g opacity="0.2" clip-path="url(#clip0_6436_40487)">
<mask id="mask0_6436_40487" style="mask-type:luminance" maskUnits="userSpaceOnUse" x="0" y="-90" width="438" height="439">
<path d="M437.742 -89.3477H0.257812V348.58H437.742V-89.3477Z" fill="white"/>
</mask>
<g mask="url(#mask0_6436_40487)">
<path fill-rule="evenodd" clip-rule="evenodd" d="M0.700928 -88.9053H0.842221H218.858H219H219.141H437.157H437.299V-88.7638V129.474V129.615V129.757V347.995V348.136H437.157H219.141H219H218.858H0.842221H0.700928V347.995V129.757V129.615V129.474V-88.7638V-88.9053ZM0.983515 129.474H37.0448V93.3759H0.983515V129.474ZM37.3274 129.474H73.4359V93.3759H37.3274V129.474ZM73.7183 129.474H109.78V93.3759H73.7183V129.474ZM110.062 129.474H146.171V93.3759H110.062V129.474ZM146.453 129.474H182.515V93.3759H146.453V129.474ZM182.797 129.474H218.858V93.3759H182.797V129.474ZM219.141 129.474H255.203V93.3759H219.141V129.474ZM255.485 129.474H291.593V93.3759H255.485V129.474ZM291.876 129.474H327.937V93.3759H291.876V129.474ZM328.22 129.474H364.328V93.3759H328.22V129.474ZM364.611 129.474H400.672V93.3759H364.611V129.474ZM400.955 129.474H437.016V93.3759H400.955V129.474ZM0.983515 129.757V165.855H37.0448V129.757H0.983515ZM37.3274 129.757V165.855H73.4359V129.757H37.3274ZM73.7183 129.757V165.855H109.78V129.757H73.7183ZM110.062 129.757V165.855H146.171V129.757H110.062ZM146.453 129.757V165.855H182.515V129.757H146.453ZM182.797 129.757V165.855H218.858V129.757H182.797ZM437.016 129.757H400.955V165.855H437.016V129.757ZM400.672 129.757H364.611V165.855H400.672V129.757ZM364.328 129.757H328.22V165.855H364.328V129.757ZM327.937 129.757H291.876V165.855H327.937V129.757ZM291.593 129.757H255.485V165.855H291.593V129.757ZM255.203 129.757H219.141V165.855H255.203V129.757ZM182.797 -88.6224H218.858V-52.5245H182.797V-88.6224ZM182.797 -52.2416H218.858V-16.0962H182.797V-52.2416ZM182.797 -15.8135H218.858V20.2841H182.797V-15.8135ZM182.797 20.5673H218.858V56.6649H182.797V20.5673ZM182.797 56.9481H218.858V93.0931H182.797V56.9481ZM219.141 -52.5245V-88.6224H255.203V-52.5245H219.141ZM219.141 -16.0962V-52.2416H255.203V-16.0962H219.141ZM219.141 20.2841V-15.8135H255.203V20.2841H219.141ZM219.141 56.6649V20.5673H255.203V56.6649H219.141ZM219.141 93.0931V56.9481H255.203V93.0931H219.141ZM0.983515 -88.6224V-52.5245H37.0448V-88.6224H0.983515ZM37.3274 -88.6224V-52.5245H73.4359V-88.6224H37.3274ZM73.7183 -88.6224V-52.5245H109.78V-88.6224H73.7183ZM110.062 -88.6224V-52.5245H146.171V-88.6224H110.062ZM146.453 -88.6224V-52.5245H182.515V-88.6224H146.453ZM0.983515 93.0931H37.0448V56.9481H0.983515V93.0931ZM0.983515 56.6649H37.0448V20.5673H0.983515V56.6649ZM0.983515 20.2841H37.0448V-15.8135H0.983515V20.2841ZM0.983515 -16.0962H37.0448V-52.2416H0.983515V-16.0962ZM37.3274 -52.2416V-16.0962H73.4359V-52.2416H37.3274ZM73.7183 -52.2416V-16.0962H109.78V-52.2416H73.7183ZM110.062 -52.2416V-16.0962H146.171V-52.2416H110.062ZM146.453 -52.2416V-16.0962H182.515V-52.2416H146.453ZM182.515 -15.8135H146.453V20.2841H182.515V-15.8135ZM182.515 20.5673H146.453V56.6649H182.515V20.5673ZM182.515 56.9481H146.453V93.0931H182.515V56.9481ZM146.171 93.0931V56.9481H110.062V93.0931H146.171ZM109.78 93.0931V56.9481H73.7183V93.0931H109.78ZM73.4359 93.0931V56.9481H37.3274V93.0931H73.4359ZM37.3274 56.6649H73.4359V20.5673H37.3274V56.6649ZM37.3274 20.2841H73.4359V-15.8135H37.3274V20.2841ZM73.7183 -15.8135V20.2841H109.78V-15.8135H73.7183ZM110.062 -15.8135V20.2841H146.171V-15.8135H110.062ZM146.171 20.5673H110.062V56.6649H146.171V20.5673ZM109.78 56.6649V20.5673H73.7183V56.6649H109.78ZM255.485 -88.6224V-52.5245H291.593V-88.6224H255.485ZM291.876 -88.6224V-52.5245H327.937V-88.6224H291.876ZM328.22 -88.6224V-52.5245H364.328V-88.6224H328.22ZM364.611 -88.6224V-52.5245H400.672V-88.6224H364.611ZM400.955 -88.6224V-52.5245H437.016V-88.6224H400.955ZM437.016 -52.2416H400.955V-16.0962H437.016V-52.2416ZM437.016 -15.8135H400.955V20.2841H437.016V-15.8135ZM437.016 20.5673H400.955V56.6649H437.016V20.5673ZM437.016 56.9481H400.955V93.0931H437.016V56.9481ZM255.485 -52.2416V-16.0962H291.593V-52.2416H255.485ZM291.876 -52.2416V-16.0962H327.937V-52.2416H291.876ZM328.22 -52.2416V-16.0962H364.328V-52.2416H328.22ZM364.611 -52.2416V-16.0962H400.672V-52.2416H364.611ZM400.672 -15.8135H364.611V20.2841H400.672V-15.8135ZM400.672 20.5673H364.611V56.6649H400.672V20.5673ZM400.672 56.9481H364.611V93.0931H400.672V56.9481ZM364.328 93.0931V56.9481H328.22V93.0931H364.328ZM327.937 93.0931V56.9481H291.876V93.0931H327.937ZM291.593 93.0931V56.9481H255.485V93.0931H291.593ZM255.485 56.6649H291.593V20.5673H255.485V56.6649ZM255.485 20.2841H291.593V-15.8135H255.485V20.2841ZM291.876 -15.8135V20.2841H327.937V-15.8135H291.876ZM328.22 -15.8135V20.2841H364.328V-15.8135H328.22ZM364.328 20.5673H328.22V56.6649H364.328V20.5673ZM327.937 56.6649V20.5673H291.876V56.6649H327.937ZM182.797 166.138H218.858V202.283H182.797V166.138ZM182.797 202.566H218.858V238.663H182.797V202.566ZM182.797 238.947H218.858V275.044H182.797V238.947ZM182.797 275.327H218.858V311.472H182.797V275.327ZM182.797 311.755H218.858V347.853H182.797V311.755ZM219.141 202.283V166.138H255.203V202.283H219.141ZM219.141 238.663V202.566H255.203V238.663H219.141ZM219.141 275.044V238.947H255.203V275.044H219.141ZM219.141 311.472V275.327H255.203V311.472H219.141ZM219.141 347.853V311.755H255.203V347.853H219.141ZM182.515 347.853V311.755H146.453V347.853H182.515ZM146.171 347.853V311.755H110.062V347.853H146.171ZM109.78 347.853V311.755H73.7183V347.853H109.78ZM73.4359 347.853V311.755H37.3274V347.853H73.4359ZM37.0448 347.853V311.755H0.983515V347.853H37.0448ZM0.983515 311.472H37.0448V275.327H0.983515V311.472ZM0.983515 275.044H37.0448V238.947H0.983515V275.044ZM0.983515 238.663H37.0448V202.566H0.983515V238.663ZM0.983515 202.283H37.0448V166.138H0.983515V202.283ZM37.3274 166.138V202.283H73.4359V166.138H37.3274ZM73.7183 166.138V202.283H109.78V166.138H73.7183ZM110.062 166.138V202.283H146.171V166.138H110.062ZM146.453 166.138V202.283H182.515V166.138H146.453ZM182.515 202.566H146.453V238.663H182.515V202.566ZM182.515 238.947H146.453V275.044H182.515V238.947ZM182.515 275.327H146.453V311.472H182.515V275.327ZM146.171 311.472V275.327H110.062V311.472H146.171ZM109.78 311.472V275.327H73.7183V311.472H109.78ZM73.4359 311.472V275.327H37.3274V311.472H73.4359ZM37.3274 275.044H73.4359V238.947H37.3274V275.044ZM37.3274 238.663H73.4359V202.566H37.3274V238.663ZM73.7183 202.566V238.663H109.78V202.566H73.7183ZM110.062 202.566V238.663H146.171V202.566H110.062ZM146.171 238.947H110.062V275.044H146.171V238.947ZM109.78 275.044V238.947H73.7183V275.044H109.78ZM437.016 166.138H400.955V202.283H437.016V166.138ZM437.016 202.566H400.955V238.663H437.016V202.566ZM437.016 238.947H400.955V275.044H437.016V238.947ZM437.016 275.327H400.955V311.472H437.016V275.327ZM437.016 311.755H400.955V347.853H437.016V311.755ZM400.672 347.853V311.755H364.611V347.853H400.672ZM364.328 347.853V311.755H328.22V347.853H364.328ZM327.937 347.853V311.755H291.876V347.853H327.937ZM291.593 347.853V311.755H255.485V347.853H291.593ZM255.485 166.138V202.283H291.593V166.138H255.485ZM291.876 166.138V202.283H327.937V166.138H291.876ZM328.22 166.138V202.283H364.328V166.138H328.22ZM364.611 166.138V202.283H400.672V166.138H364.611ZM400.672 202.566H364.611V238.663H400.672V202.566ZM400.672 238.947H364.611V275.044H400.672V238.947ZM400.672 275.327H364.611V311.472H400.672V275.327ZM364.328 311.472V275.327H328.22V311.472H364.328ZM327.937 311.472V275.327H291.876V311.472H327.937ZM291.593 311.472V275.327H255.485V311.472H291.593ZM255.485 275.044H291.593V238.947H255.485V275.044ZM255.485 238.663H291.593V202.566H255.485V238.663ZM291.876 202.566V238.663H327.937V202.566H291.876ZM328.22 202.566V238.663H364.328V202.566H328.22ZM364.328 238.947H328.22V275.044H364.328V238.947ZM327.937 275.044V238.947H291.876V275.044H327.937Z" stroke="url(#paint0_radial_6436_40487)" stroke-width="0.443247"/>
</g>
</g>
<defs>
<radialGradient id="paint0_radial_6436_40487" cx="0" cy="0" r="1" gradientUnits="userSpaceOnUse" gradientTransform="translate(219 129.615) rotate(90) scale(158.682 181.639)">
<stop stop-color="#2670E9"/>
<stop offset="1" stop-color="#CCD7F6" stop-opacity="0"/>
</radialGradient>
<clipPath id="clip0_6436_40487">
<rect width="437.484" height="437.928" fill="white" transform="translate(0.257812 -89.3477)"/>
</clipPath>
</defs>
</svg>
