<svg width="14" height="15" viewBox="0 0 14 15" fill="none" xmlns="http://www.w3.org/2000/svg">
<g clip-path="url(#clip0_6915_17611)">
<path d="M2.86133 14.2658H11.1388C12.342 14.2658 13.3263 13.2814 13.3263 12.0783V3.80078C13.3263 2.59766 12.342 1.61328 11.1388 1.61328H2.86133C1.6582 1.61328 0.673828 2.59766 0.673828 3.80078V12.0783C0.673828 13.2814 1.6582 14.2658 2.86133 14.2658ZM5.84945 5.62953L6.88195 4.59703C7.3282 4.15516 7.91445 3.91016 8.54445 3.91016C9.17008 3.91016 9.7607 4.15516 10.2026 4.59703C11.1213 5.51578 11.1213 7.00328 10.2026 7.92203C10.032 8.09266 9.75633 8.09266 9.5857 7.92203C9.41508 7.74703 9.41508 7.47141 9.5857 7.30078C9.8657 7.02078 10.0188 6.65328 10.0188 6.25953C10.0188 5.86578 9.8657 5.49391 9.5857 5.21828C9.01258 4.64078 8.07633 4.64078 7.5032 5.21828L6.4707 6.24641C5.8932 6.82391 5.8932 7.76016 6.4707 8.33328C6.64133 8.50391 6.64133 8.77953 6.4707 8.95016C6.3832 9.03766 6.26945 9.08141 6.16008 9.08141C6.04633 9.08141 5.93695 9.03766 5.84945 8.95016C4.93508 8.03578 4.93508 6.54391 5.84945 5.62953ZM3.79758 7.68578C3.9682 7.51516 4.24383 7.51516 4.41445 7.68578C4.58508 7.85641 4.58508 8.13203 4.41445 8.30266C3.84133 8.88016 3.84133 9.81203 4.41445 10.3895C4.98758 10.9627 5.92383 10.9627 6.49695 10.3895L7.52945 9.35703C8.10695 8.77953 8.10695 7.84766 7.52945 7.27016C7.35883 7.09953 7.35883 6.82391 7.52945 6.65328C7.70008 6.48266 7.98008 6.48266 8.1507 6.65328C9.06508 7.56766 9.06508 9.05953 8.1507 9.97391L7.1182 11.0064C6.67195 11.4483 6.0857 11.6933 5.4557 11.6933C4.83008 11.6933 4.23945 11.4483 3.79758 11.0064C3.35133 10.5645 3.10633 9.97391 3.10633 9.34391C3.10633 8.71828 3.35133 8.12766 3.79758 7.68578Z" fill="#868687"/>
</g>
<defs>
<clipPath id="clip0_6915_17611">
<rect width="14" height="14" fill="white" transform="translate(0 0.939453)"/>
</clipPath>
</defs>
</svg>
