<svg width="40" height="41" viewBox="0 0 40 41" fill="none" xmlns="http://www.w3.org/2000/svg">
<g clip-path="url(#clip0_243_34597)">
<rect y="0.499756" width="40" height="40" rx="9.52943" fill="white"/>
<g clip-path="url(#clip1_243_34597)">
<path d="M0.000488281 10.0292C0.000488281 4.76623 4.26696 0.499756 9.52991 0.499756H30.4711C35.734 0.499756 40.0005 4.76622 40.0005 10.0292V30.9703C40.0005 36.2333 35.734 40.4998 30.4711 40.4998H9.52991C4.26696 40.4998 0.000488281 36.2333 0.000488281 30.9703V10.0292Z" fill="#0059FF"/>
<circle cx="28.8889" cy="29.1423" r="13.8376" fill="#1E8FFF"/>
<circle cx="3.89017" cy="10.2422" r="15.5977" fill="#0351E4"/>
<g filter="url(#filter0_d_243_34597)">
<path d="M30.4233 26.4554V28.3166C30.4233 29.3433 29.5879 30.1778 28.562 30.1778H12.5556C10.9132 30.1778 9.57764 28.8422 9.57764 27.1999C9.57764 27.1999 9.57764 14.5548 9.57764 14.5436C9.57764 12.9013 10.9132 11.5657 12.5556 11.5657H26.3286C26.9458 11.5657 27.4453 12.066 27.4453 12.6824C27.4453 13.2988 26.9458 13.7991 26.3286 13.7991H12.5556C12.1454 13.7991 11.8111 14.1327 11.8111 14.5436C11.8111 14.9546 12.1454 15.2881 12.5556 15.2881H28.562C29.5879 15.2881 30.4233 16.1227 30.4233 17.1493V19.0105H26.7008C24.6483 19.0105 22.9784 20.6804 22.9784 22.733C22.9784 24.7855 24.6483 26.4554 26.7008 26.4554H30.4233Z" fill="url(#paint0_linear_243_34597)" shape-rendering="crispEdges"/>
</g>
<path d="M30.4232 20.4995V24.9664H26.7007C25.4671 24.9664 24.4673 23.9666 24.4673 22.733C24.4673 21.4994 25.4671 20.4995 26.7007 20.4995H30.4232Z" fill="url(#paint1_linear_243_34597)"/>
</g>
</g>
<defs>
<filter id="filter0_d_243_34597" x="4.81292" y="9.18332" width="30.3751" height="28.1415" filterUnits="userSpaceOnUse" color-interpolation-filters="sRGB">
<feFlood flood-opacity="0" result="BackgroundImageFix"/>
<feColorMatrix in="SourceAlpha" type="matrix" values="0 0 0 0 0 0 0 0 0 0 0 0 0 0 0 0 0 0 127 0" result="hardAlpha"/>
<feOffset dy="2.38236"/>
<feGaussianBlur stdDeviation="2.38236"/>
<feComposite in2="hardAlpha" operator="out"/>
<feColorMatrix type="matrix" values="0 0 0 0 0 0 0 0 0 0 0 0 0 0 0 0 0 0 0.15 0"/>
<feBlend mode="normal" in2="BackgroundImageFix" result="effect1_dropShadow_243_34597"/>
<feBlend mode="normal" in="SourceGraphic" in2="effect1_dropShadow_243_34597" result="shape"/>
</filter>
<linearGradient id="paint0_linear_243_34597" x1="20.0004" y1="11.5657" x2="16.8" y2="35.0866" gradientUnits="userSpaceOnUse">
<stop stop-color="white"/>
<stop offset="1" stop-color="white" stop-opacity="0.6"/>
</linearGradient>
<linearGradient id="paint1_linear_243_34597" x1="27.4452" y1="20.4995" x2="26.7966" y2="26.1749" gradientUnits="userSpaceOnUse">
<stop stop-color="white"/>
<stop offset="1" stop-color="white" stop-opacity="0.4"/>
</linearGradient>
<clipPath id="clip0_243_34597">
<rect y="0.499756" width="40" height="40" rx="9.52943" fill="white"/>
</clipPath>
<clipPath id="clip1_243_34597">
<path d="M0.000488281 10.0292C0.000488281 4.76623 4.26696 0.499756 9.52991 0.499756H30.4711C35.734 0.499756 40.0005 4.76622 40.0005 10.0292V30.9703C40.0005 36.2333 35.734 40.4998 30.4711 40.4998H9.52991C4.26696 40.4998 0.000488281 36.2333 0.000488281 30.9703V10.0292Z" fill="white"/>
</clipPath>
</defs>
</svg>
