<svg width="20" height="20" viewBox="0 0 20 20" fill="none" xmlns="http://www.w3.org/2000/svg">
<g clip-path="url(#clip0_7066_26204)">
<path d="M0.862061 10.6989L0.502536 14.5538C0.462588 14.9932 0.902008 15.2928 1.30148 15.0931L2.22027 14.6337C3.79819 17.2702 6.69436 19.0479 9.99001 19.0479C14.0646 19.0479 17.5001 16.3514 18.6386 12.6563C18.7385 12.3567 18.4988 12.0371 18.1792 12.0371H17.0407C16.841 12.0371 16.6612 12.1569 16.6013 12.3367C15.6426 15.0531 13.026 17.0105 9.99001 17.0105C7.49331 17.0105 5.27623 15.6923 4.03787 13.7149L4.95666 13.2555C5.33616 13.0558 5.35613 12.5165 4.9966 12.2968L1.68098 10.2994C1.34143 10.0797 0.902008 10.2994 0.862061 10.6989Z" fill="#1E8FFF"/>
<path d="M9.99183 0.952248C5.91721 0.952248 2.48174 3.64869 1.34325 7.34381C1.24338 7.64342 1.48306 7.96299 1.80264 7.96299H2.94114C3.14087 7.96299 3.32064 7.84315 3.38056 7.66339C4.33929 4.94698 6.95584 2.98956 9.99183 2.98956C12.4885 2.98956 14.7056 4.30782 15.944 6.28521L15.0252 6.74461C14.6457 6.94434 14.6257 7.48363 14.9852 7.70334L18.3009 9.7007C18.6404 9.92041 19.0998 9.68073 19.1398 9.28126L19.4993 5.42634C19.5392 4.98693 19.0998 4.68732 18.7003 4.88706L17.7816 5.34645C16.1837 2.7299 13.2875 0.952248 9.99183 0.952248Z" fill="#1E8FFF"/>
</g>
<defs>
<clipPath id="clip0_7066_26204">
<rect width="20" height="20" fill="white" transform="matrix(0 -1 1 0 0 20)"/>
</clipPath>
</defs>
</svg>
